<?xml version="1.0" encoding="UTF-8"?>
<svg xmlns="http://www.w3.org/2000/svg" viewBox="0 0 200 270" width="200" height="270"><circle cx="56.00" cy="74.00" r="8.50" fill="none" stroke="#185fa5" stroke-width="3.00"/><circle cx="56.00" cy="74.00" r="4.20" fill="none" stroke="#185fa5" stroke-width="1.10"/><circle cx="56.00" cy="74.00" r="2.00" fill="#185fa5"/><circle cx="74.60" cy="72.31" r="8.50" fill="none" stroke="#1f7a44" stroke-width="3.00"/><circle cx="74.60" cy="72.31" r="4.20" fill="none" stroke="#1f7a44" stroke-width="1.10"/><circle cx="74.60" cy="72.31" r="2.00" fill="#1f7a44"/><circle cx="93.21" cy="70.62" r="8.50" fill="none" stroke="#185fa5" stroke-width="3.00"/><circle cx="93.21" cy="70.62" r="4.20" fill="none" stroke="#185fa5" stroke-width="1.10"/><circle cx="93.21" cy="70.62" r="2.00" fill="#185fa5"/><circle cx="111.81" cy="71.07" r="8.50" fill="none" stroke="#1f7a44" stroke-width="3.00"/><circle cx="111.81" cy="71.07" r="4.20" fill="none" stroke="#1f7a44" stroke-width="1.10"/><circle cx="111.81" cy="71.07" r="2.00" fill="#1f7a44"/><circle cx="130.42" cy="72.77" r="8.50" fill="none" stroke="#185fa5" stroke-width="3.00"/><circle cx="130.42" cy="72.77" r="4.20" fill="none" stroke="#185fa5" stroke-width="1.10"/><circle cx="130.42" cy="72.77" r="2.00" fill="#185fa5"/><circle cx="144.27" cy="79.04" r="8.50" fill="none" stroke="#1f7a44" stroke-width="3.00"/><circle cx="144.27" cy="79.04" r="4.20" fill="none" stroke="#1f7a44" stroke-width="1.10"/><circle cx="144.27" cy="79.04" r="2.00" fill="#1f7a44"/><circle cx="145.25" cy="97.69" r="8.50" fill="none" stroke="#185fa5" stroke-width="3.00"/><circle cx="145.25" cy="97.69" r="4.20" fill="none" stroke="#185fa5" stroke-width="1.10"/><circle cx="145.25" cy="97.69" r="2.00" fill="#185fa5"/><circle cx="145.15" cy="116.27" r="8.50" fill="none" stroke="#1f7a44" stroke-width="3.00"/><circle cx="145.15" cy="116.27" r="4.20" fill="none" stroke="#1f7a44" stroke-width="1.10"/><circle cx="145.15" cy="116.27" r="2.00" fill="#1f7a44"/><circle cx="141.48" cy="134.59" r="8.50" fill="none" stroke="#185fa5" stroke-width="3.00"/><circle cx="141.48" cy="134.59" r="4.20" fill="none" stroke="#185fa5" stroke-width="1.10"/><circle cx="141.48" cy="134.59" r="2.00" fill="#185fa5"/><circle cx="134.11" cy="151.43" r="8.50" fill="none" stroke="#1f7a44" stroke-width="3.00"/><circle cx="134.11" cy="151.43" r="4.20" fill="none" stroke="#1f7a44" stroke-width="1.10"/><circle cx="134.11" cy="151.43" r="2.00" fill="#1f7a44"/><circle cx="124.20" cy="167.27" r="8.50" fill="none" stroke="#185fa5" stroke-width="3.00"/><circle cx="124.20" cy="167.27" r="4.20" fill="none" stroke="#185fa5" stroke-width="1.10"/><circle cx="124.20" cy="167.27" r="2.00" fill="#185fa5"/><circle cx="112.01" cy="181.19" r="8.50" fill="none" stroke="#1f7a44" stroke-width="3.00"/><circle cx="112.01" cy="181.19" r="4.20" fill="none" stroke="#1f7a44" stroke-width="1.10"/><circle cx="112.01" cy="181.19" r="2.00" fill="#1f7a44"/><circle cx="98.13" cy="190.31" r="8.50" fill="none" stroke="#185fa5" stroke-width="3.00"/><circle cx="98.13" cy="190.31" r="4.20" fill="none" stroke="#185fa5" stroke-width="1.10"/><circle cx="98.13" cy="190.31" r="2.00" fill="#185fa5"/><circle cx="84.24" cy="177.82" r="8.50" fill="none" stroke="#1f7a44" stroke-width="3.00"/><circle cx="84.24" cy="177.82" r="4.20" fill="none" stroke="#1f7a44" stroke-width="1.10"/><circle cx="84.24" cy="177.82" r="2.00" fill="#1f7a44"/><circle cx="73.12" cy="163.00" r="8.50" fill="none" stroke="#185fa5" stroke-width="3.00"/><circle cx="73.12" cy="163.00" r="4.20" fill="none" stroke="#185fa5" stroke-width="1.10"/><circle cx="73.12" cy="163.00" r="2.00" fill="#185fa5"/><circle cx="63.22" cy="147.15" r="8.50" fill="none" stroke="#1f7a44" stroke-width="3.00"/><circle cx="63.22" cy="147.15" r="4.20" fill="none" stroke="#1f7a44" stroke-width="1.10"/><circle cx="63.22" cy="147.15" r="2.00" fill="#1f7a44"/><circle cx="57.53" cy="129.64" r="8.50" fill="none" stroke="#185fa5" stroke-width="3.00"/><circle cx="57.53" cy="129.64" r="4.20" fill="none" stroke="#185fa5" stroke-width="1.10"/><circle cx="57.53" cy="129.64" r="2.00" fill="#185fa5"/><circle cx="54.04" cy="111.31" r="8.50" fill="none" stroke="#1f7a44" stroke-width="3.00"/><circle cx="54.04" cy="111.31" r="4.20" fill="none" stroke="#1f7a44" stroke-width="1.10"/><circle cx="54.04" cy="111.31" r="2.00" fill="#1f7a44"/><circle cx="55.02" cy="92.66" r="8.50" fill="none" stroke="#185fa5" stroke-width="3.00"/><circle cx="55.02" cy="92.66" r="4.20" fill="none" stroke="#185fa5" stroke-width="1.10"/><circle cx="55.02" cy="92.66" r="2.00" fill="#185fa5"/><circle cx="100" cy="126" r="27" fill="none" stroke="#1f7a44" stroke-width="8"/><circle cx="100" cy="126" r="14" fill="none" stroke="#1f7a44" stroke-width="6"/><path d="M100 110 L100 142 M84 126 L116 126" fill="none" stroke="#c0392b" stroke-width="7" stroke-linecap="round" stroke-linejoin="round"/></svg>