<?xml version="1.0" encoding="UTF-8"?>
<svg xmlns="http://www.w3.org/2000/svg" viewBox="0 0 200 270" width="200" height="270"><circle cx="48.00" cy="98.00" r="7.65" fill="none" stroke="#185fa5" stroke-width="2.70"/><circle cx="48.00" cy="98.00" r="3.78" fill="none" stroke="#185fa5" stroke-width="0.99"/><circle cx="48.00" cy="98.00" r="1.80" fill="#185fa5"/><circle cx="64.95" cy="98.00" r="7.65" fill="none" stroke="#1f7a44" stroke-width="2.70"/><circle cx="64.95" cy="98.00" r="3.78" fill="none" stroke="#1f7a44" stroke-width="0.99"/><circle cx="64.95" cy="98.00" r="1.80" fill="#1f7a44"/><circle cx="81.90" cy="98.00" r="7.65" fill="none" stroke="#185fa5" stroke-width="2.70"/><circle cx="81.90" cy="98.00" r="3.78" fill="none" stroke="#185fa5" stroke-width="0.99"/><circle cx="81.90" cy="98.00" r="1.80" fill="#185fa5"/><circle cx="98.86" cy="98.00" r="7.65" fill="none" stroke="#1f7a44" stroke-width="2.70"/><circle cx="98.86" cy="98.00" r="3.78" fill="none" stroke="#1f7a44" stroke-width="0.99"/><circle cx="98.86" cy="98.00" r="1.80" fill="#1f7a44"/><circle cx="115.81" cy="98.00" r="7.65" fill="none" stroke="#185fa5" stroke-width="2.70"/><circle cx="115.81" cy="98.00" r="3.78" fill="none" stroke="#185fa5" stroke-width="0.99"/><circle cx="115.81" cy="98.00" r="1.80" fill="#185fa5"/><circle cx="132.76" cy="98.00" r="7.65" fill="none" stroke="#1f7a44" stroke-width="2.70"/><circle cx="132.76" cy="98.00" r="3.78" fill="none" stroke="#1f7a44" stroke-width="0.99"/><circle cx="132.76" cy="98.00" r="1.80" fill="#1f7a44"/><circle cx="149.71" cy="98.00" r="7.65" fill="none" stroke="#185fa5" stroke-width="2.70"/><circle cx="149.71" cy="98.00" r="3.78" fill="none" stroke="#185fa5" stroke-width="0.99"/><circle cx="149.71" cy="98.00" r="1.80" fill="#185fa5"/><circle cx="152.00" cy="112.67" r="7.65" fill="none" stroke="#1f7a44" stroke-width="2.70"/><circle cx="152.00" cy="112.67" r="3.78" fill="none" stroke="#1f7a44" stroke-width="0.99"/><circle cx="152.00" cy="112.67" r="1.80" fill="#1f7a44"/><circle cx="152.00" cy="129.62" r="7.65" fill="none" stroke="#185fa5" stroke-width="2.70"/><circle cx="152.00" cy="129.62" r="3.78" fill="none" stroke="#185fa5" stroke-width="0.99"/><circle cx="152.00" cy="129.62" r="1.80" fill="#185fa5"/><circle cx="152.00" cy="146.57" r="7.65" fill="none" stroke="#1f7a44" stroke-width="2.70"/><circle cx="152.00" cy="146.57" r="3.78" fill="none" stroke="#1f7a44" stroke-width="0.99"/><circle cx="152.00" cy="146.57" r="1.80" fill="#1f7a44"/><circle cx="152.00" cy="163.52" r="7.65" fill="none" stroke="#185fa5" stroke-width="2.70"/><circle cx="152.00" cy="163.52" r="3.78" fill="none" stroke="#185fa5" stroke-width="0.99"/><circle cx="152.00" cy="163.52" r="1.80" fill="#185fa5"/><circle cx="143.52" cy="172.00" r="7.65" fill="none" stroke="#1f7a44" stroke-width="2.70"/><circle cx="143.52" cy="172.00" r="3.78" fill="none" stroke="#1f7a44" stroke-width="0.99"/><circle cx="143.52" cy="172.00" r="1.80" fill="#1f7a44"/><circle cx="126.57" cy="172.00" r="7.65" fill="none" stroke="#185fa5" stroke-width="2.70"/><circle cx="126.57" cy="172.00" r="3.78" fill="none" stroke="#185fa5" stroke-width="0.99"/><circle cx="126.57" cy="172.00" r="1.80" fill="#185fa5"/><circle cx="109.62" cy="172.00" r="7.65" fill="none" stroke="#1f7a44" stroke-width="2.70"/><circle cx="109.62" cy="172.00" r="3.78" fill="none" stroke="#1f7a44" stroke-width="0.99"/><circle cx="109.62" cy="172.00" r="1.80" fill="#1f7a44"/><circle cx="92.67" cy="172.00" r="7.65" fill="none" stroke="#185fa5" stroke-width="2.70"/><circle cx="92.67" cy="172.00" r="3.78" fill="none" stroke="#185fa5" stroke-width="0.99"/><circle cx="92.67" cy="172.00" r="1.80" fill="#185fa5"/><circle cx="75.71" cy="172.00" r="7.65" fill="none" stroke="#1f7a44" stroke-width="2.70"/><circle cx="75.71" cy="172.00" r="3.78" fill="none" stroke="#1f7a44" stroke-width="0.99"/><circle cx="75.71" cy="172.00" r="1.80" fill="#1f7a44"/><circle cx="58.76" cy="172.00" r="7.65" fill="none" stroke="#185fa5" stroke-width="2.70"/><circle cx="58.76" cy="172.00" r="3.78" fill="none" stroke="#185fa5" stroke-width="0.99"/><circle cx="58.76" cy="172.00" r="1.80" fill="#185fa5"/><circle cx="48.00" cy="165.81" r="7.65" fill="none" stroke="#1f7a44" stroke-width="2.70"/><circle cx="48.00" cy="165.81" r="3.78" fill="none" stroke="#1f7a44" stroke-width="0.99"/><circle cx="48.00" cy="165.81" r="1.80" fill="#1f7a44"/><circle cx="48.00" cy="148.86" r="7.65" fill="none" stroke="#185fa5" stroke-width="2.70"/><circle cx="48.00" cy="148.86" r="3.78" fill="none" stroke="#185fa5" stroke-width="0.99"/><circle cx="48.00" cy="148.86" r="1.80" fill="#185fa5"/><circle cx="48.00" cy="131.90" r="7.65" fill="none" stroke="#1f7a44" stroke-width="2.70"/><circle cx="48.00" cy="131.90" r="3.78" fill="none" stroke="#1f7a44" stroke-width="0.99"/><circle cx="48.00" cy="131.90" r="1.80" fill="#1f7a44"/><circle cx="48.00" cy="114.95" r="7.65" fill="none" stroke="#185fa5" stroke-width="2.70"/><circle cx="48.00" cy="114.95" r="3.78" fill="none" stroke="#185fa5" stroke-width="0.99"/><circle cx="48.00" cy="114.95" r="1.80" fill="#185fa5"/><rect x="60" y="114" width="32" height="44" rx="3" fill="#1d9e75"/><circle cx="76" cy="129" r="7.5" fill="#f5e9c8"/><path d="M63 156 Q76 139 89 156 Z" fill="#f5e9c8"/><rect x="104" y="120" width="42" height="6" rx="3" fill="#185fa5"/><rect x="104" y="133" width="42" height="6" rx="3" fill="#185fa5"/><rect x="104" y="146" width="28" height="6" rx="3" fill="#c0392b"/></svg>