<?xml version="1.0" encoding="UTF-8"?>
<svg xmlns="http://www.w3.org/2000/svg" viewBox="0 0 200 270" width="200" height="270"><circle cx="80.00" cy="110.00" r="10.20" fill="none" stroke="#1f7a44" stroke-width="3.60"/><circle cx="80.00" cy="110.00" r="5.04" fill="none" stroke="#1f7a44" stroke-width="1.32"/><circle cx="80.00" cy="110.00" r="2.40" fill="#1f7a44"/><circle cx="78.12" cy="91.20" r="10.20" fill="none" stroke="#c0392b" stroke-width="3.60"/><circle cx="78.12" cy="91.20" r="5.04" fill="none" stroke="#c0392b" stroke-width="1.32"/><circle cx="78.12" cy="91.20" r="2.40" fill="#c0392b"/><circle cx="90.51" cy="77.49" r="10.20" fill="none" stroke="#185fa5" stroke-width="3.60"/><circle cx="90.51" cy="77.49" r="5.04" fill="none" stroke="#185fa5" stroke-width="1.32"/><circle cx="90.51" cy="77.49" r="2.40" fill="#185fa5"/><circle cx="108.71" cy="77.67" r="10.20" fill="none" stroke="#1c1c1c" stroke-width="3.60"/><circle cx="108.71" cy="77.67" r="5.04" fill="none" stroke="#1c1c1c" stroke-width="1.32"/><circle cx="108.71" cy="77.67" r="2.40" fill="#1c1c1c"/><circle cx="121.35" cy="90.47" r="10.20" fill="none" stroke="#1f7a44" stroke-width="3.60"/><circle cx="121.35" cy="90.47" r="5.04" fill="none" stroke="#1f7a44" stroke-width="1.32"/><circle cx="121.35" cy="90.47" r="2.40" fill="#1f7a44"/><circle cx="118.12" cy="107.24" r="10.20" fill="none" stroke="#c0392b" stroke-width="3.60"/><circle cx="118.12" cy="107.24" r="5.04" fill="none" stroke="#c0392b" stroke-width="1.32"/><circle cx="118.12" cy="107.24" r="2.40" fill="#c0392b"/><circle cx="105.61" cy="120.91" r="10.20" fill="none" stroke="#185fa5" stroke-width="3.60"/><circle cx="105.61" cy="120.91" r="5.04" fill="none" stroke="#185fa5" stroke-width="1.32"/><circle cx="105.61" cy="120.91" r="2.40" fill="#185fa5"/><circle cx="100.00" cy="138.00" r="10.20" fill="none" stroke="#1c1c1c" stroke-width="3.60"/><circle cx="100.00" cy="138.00" r="5.04" fill="none" stroke="#1c1c1c" stroke-width="1.32"/><circle cx="100.00" cy="138.00" r="2.40" fill="#1c1c1c"/><circle cx="100.00" cy="168.00" r="10.20" fill="none" stroke="#c0392b" stroke-width="3.60"/><circle cx="100.00" cy="168.00" r="5.04" fill="none" stroke="#c0392b" stroke-width="1.32"/><circle cx="100.00" cy="168.00" r="2.40" fill="#c0392b"/></svg>