<?xml version="1.0" encoding="UTF-8"?>
<svg xmlns="http://www.w3.org/2000/svg" viewBox="0 0 200 270" width="200" height="270"><circle cx="100.00" cy="68.00" r="6.80" fill="none" stroke="#185fa5" stroke-width="2.40"/><circle cx="100.00" cy="68.00" r="3.36" fill="none" stroke="#185fa5" stroke-width="0.88"/><circle cx="100.00" cy="68.00" r="1.60" fill="#185fa5"/><circle cx="104.94" cy="82.25" r="6.80" fill="none" stroke="#1f7a44" stroke-width="2.40"/><circle cx="104.94" cy="82.25" r="3.36" fill="none" stroke="#1f7a44" stroke-width="0.88"/><circle cx="104.94" cy="82.25" r="1.60" fill="#1f7a44"/><circle cx="109.87" cy="96.50" r="6.80" fill="none" stroke="#185fa5" stroke-width="2.40"/><circle cx="109.87" cy="96.50" r="3.36" fill="none" stroke="#185fa5" stroke-width="0.88"/><circle cx="109.87" cy="96.50" r="1.60" fill="#185fa5"/><circle cx="121.44" cy="96.98" r="6.80" fill="none" stroke="#1f7a44" stroke-width="2.40"/><circle cx="121.44" cy="96.98" r="3.36" fill="none" stroke="#1f7a44" stroke-width="0.88"/><circle cx="121.44" cy="96.98" r="1.60" fill="#1f7a44"/><circle cx="135.66" cy="91.96" r="6.80" fill="none" stroke="#185fa5" stroke-width="2.40"/><circle cx="135.66" cy="91.96" r="3.36" fill="none" stroke="#185fa5" stroke-width="0.88"/><circle cx="135.66" cy="91.96" r="1.60" fill="#185fa5"/><circle cx="140.33" cy="94.55" r="6.80" fill="none" stroke="#1f7a44" stroke-width="2.40"/><circle cx="140.33" cy="94.55" r="3.36" fill="none" stroke="#1f7a44" stroke-width="0.88"/><circle cx="140.33" cy="94.55" r="1.60" fill="#1f7a44"/><circle cx="132.26" cy="107.29" r="6.80" fill="none" stroke="#185fa5" stroke-width="2.40"/><circle cx="132.26" cy="107.29" r="3.36" fill="none" stroke="#185fa5" stroke-width="0.88"/><circle cx="132.26" cy="107.29" r="1.60" fill="#185fa5"/><circle cx="127.18" cy="119.35" r="6.80" fill="none" stroke="#1f7a44" stroke-width="2.40"/><circle cx="127.18" cy="119.35" r="3.36" fill="none" stroke="#1f7a44" stroke-width="0.88"/><circle cx="127.18" cy="119.35" r="1.60" fill="#1f7a44"/><circle cx="139.97" cy="127.34" r="6.80" fill="none" stroke="#185fa5" stroke-width="2.40"/><circle cx="139.97" cy="127.34" r="3.36" fill="none" stroke="#185fa5" stroke-width="0.88"/><circle cx="139.97" cy="127.34" r="1.60" fill="#185fa5"/><circle cx="152.77" cy="135.32" r="6.80" fill="none" stroke="#1f7a44" stroke-width="2.40"/><circle cx="152.77" cy="135.32" r="3.36" fill="none" stroke="#1f7a44" stroke-width="0.88"/><circle cx="152.77" cy="135.32" r="1.60" fill="#1f7a44"/><circle cx="141.75" cy="137.87" r="6.80" fill="none" stroke="#185fa5" stroke-width="2.40"/><circle cx="141.75" cy="137.87" r="3.36" fill="none" stroke="#185fa5" stroke-width="0.88"/><circle cx="141.75" cy="137.87" r="1.60" fill="#185fa5"/><circle cx="126.75" cy="139.51" r="6.80" fill="none" stroke="#1f7a44" stroke-width="2.40"/><circle cx="126.75" cy="139.51" r="3.36" fill="none" stroke="#1f7a44" stroke-width="0.88"/><circle cx="126.75" cy="139.51" r="1.60" fill="#1f7a44"/><circle cx="121.32" cy="148.77" r="6.80" fill="none" stroke="#185fa5" stroke-width="2.40"/><circle cx="121.32" cy="148.77" r="3.36" fill="none" stroke="#185fa5" stroke-width="0.88"/><circle cx="121.32" cy="148.77" r="1.60" fill="#185fa5"/><circle cx="123.06" cy="163.75" r="6.80" fill="none" stroke="#1f7a44" stroke-width="2.40"/><circle cx="123.06" cy="163.75" r="3.36" fill="none" stroke="#1f7a44" stroke-width="0.88"/><circle cx="123.06" cy="163.75" r="1.60" fill="#1f7a44"/><circle cx="121.26" cy="171.40" r="6.80" fill="none" stroke="#185fa5" stroke-width="2.40"/><circle cx="121.26" cy="171.40" r="3.36" fill="none" stroke="#185fa5" stroke-width="0.88"/><circle cx="121.26" cy="171.40" r="1.60" fill="#185fa5"/><circle cx="110.63" cy="160.70" r="6.80" fill="none" stroke="#1f7a44" stroke-width="2.40"/><circle cx="110.63" cy="160.70" r="3.36" fill="none" stroke="#1f7a44" stroke-width="0.88"/><circle cx="110.63" cy="160.70" r="1.60" fill="#1f7a44"/><circle cx="100.00" cy="150.00" r="6.80" fill="none" stroke="#185fa5" stroke-width="2.40"/><circle cx="100.00" cy="150.00" r="3.36" fill="none" stroke="#185fa5" stroke-width="0.88"/><circle cx="100.00" cy="150.00" r="1.60" fill="#185fa5"/><circle cx="89.37" cy="160.70" r="6.80" fill="none" stroke="#1f7a44" stroke-width="2.40"/><circle cx="89.37" cy="160.70" r="3.36" fill="none" stroke="#1f7a44" stroke-width="0.88"/><circle cx="89.37" cy="160.70" r="1.60" fill="#1f7a44"/><circle cx="78.74" cy="171.40" r="6.80" fill="none" stroke="#185fa5" stroke-width="2.40"/><circle cx="78.74" cy="171.40" r="3.36" fill="none" stroke="#185fa5" stroke-width="0.88"/><circle cx="78.74" cy="171.40" r="1.60" fill="#185fa5"/><circle cx="76.94" cy="163.75" r="6.80" fill="none" stroke="#1f7a44" stroke-width="2.40"/><circle cx="76.94" cy="163.75" r="3.36" fill="none" stroke="#1f7a44" stroke-width="0.88"/><circle cx="76.94" cy="163.75" r="1.60" fill="#1f7a44"/><circle cx="78.68" cy="148.77" r="6.80" fill="none" stroke="#185fa5" stroke-width="2.40"/><circle cx="78.68" cy="148.77" r="3.36" fill="none" stroke="#185fa5" stroke-width="0.88"/><circle cx="78.68" cy="148.77" r="1.60" fill="#185fa5"/><circle cx="73.25" cy="139.51" r="6.80" fill="none" stroke="#1f7a44" stroke-width="2.40"/><circle cx="73.25" cy="139.51" r="3.36" fill="none" stroke="#1f7a44" stroke-width="0.88"/><circle cx="73.25" cy="139.51" r="1.60" fill="#1f7a44"/><circle cx="58.25" cy="137.87" r="6.80" fill="none" stroke="#185fa5" stroke-width="2.40"/><circle cx="58.25" cy="137.87" r="3.36" fill="none" stroke="#185fa5" stroke-width="0.88"/><circle cx="58.25" cy="137.87" r="1.60" fill="#185fa5"/><circle cx="47.23" cy="135.32" r="6.80" fill="none" stroke="#1f7a44" stroke-width="2.40"/><circle cx="47.23" cy="135.32" r="3.36" fill="none" stroke="#1f7a44" stroke-width="0.88"/><circle cx="47.23" cy="135.32" r="1.60" fill="#1f7a44"/><circle cx="60.03" cy="127.34" r="6.80" fill="none" stroke="#185fa5" stroke-width="2.40"/><circle cx="60.03" cy="127.34" r="3.36" fill="none" stroke="#185fa5" stroke-width="0.88"/><circle cx="60.03" cy="127.34" r="1.60" fill="#185fa5"/><circle cx="72.82" cy="119.35" r="6.80" fill="none" stroke="#1f7a44" stroke-width="2.40"/><circle cx="72.82" cy="119.35" r="3.36" fill="none" stroke="#1f7a44" stroke-width="0.88"/><circle cx="72.82" cy="119.35" r="1.60" fill="#1f7a44"/><circle cx="67.74" cy="107.29" r="6.80" fill="none" stroke="#185fa5" stroke-width="2.40"/><circle cx="67.74" cy="107.29" r="3.36" fill="none" stroke="#185fa5" stroke-width="0.88"/><circle cx="67.74" cy="107.29" r="1.60" fill="#185fa5"/><circle cx="59.67" cy="94.55" r="6.80" fill="none" stroke="#1f7a44" stroke-width="2.40"/><circle cx="59.67" cy="94.55" r="3.36" fill="none" stroke="#1f7a44" stroke-width="0.88"/><circle cx="59.67" cy="94.55" r="1.60" fill="#1f7a44"/><circle cx="64.34" cy="91.96" r="6.80" fill="none" stroke="#185fa5" stroke-width="2.40"/><circle cx="64.34" cy="91.96" r="3.36" fill="none" stroke="#185fa5" stroke-width="0.88"/><circle cx="64.34" cy="91.96" r="1.60" fill="#185fa5"/><circle cx="78.56" cy="96.98" r="6.80" fill="none" stroke="#1f7a44" stroke-width="2.40"/><circle cx="78.56" cy="96.98" r="3.36" fill="none" stroke="#1f7a44" stroke-width="0.88"/><circle cx="78.56" cy="96.98" r="1.60" fill="#1f7a44"/><circle cx="90.13" cy="96.50" r="6.80" fill="none" stroke="#185fa5" stroke-width="2.40"/><circle cx="90.13" cy="96.50" r="3.36" fill="none" stroke="#185fa5" stroke-width="0.88"/><circle cx="90.13" cy="96.50" r="1.60" fill="#185fa5"/><circle cx="95.06" cy="82.25" r="6.80" fill="none" stroke="#1f7a44" stroke-width="2.40"/><circle cx="95.06" cy="82.25" r="3.36" fill="none" stroke="#1f7a44" stroke-width="0.88"/><circle cx="95.06" cy="82.25" r="1.60" fill="#1f7a44"/><circle cx="100.00" cy="124.00" r="12.75" fill="none" stroke="#c0392b" stroke-width="4.50"/><circle cx="100.00" cy="124.00" r="6.30" fill="none" stroke="#c0392b" stroke-width="1.65"/><circle cx="100.00" cy="124.00" r="3.00" fill="#c0392b"/></svg>