<?xml version="1.0" encoding="UTF-8"?>
<svg xmlns="http://www.w3.org/2000/svg" viewBox="0 0 200 270" width="200" height="270"><circle cx="75.72" cy="112.28" r="9.35" fill="none" stroke="#185fa5" stroke-width="3.30"/><circle cx="75.72" cy="112.28" r="4.62" fill="none" stroke="#185fa5" stroke-width="1.21"/><circle cx="75.72" cy="112.28" r="2.20" fill="#185fa5"/><circle cx="77.56" cy="131.11" r="9.35" fill="none" stroke="#c0392b" stroke-width="3.30"/><circle cx="77.56" cy="131.11" r="4.62" fill="none" stroke="#c0392b" stroke-width="1.21"/><circle cx="77.56" cy="131.11" r="2.20" fill="#c0392b"/><circle cx="85.50" cy="146.50" r="9.35" fill="none" stroke="#1f7a44" stroke-width="3.30"/><circle cx="85.50" cy="146.50" r="4.62" fill="none" stroke="#1f7a44" stroke-width="1.21"/><circle cx="85.50" cy="146.50" r="2.20" fill="#1f7a44"/><circle cx="99.56" cy="158.44" r="9.35" fill="none" stroke="#185fa5" stroke-width="3.30"/><circle cx="99.56" cy="158.44" r="4.62" fill="none" stroke="#185fa5" stroke-width="1.21"/><circle cx="99.56" cy="158.44" r="2.20" fill="#185fa5"/><circle cx="119.72" cy="166.94" r="9.35" fill="none" stroke="#c0392b" stroke-width="3.30"/><circle cx="119.72" cy="166.94" r="4.62" fill="none" stroke="#c0392b" stroke-width="1.21"/><circle cx="119.72" cy="166.94" r="2.20" fill="#c0392b"/><circle cx="80.00" cy="90.00" r="13.60" fill="none" stroke="#1f7a44" stroke-width="4.80"/><circle cx="80.00" cy="90.00" r="6.72" fill="none" stroke="#1f7a44" stroke-width="1.76"/><circle cx="80.00" cy="90.00" r="3.20" fill="#1f7a44"/><circle cx="146.00" cy="172.00" r="13.60" fill="none" stroke="#1f7a44" stroke-width="4.80"/><circle cx="146.00" cy="172.00" r="6.72" fill="none" stroke="#1f7a44" stroke-width="1.76"/><circle cx="146.00" cy="172.00" r="3.20" fill="#1f7a44"/></svg>