<?xml version="1.0" encoding="UTF-8"?>
<svg xmlns="http://www.w3.org/2000/svg" viewBox="0 0 200 270" width="200" height="270"><circle cx="90.00" cy="80.00" r="7.65" fill="none" stroke="#185fa5" stroke-width="2.70"/><circle cx="90.00" cy="80.00" r="3.78" fill="none" stroke="#185fa5" stroke-width="0.99"/><circle cx="90.00" cy="80.00" r="1.80" fill="#185fa5"/><circle cx="105.56" cy="86.44" r="7.65" fill="none" stroke="#1f7a44" stroke-width="2.70"/><circle cx="105.56" cy="86.44" r="3.78" fill="none" stroke="#1f7a44" stroke-width="0.99"/><circle cx="105.56" cy="86.44" r="1.80" fill="#1f7a44"/><circle cx="112.00" cy="102.00" r="7.65" fill="none" stroke="#185fa5" stroke-width="2.70"/><circle cx="112.00" cy="102.00" r="3.78" fill="none" stroke="#185fa5" stroke-width="0.99"/><circle cx="112.00" cy="102.00" r="1.80" fill="#185fa5"/><circle cx="105.56" cy="117.56" r="7.65" fill="none" stroke="#1f7a44" stroke-width="2.70"/><circle cx="105.56" cy="117.56" r="3.78" fill="none" stroke="#1f7a44" stroke-width="0.99"/><circle cx="105.56" cy="117.56" r="1.80" fill="#1f7a44"/><circle cx="90.00" cy="124.00" r="7.65" fill="none" stroke="#185fa5" stroke-width="2.70"/><circle cx="90.00" cy="124.00" r="3.78" fill="none" stroke="#185fa5" stroke-width="0.99"/><circle cx="90.00" cy="124.00" r="1.80" fill="#185fa5"/><circle cx="74.44" cy="117.56" r="7.65" fill="none" stroke="#1f7a44" stroke-width="2.70"/><circle cx="74.44" cy="117.56" r="3.78" fill="none" stroke="#1f7a44" stroke-width="0.99"/><circle cx="74.44" cy="117.56" r="1.80" fill="#1f7a44"/><circle cx="68.00" cy="102.00" r="7.65" fill="none" stroke="#185fa5" stroke-width="2.70"/><circle cx="68.00" cy="102.00" r="3.78" fill="none" stroke="#185fa5" stroke-width="0.99"/><circle cx="68.00" cy="102.00" r="1.80" fill="#185fa5"/><circle cx="74.44" cy="86.44" r="7.65" fill="none" stroke="#1f7a44" stroke-width="2.70"/><circle cx="74.44" cy="86.44" r="3.78" fill="none" stroke="#1f7a44" stroke-width="0.99"/><circle cx="74.44" cy="86.44" r="1.80" fill="#1f7a44"/><circle cx="46.00" cy="186.00" r="7.65" fill="none" stroke="#1f7a44" stroke-width="2.70"/><circle cx="46.00" cy="186.00" r="3.78" fill="none" stroke="#1f7a44" stroke-width="0.99"/><circle cx="46.00" cy="186.00" r="1.80" fill="#1f7a44"/><circle cx="53.05" cy="167.21" r="7.65" fill="none" stroke="#185fa5" stroke-width="2.70"/><circle cx="53.05" cy="167.21" r="3.78" fill="none" stroke="#185fa5" stroke-width="0.99"/><circle cx="53.05" cy="167.21" r="1.80" fill="#185fa5"/><circle cx="63.04" cy="150.80" r="7.65" fill="none" stroke="#1f7a44" stroke-width="2.70"/><circle cx="63.04" cy="150.80" r="3.78" fill="none" stroke="#1f7a44" stroke-width="0.99"/><circle cx="63.04" cy="150.80" r="1.80" fill="#1f7a44"/><circle cx="79.97" cy="140.02" r="7.65" fill="none" stroke="#185fa5" stroke-width="2.70"/><circle cx="79.97" cy="140.02" r="3.78" fill="none" stroke="#185fa5" stroke-width="0.99"/><circle cx="79.97" cy="140.02" r="1.80" fill="#185fa5"/><circle cx="100.03" cy="140.02" r="7.65" fill="none" stroke="#1f7a44" stroke-width="2.70"/><circle cx="100.03" cy="140.02" r="3.78" fill="none" stroke="#1f7a44" stroke-width="0.99"/><circle cx="100.03" cy="140.02" r="1.80" fill="#1f7a44"/><circle cx="116.96" cy="150.80" r="7.65" fill="none" stroke="#185fa5" stroke-width="2.70"/><circle cx="116.96" cy="150.80" r="3.78" fill="none" stroke="#185fa5" stroke-width="0.99"/><circle cx="116.96" cy="150.80" r="1.80" fill="#185fa5"/><circle cx="126.95" cy="167.21" r="7.65" fill="none" stroke="#1f7a44" stroke-width="2.70"/><circle cx="126.95" cy="167.21" r="3.78" fill="none" stroke="#1f7a44" stroke-width="0.99"/><circle cx="126.95" cy="167.21" r="1.80" fill="#1f7a44"/><circle cx="134.00" cy="186.00" r="7.65" fill="none" stroke="#185fa5" stroke-width="2.70"/><circle cx="134.00" cy="186.00" r="3.78" fill="none" stroke="#185fa5" stroke-width="0.99"/><circle cx="134.00" cy="186.00" r="1.80" fill="#185fa5"/><text x="150" y="126" text-anchor="middle" font-family="Arial" font-weight="bold" font-size="52" fill="#c0392b">?</text></svg>