<?xml version="1.0" encoding="UTF-8"?>
<svg xmlns="http://www.w3.org/2000/svg" viewBox="0 0 200 270" width="200" height="270"><circle cx="100.00" cy="74.00" r="11.90" fill="none" stroke="#1f7a44" stroke-width="4.20"/><circle cx="100.00" cy="74.00" r="5.88" fill="none" stroke="#1f7a44" stroke-width="1.54"/><circle cx="100.00" cy="74.00" r="2.80" fill="#1f7a44"/><circle cx="127.00" cy="81.23" r="11.90" fill="none" stroke="#c0392b" stroke-width="4.20"/><circle cx="127.00" cy="81.23" r="5.88" fill="none" stroke="#c0392b" stroke-width="1.54"/><circle cx="127.00" cy="81.23" r="2.80" fill="#c0392b"/><circle cx="146.77" cy="101.00" r="11.90" fill="none" stroke="#185fa5" stroke-width="4.20"/><circle cx="146.77" cy="101.00" r="5.88" fill="none" stroke="#185fa5" stroke-width="1.54"/><circle cx="146.77" cy="101.00" r="2.80" fill="#185fa5"/><circle cx="154.00" cy="128.00" r="11.90" fill="none" stroke="#1c1c1c" stroke-width="4.20"/><circle cx="154.00" cy="128.00" r="5.88" fill="none" stroke="#1c1c1c" stroke-width="1.54"/><circle cx="154.00" cy="128.00" r="2.80" fill="#1c1c1c"/><circle cx="146.77" cy="155.00" r="11.90" fill="none" stroke="#1f7a44" stroke-width="4.20"/><circle cx="146.77" cy="155.00" r="5.88" fill="none" stroke="#1f7a44" stroke-width="1.54"/><circle cx="146.77" cy="155.00" r="2.80" fill="#1f7a44"/><circle cx="127.00" cy="174.77" r="11.90" fill="none" stroke="#c0392b" stroke-width="4.20"/><circle cx="127.00" cy="174.77" r="5.88" fill="none" stroke="#c0392b" stroke-width="1.54"/><circle cx="127.00" cy="174.77" r="2.80" fill="#c0392b"/><circle cx="100.00" cy="182.00" r="11.90" fill="none" stroke="#185fa5" stroke-width="4.20"/><circle cx="100.00" cy="182.00" r="5.88" fill="none" stroke="#185fa5" stroke-width="1.54"/><circle cx="100.00" cy="182.00" r="2.80" fill="#185fa5"/><circle cx="73.00" cy="174.77" r="11.90" fill="none" stroke="#1c1c1c" stroke-width="4.20"/><circle cx="73.00" cy="174.77" r="5.88" fill="none" stroke="#1c1c1c" stroke-width="1.54"/><circle cx="73.00" cy="174.77" r="2.80" fill="#1c1c1c"/><circle cx="53.23" cy="155.00" r="11.90" fill="none" stroke="#1f7a44" stroke-width="4.20"/><circle cx="53.23" cy="155.00" r="5.88" fill="none" stroke="#1f7a44" stroke-width="1.54"/><circle cx="53.23" cy="155.00" r="2.80" fill="#1f7a44"/><circle cx="46.00" cy="128.00" r="11.90" fill="none" stroke="#c0392b" stroke-width="4.20"/><circle cx="46.00" cy="128.00" r="5.88" fill="none" stroke="#c0392b" stroke-width="1.54"/><circle cx="46.00" cy="128.00" r="2.80" fill="#c0392b"/><circle cx="53.23" cy="101.00" r="11.90" fill="none" stroke="#185fa5" stroke-width="4.20"/><circle cx="53.23" cy="101.00" r="5.88" fill="none" stroke="#185fa5" stroke-width="1.54"/><circle cx="53.23" cy="101.00" r="2.80" fill="#185fa5"/><circle cx="73.00" cy="81.23" r="11.90" fill="none" stroke="#1c1c1c" stroke-width="4.20"/><circle cx="73.00" cy="81.23" r="5.88" fill="none" stroke="#1c1c1c" stroke-width="1.54"/><circle cx="73.00" cy="81.23" r="2.80" fill="#1c1c1c"/><line x1="62" y1="166" x2="138" y2="90" stroke="#c0392b" stroke-width="13" stroke-linecap="round"/></svg>