<?xml version="1.0" encoding="UTF-8"?>
<svg xmlns="http://www.w3.org/2000/svg" viewBox="0 0 200 270" width="200" height="270"><circle cx="100.00" cy="71.00" r="8.50" fill="none" stroke="#c0392b" stroke-width="3.00"/><circle cx="100.00" cy="71.00" r="4.20" fill="none" stroke="#c0392b" stroke-width="1.10"/><circle cx="100.00" cy="71.00" r="2.00" fill="#c0392b"/><circle cx="109.24" cy="87.00" r="8.50" fill="none" stroke="#185fa5" stroke-width="3.00"/><circle cx="109.24" cy="87.00" r="4.20" fill="none" stroke="#185fa5" stroke-width="1.10"/><circle cx="109.24" cy="87.00" r="2.00" fill="#185fa5"/><circle cx="118.48" cy="103.00" r="8.50" fill="none" stroke="#1f7a44" stroke-width="3.00"/><circle cx="118.48" cy="103.00" r="4.20" fill="none" stroke="#1f7a44" stroke-width="1.10"/><circle cx="118.48" cy="103.00" r="2.00" fill="#1f7a44"/><circle cx="127.71" cy="119.00" r="8.50" fill="none" stroke="#c0392b" stroke-width="3.00"/><circle cx="127.71" cy="119.00" r="4.20" fill="none" stroke="#c0392b" stroke-width="1.10"/><circle cx="127.71" cy="119.00" r="2.00" fill="#c0392b"/><circle cx="136.95" cy="135.00" r="8.50" fill="none" stroke="#185fa5" stroke-width="3.00"/><circle cx="136.95" cy="135.00" r="4.20" fill="none" stroke="#185fa5" stroke-width="1.10"/><circle cx="136.95" cy="135.00" r="2.00" fill="#185fa5"/><circle cx="146.19" cy="151.00" r="8.50" fill="none" stroke="#1f7a44" stroke-width="3.00"/><circle cx="146.19" cy="151.00" r="4.20" fill="none" stroke="#1f7a44" stroke-width="1.10"/><circle cx="146.19" cy="151.00" r="2.00" fill="#1f7a44"/><circle cx="155.43" cy="167.00" r="8.50" fill="none" stroke="#c0392b" stroke-width="3.00"/><circle cx="155.43" cy="167.00" r="4.20" fill="none" stroke="#c0392b" stroke-width="1.10"/><circle cx="155.43" cy="167.00" r="2.00" fill="#c0392b"/><circle cx="136.95" cy="167.00" r="8.50" fill="none" stroke="#185fa5" stroke-width="3.00"/><circle cx="136.95" cy="167.00" r="4.20" fill="none" stroke="#185fa5" stroke-width="1.10"/><circle cx="136.95" cy="167.00" r="2.00" fill="#185fa5"/><circle cx="118.48" cy="167.00" r="8.50" fill="none" stroke="#1f7a44" stroke-width="3.00"/><circle cx="118.48" cy="167.00" r="4.20" fill="none" stroke="#1f7a44" stroke-width="1.10"/><circle cx="118.48" cy="167.00" r="2.00" fill="#1f7a44"/><circle cx="100.00" cy="167.00" r="8.50" fill="none" stroke="#c0392b" stroke-width="3.00"/><circle cx="100.00" cy="167.00" r="4.20" fill="none" stroke="#c0392b" stroke-width="1.10"/><circle cx="100.00" cy="167.00" r="2.00" fill="#c0392b"/><circle cx="81.52" cy="167.00" r="8.50" fill="none" stroke="#185fa5" stroke-width="3.00"/><circle cx="81.52" cy="167.00" r="4.20" fill="none" stroke="#185fa5" stroke-width="1.10"/><circle cx="81.52" cy="167.00" r="2.00" fill="#185fa5"/><circle cx="63.05" cy="167.00" r="8.50" fill="none" stroke="#1f7a44" stroke-width="3.00"/><circle cx="63.05" cy="167.00" r="4.20" fill="none" stroke="#1f7a44" stroke-width="1.10"/><circle cx="63.05" cy="167.00" r="2.00" fill="#1f7a44"/><circle cx="44.57" cy="167.00" r="8.50" fill="none" stroke="#c0392b" stroke-width="3.00"/><circle cx="44.57" cy="167.00" r="4.20" fill="none" stroke="#c0392b" stroke-width="1.10"/><circle cx="44.57" cy="167.00" r="2.00" fill="#c0392b"/><circle cx="53.81" cy="151.00" r="8.50" fill="none" stroke="#185fa5" stroke-width="3.00"/><circle cx="53.81" cy="151.00" r="4.20" fill="none" stroke="#185fa5" stroke-width="1.10"/><circle cx="53.81" cy="151.00" r="2.00" fill="#185fa5"/><circle cx="63.05" cy="135.00" r="8.50" fill="none" stroke="#1f7a44" stroke-width="3.00"/><circle cx="63.05" cy="135.00" r="4.20" fill="none" stroke="#1f7a44" stroke-width="1.10"/><circle cx="63.05" cy="135.00" r="2.00" fill="#1f7a44"/><circle cx="72.29" cy="119.00" r="8.50" fill="none" stroke="#c0392b" stroke-width="3.00"/><circle cx="72.29" cy="119.00" r="4.20" fill="none" stroke="#c0392b" stroke-width="1.10"/><circle cx="72.29" cy="119.00" r="2.00" fill="#c0392b"/><circle cx="81.52" cy="103.00" r="8.50" fill="none" stroke="#185fa5" stroke-width="3.00"/><circle cx="81.52" cy="103.00" r="4.20" fill="none" stroke="#185fa5" stroke-width="1.10"/><circle cx="81.52" cy="103.00" r="2.00" fill="#185fa5"/><circle cx="90.76" cy="87.00" r="8.50" fill="none" stroke="#1f7a44" stroke-width="3.00"/><circle cx="90.76" cy="87.00" r="4.20" fill="none" stroke="#1f7a44" stroke-width="1.10"/><circle cx="90.76" cy="87.00" r="2.00" fill="#1f7a44"/><text x="100" y="151" text-anchor="middle" font-family="Arial" font-weight="bold" font-size="44" fill="#c0392b">!</text></svg>