<?xml version="1.0" encoding="UTF-8"?>
<svg xmlns="http://www.w3.org/2000/svg" viewBox="0 0 200 270" width="200" height="270"><g transform="rotate(-70.0 111.9 71.3)"><path d="M 118.89 67.70 L 118.86 67.80 L 118.77 67.90 L 118.62 68.00 L 118.42 68.10 L 118.18 68.20 L 117.89 68.30 L 117.58 68.40 L 117.24 68.50 L 116.89 68.61 L 116.54 68.71 L 116.21 68.81 L 115.89 68.91 L 115.61 69.01 L 115.36 69.11 L 115.16 69.21 L 115.01 69.31 L 114.92 69.41 L 114.89 69.51 L 114.92 69.61 L 115.01 69.71 L 115.16 69.82 L 115.36 69.92 L 115.61 70.02 L 115.89 70.12 L 116.21 70.22 L 116.54 70.32 L 116.89 70.42 L 117.24 70.52 L 117.58 70.62 L 117.89 70.72 L 118.18 70.82 L 118.42 70.92 L 118.62 71.03 L 118.77 71.13 L 118.86 71.23 L 118.89 71.33 L 118.86 71.43 L 118.77 71.53 L 118.62 71.63 L 118.42 71.73 L 118.18 71.83 L 117.89 71.93 L 117.58 72.03 L 117.24 72.13 L 116.89 72.24 L 116.54 72.34 L 116.21 72.44 L 115.89 72.54 L 115.61 72.64 L 115.36 72.74 L 115.16 72.84 L 115.01 72.94 L 114.92 73.04 L 114.89 73.14 L 114.92 73.24 L 115.01 73.34 L 115.16 73.45 L 115.36 73.55 L 115.61 73.65 L 115.89 73.75 L 116.21 73.85 L 116.54 73.95 L 116.89 74.05 L 117.24 74.15 L 117.58 74.25 L 117.89 74.35 L 118.18 74.45 L 118.42 74.55 L 118.62 74.66 L 118.77 74.76 L 118.86 74.86 L 118.89 74.96 A 7.00 7.00 0 0 1 104.89 74.96 L 104.89 74.96 L 104.92 74.86 L 105.01 74.76 L 105.16 74.66 L 105.36 74.55 L 105.61 74.45 L 105.89 74.35 L 106.21 74.25 L 106.54 74.15 L 106.89 74.05 L 107.24 73.95 L 107.58 73.85 L 107.89 73.75 L 108.18 73.65 L 108.42 73.55 L 108.62 73.45 L 108.77 73.34 L 108.86 73.24 L 108.89 73.14 L 108.86 73.04 L 108.77 72.94 L 108.62 72.84 L 108.42 72.74 L 108.18 72.64 L 107.89 72.54 L 107.58 72.44 L 107.24 72.34 L 106.89 72.24 L 106.54 72.13 L 106.21 72.03 L 105.89 71.93 L 105.61 71.83 L 105.36 71.73 L 105.16 71.63 L 105.01 71.53 L 104.92 71.43 L 104.89 71.33 L 104.92 71.23 L 105.01 71.13 L 105.16 71.03 L 105.36 70.92 L 105.61 70.82 L 105.89 70.72 L 106.21 70.62 L 106.54 70.52 L 106.89 70.42 L 107.24 70.32 L 107.58 70.22 L 107.89 70.12 L 108.18 70.02 L 108.42 69.92 L 108.62 69.82 L 108.77 69.71 L 108.86 69.61 L 108.89 69.51 L 108.86 69.41 L 108.77 69.31 L 108.62 69.21 L 108.42 69.11 L 108.18 69.01 L 107.89 68.91 L 107.58 68.81 L 107.24 68.71 L 106.89 68.61 L 106.54 68.50 L 106.21 68.40 L 105.89 68.30 L 105.61 68.20 L 105.36 68.10 L 105.16 68.00 L 105.01 67.90 L 104.92 67.80 L 104.89 67.70 A 7.00 7.00 0 0 1 118.89 67.70 Z M 114.27 67.92 L 114.26 68.01 L 114.23 68.11 L 114.18 68.20 L 114.11 68.30 L 114.03 68.39 L 113.93 68.48 L 113.82 68.58 L 113.71 68.67 L 113.59 68.77 L 113.47 68.86 L 113.36 68.96 L 113.25 69.05 L 113.15 69.15 L 113.07 69.24 L 113.00 69.34 L 112.95 69.43 L 112.92 69.53 L 112.91 69.62 L 112.92 69.72 L 112.95 69.81 L 113.00 69.91 L 113.07 70.00 L 113.15 70.10 L 113.25 70.19 L 113.36 70.29 L 113.47 70.38 L 113.59 70.48 L 113.71 70.57 L 113.82 70.66 L 113.93 70.76 L 114.03 70.85 L 114.11 70.95 L 114.18 71.04 L 114.23 71.14 L 114.26 71.23 L 114.27 71.33 L 114.26 71.42 L 114.23 71.52 L 114.18 71.61 L 114.11 71.71 L 114.03 71.80 L 113.93 71.90 L 113.82 71.99 L 113.71 72.09 L 113.59 72.18 L 113.47 72.28 L 113.36 72.37 L 113.25 72.47 L 113.15 72.56 L 113.07 72.66 L 113.00 72.75 L 112.95 72.84 L 112.92 72.94 L 112.91 73.03 L 112.92 73.13 L 112.95 73.22 L 113.00 73.32 L 113.07 73.41 L 113.15 73.51 L 113.25 73.60 L 113.36 73.70 L 113.47 73.79 L 113.59 73.89 L 113.71 73.98 L 113.82 74.08 L 113.93 74.17 L 114.03 74.27 L 114.11 74.36 L 114.18 74.46 L 114.23 74.55 L 114.26 74.65 L 114.27 74.74 A 2.38 2.38 0 0 1 109.51 74.74 L 109.51 74.74 L 109.52 74.65 L 109.55 74.55 L 109.60 74.46 L 109.67 74.36 L 109.75 74.27 L 109.85 74.17 L 109.96 74.08 L 110.07 73.98 L 110.19 73.89 L 110.31 73.79 L 110.42 73.70 L 110.53 73.60 L 110.63 73.51 L 110.71 73.41 L 110.78 73.32 L 110.83 73.22 L 110.86 73.13 L 110.87 73.03 L 110.86 72.94 L 110.83 72.84 L 110.78 72.75 L 110.71 72.66 L 110.63 72.56 L 110.53 72.47 L 110.42 72.37 L 110.31 72.28 L 110.19 72.18 L 110.07 72.09 L 109.96 71.99 L 109.85 71.90 L 109.75 71.80 L 109.67 71.71 L 109.60 71.61 L 109.55 71.52 L 109.52 71.42 L 109.51 71.33 L 109.52 71.23 L 109.55 71.14 L 109.60 71.04 L 109.67 70.95 L 109.75 70.85 L 109.85 70.76 L 109.96 70.66 L 110.07 70.57 L 110.19 70.48 L 110.31 70.38 L 110.42 70.29 L 110.53 70.19 L 110.63 70.10 L 110.71 70.00 L 110.78 69.91 L 110.83 69.81 L 110.86 69.72 L 110.87 69.62 L 110.86 69.53 L 110.83 69.43 L 110.78 69.34 L 110.71 69.24 L 110.63 69.15 L 110.53 69.05 L 110.42 68.96 L 110.31 68.86 L 110.19 68.77 L 110.07 68.67 L 109.96 68.58 L 109.85 68.48 L 109.75 68.39 L 109.67 68.30 L 109.60 68.20 L 109.55 68.11 L 109.52 68.01 L 109.51 67.92 A 2.38 2.38 0 0 1 114.27 67.92 Z" fill="#1f7a44" fill-rule="evenodd"/></g><g transform="rotate(-30.0 130.1 86.6)"><path d="M 137.11 82.99 L 137.08 83.09 L 136.99 83.19 L 136.84 83.29 L 136.64 83.39 L 136.40 83.49 L 136.11 83.59 L 135.79 83.69 L 135.46 83.79 L 135.11 83.89 L 134.76 83.99 L 134.43 84.09 L 134.11 84.20 L 133.82 84.30 L 133.58 84.40 L 133.38 84.50 L 133.23 84.60 L 133.14 84.70 L 133.11 84.80 L 133.14 84.90 L 133.23 85.00 L 133.38 85.10 L 133.58 85.20 L 133.82 85.30 L 134.11 85.41 L 134.43 85.51 L 134.76 85.61 L 135.11 85.71 L 135.46 85.81 L 135.79 85.91 L 136.11 86.01 L 136.40 86.11 L 136.64 86.21 L 136.84 86.31 L 136.99 86.41 L 137.08 86.51 L 137.11 86.62 L 137.08 86.72 L 136.99 86.82 L 136.84 86.92 L 136.64 87.02 L 136.40 87.12 L 136.11 87.22 L 135.79 87.32 L 135.46 87.42 L 135.11 87.52 L 134.76 87.62 L 134.43 87.72 L 134.11 87.83 L 133.82 87.93 L 133.58 88.03 L 133.38 88.13 L 133.23 88.23 L 133.14 88.33 L 133.11 88.43 L 133.14 88.53 L 133.23 88.63 L 133.38 88.73 L 133.58 88.83 L 133.82 88.93 L 134.11 89.04 L 134.43 89.14 L 134.76 89.24 L 135.11 89.34 L 135.46 89.44 L 135.79 89.54 L 136.11 89.64 L 136.40 89.74 L 136.64 89.84 L 136.84 89.94 L 136.99 90.04 L 137.08 90.14 L 137.11 90.25 A 7.00 7.00 0 0 1 123.11 90.25 L 123.11 90.25 L 123.14 90.14 L 123.23 90.04 L 123.38 89.94 L 123.58 89.84 L 123.82 89.74 L 124.11 89.64 L 124.43 89.54 L 124.76 89.44 L 125.11 89.34 L 125.46 89.24 L 125.79 89.14 L 126.11 89.04 L 126.40 88.93 L 126.64 88.83 L 126.84 88.73 L 126.99 88.63 L 127.08 88.53 L 127.11 88.43 L 127.08 88.33 L 126.99 88.23 L 126.84 88.13 L 126.64 88.03 L 126.40 87.93 L 126.11 87.83 L 125.79 87.72 L 125.46 87.62 L 125.11 87.52 L 124.76 87.42 L 124.43 87.32 L 124.11 87.22 L 123.82 87.12 L 123.58 87.02 L 123.38 86.92 L 123.23 86.82 L 123.14 86.72 L 123.11 86.62 L 123.14 86.51 L 123.23 86.41 L 123.38 86.31 L 123.58 86.21 L 123.82 86.11 L 124.11 86.01 L 124.43 85.91 L 124.76 85.81 L 125.11 85.71 L 125.46 85.61 L 125.79 85.51 L 126.11 85.41 L 126.40 85.30 L 126.64 85.20 L 126.84 85.10 L 126.99 85.00 L 127.08 84.90 L 127.11 84.80 L 127.08 84.70 L 126.99 84.60 L 126.84 84.50 L 126.64 84.40 L 126.40 84.30 L 126.11 84.20 L 125.79 84.09 L 125.46 83.99 L 125.11 83.89 L 124.76 83.79 L 124.43 83.69 L 124.11 83.59 L 123.82 83.49 L 123.58 83.39 L 123.38 83.29 L 123.23 83.19 L 123.14 83.09 L 123.11 82.99 A 7.00 7.00 0 0 1 137.11 82.99 Z M 132.49 83.20 L 132.48 83.30 L 132.45 83.39 L 132.40 83.49 L 132.33 83.58 L 132.25 83.68 L 132.15 83.77 L 132.04 83.87 L 131.93 83.96 L 131.81 84.06 L 131.69 84.15 L 131.58 84.25 L 131.47 84.34 L 131.37 84.44 L 131.29 84.53 L 131.22 84.63 L 131.17 84.72 L 131.14 84.81 L 131.13 84.91 L 131.14 85.00 L 131.17 85.10 L 131.22 85.19 L 131.29 85.29 L 131.37 85.38 L 131.47 85.48 L 131.58 85.57 L 131.69 85.67 L 131.81 85.76 L 131.93 85.86 L 132.04 85.95 L 132.15 86.05 L 132.25 86.14 L 132.33 86.24 L 132.40 86.33 L 132.45 86.43 L 132.48 86.52 L 132.49 86.62 L 132.48 86.71 L 132.45 86.81 L 132.40 86.90 L 132.33 86.99 L 132.25 87.09 L 132.15 87.18 L 132.04 87.28 L 131.93 87.37 L 131.81 87.47 L 131.69 87.56 L 131.58 87.66 L 131.47 87.75 L 131.37 87.85 L 131.29 87.94 L 131.22 88.04 L 131.17 88.13 L 131.14 88.23 L 131.13 88.32 L 131.14 88.42 L 131.17 88.51 L 131.22 88.61 L 131.29 88.70 L 131.37 88.80 L 131.47 88.89 L 131.58 88.99 L 131.69 89.08 L 131.81 89.17 L 131.93 89.27 L 132.04 89.36 L 132.15 89.46 L 132.25 89.55 L 132.33 89.65 L 132.40 89.74 L 132.45 89.84 L 132.48 89.93 L 132.49 90.03 A 2.38 2.38 0 0 1 127.73 90.03 L 127.73 90.03 L 127.74 89.93 L 127.77 89.84 L 127.82 89.74 L 127.89 89.65 L 127.97 89.55 L 128.07 89.46 L 128.18 89.36 L 128.29 89.27 L 128.41 89.17 L 128.53 89.08 L 128.64 88.99 L 128.75 88.89 L 128.85 88.80 L 128.93 88.70 L 129.00 88.61 L 129.05 88.51 L 129.08 88.42 L 129.09 88.32 L 129.08 88.23 L 129.05 88.13 L 129.00 88.04 L 128.93 87.94 L 128.85 87.85 L 128.75 87.75 L 128.64 87.66 L 128.53 87.56 L 128.41 87.47 L 128.29 87.37 L 128.18 87.28 L 128.07 87.18 L 127.97 87.09 L 127.89 86.99 L 127.82 86.90 L 127.77 86.81 L 127.74 86.71 L 127.73 86.62 L 127.74 86.52 L 127.77 86.43 L 127.82 86.33 L 127.89 86.24 L 127.97 86.14 L 128.07 86.05 L 128.18 85.95 L 128.29 85.86 L 128.41 85.76 L 128.53 85.67 L 128.64 85.57 L 128.75 85.48 L 128.85 85.38 L 128.93 85.29 L 129.00 85.19 L 129.05 85.10 L 129.08 85.00 L 129.09 84.91 L 129.08 84.81 L 129.05 84.72 L 129.00 84.63 L 128.93 84.53 L 128.85 84.44 L 128.75 84.34 L 128.64 84.25 L 128.53 84.15 L 128.41 84.06 L 128.29 83.96 L 128.18 83.87 L 128.07 83.77 L 127.97 83.68 L 127.89 83.58 L 127.82 83.49 L 127.77 83.39 L 127.74 83.30 L 127.73 83.20 A 2.38 2.38 0 0 1 132.49 83.20 Z" fill="#1f7a44" fill-rule="evenodd"/></g><g transform="rotate(10.0 134.2 110.0)"><path d="M 141.24 106.41 L 141.21 106.51 L 141.12 106.61 L 140.97 106.71 L 140.77 106.81 L 140.53 106.91 L 140.24 107.01 L 139.92 107.11 L 139.59 107.21 L 139.24 107.32 L 138.89 107.42 L 138.56 107.52 L 138.24 107.62 L 137.95 107.72 L 137.71 107.82 L 137.51 107.92 L 137.36 108.02 L 137.27 108.12 L 137.24 108.22 L 137.27 108.32 L 137.36 108.42 L 137.51 108.53 L 137.71 108.63 L 137.95 108.73 L 138.24 108.83 L 138.56 108.93 L 138.89 109.03 L 139.24 109.13 L 139.59 109.23 L 139.92 109.33 L 140.24 109.43 L 140.53 109.53 L 140.77 109.63 L 140.97 109.74 L 141.12 109.84 L 141.21 109.94 L 141.24 110.04 L 141.21 110.14 L 141.12 110.24 L 140.97 110.34 L 140.77 110.44 L 140.53 110.54 L 140.24 110.64 L 139.92 110.74 L 139.59 110.84 L 139.24 110.95 L 138.89 111.05 L 138.56 111.15 L 138.24 111.25 L 137.95 111.35 L 137.71 111.45 L 137.51 111.55 L 137.36 111.65 L 137.27 111.75 L 137.24 111.85 L 137.27 111.95 L 137.36 112.05 L 137.51 112.16 L 137.71 112.26 L 137.95 112.36 L 138.24 112.46 L 138.56 112.56 L 138.89 112.66 L 139.24 112.76 L 139.59 112.86 L 139.92 112.96 L 140.24 113.06 L 140.53 113.16 L 140.77 113.26 L 140.97 113.36 L 141.12 113.47 L 141.21 113.57 L 141.24 113.67 A 7.00 7.00 0 0 1 127.24 113.67 L 127.24 113.67 L 127.27 113.57 L 127.36 113.47 L 127.51 113.36 L 127.71 113.26 L 127.95 113.16 L 128.24 113.06 L 128.56 112.96 L 128.89 112.86 L 129.24 112.76 L 129.59 112.66 L 129.92 112.56 L 130.24 112.46 L 130.53 112.36 L 130.77 112.26 L 130.97 112.16 L 131.12 112.05 L 131.21 111.95 L 131.24 111.85 L 131.21 111.75 L 131.12 111.65 L 130.97 111.55 L 130.77 111.45 L 130.53 111.35 L 130.24 111.25 L 129.92 111.15 L 129.59 111.05 L 129.24 110.95 L 128.89 110.84 L 128.56 110.74 L 128.24 110.64 L 127.95 110.54 L 127.71 110.44 L 127.51 110.34 L 127.36 110.24 L 127.27 110.14 L 127.24 110.04 L 127.27 109.94 L 127.36 109.84 L 127.51 109.74 L 127.71 109.63 L 127.95 109.53 L 128.24 109.43 L 128.56 109.33 L 128.89 109.23 L 129.24 109.13 L 129.59 109.03 L 129.92 108.93 L 130.24 108.83 L 130.53 108.73 L 130.77 108.63 L 130.97 108.53 L 131.12 108.42 L 131.21 108.32 L 131.24 108.22 L 131.21 108.12 L 131.12 108.02 L 130.97 107.92 L 130.77 107.82 L 130.53 107.72 L 130.24 107.62 L 129.92 107.52 L 129.59 107.42 L 129.24 107.32 L 128.89 107.21 L 128.56 107.11 L 128.24 107.01 L 127.95 106.91 L 127.71 106.81 L 127.51 106.71 L 127.36 106.61 L 127.27 106.51 L 127.24 106.41 A 7.00 7.00 0 0 1 141.24 106.41 Z M 136.62 106.63 L 136.61 106.72 L 136.58 106.81 L 136.53 106.91 L 136.46 107.00 L 136.38 107.10 L 136.28 107.19 L 136.17 107.29 L 136.06 107.38 L 135.94 107.48 L 135.82 107.57 L 135.71 107.67 L 135.60 107.76 L 135.50 107.86 L 135.42 107.95 L 135.35 108.05 L 135.30 108.14 L 135.27 108.24 L 135.26 108.33 L 135.27 108.43 L 135.30 108.52 L 135.35 108.62 L 135.42 108.71 L 135.50 108.81 L 135.60 108.90 L 135.71 108.99 L 135.82 109.09 L 135.94 109.18 L 136.06 109.28 L 136.17 109.37 L 136.28 109.47 L 136.38 109.56 L 136.46 109.66 L 136.53 109.75 L 136.58 109.85 L 136.61 109.94 L 136.62 110.04 L 136.61 110.13 L 136.58 110.23 L 136.53 110.32 L 136.46 110.42 L 136.38 110.51 L 136.28 110.61 L 136.17 110.70 L 136.06 110.80 L 135.94 110.89 L 135.82 110.99 L 135.71 111.08 L 135.60 111.17 L 135.50 111.27 L 135.42 111.36 L 135.35 111.46 L 135.30 111.55 L 135.27 111.65 L 135.26 111.74 L 135.27 111.84 L 135.30 111.93 L 135.35 112.03 L 135.42 112.12 L 135.50 112.22 L 135.60 112.31 L 135.71 112.41 L 135.82 112.50 L 135.94 112.60 L 136.06 112.69 L 136.17 112.79 L 136.28 112.88 L 136.38 112.98 L 136.46 113.07 L 136.53 113.17 L 136.58 113.26 L 136.61 113.35 L 136.62 113.45 A 2.38 2.38 0 0 1 131.86 113.45 L 131.86 113.45 L 131.87 113.35 L 131.90 113.26 L 131.95 113.17 L 132.02 113.07 L 132.10 112.98 L 132.20 112.88 L 132.31 112.79 L 132.42 112.69 L 132.54 112.60 L 132.66 112.50 L 132.77 112.41 L 132.88 112.31 L 132.98 112.22 L 133.06 112.12 L 133.13 112.03 L 133.18 111.93 L 133.21 111.84 L 133.22 111.74 L 133.21 111.65 L 133.18 111.55 L 133.13 111.46 L 133.06 111.36 L 132.98 111.27 L 132.88 111.17 L 132.77 111.08 L 132.66 110.99 L 132.54 110.89 L 132.42 110.80 L 132.31 110.70 L 132.20 110.61 L 132.10 110.51 L 132.02 110.42 L 131.95 110.32 L 131.90 110.23 L 131.87 110.13 L 131.86 110.04 L 131.87 109.94 L 131.90 109.85 L 131.95 109.75 L 132.02 109.66 L 132.10 109.56 L 132.20 109.47 L 132.31 109.37 L 132.42 109.28 L 132.54 109.18 L 132.66 109.09 L 132.77 108.99 L 132.88 108.90 L 132.98 108.81 L 133.06 108.71 L 133.13 108.62 L 133.18 108.52 L 133.21 108.43 L 133.22 108.33 L 133.21 108.24 L 133.18 108.14 L 133.13 108.05 L 133.06 107.95 L 132.98 107.86 L 132.88 107.76 L 132.77 107.67 L 132.66 107.57 L 132.54 107.48 L 132.42 107.38 L 132.31 107.29 L 132.20 107.19 L 132.10 107.10 L 132.02 107.00 L 131.95 106.91 L 131.90 106.81 L 131.87 106.72 L 131.86 106.63 A 2.38 2.38 0 0 1 136.62 106.63 Z" fill="#1f7a44" fill-rule="evenodd"/></g><g transform="rotate(50.0 122.3 130.6)"><path d="M 129.35 127.00 L 129.32 127.11 L 129.23 127.21 L 129.08 127.31 L 128.88 127.41 L 128.63 127.51 L 128.35 127.61 L 128.03 127.71 L 127.70 127.81 L 127.35 127.91 L 127.00 128.01 L 126.66 128.11 L 126.35 128.21 L 126.06 128.32 L 125.82 128.42 L 125.62 128.52 L 125.47 128.62 L 125.38 128.72 L 125.35 128.82 L 125.38 128.92 L 125.47 129.02 L 125.62 129.12 L 125.82 129.22 L 126.06 129.32 L 126.35 129.42 L 126.66 129.53 L 127.00 129.63 L 127.35 129.73 L 127.70 129.83 L 128.03 129.93 L 128.35 130.03 L 128.63 130.13 L 128.88 130.23 L 129.08 130.33 L 129.23 130.43 L 129.32 130.53 L 129.35 130.63 L 129.32 130.74 L 129.23 130.84 L 129.08 130.94 L 128.88 131.04 L 128.63 131.14 L 128.35 131.24 L 128.03 131.34 L 127.70 131.44 L 127.35 131.54 L 127.00 131.64 L 126.66 131.74 L 126.35 131.84 L 126.06 131.95 L 125.82 132.05 L 125.62 132.15 L 125.47 132.25 L 125.38 132.35 L 125.35 132.45 L 125.38 132.55 L 125.47 132.65 L 125.62 132.75 L 125.82 132.85 L 126.06 132.95 L 126.35 133.05 L 126.66 133.16 L 127.00 133.26 L 127.35 133.36 L 127.70 133.46 L 128.03 133.56 L 128.35 133.66 L 128.63 133.76 L 128.88 133.86 L 129.08 133.96 L 129.23 134.06 L 129.32 134.16 L 129.35 134.26 A 7.00 7.00 0 0 1 115.35 134.26 L 115.35 134.26 L 115.38 134.16 L 115.47 134.06 L 115.62 133.96 L 115.82 133.86 L 116.06 133.76 L 116.35 133.66 L 116.66 133.56 L 117.00 133.46 L 117.35 133.36 L 117.70 133.26 L 118.03 133.16 L 118.35 133.05 L 118.63 132.95 L 118.88 132.85 L 119.08 132.75 L 119.23 132.65 L 119.32 132.55 L 119.35 132.45 L 119.32 132.35 L 119.23 132.25 L 119.08 132.15 L 118.88 132.05 L 118.63 131.95 L 118.35 131.84 L 118.03 131.74 L 117.70 131.64 L 117.35 131.54 L 117.00 131.44 L 116.66 131.34 L 116.35 131.24 L 116.06 131.14 L 115.82 131.04 L 115.62 130.94 L 115.47 130.84 L 115.38 130.74 L 115.35 130.63 L 115.38 130.53 L 115.47 130.43 L 115.62 130.33 L 115.82 130.23 L 116.06 130.13 L 116.35 130.03 L 116.66 129.93 L 117.00 129.83 L 117.35 129.73 L 117.70 129.63 L 118.03 129.53 L 118.35 129.42 L 118.63 129.32 L 118.88 129.22 L 119.08 129.12 L 119.23 129.02 L 119.32 128.92 L 119.35 128.82 L 119.32 128.72 L 119.23 128.62 L 119.08 128.52 L 118.88 128.42 L 118.63 128.32 L 118.35 128.21 L 118.03 128.11 L 117.70 128.01 L 117.35 127.91 L 117.00 127.81 L 116.66 127.71 L 116.35 127.61 L 116.06 127.51 L 115.82 127.41 L 115.62 127.31 L 115.47 127.21 L 115.38 127.11 L 115.35 127.00 A 7.00 7.00 0 0 1 129.35 127.00 Z M 124.73 127.22 L 124.72 127.32 L 124.69 127.41 L 124.64 127.51 L 124.57 127.60 L 124.49 127.70 L 124.39 127.79 L 124.28 127.89 L 124.17 127.98 L 124.05 128.08 L 123.93 128.17 L 123.82 128.26 L 123.71 128.36 L 123.61 128.45 L 123.53 128.55 L 123.46 128.64 L 123.41 128.74 L 123.38 128.83 L 123.37 128.93 L 123.38 129.02 L 123.41 129.12 L 123.46 129.21 L 123.53 129.31 L 123.61 129.40 L 123.71 129.50 L 123.82 129.59 L 123.93 129.69 L 124.05 129.78 L 124.17 129.88 L 124.28 129.97 L 124.39 130.07 L 124.49 130.16 L 124.57 130.26 L 124.64 130.35 L 124.69 130.44 L 124.72 130.54 L 124.73 130.63 L 124.72 130.73 L 124.69 130.82 L 124.64 130.92 L 124.57 131.01 L 124.49 131.11 L 124.39 131.20 L 124.28 131.30 L 124.17 131.39 L 124.05 131.49 L 123.93 131.58 L 123.82 131.68 L 123.71 131.77 L 123.61 131.87 L 123.53 131.96 L 123.46 132.06 L 123.41 132.15 L 123.38 132.25 L 123.37 132.34 L 123.38 132.44 L 123.41 132.53 L 123.46 132.62 L 123.53 132.72 L 123.61 132.81 L 123.71 132.91 L 123.82 133.00 L 123.93 133.10 L 124.05 133.19 L 124.17 133.29 L 124.28 133.38 L 124.39 133.48 L 124.49 133.57 L 124.57 133.67 L 124.64 133.76 L 124.69 133.86 L 124.72 133.95 L 124.73 134.05 A 2.38 2.38 0 0 1 119.97 134.05 L 119.97 134.05 L 119.98 133.95 L 120.01 133.86 L 120.06 133.76 L 120.13 133.67 L 120.21 133.57 L 120.31 133.48 L 120.42 133.38 L 120.53 133.29 L 120.65 133.19 L 120.77 133.10 L 120.88 133.00 L 120.99 132.91 L 121.09 132.81 L 121.17 132.72 L 121.24 132.62 L 121.29 132.53 L 121.32 132.44 L 121.33 132.34 L 121.32 132.25 L 121.29 132.15 L 121.24 132.06 L 121.17 131.96 L 121.09 131.87 L 120.99 131.77 L 120.88 131.68 L 120.77 131.58 L 120.65 131.49 L 120.53 131.39 L 120.42 131.30 L 120.31 131.20 L 120.21 131.11 L 120.13 131.01 L 120.06 130.92 L 120.01 130.82 L 119.98 130.73 L 119.97 130.63 L 119.98 130.54 L 120.01 130.44 L 120.06 130.35 L 120.13 130.26 L 120.21 130.16 L 120.31 130.07 L 120.42 129.97 L 120.53 129.88 L 120.65 129.78 L 120.77 129.69 L 120.88 129.59 L 120.99 129.50 L 121.09 129.40 L 121.17 129.31 L 121.24 129.21 L 121.29 129.12 L 121.32 129.02 L 121.33 128.93 L 121.32 128.83 L 121.29 128.74 L 121.24 128.64 L 121.17 128.55 L 121.09 128.45 L 120.99 128.36 L 120.88 128.26 L 120.77 128.17 L 120.65 128.08 L 120.53 127.98 L 120.42 127.89 L 120.31 127.79 L 120.21 127.70 L 120.13 127.60 L 120.06 127.51 L 120.01 127.41 L 119.98 127.32 L 119.97 127.22 A 2.38 2.38 0 0 1 124.73 127.22 Z" fill="#1f7a44" fill-rule="evenodd"/></g><g transform="rotate(-270.0 100.0 138.8)"><path d="M 107.00 135.14 L 106.97 135.24 L 106.88 135.34 L 106.73 135.44 L 106.53 135.54 L 106.29 135.64 L 106.00 135.74 L 105.68 135.84 L 105.35 135.95 L 105.00 136.05 L 104.65 136.15 L 104.32 136.25 L 104.00 136.35 L 103.71 136.45 L 103.47 136.55 L 103.27 136.65 L 103.12 136.75 L 103.03 136.85 L 103.00 136.95 L 103.03 137.05 L 103.12 137.16 L 103.27 137.26 L 103.47 137.36 L 103.71 137.46 L 104.00 137.56 L 104.32 137.66 L 104.65 137.76 L 105.00 137.86 L 105.35 137.96 L 105.68 138.06 L 106.00 138.16 L 106.29 138.26 L 106.53 138.37 L 106.73 138.47 L 106.88 138.57 L 106.97 138.67 L 107.00 138.77 L 106.97 138.87 L 106.88 138.97 L 106.73 139.07 L 106.53 139.17 L 106.29 139.27 L 106.00 139.37 L 105.68 139.47 L 105.35 139.58 L 105.00 139.68 L 104.65 139.78 L 104.32 139.88 L 104.00 139.98 L 103.71 140.08 L 103.47 140.18 L 103.27 140.28 L 103.12 140.38 L 103.03 140.48 L 103.00 140.58 L 103.03 140.68 L 103.12 140.79 L 103.27 140.89 L 103.47 140.99 L 103.71 141.09 L 104.00 141.19 L 104.32 141.29 L 104.65 141.39 L 105.00 141.49 L 105.35 141.59 L 105.68 141.69 L 106.00 141.79 L 106.29 141.89 L 106.53 142.00 L 106.73 142.10 L 106.88 142.20 L 106.97 142.30 L 107.00 142.40 A 7.00 7.00 0 0 1 93.00 142.40 L 93.00 142.40 L 93.03 142.30 L 93.12 142.20 L 93.27 142.10 L 93.47 142.00 L 93.71 141.89 L 94.00 141.79 L 94.32 141.69 L 94.65 141.59 L 95.00 141.49 L 95.35 141.39 L 95.68 141.29 L 96.00 141.19 L 96.29 141.09 L 96.53 140.99 L 96.73 140.89 L 96.88 140.79 L 96.97 140.68 L 97.00 140.58 L 96.97 140.48 L 96.88 140.38 L 96.73 140.28 L 96.53 140.18 L 96.29 140.08 L 96.00 139.98 L 95.68 139.88 L 95.35 139.78 L 95.00 139.68 L 94.65 139.58 L 94.32 139.47 L 94.00 139.37 L 93.71 139.27 L 93.47 139.17 L 93.27 139.07 L 93.12 138.97 L 93.03 138.87 L 93.00 138.77 L 93.03 138.67 L 93.12 138.57 L 93.27 138.47 L 93.47 138.37 L 93.71 138.26 L 94.00 138.16 L 94.32 138.06 L 94.65 137.96 L 95.00 137.86 L 95.35 137.76 L 95.68 137.66 L 96.00 137.56 L 96.29 137.46 L 96.53 137.36 L 96.73 137.26 L 96.88 137.16 L 96.97 137.05 L 97.00 136.95 L 96.97 136.85 L 96.88 136.75 L 96.73 136.65 L 96.53 136.55 L 96.29 136.45 L 96.00 136.35 L 95.68 136.25 L 95.35 136.15 L 95.00 136.05 L 94.65 135.95 L 94.32 135.84 L 94.00 135.74 L 93.71 135.64 L 93.47 135.54 L 93.27 135.44 L 93.12 135.34 L 93.03 135.24 L 93.00 135.14 A 7.00 7.00 0 0 1 107.00 135.14 Z M 102.38 135.36 L 102.37 135.45 L 102.34 135.55 L 102.29 135.64 L 102.22 135.74 L 102.14 135.83 L 102.04 135.93 L 101.93 136.02 L 101.82 136.11 L 101.70 136.21 L 101.58 136.30 L 101.47 136.40 L 101.36 136.49 L 101.26 136.59 L 101.18 136.68 L 101.11 136.78 L 101.06 136.87 L 101.03 136.97 L 101.02 137.06 L 101.03 137.16 L 101.06 137.25 L 101.11 137.35 L 101.18 137.44 L 101.26 137.54 L 101.36 137.63 L 101.47 137.73 L 101.58 137.82 L 101.70 137.92 L 101.82 138.01 L 101.93 138.11 L 102.04 138.20 L 102.14 138.29 L 102.22 138.39 L 102.29 138.48 L 102.34 138.58 L 102.37 138.67 L 102.38 138.77 L 102.37 138.86 L 102.34 138.96 L 102.29 139.05 L 102.22 139.15 L 102.14 139.24 L 102.04 139.34 L 101.93 139.43 L 101.82 139.53 L 101.70 139.62 L 101.58 139.72 L 101.47 139.81 L 101.36 139.91 L 101.26 140.00 L 101.18 140.10 L 101.11 140.19 L 101.06 140.29 L 101.03 140.38 L 101.02 140.47 L 101.03 140.57 L 101.06 140.66 L 101.11 140.76 L 101.18 140.85 L 101.26 140.95 L 101.36 141.04 L 101.47 141.14 L 101.58 141.23 L 101.70 141.33 L 101.82 141.42 L 101.93 141.52 L 102.04 141.61 L 102.14 141.71 L 102.22 141.80 L 102.29 141.90 L 102.34 141.99 L 102.37 142.09 L 102.38 142.18 A 2.38 2.38 0 0 1 97.62 142.18 L 97.62 142.18 L 97.63 142.09 L 97.66 141.99 L 97.71 141.90 L 97.78 141.80 L 97.86 141.71 L 97.96 141.61 L 98.07 141.52 L 98.18 141.42 L 98.30 141.33 L 98.42 141.23 L 98.53 141.14 L 98.64 141.04 L 98.74 140.95 L 98.82 140.85 L 98.89 140.76 L 98.94 140.66 L 98.97 140.57 L 98.98 140.47 L 98.97 140.38 L 98.94 140.29 L 98.89 140.19 L 98.82 140.10 L 98.74 140.00 L 98.64 139.91 L 98.53 139.81 L 98.42 139.72 L 98.30 139.62 L 98.18 139.53 L 98.07 139.43 L 97.96 139.34 L 97.86 139.24 L 97.78 139.15 L 97.71 139.05 L 97.66 138.96 L 97.63 138.86 L 97.62 138.77 L 97.63 138.67 L 97.66 138.58 L 97.71 138.48 L 97.78 138.39 L 97.86 138.29 L 97.96 138.20 L 98.07 138.11 L 98.18 138.01 L 98.30 137.92 L 98.42 137.82 L 98.53 137.73 L 98.64 137.63 L 98.74 137.54 L 98.82 137.44 L 98.89 137.35 L 98.94 137.25 L 98.97 137.16 L 98.98 137.06 L 98.97 136.97 L 98.94 136.87 L 98.89 136.78 L 98.82 136.68 L 98.74 136.59 L 98.64 136.49 L 98.53 136.40 L 98.42 136.30 L 98.30 136.21 L 98.18 136.11 L 98.07 136.02 L 97.96 135.93 L 97.86 135.83 L 97.78 135.74 L 97.71 135.64 L 97.66 135.55 L 97.63 135.45 L 97.62 135.36 A 2.38 2.38 0 0 1 102.38 135.36 Z" fill="#1f7a44" fill-rule="evenodd"/></g><g transform="rotate(-230.0 77.7 130.6)"><path d="M 84.65 127.00 L 84.62 127.11 L 84.53 127.21 L 84.38 127.31 L 84.18 127.41 L 83.94 127.51 L 83.65 127.61 L 83.34 127.71 L 83.00 127.81 L 82.65 127.91 L 82.30 128.01 L 81.97 128.11 L 81.65 128.21 L 81.37 128.32 L 81.12 128.42 L 80.92 128.52 L 80.77 128.62 L 80.68 128.72 L 80.65 128.82 L 80.68 128.92 L 80.77 129.02 L 80.92 129.12 L 81.12 129.22 L 81.37 129.32 L 81.65 129.42 L 81.97 129.53 L 82.30 129.63 L 82.65 129.73 L 83.00 129.83 L 83.34 129.93 L 83.65 130.03 L 83.94 130.13 L 84.18 130.23 L 84.38 130.33 L 84.53 130.43 L 84.62 130.53 L 84.65 130.63 L 84.62 130.74 L 84.53 130.84 L 84.38 130.94 L 84.18 131.04 L 83.94 131.14 L 83.65 131.24 L 83.34 131.34 L 83.00 131.44 L 82.65 131.54 L 82.30 131.64 L 81.97 131.74 L 81.65 131.84 L 81.37 131.95 L 81.12 132.05 L 80.92 132.15 L 80.77 132.25 L 80.68 132.35 L 80.65 132.45 L 80.68 132.55 L 80.77 132.65 L 80.92 132.75 L 81.12 132.85 L 81.37 132.95 L 81.65 133.05 L 81.97 133.16 L 82.30 133.26 L 82.65 133.36 L 83.00 133.46 L 83.34 133.56 L 83.65 133.66 L 83.94 133.76 L 84.18 133.86 L 84.38 133.96 L 84.53 134.06 L 84.62 134.16 L 84.65 134.26 A 7.00 7.00 0 0 1 70.65 134.26 L 70.65 134.26 L 70.68 134.16 L 70.77 134.06 L 70.92 133.96 L 71.12 133.86 L 71.37 133.76 L 71.65 133.66 L 71.97 133.56 L 72.30 133.46 L 72.65 133.36 L 73.00 133.26 L 73.34 133.16 L 73.65 133.05 L 73.94 132.95 L 74.18 132.85 L 74.38 132.75 L 74.53 132.65 L 74.62 132.55 L 74.65 132.45 L 74.62 132.35 L 74.53 132.25 L 74.38 132.15 L 74.18 132.05 L 73.94 131.95 L 73.65 131.84 L 73.34 131.74 L 73.00 131.64 L 72.65 131.54 L 72.30 131.44 L 71.97 131.34 L 71.65 131.24 L 71.37 131.14 L 71.12 131.04 L 70.92 130.94 L 70.77 130.84 L 70.68 130.74 L 70.65 130.63 L 70.68 130.53 L 70.77 130.43 L 70.92 130.33 L 71.12 130.23 L 71.37 130.13 L 71.65 130.03 L 71.97 129.93 L 72.30 129.83 L 72.65 129.73 L 73.00 129.63 L 73.34 129.53 L 73.65 129.42 L 73.94 129.32 L 74.18 129.22 L 74.38 129.12 L 74.53 129.02 L 74.62 128.92 L 74.65 128.82 L 74.62 128.72 L 74.53 128.62 L 74.38 128.52 L 74.18 128.42 L 73.94 128.32 L 73.65 128.21 L 73.34 128.11 L 73.00 128.01 L 72.65 127.91 L 72.30 127.81 L 71.97 127.71 L 71.65 127.61 L 71.37 127.51 L 71.12 127.41 L 70.92 127.31 L 70.77 127.21 L 70.68 127.11 L 70.65 127.00 A 7.00 7.00 0 0 1 84.65 127.00 Z M 80.03 127.22 L 80.02 127.32 L 79.99 127.41 L 79.94 127.51 L 79.87 127.60 L 79.79 127.70 L 79.69 127.79 L 79.58 127.89 L 79.47 127.98 L 79.35 128.08 L 79.23 128.17 L 79.12 128.26 L 79.01 128.36 L 78.91 128.45 L 78.83 128.55 L 78.76 128.64 L 78.71 128.74 L 78.68 128.83 L 78.67 128.93 L 78.68 129.02 L 78.71 129.12 L 78.76 129.21 L 78.83 129.31 L 78.91 129.40 L 79.01 129.50 L 79.12 129.59 L 79.23 129.69 L 79.35 129.78 L 79.47 129.88 L 79.58 129.97 L 79.69 130.07 L 79.79 130.16 L 79.87 130.26 L 79.94 130.35 L 79.99 130.44 L 80.02 130.54 L 80.03 130.63 L 80.02 130.73 L 79.99 130.82 L 79.94 130.92 L 79.87 131.01 L 79.79 131.11 L 79.69 131.20 L 79.58 131.30 L 79.47 131.39 L 79.35 131.49 L 79.23 131.58 L 79.12 131.68 L 79.01 131.77 L 78.91 131.87 L 78.83 131.96 L 78.76 132.06 L 78.71 132.15 L 78.68 132.25 L 78.67 132.34 L 78.68 132.44 L 78.71 132.53 L 78.76 132.62 L 78.83 132.72 L 78.91 132.81 L 79.01 132.91 L 79.12 133.00 L 79.23 133.10 L 79.35 133.19 L 79.47 133.29 L 79.58 133.38 L 79.69 133.48 L 79.79 133.57 L 79.87 133.67 L 79.94 133.76 L 79.99 133.86 L 80.02 133.95 L 80.03 134.05 A 2.38 2.38 0 0 1 75.27 134.05 L 75.27 134.05 L 75.28 133.95 L 75.31 133.86 L 75.36 133.76 L 75.43 133.67 L 75.51 133.57 L 75.61 133.48 L 75.72 133.38 L 75.83 133.29 L 75.95 133.19 L 76.07 133.10 L 76.18 133.00 L 76.29 132.91 L 76.39 132.81 L 76.47 132.72 L 76.54 132.62 L 76.59 132.53 L 76.62 132.44 L 76.63 132.34 L 76.62 132.25 L 76.59 132.15 L 76.54 132.06 L 76.47 131.96 L 76.39 131.87 L 76.29 131.77 L 76.18 131.68 L 76.07 131.58 L 75.95 131.49 L 75.83 131.39 L 75.72 131.30 L 75.61 131.20 L 75.51 131.11 L 75.43 131.01 L 75.36 130.92 L 75.31 130.82 L 75.28 130.73 L 75.27 130.63 L 75.28 130.54 L 75.31 130.44 L 75.36 130.35 L 75.43 130.26 L 75.51 130.16 L 75.61 130.07 L 75.72 129.97 L 75.83 129.88 L 75.95 129.78 L 76.07 129.69 L 76.18 129.59 L 76.29 129.50 L 76.39 129.40 L 76.47 129.31 L 76.54 129.21 L 76.59 129.12 L 76.62 129.02 L 76.63 128.93 L 76.62 128.83 L 76.59 128.74 L 76.54 128.64 L 76.47 128.55 L 76.39 128.45 L 76.29 128.36 L 76.18 128.26 L 76.07 128.17 L 75.95 128.08 L 75.83 127.98 L 75.72 127.89 L 75.61 127.79 L 75.51 127.70 L 75.43 127.60 L 75.36 127.51 L 75.31 127.41 L 75.28 127.32 L 75.27 127.22 A 2.38 2.38 0 0 1 80.03 127.22 Z" fill="#1f7a44" fill-rule="evenodd"/></g><g transform="rotate(-190.0 65.8 110.0)"><path d="M 72.76 106.41 L 72.73 106.51 L 72.64 106.61 L 72.49 106.71 L 72.29 106.81 L 72.05 106.91 L 71.76 107.01 L 71.44 107.11 L 71.11 107.21 L 70.76 107.32 L 70.41 107.42 L 70.08 107.52 L 69.76 107.62 L 69.47 107.72 L 69.23 107.82 L 69.03 107.92 L 68.88 108.02 L 68.79 108.12 L 68.76 108.22 L 68.79 108.32 L 68.88 108.42 L 69.03 108.53 L 69.23 108.63 L 69.47 108.73 L 69.76 108.83 L 70.08 108.93 L 70.41 109.03 L 70.76 109.13 L 71.11 109.23 L 71.44 109.33 L 71.76 109.43 L 72.05 109.53 L 72.29 109.63 L 72.49 109.74 L 72.64 109.84 L 72.73 109.94 L 72.76 110.04 L 72.73 110.14 L 72.64 110.24 L 72.49 110.34 L 72.29 110.44 L 72.05 110.54 L 71.76 110.64 L 71.44 110.74 L 71.11 110.84 L 70.76 110.95 L 70.41 111.05 L 70.08 111.15 L 69.76 111.25 L 69.47 111.35 L 69.23 111.45 L 69.03 111.55 L 68.88 111.65 L 68.79 111.75 L 68.76 111.85 L 68.79 111.95 L 68.88 112.05 L 69.03 112.16 L 69.23 112.26 L 69.47 112.36 L 69.76 112.46 L 70.08 112.56 L 70.41 112.66 L 70.76 112.76 L 71.11 112.86 L 71.44 112.96 L 71.76 113.06 L 72.05 113.16 L 72.29 113.26 L 72.49 113.36 L 72.64 113.47 L 72.73 113.57 L 72.76 113.67 A 7.00 7.00 0 0 1 58.76 113.67 L 58.76 113.67 L 58.79 113.57 L 58.88 113.47 L 59.03 113.36 L 59.23 113.26 L 59.47 113.16 L 59.76 113.06 L 60.08 112.96 L 60.41 112.86 L 60.76 112.76 L 61.11 112.66 L 61.44 112.56 L 61.76 112.46 L 62.05 112.36 L 62.29 112.26 L 62.49 112.16 L 62.64 112.05 L 62.73 111.95 L 62.76 111.85 L 62.73 111.75 L 62.64 111.65 L 62.49 111.55 L 62.29 111.45 L 62.05 111.35 L 61.76 111.25 L 61.44 111.15 L 61.11 111.05 L 60.76 110.95 L 60.41 110.84 L 60.08 110.74 L 59.76 110.64 L 59.47 110.54 L 59.23 110.44 L 59.03 110.34 L 58.88 110.24 L 58.79 110.14 L 58.76 110.04 L 58.79 109.94 L 58.88 109.84 L 59.03 109.74 L 59.23 109.63 L 59.47 109.53 L 59.76 109.43 L 60.08 109.33 L 60.41 109.23 L 60.76 109.13 L 61.11 109.03 L 61.44 108.93 L 61.76 108.83 L 62.05 108.73 L 62.29 108.63 L 62.49 108.53 L 62.64 108.42 L 62.73 108.32 L 62.76 108.22 L 62.73 108.12 L 62.64 108.02 L 62.49 107.92 L 62.29 107.82 L 62.05 107.72 L 61.76 107.62 L 61.44 107.52 L 61.11 107.42 L 60.76 107.32 L 60.41 107.21 L 60.08 107.11 L 59.76 107.01 L 59.47 106.91 L 59.23 106.81 L 59.03 106.71 L 58.88 106.61 L 58.79 106.51 L 58.76 106.41 A 7.00 7.00 0 0 1 72.76 106.41 Z M 68.14 106.63 L 68.13 106.72 L 68.10 106.81 L 68.05 106.91 L 67.98 107.00 L 67.90 107.10 L 67.80 107.19 L 67.69 107.29 L 67.58 107.38 L 67.46 107.48 L 67.34 107.57 L 67.23 107.67 L 67.12 107.76 L 67.02 107.86 L 66.94 107.95 L 66.87 108.05 L 66.82 108.14 L 66.79 108.24 L 66.78 108.33 L 66.79 108.43 L 66.82 108.52 L 66.87 108.62 L 66.94 108.71 L 67.02 108.81 L 67.12 108.90 L 67.23 108.99 L 67.34 109.09 L 67.46 109.18 L 67.58 109.28 L 67.69 109.37 L 67.80 109.47 L 67.90 109.56 L 67.98 109.66 L 68.05 109.75 L 68.10 109.85 L 68.13 109.94 L 68.14 110.04 L 68.13 110.13 L 68.10 110.23 L 68.05 110.32 L 67.98 110.42 L 67.90 110.51 L 67.80 110.61 L 67.69 110.70 L 67.58 110.80 L 67.46 110.89 L 67.34 110.99 L 67.23 111.08 L 67.12 111.17 L 67.02 111.27 L 66.94 111.36 L 66.87 111.46 L 66.82 111.55 L 66.79 111.65 L 66.78 111.74 L 66.79 111.84 L 66.82 111.93 L 66.87 112.03 L 66.94 112.12 L 67.02 112.22 L 67.12 112.31 L 67.23 112.41 L 67.34 112.50 L 67.46 112.60 L 67.58 112.69 L 67.69 112.79 L 67.80 112.88 L 67.90 112.98 L 67.98 113.07 L 68.05 113.17 L 68.10 113.26 L 68.13 113.35 L 68.14 113.45 A 2.38 2.38 0 0 1 63.38 113.45 L 63.38 113.45 L 63.39 113.35 L 63.42 113.26 L 63.47 113.17 L 63.54 113.07 L 63.62 112.98 L 63.72 112.88 L 63.83 112.79 L 63.94 112.69 L 64.06 112.60 L 64.18 112.50 L 64.29 112.41 L 64.40 112.31 L 64.50 112.22 L 64.58 112.12 L 64.65 112.03 L 64.70 111.93 L 64.73 111.84 L 64.74 111.74 L 64.73 111.65 L 64.70 111.55 L 64.65 111.46 L 64.58 111.36 L 64.50 111.27 L 64.40 111.17 L 64.29 111.08 L 64.18 110.99 L 64.06 110.89 L 63.94 110.80 L 63.83 110.70 L 63.72 110.61 L 63.62 110.51 L 63.54 110.42 L 63.47 110.32 L 63.42 110.23 L 63.39 110.13 L 63.38 110.04 L 63.39 109.94 L 63.42 109.85 L 63.47 109.75 L 63.54 109.66 L 63.62 109.56 L 63.72 109.47 L 63.83 109.37 L 63.94 109.28 L 64.06 109.18 L 64.18 109.09 L 64.29 108.99 L 64.40 108.90 L 64.50 108.81 L 64.58 108.71 L 64.65 108.62 L 64.70 108.52 L 64.73 108.43 L 64.74 108.33 L 64.73 108.24 L 64.70 108.14 L 64.65 108.05 L 64.58 107.95 L 64.50 107.86 L 64.40 107.76 L 64.29 107.67 L 64.18 107.57 L 64.06 107.48 L 63.94 107.38 L 63.83 107.29 L 63.72 107.19 L 63.62 107.10 L 63.54 107.00 L 63.47 106.91 L 63.42 106.81 L 63.39 106.72 L 63.38 106.63 A 2.38 2.38 0 0 1 68.14 106.63 Z" fill="#1f7a44" fill-rule="evenodd"/></g><g transform="rotate(-150.0 69.9 86.6)"><path d="M 76.89 82.99 L 76.86 83.09 L 76.77 83.19 L 76.62 83.29 L 76.42 83.39 L 76.18 83.49 L 75.89 83.59 L 75.57 83.69 L 75.24 83.79 L 74.89 83.89 L 74.54 83.99 L 74.21 84.09 L 73.89 84.20 L 73.60 84.30 L 73.36 84.40 L 73.16 84.50 L 73.01 84.60 L 72.92 84.70 L 72.89 84.80 L 72.92 84.90 L 73.01 85.00 L 73.16 85.10 L 73.36 85.20 L 73.60 85.30 L 73.89 85.41 L 74.21 85.51 L 74.54 85.61 L 74.89 85.71 L 75.24 85.81 L 75.57 85.91 L 75.89 86.01 L 76.18 86.11 L 76.42 86.21 L 76.62 86.31 L 76.77 86.41 L 76.86 86.51 L 76.89 86.62 L 76.86 86.72 L 76.77 86.82 L 76.62 86.92 L 76.42 87.02 L 76.18 87.12 L 75.89 87.22 L 75.57 87.32 L 75.24 87.42 L 74.89 87.52 L 74.54 87.62 L 74.21 87.72 L 73.89 87.83 L 73.60 87.93 L 73.36 88.03 L 73.16 88.13 L 73.01 88.23 L 72.92 88.33 L 72.89 88.43 L 72.92 88.53 L 73.01 88.63 L 73.16 88.73 L 73.36 88.83 L 73.60 88.93 L 73.89 89.04 L 74.21 89.14 L 74.54 89.24 L 74.89 89.34 L 75.24 89.44 L 75.57 89.54 L 75.89 89.64 L 76.18 89.74 L 76.42 89.84 L 76.62 89.94 L 76.77 90.04 L 76.86 90.14 L 76.89 90.25 A 7.00 7.00 0 0 1 62.89 90.25 L 62.89 90.25 L 62.92 90.14 L 63.01 90.04 L 63.16 89.94 L 63.36 89.84 L 63.60 89.74 L 63.89 89.64 L 64.21 89.54 L 64.54 89.44 L 64.89 89.34 L 65.24 89.24 L 65.57 89.14 L 65.89 89.04 L 66.18 88.93 L 66.42 88.83 L 66.62 88.73 L 66.77 88.63 L 66.86 88.53 L 66.89 88.43 L 66.86 88.33 L 66.77 88.23 L 66.62 88.13 L 66.42 88.03 L 66.18 87.93 L 65.89 87.83 L 65.57 87.72 L 65.24 87.62 L 64.89 87.52 L 64.54 87.42 L 64.21 87.32 L 63.89 87.22 L 63.60 87.12 L 63.36 87.02 L 63.16 86.92 L 63.01 86.82 L 62.92 86.72 L 62.89 86.62 L 62.92 86.51 L 63.01 86.41 L 63.16 86.31 L 63.36 86.21 L 63.60 86.11 L 63.89 86.01 L 64.21 85.91 L 64.54 85.81 L 64.89 85.71 L 65.24 85.61 L 65.57 85.51 L 65.89 85.41 L 66.18 85.30 L 66.42 85.20 L 66.62 85.10 L 66.77 85.00 L 66.86 84.90 L 66.89 84.80 L 66.86 84.70 L 66.77 84.60 L 66.62 84.50 L 66.42 84.40 L 66.18 84.30 L 65.89 84.20 L 65.57 84.09 L 65.24 83.99 L 64.89 83.89 L 64.54 83.79 L 64.21 83.69 L 63.89 83.59 L 63.60 83.49 L 63.36 83.39 L 63.16 83.29 L 63.01 83.19 L 62.92 83.09 L 62.89 82.99 A 7.00 7.00 0 0 1 76.89 82.99 Z M 72.27 83.20 L 72.26 83.30 L 72.23 83.39 L 72.18 83.49 L 72.11 83.58 L 72.03 83.68 L 71.93 83.77 L 71.82 83.87 L 71.71 83.96 L 71.59 84.06 L 71.47 84.15 L 71.36 84.25 L 71.25 84.34 L 71.15 84.44 L 71.07 84.53 L 71.00 84.63 L 70.95 84.72 L 70.92 84.81 L 70.91 84.91 L 70.92 85.00 L 70.95 85.10 L 71.00 85.19 L 71.07 85.29 L 71.15 85.38 L 71.25 85.48 L 71.36 85.57 L 71.47 85.67 L 71.59 85.76 L 71.71 85.86 L 71.82 85.95 L 71.93 86.05 L 72.03 86.14 L 72.11 86.24 L 72.18 86.33 L 72.23 86.43 L 72.26 86.52 L 72.27 86.62 L 72.26 86.71 L 72.23 86.81 L 72.18 86.90 L 72.11 86.99 L 72.03 87.09 L 71.93 87.18 L 71.82 87.28 L 71.71 87.37 L 71.59 87.47 L 71.47 87.56 L 71.36 87.66 L 71.25 87.75 L 71.15 87.85 L 71.07 87.94 L 71.00 88.04 L 70.95 88.13 L 70.92 88.23 L 70.91 88.32 L 70.92 88.42 L 70.95 88.51 L 71.00 88.61 L 71.07 88.70 L 71.15 88.80 L 71.25 88.89 L 71.36 88.99 L 71.47 89.08 L 71.59 89.17 L 71.71 89.27 L 71.82 89.36 L 71.93 89.46 L 72.03 89.55 L 72.11 89.65 L 72.18 89.74 L 72.23 89.84 L 72.26 89.93 L 72.27 90.03 A 2.38 2.38 0 0 1 67.51 90.03 L 67.51 90.03 L 67.52 89.93 L 67.55 89.84 L 67.60 89.74 L 67.67 89.65 L 67.75 89.55 L 67.85 89.46 L 67.96 89.36 L 68.07 89.27 L 68.19 89.17 L 68.31 89.08 L 68.42 88.99 L 68.53 88.89 L 68.63 88.80 L 68.71 88.70 L 68.78 88.61 L 68.83 88.51 L 68.86 88.42 L 68.87 88.32 L 68.86 88.23 L 68.83 88.13 L 68.78 88.04 L 68.71 87.94 L 68.63 87.85 L 68.53 87.75 L 68.42 87.66 L 68.31 87.56 L 68.19 87.47 L 68.07 87.37 L 67.96 87.28 L 67.85 87.18 L 67.75 87.09 L 67.67 86.99 L 67.60 86.90 L 67.55 86.81 L 67.52 86.71 L 67.51 86.62 L 67.52 86.52 L 67.55 86.43 L 67.60 86.33 L 67.67 86.24 L 67.75 86.14 L 67.85 86.05 L 67.96 85.95 L 68.07 85.86 L 68.19 85.76 L 68.31 85.67 L 68.42 85.57 L 68.53 85.48 L 68.63 85.38 L 68.71 85.29 L 68.78 85.19 L 68.83 85.10 L 68.86 85.00 L 68.87 84.91 L 68.86 84.81 L 68.83 84.72 L 68.78 84.63 L 68.71 84.53 L 68.63 84.44 L 68.53 84.34 L 68.42 84.25 L 68.31 84.15 L 68.19 84.06 L 68.07 83.96 L 67.96 83.87 L 67.85 83.77 L 67.75 83.68 L 67.67 83.58 L 67.60 83.49 L 67.55 83.39 L 67.52 83.30 L 67.51 83.20 A 2.38 2.38 0 0 1 72.27 83.20 Z" fill="#1f7a44" fill-rule="evenodd"/></g><g transform="rotate(-110.0 88.1 71.3)"><path d="M 95.11 67.70 L 95.08 67.80 L 94.99 67.90 L 94.84 68.00 L 94.64 68.10 L 94.39 68.20 L 94.11 68.30 L 93.79 68.40 L 93.46 68.50 L 93.11 68.61 L 92.76 68.71 L 92.42 68.81 L 92.11 68.91 L 91.82 69.01 L 91.58 69.11 L 91.38 69.21 L 91.23 69.31 L 91.14 69.41 L 91.11 69.51 L 91.14 69.61 L 91.23 69.71 L 91.38 69.82 L 91.58 69.92 L 91.82 70.02 L 92.11 70.12 L 92.42 70.22 L 92.76 70.32 L 93.11 70.42 L 93.46 70.52 L 93.79 70.62 L 94.11 70.72 L 94.39 70.82 L 94.64 70.92 L 94.84 71.03 L 94.99 71.13 L 95.08 71.23 L 95.11 71.33 L 95.08 71.43 L 94.99 71.53 L 94.84 71.63 L 94.64 71.73 L 94.39 71.83 L 94.11 71.93 L 93.79 72.03 L 93.46 72.13 L 93.11 72.24 L 92.76 72.34 L 92.42 72.44 L 92.11 72.54 L 91.82 72.64 L 91.58 72.74 L 91.38 72.84 L 91.23 72.94 L 91.14 73.04 L 91.11 73.14 L 91.14 73.24 L 91.23 73.34 L 91.38 73.45 L 91.58 73.55 L 91.82 73.65 L 92.11 73.75 L 92.42 73.85 L 92.76 73.95 L 93.11 74.05 L 93.46 74.15 L 93.79 74.25 L 94.11 74.35 L 94.39 74.45 L 94.64 74.55 L 94.84 74.66 L 94.99 74.76 L 95.08 74.86 L 95.11 74.96 A 7.00 7.00 0 0 1 81.11 74.96 L 81.11 74.96 L 81.14 74.86 L 81.23 74.76 L 81.38 74.66 L 81.58 74.55 L 81.82 74.45 L 82.11 74.35 L 82.42 74.25 L 82.76 74.15 L 83.11 74.05 L 83.46 73.95 L 83.79 73.85 L 84.11 73.75 L 84.39 73.65 L 84.64 73.55 L 84.84 73.45 L 84.99 73.34 L 85.08 73.24 L 85.11 73.14 L 85.08 73.04 L 84.99 72.94 L 84.84 72.84 L 84.64 72.74 L 84.39 72.64 L 84.11 72.54 L 83.79 72.44 L 83.46 72.34 L 83.11 72.24 L 82.76 72.13 L 82.42 72.03 L 82.11 71.93 L 81.82 71.83 L 81.58 71.73 L 81.38 71.63 L 81.23 71.53 L 81.14 71.43 L 81.11 71.33 L 81.14 71.23 L 81.23 71.13 L 81.38 71.03 L 81.58 70.92 L 81.82 70.82 L 82.11 70.72 L 82.42 70.62 L 82.76 70.52 L 83.11 70.42 L 83.46 70.32 L 83.79 70.22 L 84.11 70.12 L 84.39 70.02 L 84.64 69.92 L 84.84 69.82 L 84.99 69.71 L 85.08 69.61 L 85.11 69.51 L 85.08 69.41 L 84.99 69.31 L 84.84 69.21 L 84.64 69.11 L 84.39 69.01 L 84.11 68.91 L 83.79 68.81 L 83.46 68.71 L 83.11 68.61 L 82.76 68.50 L 82.42 68.40 L 82.11 68.30 L 81.82 68.20 L 81.58 68.10 L 81.38 68.00 L 81.23 67.90 L 81.14 67.80 L 81.11 67.70 A 7.00 7.00 0 0 1 95.11 67.70 Z M 90.49 67.92 L 90.48 68.01 L 90.45 68.11 L 90.40 68.20 L 90.33 68.30 L 90.25 68.39 L 90.15 68.48 L 90.04 68.58 L 89.93 68.67 L 89.81 68.77 L 89.69 68.86 L 89.58 68.96 L 89.47 69.05 L 89.37 69.15 L 89.29 69.24 L 89.22 69.34 L 89.17 69.43 L 89.14 69.53 L 89.13 69.62 L 89.14 69.72 L 89.17 69.81 L 89.22 69.91 L 89.29 70.00 L 89.37 70.10 L 89.47 70.19 L 89.58 70.29 L 89.69 70.38 L 89.81 70.48 L 89.93 70.57 L 90.04 70.66 L 90.15 70.76 L 90.25 70.85 L 90.33 70.95 L 90.40 71.04 L 90.45 71.14 L 90.48 71.23 L 90.49 71.33 L 90.48 71.42 L 90.45 71.52 L 90.40 71.61 L 90.33 71.71 L 90.25 71.80 L 90.15 71.90 L 90.04 71.99 L 89.93 72.09 L 89.81 72.18 L 89.69 72.28 L 89.58 72.37 L 89.47 72.47 L 89.37 72.56 L 89.29 72.66 L 89.22 72.75 L 89.17 72.84 L 89.14 72.94 L 89.13 73.03 L 89.14 73.13 L 89.17 73.22 L 89.22 73.32 L 89.29 73.41 L 89.37 73.51 L 89.47 73.60 L 89.58 73.70 L 89.69 73.79 L 89.81 73.89 L 89.93 73.98 L 90.04 74.08 L 90.15 74.17 L 90.25 74.27 L 90.33 74.36 L 90.40 74.46 L 90.45 74.55 L 90.48 74.65 L 90.49 74.74 A 2.38 2.38 0 0 1 85.73 74.74 L 85.73 74.74 L 85.74 74.65 L 85.77 74.55 L 85.82 74.46 L 85.89 74.36 L 85.97 74.27 L 86.07 74.17 L 86.18 74.08 L 86.29 73.98 L 86.41 73.89 L 86.53 73.79 L 86.64 73.70 L 86.75 73.60 L 86.85 73.51 L 86.93 73.41 L 87.00 73.32 L 87.05 73.22 L 87.08 73.13 L 87.09 73.03 L 87.08 72.94 L 87.05 72.84 L 87.00 72.75 L 86.93 72.66 L 86.85 72.56 L 86.75 72.47 L 86.64 72.37 L 86.53 72.28 L 86.41 72.18 L 86.29 72.09 L 86.18 71.99 L 86.07 71.90 L 85.97 71.80 L 85.89 71.71 L 85.82 71.61 L 85.77 71.52 L 85.74 71.42 L 85.73 71.33 L 85.74 71.23 L 85.77 71.14 L 85.82 71.04 L 85.89 70.95 L 85.97 70.85 L 86.07 70.76 L 86.18 70.66 L 86.29 70.57 L 86.41 70.48 L 86.53 70.38 L 86.64 70.29 L 86.75 70.19 L 86.85 70.10 L 86.93 70.00 L 87.00 69.91 L 87.05 69.81 L 87.08 69.72 L 87.09 69.62 L 87.08 69.53 L 87.05 69.43 L 87.00 69.34 L 86.93 69.24 L 86.85 69.15 L 86.75 69.05 L 86.64 68.96 L 86.53 68.86 L 86.41 68.77 L 86.29 68.67 L 86.18 68.58 L 86.07 68.48 L 85.97 68.39 L 85.89 68.30 L 85.82 68.20 L 85.77 68.11 L 85.74 68.01 L 85.73 67.92 A 2.38 2.38 0 0 1 90.49 67.92 Z" fill="#1f7a44" fill-rule="evenodd"/></g><path d="M85 140 L115 140 L111 160 L89 160 Z" fill="#1d9e75"/><line x1="87" y1="147" x2="113" y2="147" stroke="#f5e9c8" stroke-width="3"/><line x1="88" y1="153" x2="112" y2="153" stroke="#f5e9c8" stroke-width="3"/><rect x="95" y="160" width="10" height="7" rx="2" fill="#1d9e75"/></svg>