<?xml version="1.0" encoding="UTF-8"?>
<svg xmlns="http://www.w3.org/2000/svg" viewBox="0 0 200 270" width="200" height="270"><g transform="rotate(-70.0 112.7 90.6)"><path d="M 119.73 86.26 L 119.70 86.38 L 119.61 86.50 L 119.46 86.62 L 119.26 86.74 L 119.01 86.86 L 118.73 86.98 L 118.41 87.11 L 118.07 87.23 L 117.73 87.35 L 117.38 87.47 L 117.04 87.59 L 116.73 87.71 L 116.44 87.84 L 116.20 87.96 L 116.00 88.08 L 115.85 88.20 L 115.76 88.32 L 115.73 88.44 L 115.76 88.57 L 115.85 88.69 L 116.00 88.81 L 116.20 88.93 L 116.44 89.05 L 116.73 89.17 L 117.04 89.29 L 117.38 89.42 L 117.73 89.54 L 118.07 89.66 L 118.41 89.78 L 118.73 89.90 L 119.01 90.02 L 119.26 90.15 L 119.46 90.27 L 119.61 90.39 L 119.70 90.51 L 119.73 90.63 L 119.70 90.75 L 119.61 90.88 L 119.46 91.00 L 119.26 91.12 L 119.01 91.24 L 118.73 91.36 L 118.41 91.48 L 118.07 91.60 L 117.73 91.73 L 117.38 91.85 L 117.04 91.97 L 116.73 92.09 L 116.44 92.21 L 116.20 92.33 L 116.00 92.46 L 115.85 92.58 L 115.76 92.70 L 115.73 92.82 L 115.76 92.94 L 115.85 93.06 L 116.00 93.19 L 116.20 93.31 L 116.44 93.43 L 116.73 93.55 L 117.04 93.67 L 117.38 93.79 L 117.73 93.92 L 118.07 94.04 L 118.41 94.16 L 118.73 94.28 L 119.01 94.40 L 119.26 94.52 L 119.46 94.64 L 119.61 94.77 L 119.70 94.89 L 119.73 95.01 A 7.00 7.00 0 0 1 105.73 95.01 L 105.73 95.01 L 105.76 94.89 L 105.85 94.77 L 106.00 94.64 L 106.20 94.52 L 106.44 94.40 L 106.73 94.28 L 107.04 94.16 L 107.38 94.04 L 107.73 93.92 L 108.07 93.79 L 108.41 93.67 L 108.73 93.55 L 109.01 93.43 L 109.26 93.31 L 109.46 93.19 L 109.61 93.06 L 109.70 92.94 L 109.73 92.82 L 109.70 92.70 L 109.61 92.58 L 109.46 92.46 L 109.26 92.33 L 109.01 92.21 L 108.73 92.09 L 108.41 91.97 L 108.07 91.85 L 107.73 91.73 L 107.38 91.60 L 107.04 91.48 L 106.73 91.36 L 106.44 91.24 L 106.20 91.12 L 106.00 91.00 L 105.85 90.88 L 105.76 90.75 L 105.73 90.63 L 105.76 90.51 L 105.85 90.39 L 106.00 90.27 L 106.20 90.15 L 106.44 90.02 L 106.73 89.90 L 107.04 89.78 L 107.38 89.66 L 107.73 89.54 L 108.07 89.42 L 108.41 89.29 L 108.73 89.17 L 109.01 89.05 L 109.26 88.93 L 109.46 88.81 L 109.61 88.69 L 109.70 88.57 L 109.73 88.44 L 109.70 88.32 L 109.61 88.20 L 109.46 88.08 L 109.26 87.96 L 109.01 87.84 L 108.73 87.71 L 108.41 87.59 L 108.07 87.47 L 107.73 87.35 L 107.38 87.23 L 107.04 87.11 L 106.73 86.98 L 106.44 86.86 L 106.20 86.74 L 106.00 86.62 L 105.85 86.50 L 105.76 86.38 L 105.73 86.26 A 7.00 7.00 0 0 1 119.73 86.26 Z M 115.11 86.52 L 115.10 86.63 L 115.07 86.75 L 115.02 86.86 L 114.95 86.98 L 114.86 87.09 L 114.77 87.20 L 114.66 87.32 L 114.55 87.43 L 114.43 87.55 L 114.31 87.66 L 114.19 87.78 L 114.09 87.89 L 113.99 88.00 L 113.91 88.12 L 113.84 88.23 L 113.79 88.35 L 113.76 88.46 L 113.75 88.58 L 113.76 88.69 L 113.79 88.80 L 113.84 88.92 L 113.91 89.03 L 113.99 89.15 L 114.09 89.26 L 114.19 89.38 L 114.31 89.49 L 114.43 89.60 L 114.55 89.72 L 114.66 89.83 L 114.77 89.95 L 114.86 90.06 L 114.95 90.18 L 115.02 90.29 L 115.07 90.40 L 115.10 90.52 L 115.11 90.63 L 115.10 90.75 L 115.07 90.86 L 115.02 90.98 L 114.95 91.09 L 114.86 91.20 L 114.77 91.32 L 114.66 91.43 L 114.55 91.55 L 114.43 91.66 L 114.31 91.78 L 114.19 91.89 L 114.09 92.00 L 113.99 92.12 L 113.91 92.23 L 113.84 92.35 L 113.79 92.46 L 113.76 92.58 L 113.75 92.69 L 113.76 92.80 L 113.79 92.92 L 113.84 93.03 L 113.91 93.15 L 113.99 93.26 L 114.09 93.38 L 114.19 93.49 L 114.31 93.60 L 114.43 93.72 L 114.55 93.83 L 114.66 93.95 L 114.77 94.06 L 114.86 94.18 L 114.95 94.29 L 115.02 94.40 L 115.07 94.52 L 115.10 94.63 L 115.11 94.75 A 2.38 2.38 0 0 1 110.35 94.75 L 110.35 94.75 L 110.36 94.63 L 110.39 94.52 L 110.44 94.40 L 110.51 94.29 L 110.59 94.18 L 110.69 94.06 L 110.79 93.95 L 110.91 93.83 L 111.03 93.72 L 111.15 93.60 L 111.26 93.49 L 111.37 93.38 L 111.46 93.26 L 111.55 93.15 L 111.62 93.03 L 111.67 92.92 L 111.70 92.80 L 111.71 92.69 L 111.70 92.58 L 111.67 92.46 L 111.62 92.35 L 111.55 92.23 L 111.46 92.12 L 111.37 92.00 L 111.26 91.89 L 111.15 91.78 L 111.03 91.66 L 110.91 91.55 L 110.79 91.43 L 110.69 91.32 L 110.59 91.20 L 110.51 91.09 L 110.44 90.98 L 110.39 90.86 L 110.36 90.75 L 110.35 90.63 L 110.36 90.52 L 110.39 90.40 L 110.44 90.29 L 110.51 90.18 L 110.59 90.06 L 110.69 89.95 L 110.79 89.83 L 110.91 89.72 L 111.03 89.60 L 111.15 89.49 L 111.26 89.38 L 111.37 89.26 L 111.46 89.15 L 111.55 89.03 L 111.62 88.92 L 111.67 88.80 L 111.70 88.69 L 111.71 88.58 L 111.70 88.46 L 111.67 88.35 L 111.62 88.23 L 111.55 88.12 L 111.46 88.00 L 111.37 87.89 L 111.26 87.78 L 111.15 87.66 L 111.03 87.55 L 110.91 87.43 L 110.79 87.32 L 110.69 87.20 L 110.59 87.09 L 110.51 86.98 L 110.44 86.86 L 110.39 86.75 L 110.36 86.63 L 110.35 86.52 A 2.38 2.38 0 0 1 115.11 86.52 Z" fill="#1f7a44" fill-rule="evenodd"/></g><g transform="rotate(-34.2 132.9 106.2)"><path d="M 139.89 102.09 L 139.86 102.21 L 139.77 102.32 L 139.62 102.44 L 139.42 102.55 L 139.17 102.67 L 138.89 102.78 L 138.57 102.89 L 138.24 103.01 L 137.89 103.12 L 137.54 103.24 L 137.20 103.35 L 136.89 103.46 L 136.60 103.58 L 136.36 103.69 L 136.16 103.81 L 136.01 103.92 L 135.92 104.04 L 135.89 104.15 L 135.92 104.26 L 136.01 104.38 L 136.16 104.49 L 136.36 104.61 L 136.60 104.72 L 136.89 104.84 L 137.20 104.95 L 137.54 105.06 L 137.89 105.18 L 138.24 105.29 L 138.57 105.41 L 138.89 105.52 L 139.17 105.63 L 139.42 105.75 L 139.62 105.86 L 139.77 105.98 L 139.86 106.09 L 139.89 106.21 L 139.86 106.32 L 139.77 106.43 L 139.62 106.55 L 139.42 106.66 L 139.17 106.78 L 138.89 106.89 L 138.57 107.00 L 138.24 107.12 L 137.89 107.23 L 137.54 107.35 L 137.20 107.46 L 136.89 107.58 L 136.60 107.69 L 136.36 107.80 L 136.16 107.92 L 136.01 108.03 L 135.92 108.15 L 135.89 108.26 L 135.92 108.38 L 136.01 108.49 L 136.16 108.60 L 136.36 108.72 L 136.60 108.83 L 136.89 108.95 L 137.20 109.06 L 137.54 109.17 L 137.89 109.29 L 138.24 109.40 L 138.57 109.52 L 138.89 109.63 L 139.17 109.75 L 139.42 109.86 L 139.62 109.97 L 139.77 110.09 L 139.86 110.20 L 139.89 110.32 A 7.00 7.00 0 0 1 125.89 110.32 L 125.89 110.32 L 125.92 110.20 L 126.01 110.09 L 126.16 109.97 L 126.36 109.86 L 126.60 109.75 L 126.89 109.63 L 127.20 109.52 L 127.54 109.40 L 127.89 109.29 L 128.24 109.17 L 128.57 109.06 L 128.89 108.95 L 129.17 108.83 L 129.42 108.72 L 129.62 108.60 L 129.77 108.49 L 129.86 108.38 L 129.89 108.26 L 129.86 108.15 L 129.77 108.03 L 129.62 107.92 L 129.42 107.80 L 129.17 107.69 L 128.89 107.58 L 128.57 107.46 L 128.24 107.35 L 127.89 107.23 L 127.54 107.12 L 127.20 107.00 L 126.89 106.89 L 126.60 106.78 L 126.36 106.66 L 126.16 106.55 L 126.01 106.43 L 125.92 106.32 L 125.89 106.21 L 125.92 106.09 L 126.01 105.98 L 126.16 105.86 L 126.36 105.75 L 126.60 105.63 L 126.89 105.52 L 127.20 105.41 L 127.54 105.29 L 127.89 105.18 L 128.24 105.06 L 128.57 104.95 L 128.89 104.84 L 129.17 104.72 L 129.42 104.61 L 129.62 104.49 L 129.77 104.38 L 129.86 104.26 L 129.89 104.15 L 129.86 104.04 L 129.77 103.92 L 129.62 103.81 L 129.42 103.69 L 129.17 103.58 L 128.89 103.46 L 128.57 103.35 L 128.24 103.24 L 127.89 103.12 L 127.54 103.01 L 127.20 102.89 L 126.89 102.78 L 126.60 102.67 L 126.36 102.55 L 126.16 102.44 L 126.01 102.32 L 125.92 102.21 L 125.89 102.09 A 7.00 7.00 0 0 1 139.89 102.09 Z M 135.27 102.34 L 135.26 102.45 L 135.23 102.56 L 135.18 102.66 L 135.11 102.77 L 135.03 102.88 L 134.93 102.99 L 134.82 103.09 L 134.71 103.20 L 134.59 103.31 L 134.47 103.41 L 134.36 103.52 L 134.25 103.63 L 134.15 103.74 L 134.07 103.84 L 134.00 103.95 L 133.95 104.06 L 133.92 104.17 L 133.91 104.27 L 133.92 104.38 L 133.95 104.49 L 134.00 104.60 L 134.07 104.70 L 134.15 104.81 L 134.25 104.92 L 134.36 105.02 L 134.47 105.13 L 134.59 105.24 L 134.71 105.35 L 134.82 105.45 L 134.93 105.56 L 135.03 105.67 L 135.11 105.78 L 135.18 105.88 L 135.23 105.99 L 135.26 106.10 L 135.27 106.21 L 135.26 106.31 L 135.23 106.42 L 135.18 106.53 L 135.11 106.63 L 135.03 106.74 L 134.93 106.85 L 134.82 106.96 L 134.71 107.06 L 134.59 107.17 L 134.47 107.28 L 134.36 107.39 L 134.25 107.49 L 134.15 107.60 L 134.07 107.71 L 134.00 107.82 L 133.95 107.92 L 133.92 108.03 L 133.91 108.14 L 133.92 108.25 L 133.95 108.35 L 134.00 108.46 L 134.07 108.57 L 134.15 108.67 L 134.25 108.78 L 134.36 108.89 L 134.47 109.00 L 134.59 109.10 L 134.71 109.21 L 134.82 109.32 L 134.93 109.43 L 135.03 109.53 L 135.11 109.64 L 135.18 109.75 L 135.23 109.86 L 135.26 109.96 L 135.27 110.07 A 2.38 2.38 0 0 1 130.51 110.07 L 130.51 110.07 L 130.52 109.96 L 130.55 109.86 L 130.60 109.75 L 130.67 109.64 L 130.75 109.53 L 130.85 109.43 L 130.96 109.32 L 131.07 109.21 L 131.19 109.10 L 131.31 109.00 L 131.42 108.89 L 131.53 108.78 L 131.63 108.67 L 131.71 108.57 L 131.78 108.46 L 131.83 108.35 L 131.86 108.25 L 131.87 108.14 L 131.86 108.03 L 131.83 107.92 L 131.78 107.82 L 131.71 107.71 L 131.63 107.60 L 131.53 107.49 L 131.42 107.39 L 131.31 107.28 L 131.19 107.17 L 131.07 107.06 L 130.96 106.96 L 130.85 106.85 L 130.75 106.74 L 130.67 106.63 L 130.60 106.53 L 130.55 106.42 L 130.52 106.31 L 130.51 106.21 L 130.52 106.10 L 130.55 105.99 L 130.60 105.88 L 130.67 105.78 L 130.75 105.67 L 130.85 105.56 L 130.96 105.45 L 131.07 105.35 L 131.19 105.24 L 131.31 105.13 L 131.42 105.02 L 131.53 104.92 L 131.63 104.81 L 131.71 104.70 L 131.78 104.60 L 131.83 104.49 L 131.86 104.38 L 131.87 104.27 L 131.86 104.17 L 131.83 104.06 L 131.78 103.95 L 131.71 103.84 L 131.63 103.74 L 131.53 103.63 L 131.42 103.52 L 131.31 103.41 L 131.19 103.31 L 131.07 103.20 L 130.96 103.09 L 130.85 102.99 L 130.75 102.88 L 130.67 102.77 L 130.60 102.66 L 130.55 102.56 L 130.52 102.45 L 130.51 102.34 A 2.38 2.38 0 0 1 135.27 102.34 Z" fill="#1f7a44" fill-rule="evenodd"/></g><g transform="rotate(1.4 140.0 130.1)"><path d="M 147.00 126.22 L 146.97 126.33 L 146.88 126.44 L 146.73 126.55 L 146.53 126.65 L 146.28 126.76 L 146.00 126.87 L 145.68 126.98 L 145.34 127.09 L 145.00 127.20 L 144.65 127.31 L 144.31 127.41 L 144.00 127.52 L 143.71 127.63 L 143.47 127.74 L 143.27 127.85 L 143.12 127.96 L 143.03 128.06 L 143.00 128.17 L 143.03 128.28 L 143.12 128.39 L 143.27 128.50 L 143.47 128.61 L 143.71 128.72 L 144.00 128.82 L 144.31 128.93 L 144.65 129.04 L 145.00 129.15 L 145.34 129.26 L 145.68 129.37 L 146.00 129.48 L 146.28 129.58 L 146.53 129.69 L 146.73 129.80 L 146.88 129.91 L 146.97 130.02 L 147.00 130.13 L 146.97 130.24 L 146.88 130.34 L 146.73 130.45 L 146.53 130.56 L 146.28 130.67 L 146.00 130.78 L 145.68 130.89 L 145.34 131.00 L 145.00 131.10 L 144.65 131.21 L 144.31 131.32 L 144.00 131.43 L 143.71 131.54 L 143.47 131.65 L 143.27 131.76 L 143.12 131.86 L 143.03 131.97 L 143.00 132.08 L 143.03 132.19 L 143.12 132.30 L 143.27 132.41 L 143.47 132.51 L 143.71 132.62 L 144.00 132.73 L 144.31 132.84 L 144.65 132.95 L 145.00 133.06 L 145.34 133.17 L 145.68 133.27 L 146.00 133.38 L 146.28 133.49 L 146.53 133.60 L 146.73 133.71 L 146.88 133.82 L 146.97 133.93 L 147.00 134.03 A 7.00 7.00 0 0 1 133.00 134.03 L 133.00 134.03 L 133.03 133.93 L 133.12 133.82 L 133.27 133.71 L 133.47 133.60 L 133.71 133.49 L 134.00 133.38 L 134.31 133.27 L 134.65 133.17 L 135.00 133.06 L 135.34 132.95 L 135.68 132.84 L 136.00 132.73 L 136.28 132.62 L 136.53 132.51 L 136.73 132.41 L 136.88 132.30 L 136.97 132.19 L 137.00 132.08 L 136.97 131.97 L 136.88 131.86 L 136.73 131.76 L 136.53 131.65 L 136.28 131.54 L 136.00 131.43 L 135.68 131.32 L 135.34 131.21 L 135.00 131.10 L 134.65 131.00 L 134.31 130.89 L 134.00 130.78 L 133.71 130.67 L 133.47 130.56 L 133.27 130.45 L 133.12 130.34 L 133.03 130.24 L 133.00 130.13 L 133.03 130.02 L 133.12 129.91 L 133.27 129.80 L 133.47 129.69 L 133.71 129.58 L 134.00 129.48 L 134.31 129.37 L 134.65 129.26 L 135.00 129.15 L 135.34 129.04 L 135.68 128.93 L 136.00 128.82 L 136.28 128.72 L 136.53 128.61 L 136.73 128.50 L 136.88 128.39 L 136.97 128.28 L 137.00 128.17 L 136.97 128.06 L 136.88 127.96 L 136.73 127.85 L 136.53 127.74 L 136.28 127.63 L 136.00 127.52 L 135.68 127.41 L 135.34 127.31 L 135.00 127.20 L 134.65 127.09 L 134.31 126.98 L 134.00 126.87 L 133.71 126.76 L 133.47 126.65 L 133.27 126.55 L 133.12 126.44 L 133.03 126.33 L 133.00 126.22 A 7.00 7.00 0 0 1 147.00 126.22 Z M 142.38 126.45 L 142.37 126.56 L 142.34 126.66 L 142.29 126.76 L 142.22 126.86 L 142.13 126.96 L 142.04 127.07 L 141.93 127.17 L 141.82 127.27 L 141.70 127.37 L 141.58 127.47 L 141.46 127.58 L 141.36 127.68 L 141.26 127.78 L 141.18 127.88 L 141.11 127.98 L 141.06 128.09 L 141.03 128.19 L 141.02 128.29 L 141.03 128.39 L 141.06 128.49 L 141.11 128.60 L 141.18 128.70 L 141.26 128.80 L 141.36 128.90 L 141.46 129.00 L 141.58 129.11 L 141.70 129.21 L 141.82 129.31 L 141.93 129.41 L 142.04 129.51 L 142.13 129.62 L 142.22 129.72 L 142.29 129.82 L 142.34 129.92 L 142.37 130.03 L 142.38 130.13 L 142.37 130.23 L 142.34 130.33 L 142.29 130.43 L 142.22 130.54 L 142.13 130.64 L 142.04 130.74 L 141.93 130.84 L 141.82 130.94 L 141.70 131.05 L 141.58 131.15 L 141.46 131.25 L 141.36 131.35 L 141.26 131.45 L 141.18 131.56 L 141.11 131.66 L 141.06 131.76 L 141.03 131.86 L 141.02 131.96 L 141.03 132.07 L 141.06 132.17 L 141.11 132.27 L 141.18 132.37 L 141.26 132.47 L 141.36 132.58 L 141.46 132.68 L 141.58 132.78 L 141.70 132.88 L 141.82 132.98 L 141.93 133.09 L 142.04 133.19 L 142.13 133.29 L 142.22 133.39 L 142.29 133.49 L 142.34 133.60 L 142.37 133.70 L 142.38 133.80 A 2.38 2.38 0 0 1 137.62 133.80 L 137.62 133.80 L 137.63 133.70 L 137.66 133.60 L 137.71 133.49 L 137.78 133.39 L 137.86 133.29 L 137.96 133.19 L 138.06 133.09 L 138.18 132.98 L 138.30 132.88 L 138.42 132.78 L 138.53 132.68 L 138.64 132.58 L 138.73 132.47 L 138.82 132.37 L 138.89 132.27 L 138.94 132.17 L 138.97 132.07 L 138.98 131.96 L 138.97 131.86 L 138.94 131.76 L 138.89 131.66 L 138.82 131.56 L 138.73 131.45 L 138.64 131.35 L 138.53 131.25 L 138.42 131.15 L 138.30 131.05 L 138.18 130.94 L 138.06 130.84 L 137.96 130.74 L 137.86 130.64 L 137.78 130.54 L 137.71 130.43 L 137.66 130.33 L 137.63 130.23 L 137.62 130.13 L 137.63 130.03 L 137.66 129.92 L 137.71 129.82 L 137.78 129.72 L 137.86 129.62 L 137.96 129.51 L 138.06 129.41 L 138.18 129.31 L 138.30 129.21 L 138.42 129.11 L 138.53 129.00 L 138.64 128.90 L 138.73 128.80 L 138.82 128.70 L 138.89 128.60 L 138.94 128.49 L 138.97 128.39 L 138.98 128.29 L 138.97 128.19 L 138.94 128.09 L 138.89 127.98 L 138.82 127.88 L 138.73 127.78 L 138.64 127.68 L 138.53 127.58 L 138.42 127.47 L 138.30 127.37 L 138.18 127.27 L 138.06 127.17 L 137.96 127.07 L 137.86 126.96 L 137.78 126.86 L 137.71 126.76 L 137.66 126.66 L 137.63 126.56 L 137.62 126.45 A 2.38 2.38 0 0 1 142.38 126.45 Z" fill="#1f7a44" fill-rule="evenodd"/></g><g transform="rotate(36.9 132.0 153.4)"><path d="M 138.97 149.59 L 138.94 149.69 L 138.85 149.80 L 138.70 149.90 L 138.50 150.01 L 138.26 150.11 L 137.97 150.22 L 137.66 150.32 L 137.32 150.43 L 136.97 150.53 L 136.62 150.64 L 136.29 150.74 L 135.97 150.85 L 135.69 150.95 L 135.44 151.05 L 135.24 151.16 L 135.09 151.26 L 135.00 151.37 L 134.97 151.47 L 135.00 151.58 L 135.09 151.68 L 135.24 151.79 L 135.44 151.89 L 135.69 152.00 L 135.97 152.10 L 136.29 152.21 L 136.62 152.31 L 136.97 152.42 L 137.32 152.52 L 137.66 152.62 L 137.97 152.73 L 138.26 152.83 L 138.50 152.94 L 138.70 153.04 L 138.85 153.15 L 138.94 153.25 L 138.97 153.36 L 138.94 153.46 L 138.85 153.57 L 138.70 153.67 L 138.50 153.78 L 138.26 153.88 L 137.97 153.99 L 137.66 154.09 L 137.32 154.20 L 136.97 154.30 L 136.62 154.40 L 136.29 154.51 L 135.97 154.61 L 135.69 154.72 L 135.44 154.82 L 135.24 154.93 L 135.09 155.03 L 135.00 155.14 L 134.97 155.24 L 135.00 155.35 L 135.09 155.45 L 135.24 155.56 L 135.44 155.66 L 135.69 155.77 L 135.97 155.87 L 136.29 155.98 L 136.62 156.08 L 136.97 156.18 L 137.32 156.29 L 137.66 156.39 L 137.97 156.50 L 138.26 156.60 L 138.50 156.71 L 138.70 156.81 L 138.85 156.92 L 138.94 157.02 L 138.97 157.13 A 7.00 7.00 0 0 1 124.97 157.13 L 124.97 157.13 L 125.00 157.02 L 125.09 156.92 L 125.24 156.81 L 125.44 156.71 L 125.69 156.60 L 125.97 156.50 L 126.29 156.39 L 126.62 156.29 L 126.97 156.18 L 127.32 156.08 L 127.66 155.98 L 127.97 155.87 L 128.26 155.77 L 128.50 155.66 L 128.70 155.56 L 128.85 155.45 L 128.94 155.35 L 128.97 155.24 L 128.94 155.14 L 128.85 155.03 L 128.70 154.93 L 128.50 154.82 L 128.26 154.72 L 127.97 154.61 L 127.66 154.51 L 127.32 154.40 L 126.97 154.30 L 126.62 154.20 L 126.29 154.09 L 125.97 153.99 L 125.69 153.88 L 125.44 153.78 L 125.24 153.67 L 125.09 153.57 L 125.00 153.46 L 124.97 153.36 L 125.00 153.25 L 125.09 153.15 L 125.24 153.04 L 125.44 152.94 L 125.69 152.83 L 125.97 152.73 L 126.29 152.62 L 126.62 152.52 L 126.97 152.42 L 127.32 152.31 L 127.66 152.21 L 127.97 152.10 L 128.26 152.00 L 128.50 151.89 L 128.70 151.79 L 128.85 151.68 L 128.94 151.58 L 128.97 151.47 L 128.94 151.37 L 128.85 151.26 L 128.70 151.16 L 128.50 151.05 L 128.26 150.95 L 127.97 150.85 L 127.66 150.74 L 127.32 150.64 L 126.97 150.53 L 126.62 150.43 L 126.29 150.32 L 125.97 150.22 L 125.69 150.11 L 125.44 150.01 L 125.24 149.90 L 125.09 149.80 L 125.00 149.69 L 124.97 149.59 A 7.00 7.00 0 0 1 138.97 149.59 Z M 134.35 149.81 L 134.34 149.91 L 134.31 150.01 L 134.26 150.11 L 134.19 150.21 L 134.11 150.31 L 134.01 150.41 L 133.90 150.50 L 133.79 150.60 L 133.67 150.70 L 133.55 150.80 L 133.44 150.90 L 133.33 151.00 L 133.24 151.09 L 133.15 151.19 L 133.08 151.29 L 133.03 151.39 L 133.00 151.49 L 132.99 151.59 L 133.00 151.68 L 133.03 151.78 L 133.08 151.88 L 133.15 151.98 L 133.24 152.08 L 133.33 152.18 L 133.44 152.28 L 133.55 152.37 L 133.67 152.47 L 133.79 152.57 L 133.90 152.67 L 134.01 152.77 L 134.11 152.87 L 134.19 152.96 L 134.26 153.06 L 134.31 153.16 L 134.34 153.26 L 134.35 153.36 L 134.34 153.46 L 134.31 153.55 L 134.26 153.65 L 134.19 153.75 L 134.11 153.85 L 134.01 153.95 L 133.90 154.05 L 133.79 154.15 L 133.67 154.24 L 133.55 154.34 L 133.44 154.44 L 133.33 154.54 L 133.24 154.64 L 133.15 154.74 L 133.08 154.83 L 133.03 154.93 L 133.00 155.03 L 132.99 155.13 L 133.00 155.23 L 133.03 155.33 L 133.08 155.42 L 133.15 155.52 L 133.24 155.62 L 133.33 155.72 L 133.44 155.82 L 133.55 155.92 L 133.67 156.02 L 133.79 156.11 L 133.90 156.21 L 134.01 156.31 L 134.11 156.41 L 134.19 156.51 L 134.26 156.61 L 134.31 156.70 L 134.34 156.80 L 134.35 156.90 A 2.38 2.38 0 0 1 129.59 156.90 L 129.59 156.90 L 129.60 156.80 L 129.63 156.70 L 129.68 156.61 L 129.75 156.51 L 129.84 156.41 L 129.93 156.31 L 130.04 156.21 L 130.15 156.11 L 130.27 156.02 L 130.39 155.92 L 130.50 155.82 L 130.61 155.72 L 130.71 155.62 L 130.79 155.52 L 130.86 155.42 L 130.91 155.33 L 130.94 155.23 L 130.95 155.13 L 130.94 155.03 L 130.91 154.93 L 130.86 154.83 L 130.79 154.74 L 130.71 154.64 L 130.61 154.54 L 130.50 154.44 L 130.39 154.34 L 130.27 154.24 L 130.15 154.15 L 130.04 154.05 L 129.93 153.95 L 129.84 153.85 L 129.75 153.75 L 129.68 153.65 L 129.63 153.55 L 129.60 153.46 L 129.59 153.36 L 129.60 153.26 L 129.63 153.16 L 129.68 153.06 L 129.75 152.96 L 129.84 152.87 L 129.93 152.77 L 130.04 152.67 L 130.15 152.57 L 130.27 152.47 L 130.39 152.37 L 130.50 152.28 L 130.61 152.18 L 130.71 152.08 L 130.79 151.98 L 130.86 151.88 L 130.91 151.78 L 130.94 151.68 L 130.95 151.59 L 130.94 151.49 L 130.91 151.39 L 130.86 151.29 L 130.79 151.19 L 130.71 151.09 L 130.61 151.00 L 130.50 150.90 L 130.39 150.80 L 130.27 150.70 L 130.15 150.60 L 130.04 150.50 L 129.93 150.41 L 129.84 150.31 L 129.75 150.21 L 129.68 150.11 L 129.63 150.01 L 129.60 149.91 L 129.59 149.81 A 2.38 2.38 0 0 1 134.35 149.81 Z" fill="#1f7a44" fill-rule="evenodd"/></g><g transform="rotate(72.3 112.1 167.5)"><path d="M 119.14 163.78 L 119.11 163.88 L 119.02 163.98 L 118.87 164.09 L 118.67 164.19 L 118.42 164.29 L 118.14 164.39 L 117.82 164.50 L 117.48 164.60 L 117.14 164.70 L 116.79 164.81 L 116.45 164.91 L 116.14 165.01 L 115.85 165.11 L 115.60 165.22 L 115.40 165.32 L 115.26 165.42 L 115.17 165.52 L 115.14 165.63 L 115.17 165.73 L 115.26 165.83 L 115.40 165.94 L 115.60 166.04 L 115.85 166.14 L 116.14 166.24 L 116.45 166.35 L 116.79 166.45 L 117.14 166.55 L 117.48 166.66 L 117.82 166.76 L 118.14 166.86 L 118.42 166.96 L 118.67 167.07 L 118.87 167.17 L 119.02 167.27 L 119.11 167.37 L 119.14 167.48 L 119.11 167.58 L 119.02 167.68 L 118.87 167.79 L 118.67 167.89 L 118.42 167.99 L 118.14 168.09 L 117.82 168.20 L 117.48 168.30 L 117.14 168.40 L 116.79 168.50 L 116.45 168.61 L 116.14 168.71 L 115.85 168.81 L 115.60 168.92 L 115.40 169.02 L 115.26 169.12 L 115.17 169.22 L 115.14 169.33 L 115.17 169.43 L 115.26 169.53 L 115.40 169.64 L 115.60 169.74 L 115.85 169.84 L 116.14 169.94 L 116.45 170.05 L 116.79 170.15 L 117.14 170.25 L 117.48 170.35 L 117.82 170.46 L 118.14 170.56 L 118.42 170.66 L 118.67 170.77 L 118.87 170.87 L 119.02 170.97 L 119.11 171.07 L 119.14 171.18 A 7.00 7.00 0 0 1 105.14 171.18 L 105.14 171.18 L 105.17 171.07 L 105.26 170.97 L 105.40 170.87 L 105.60 170.77 L 105.85 170.66 L 106.14 170.56 L 106.45 170.46 L 106.79 170.35 L 107.14 170.25 L 107.48 170.15 L 107.82 170.05 L 108.14 169.94 L 108.42 169.84 L 108.67 169.74 L 108.87 169.64 L 109.02 169.53 L 109.11 169.43 L 109.14 169.33 L 109.11 169.22 L 109.02 169.12 L 108.87 169.02 L 108.67 168.92 L 108.42 168.81 L 108.14 168.71 L 107.82 168.61 L 107.48 168.50 L 107.14 168.40 L 106.79 168.30 L 106.45 168.20 L 106.14 168.09 L 105.85 167.99 L 105.60 167.89 L 105.40 167.79 L 105.26 167.68 L 105.17 167.58 L 105.14 167.48 L 105.17 167.37 L 105.26 167.27 L 105.40 167.17 L 105.60 167.07 L 105.85 166.96 L 106.14 166.86 L 106.45 166.76 L 106.79 166.66 L 107.14 166.55 L 107.48 166.45 L 107.82 166.35 L 108.14 166.24 L 108.42 166.14 L 108.67 166.04 L 108.87 165.94 L 109.02 165.83 L 109.11 165.73 L 109.14 165.63 L 109.11 165.52 L 109.02 165.42 L 108.87 165.32 L 108.67 165.22 L 108.42 165.11 L 108.14 165.01 L 107.82 164.91 L 107.48 164.81 L 107.14 164.70 L 106.79 164.60 L 106.45 164.50 L 106.14 164.39 L 105.85 164.29 L 105.60 164.19 L 105.40 164.09 L 105.26 163.98 L 105.17 163.88 L 105.14 163.78 A 7.00 7.00 0 0 1 119.14 163.78 Z M 114.52 164.00 L 114.51 164.10 L 114.47 164.19 L 114.42 164.29 L 114.36 164.39 L 114.27 164.48 L 114.18 164.58 L 114.07 164.68 L 113.95 164.77 L 113.84 164.87 L 113.72 164.97 L 113.60 165.06 L 113.50 165.16 L 113.40 165.26 L 113.31 165.35 L 113.25 165.45 L 113.20 165.55 L 113.17 165.64 L 113.16 165.74 L 113.17 165.83 L 113.20 165.93 L 113.25 166.03 L 113.31 166.12 L 113.40 166.22 L 113.50 166.32 L 113.60 166.41 L 113.72 166.51 L 113.84 166.61 L 113.95 166.70 L 114.07 166.80 L 114.18 166.90 L 114.27 166.99 L 114.36 167.09 L 114.42 167.19 L 114.47 167.28 L 114.51 167.38 L 114.52 167.48 L 114.51 167.57 L 114.47 167.67 L 114.42 167.77 L 114.36 167.86 L 114.27 167.96 L 114.18 168.06 L 114.07 168.15 L 113.95 168.25 L 113.84 168.35 L 113.72 168.44 L 113.60 168.54 L 113.50 168.64 L 113.40 168.73 L 113.31 168.83 L 113.25 168.93 L 113.20 169.02 L 113.17 169.12 L 113.16 169.22 L 113.17 169.31 L 113.20 169.41 L 113.25 169.51 L 113.31 169.60 L 113.40 169.70 L 113.50 169.80 L 113.60 169.89 L 113.72 169.99 L 113.84 170.09 L 113.95 170.18 L 114.07 170.28 L 114.18 170.38 L 114.27 170.47 L 114.36 170.57 L 114.42 170.66 L 114.47 170.76 L 114.51 170.86 L 114.52 170.95 A 2.38 2.38 0 0 1 109.76 170.95 L 109.76 170.95 L 109.77 170.86 L 109.80 170.76 L 109.85 170.66 L 109.91 170.57 L 110.00 170.47 L 110.10 170.38 L 110.20 170.28 L 110.32 170.18 L 110.44 170.09 L 110.55 169.99 L 110.67 169.89 L 110.78 169.80 L 110.87 169.70 L 110.96 169.60 L 111.02 169.51 L 111.07 169.41 L 111.11 169.31 L 111.12 169.22 L 111.11 169.12 L 111.07 169.02 L 111.02 168.93 L 110.96 168.83 L 110.87 168.73 L 110.78 168.64 L 110.67 168.54 L 110.55 168.44 L 110.44 168.35 L 110.32 168.25 L 110.20 168.15 L 110.10 168.06 L 110.00 167.96 L 109.91 167.86 L 109.85 167.77 L 109.80 167.67 L 109.77 167.57 L 109.76 167.48 L 109.77 167.38 L 109.80 167.28 L 109.85 167.19 L 109.91 167.09 L 110.00 166.99 L 110.10 166.90 L 110.20 166.80 L 110.32 166.70 L 110.44 166.61 L 110.55 166.51 L 110.67 166.41 L 110.78 166.32 L 110.87 166.22 L 110.96 166.12 L 111.02 166.03 L 111.07 165.93 L 111.11 165.83 L 111.12 165.74 L 111.11 165.64 L 111.07 165.55 L 111.02 165.45 L 110.96 165.35 L 110.87 165.26 L 110.78 165.16 L 110.67 165.06 L 110.55 164.97 L 110.44 164.87 L 110.32 164.77 L 110.20 164.68 L 110.10 164.58 L 110.00 164.48 L 109.91 164.39 L 109.85 164.29 L 109.80 164.19 L 109.77 164.10 L 109.76 164.00 A 2.38 2.38 0 0 1 114.52 164.00 Z" fill="#1f7a44" fill-rule="evenodd"/></g><g transform="rotate(-252.3 87.9 167.5)"><path d="M 94.86 163.78 L 94.83 163.88 L 94.74 163.98 L 94.60 164.09 L 94.40 164.19 L 94.15 164.29 L 93.86 164.39 L 93.55 164.50 L 93.21 164.60 L 92.86 164.70 L 92.52 164.81 L 92.18 164.91 L 91.86 165.01 L 91.58 165.11 L 91.33 165.22 L 91.13 165.32 L 90.98 165.42 L 90.89 165.52 L 90.86 165.63 L 90.89 165.73 L 90.98 165.83 L 91.13 165.94 L 91.33 166.04 L 91.58 166.14 L 91.86 166.24 L 92.18 166.35 L 92.52 166.45 L 92.86 166.55 L 93.21 166.66 L 93.55 166.76 L 93.86 166.86 L 94.15 166.96 L 94.40 167.07 L 94.60 167.17 L 94.74 167.27 L 94.83 167.37 L 94.86 167.48 L 94.83 167.58 L 94.74 167.68 L 94.60 167.79 L 94.40 167.89 L 94.15 167.99 L 93.86 168.09 L 93.55 168.20 L 93.21 168.30 L 92.86 168.40 L 92.52 168.50 L 92.18 168.61 L 91.86 168.71 L 91.58 168.81 L 91.33 168.92 L 91.13 169.02 L 90.98 169.12 L 90.89 169.22 L 90.86 169.33 L 90.89 169.43 L 90.98 169.53 L 91.13 169.64 L 91.33 169.74 L 91.58 169.84 L 91.86 169.94 L 92.18 170.05 L 92.52 170.15 L 92.86 170.25 L 93.21 170.35 L 93.55 170.46 L 93.86 170.56 L 94.15 170.66 L 94.40 170.77 L 94.60 170.87 L 94.74 170.97 L 94.83 171.07 L 94.86 171.18 A 7.00 7.00 0 0 1 80.86 171.18 L 80.86 171.18 L 80.89 171.07 L 80.98 170.97 L 81.13 170.87 L 81.33 170.77 L 81.58 170.66 L 81.86 170.56 L 82.18 170.46 L 82.52 170.35 L 82.86 170.25 L 83.21 170.15 L 83.55 170.05 L 83.86 169.94 L 84.15 169.84 L 84.40 169.74 L 84.60 169.64 L 84.74 169.53 L 84.83 169.43 L 84.86 169.33 L 84.83 169.22 L 84.74 169.12 L 84.60 169.02 L 84.40 168.92 L 84.15 168.81 L 83.86 168.71 L 83.55 168.61 L 83.21 168.50 L 82.86 168.40 L 82.52 168.30 L 82.18 168.20 L 81.86 168.09 L 81.58 167.99 L 81.33 167.89 L 81.13 167.79 L 80.98 167.68 L 80.89 167.58 L 80.86 167.48 L 80.89 167.37 L 80.98 167.27 L 81.13 167.17 L 81.33 167.07 L 81.58 166.96 L 81.86 166.86 L 82.18 166.76 L 82.52 166.66 L 82.86 166.55 L 83.21 166.45 L 83.55 166.35 L 83.86 166.24 L 84.15 166.14 L 84.40 166.04 L 84.60 165.94 L 84.74 165.83 L 84.83 165.73 L 84.86 165.63 L 84.83 165.52 L 84.74 165.42 L 84.60 165.32 L 84.40 165.22 L 84.15 165.11 L 83.86 165.01 L 83.55 164.91 L 83.21 164.81 L 82.86 164.70 L 82.52 164.60 L 82.18 164.50 L 81.86 164.39 L 81.58 164.29 L 81.33 164.19 L 81.13 164.09 L 80.98 163.98 L 80.89 163.88 L 80.86 163.78 A 7.00 7.00 0 0 1 94.86 163.78 Z M 90.24 164.00 L 90.23 164.10 L 90.20 164.19 L 90.15 164.29 L 90.09 164.39 L 90.00 164.48 L 89.90 164.58 L 89.80 164.68 L 89.68 164.77 L 89.56 164.87 L 89.45 164.97 L 89.33 165.06 L 89.22 165.16 L 89.13 165.26 L 89.04 165.35 L 88.98 165.45 L 88.93 165.55 L 88.89 165.64 L 88.88 165.74 L 88.89 165.83 L 88.93 165.93 L 88.98 166.03 L 89.04 166.12 L 89.13 166.22 L 89.22 166.32 L 89.33 166.41 L 89.45 166.51 L 89.56 166.61 L 89.68 166.70 L 89.80 166.80 L 89.90 166.90 L 90.00 166.99 L 90.09 167.09 L 90.15 167.19 L 90.20 167.28 L 90.23 167.38 L 90.24 167.48 L 90.23 167.57 L 90.20 167.67 L 90.15 167.77 L 90.09 167.86 L 90.00 167.96 L 89.90 168.06 L 89.80 168.15 L 89.68 168.25 L 89.56 168.35 L 89.45 168.44 L 89.33 168.54 L 89.22 168.64 L 89.13 168.73 L 89.04 168.83 L 88.98 168.93 L 88.93 169.02 L 88.89 169.12 L 88.88 169.22 L 88.89 169.31 L 88.93 169.41 L 88.98 169.51 L 89.04 169.60 L 89.13 169.70 L 89.22 169.80 L 89.33 169.89 L 89.45 169.99 L 89.56 170.09 L 89.68 170.18 L 89.80 170.28 L 89.90 170.38 L 90.00 170.47 L 90.09 170.57 L 90.15 170.66 L 90.20 170.76 L 90.23 170.86 L 90.24 170.95 A 2.38 2.38 0 0 1 85.48 170.95 L 85.48 170.95 L 85.49 170.86 L 85.53 170.76 L 85.58 170.66 L 85.64 170.57 L 85.73 170.47 L 85.82 170.38 L 85.93 170.28 L 86.05 170.18 L 86.16 170.09 L 86.28 169.99 L 86.40 169.89 L 86.50 169.80 L 86.60 169.70 L 86.69 169.60 L 86.75 169.51 L 86.80 169.41 L 86.83 169.31 L 86.84 169.22 L 86.83 169.12 L 86.80 169.02 L 86.75 168.93 L 86.69 168.83 L 86.60 168.73 L 86.50 168.64 L 86.40 168.54 L 86.28 168.44 L 86.16 168.35 L 86.05 168.25 L 85.93 168.15 L 85.82 168.06 L 85.73 167.96 L 85.64 167.86 L 85.58 167.77 L 85.53 167.67 L 85.49 167.57 L 85.48 167.48 L 85.49 167.38 L 85.53 167.28 L 85.58 167.19 L 85.64 167.09 L 85.73 166.99 L 85.82 166.90 L 85.93 166.80 L 86.05 166.70 L 86.16 166.61 L 86.28 166.51 L 86.40 166.41 L 86.50 166.32 L 86.60 166.22 L 86.69 166.12 L 86.75 166.03 L 86.80 165.93 L 86.83 165.83 L 86.84 165.74 L 86.83 165.64 L 86.80 165.55 L 86.75 165.45 L 86.69 165.35 L 86.60 165.26 L 86.50 165.16 L 86.40 165.06 L 86.28 164.97 L 86.16 164.87 L 86.05 164.77 L 85.93 164.68 L 85.82 164.58 L 85.73 164.48 L 85.64 164.39 L 85.58 164.29 L 85.53 164.19 L 85.49 164.10 L 85.48 164.00 A 2.38 2.38 0 0 1 90.24 164.00 Z" fill="#1f7a44" fill-rule="evenodd"/></g><g transform="rotate(-216.9 68.0 153.4)"><path d="M 75.03 149.59 L 75.00 149.69 L 74.91 149.80 L 74.76 149.90 L 74.56 150.01 L 74.31 150.11 L 74.03 150.22 L 73.71 150.32 L 73.38 150.43 L 73.03 150.53 L 72.68 150.64 L 72.34 150.74 L 72.03 150.85 L 71.74 150.95 L 71.50 151.05 L 71.30 151.16 L 71.15 151.26 L 71.06 151.37 L 71.03 151.47 L 71.06 151.58 L 71.15 151.68 L 71.30 151.79 L 71.50 151.89 L 71.74 152.00 L 72.03 152.10 L 72.34 152.21 L 72.68 152.31 L 73.03 152.42 L 73.38 152.52 L 73.71 152.62 L 74.03 152.73 L 74.31 152.83 L 74.56 152.94 L 74.76 153.04 L 74.91 153.15 L 75.00 153.25 L 75.03 153.36 L 75.00 153.46 L 74.91 153.57 L 74.76 153.67 L 74.56 153.78 L 74.31 153.88 L 74.03 153.99 L 73.71 154.09 L 73.38 154.20 L 73.03 154.30 L 72.68 154.40 L 72.34 154.51 L 72.03 154.61 L 71.74 154.72 L 71.50 154.82 L 71.30 154.93 L 71.15 155.03 L 71.06 155.14 L 71.03 155.24 L 71.06 155.35 L 71.15 155.45 L 71.30 155.56 L 71.50 155.66 L 71.74 155.77 L 72.03 155.87 L 72.34 155.98 L 72.68 156.08 L 73.03 156.18 L 73.38 156.29 L 73.71 156.39 L 74.03 156.50 L 74.31 156.60 L 74.56 156.71 L 74.76 156.81 L 74.91 156.92 L 75.00 157.02 L 75.03 157.13 A 7.00 7.00 0 0 1 61.03 157.13 L 61.03 157.13 L 61.06 157.02 L 61.15 156.92 L 61.30 156.81 L 61.50 156.71 L 61.74 156.60 L 62.03 156.50 L 62.34 156.39 L 62.68 156.29 L 63.03 156.18 L 63.38 156.08 L 63.71 155.98 L 64.03 155.87 L 64.31 155.77 L 64.56 155.66 L 64.76 155.56 L 64.91 155.45 L 65.00 155.35 L 65.03 155.24 L 65.00 155.14 L 64.91 155.03 L 64.76 154.93 L 64.56 154.82 L 64.31 154.72 L 64.03 154.61 L 63.71 154.51 L 63.38 154.40 L 63.03 154.30 L 62.68 154.20 L 62.34 154.09 L 62.03 153.99 L 61.74 153.88 L 61.50 153.78 L 61.30 153.67 L 61.15 153.57 L 61.06 153.46 L 61.03 153.36 L 61.06 153.25 L 61.15 153.15 L 61.30 153.04 L 61.50 152.94 L 61.74 152.83 L 62.03 152.73 L 62.34 152.62 L 62.68 152.52 L 63.03 152.42 L 63.38 152.31 L 63.71 152.21 L 64.03 152.10 L 64.31 152.00 L 64.56 151.89 L 64.76 151.79 L 64.91 151.68 L 65.00 151.58 L 65.03 151.47 L 65.00 151.37 L 64.91 151.26 L 64.76 151.16 L 64.56 151.05 L 64.31 150.95 L 64.03 150.85 L 63.71 150.74 L 63.38 150.64 L 63.03 150.53 L 62.68 150.43 L 62.34 150.32 L 62.03 150.22 L 61.74 150.11 L 61.50 150.01 L 61.30 149.90 L 61.15 149.80 L 61.06 149.69 L 61.03 149.59 A 7.00 7.00 0 0 1 75.03 149.59 Z M 70.41 149.81 L 70.40 149.91 L 70.37 150.01 L 70.32 150.11 L 70.25 150.21 L 70.16 150.31 L 70.07 150.41 L 69.96 150.50 L 69.85 150.60 L 69.73 150.70 L 69.61 150.80 L 69.50 150.90 L 69.39 151.00 L 69.29 151.09 L 69.21 151.19 L 69.14 151.29 L 69.09 151.39 L 69.06 151.49 L 69.05 151.59 L 69.06 151.68 L 69.09 151.78 L 69.14 151.88 L 69.21 151.98 L 69.29 152.08 L 69.39 152.18 L 69.50 152.28 L 69.61 152.37 L 69.73 152.47 L 69.85 152.57 L 69.96 152.67 L 70.07 152.77 L 70.16 152.87 L 70.25 152.96 L 70.32 153.06 L 70.37 153.16 L 70.40 153.26 L 70.41 153.36 L 70.40 153.46 L 70.37 153.55 L 70.32 153.65 L 70.25 153.75 L 70.16 153.85 L 70.07 153.95 L 69.96 154.05 L 69.85 154.15 L 69.73 154.24 L 69.61 154.34 L 69.50 154.44 L 69.39 154.54 L 69.29 154.64 L 69.21 154.74 L 69.14 154.83 L 69.09 154.93 L 69.06 155.03 L 69.05 155.13 L 69.06 155.23 L 69.09 155.33 L 69.14 155.42 L 69.21 155.52 L 69.29 155.62 L 69.39 155.72 L 69.50 155.82 L 69.61 155.92 L 69.73 156.02 L 69.85 156.11 L 69.96 156.21 L 70.07 156.31 L 70.16 156.41 L 70.25 156.51 L 70.32 156.61 L 70.37 156.70 L 70.40 156.80 L 70.41 156.90 A 2.38 2.38 0 0 1 65.65 156.90 L 65.65 156.90 L 65.66 156.80 L 65.69 156.70 L 65.74 156.61 L 65.81 156.51 L 65.89 156.41 L 65.99 156.31 L 66.10 156.21 L 66.21 156.11 L 66.33 156.02 L 66.45 155.92 L 66.56 155.82 L 66.67 155.72 L 66.76 155.62 L 66.85 155.52 L 66.92 155.42 L 66.97 155.33 L 67.00 155.23 L 67.01 155.13 L 67.00 155.03 L 66.97 154.93 L 66.92 154.83 L 66.85 154.74 L 66.76 154.64 L 66.67 154.54 L 66.56 154.44 L 66.45 154.34 L 66.33 154.24 L 66.21 154.15 L 66.10 154.05 L 65.99 153.95 L 65.89 153.85 L 65.81 153.75 L 65.74 153.65 L 65.69 153.55 L 65.66 153.46 L 65.65 153.36 L 65.66 153.26 L 65.69 153.16 L 65.74 153.06 L 65.81 152.96 L 65.89 152.87 L 65.99 152.77 L 66.10 152.67 L 66.21 152.57 L 66.33 152.47 L 66.45 152.37 L 66.56 152.28 L 66.67 152.18 L 66.76 152.08 L 66.85 151.98 L 66.92 151.88 L 66.97 151.78 L 67.00 151.68 L 67.01 151.59 L 67.00 151.49 L 66.97 151.39 L 66.92 151.29 L 66.85 151.19 L 66.76 151.09 L 66.67 151.00 L 66.56 150.90 L 66.45 150.80 L 66.33 150.70 L 66.21 150.60 L 66.10 150.50 L 65.99 150.41 L 65.89 150.31 L 65.81 150.21 L 65.74 150.11 L 65.69 150.01 L 65.66 149.91 L 65.65 149.81 A 2.38 2.38 0 0 1 70.41 149.81 Z" fill="#1f7a44" fill-rule="evenodd"/></g><g transform="rotate(-181.4 60.0 130.1)"><path d="M 67.00 126.22 L 66.97 126.33 L 66.88 126.44 L 66.73 126.55 L 66.53 126.65 L 66.29 126.76 L 66.00 126.87 L 65.69 126.98 L 65.35 127.09 L 65.00 127.20 L 64.66 127.31 L 64.32 127.41 L 64.00 127.52 L 63.72 127.63 L 63.47 127.74 L 63.27 127.85 L 63.12 127.96 L 63.03 128.06 L 63.00 128.17 L 63.03 128.28 L 63.12 128.39 L 63.27 128.50 L 63.47 128.61 L 63.72 128.72 L 64.00 128.82 L 64.32 128.93 L 64.66 129.04 L 65.00 129.15 L 65.35 129.26 L 65.69 129.37 L 66.00 129.48 L 66.29 129.58 L 66.53 129.69 L 66.73 129.80 L 66.88 129.91 L 66.97 130.02 L 67.00 130.13 L 66.97 130.24 L 66.88 130.34 L 66.73 130.45 L 66.53 130.56 L 66.29 130.67 L 66.00 130.78 L 65.69 130.89 L 65.35 131.00 L 65.00 131.10 L 64.66 131.21 L 64.32 131.32 L 64.00 131.43 L 63.72 131.54 L 63.47 131.65 L 63.27 131.76 L 63.12 131.86 L 63.03 131.97 L 63.00 132.08 L 63.03 132.19 L 63.12 132.30 L 63.27 132.41 L 63.47 132.51 L 63.72 132.62 L 64.00 132.73 L 64.32 132.84 L 64.66 132.95 L 65.00 133.06 L 65.35 133.17 L 65.69 133.27 L 66.00 133.38 L 66.29 133.49 L 66.53 133.60 L 66.73 133.71 L 66.88 133.82 L 66.97 133.93 L 67.00 134.03 A 7.00 7.00 0 0 1 53.00 134.03 L 53.00 134.03 L 53.03 133.93 L 53.12 133.82 L 53.27 133.71 L 53.47 133.60 L 53.72 133.49 L 54.00 133.38 L 54.32 133.27 L 54.66 133.17 L 55.00 133.06 L 55.35 132.95 L 55.69 132.84 L 56.00 132.73 L 56.29 132.62 L 56.53 132.51 L 56.73 132.41 L 56.88 132.30 L 56.97 132.19 L 57.00 132.08 L 56.97 131.97 L 56.88 131.86 L 56.73 131.76 L 56.53 131.65 L 56.29 131.54 L 56.00 131.43 L 55.69 131.32 L 55.35 131.21 L 55.00 131.10 L 54.66 131.00 L 54.32 130.89 L 54.00 130.78 L 53.72 130.67 L 53.47 130.56 L 53.27 130.45 L 53.12 130.34 L 53.03 130.24 L 53.00 130.13 L 53.03 130.02 L 53.12 129.91 L 53.27 129.80 L 53.47 129.69 L 53.72 129.58 L 54.00 129.48 L 54.32 129.37 L 54.66 129.26 L 55.00 129.15 L 55.35 129.04 L 55.69 128.93 L 56.00 128.82 L 56.29 128.72 L 56.53 128.61 L 56.73 128.50 L 56.88 128.39 L 56.97 128.28 L 57.00 128.17 L 56.97 128.06 L 56.88 127.96 L 56.73 127.85 L 56.53 127.74 L 56.29 127.63 L 56.00 127.52 L 55.69 127.41 L 55.35 127.31 L 55.00 127.20 L 54.66 127.09 L 54.32 126.98 L 54.00 126.87 L 53.72 126.76 L 53.47 126.65 L 53.27 126.55 L 53.12 126.44 L 53.03 126.33 L 53.00 126.22 A 7.00 7.00 0 0 1 67.00 126.22 Z M 62.38 126.45 L 62.37 126.56 L 62.34 126.66 L 62.29 126.76 L 62.22 126.86 L 62.14 126.96 L 62.04 127.07 L 61.94 127.17 L 61.82 127.27 L 61.70 127.37 L 61.58 127.47 L 61.47 127.58 L 61.36 127.68 L 61.27 127.78 L 61.18 127.88 L 61.11 127.98 L 61.06 128.09 L 61.03 128.19 L 61.02 128.29 L 61.03 128.39 L 61.06 128.49 L 61.11 128.60 L 61.18 128.70 L 61.27 128.80 L 61.36 128.90 L 61.47 129.00 L 61.58 129.11 L 61.70 129.21 L 61.82 129.31 L 61.94 129.41 L 62.04 129.51 L 62.14 129.62 L 62.22 129.72 L 62.29 129.82 L 62.34 129.92 L 62.37 130.03 L 62.38 130.13 L 62.37 130.23 L 62.34 130.33 L 62.29 130.43 L 62.22 130.54 L 62.14 130.64 L 62.04 130.74 L 61.94 130.84 L 61.82 130.94 L 61.70 131.05 L 61.58 131.15 L 61.47 131.25 L 61.36 131.35 L 61.27 131.45 L 61.18 131.56 L 61.11 131.66 L 61.06 131.76 L 61.03 131.86 L 61.02 131.96 L 61.03 132.07 L 61.06 132.17 L 61.11 132.27 L 61.18 132.37 L 61.27 132.47 L 61.36 132.58 L 61.47 132.68 L 61.58 132.78 L 61.70 132.88 L 61.82 132.98 L 61.94 133.09 L 62.04 133.19 L 62.14 133.29 L 62.22 133.39 L 62.29 133.49 L 62.34 133.60 L 62.37 133.70 L 62.38 133.80 A 2.38 2.38 0 0 1 57.62 133.80 L 57.62 133.80 L 57.63 133.70 L 57.66 133.60 L 57.71 133.49 L 57.78 133.39 L 57.87 133.29 L 57.96 133.19 L 58.07 133.09 L 58.18 132.98 L 58.30 132.88 L 58.42 132.78 L 58.54 132.68 L 58.64 132.58 L 58.74 132.47 L 58.82 132.37 L 58.89 132.27 L 58.94 132.17 L 58.97 132.07 L 58.98 131.96 L 58.97 131.86 L 58.94 131.76 L 58.89 131.66 L 58.82 131.56 L 58.74 131.45 L 58.64 131.35 L 58.54 131.25 L 58.42 131.15 L 58.30 131.05 L 58.18 130.94 L 58.07 130.84 L 57.96 130.74 L 57.87 130.64 L 57.78 130.54 L 57.71 130.43 L 57.66 130.33 L 57.63 130.23 L 57.62 130.13 L 57.63 130.03 L 57.66 129.92 L 57.71 129.82 L 57.78 129.72 L 57.87 129.62 L 57.96 129.51 L 58.07 129.41 L 58.18 129.31 L 58.30 129.21 L 58.42 129.11 L 58.54 129.00 L 58.64 128.90 L 58.74 128.80 L 58.82 128.70 L 58.89 128.60 L 58.94 128.49 L 58.97 128.39 L 58.98 128.29 L 58.97 128.19 L 58.94 128.09 L 58.89 127.98 L 58.82 127.88 L 58.74 127.78 L 58.64 127.68 L 58.54 127.58 L 58.42 127.47 L 58.30 127.37 L 58.18 127.27 L 58.07 127.17 L 57.96 127.07 L 57.87 126.96 L 57.78 126.86 L 57.71 126.76 L 57.66 126.66 L 57.63 126.56 L 57.62 126.45 A 2.38 2.38 0 0 1 62.38 126.45 Z" fill="#1f7a44" fill-rule="evenodd"/></g><g transform="rotate(-145.8 67.1 106.2)"><path d="M 74.11 102.09 L 74.08 102.21 L 73.99 102.32 L 73.84 102.44 L 73.64 102.55 L 73.40 102.67 L 73.11 102.78 L 72.80 102.89 L 72.46 103.01 L 72.11 103.12 L 71.76 103.24 L 71.43 103.35 L 71.11 103.46 L 70.83 103.58 L 70.58 103.69 L 70.38 103.81 L 70.23 103.92 L 70.14 104.04 L 70.11 104.15 L 70.14 104.26 L 70.23 104.38 L 70.38 104.49 L 70.58 104.61 L 70.83 104.72 L 71.11 104.84 L 71.43 104.95 L 71.76 105.06 L 72.11 105.18 L 72.46 105.29 L 72.80 105.41 L 73.11 105.52 L 73.40 105.63 L 73.64 105.75 L 73.84 105.86 L 73.99 105.98 L 74.08 106.09 L 74.11 106.21 L 74.08 106.32 L 73.99 106.43 L 73.84 106.55 L 73.64 106.66 L 73.40 106.78 L 73.11 106.89 L 72.80 107.00 L 72.46 107.12 L 72.11 107.23 L 71.76 107.35 L 71.43 107.46 L 71.11 107.58 L 70.83 107.69 L 70.58 107.80 L 70.38 107.92 L 70.23 108.03 L 70.14 108.15 L 70.11 108.26 L 70.14 108.38 L 70.23 108.49 L 70.38 108.60 L 70.58 108.72 L 70.83 108.83 L 71.11 108.95 L 71.43 109.06 L 71.76 109.17 L 72.11 109.29 L 72.46 109.40 L 72.80 109.52 L 73.11 109.63 L 73.40 109.75 L 73.64 109.86 L 73.84 109.97 L 73.99 110.09 L 74.08 110.20 L 74.11 110.32 A 7.00 7.00 0 0 1 60.11 110.32 L 60.11 110.32 L 60.14 110.20 L 60.23 110.09 L 60.38 109.97 L 60.58 109.86 L 60.83 109.75 L 61.11 109.63 L 61.43 109.52 L 61.76 109.40 L 62.11 109.29 L 62.46 109.17 L 62.80 109.06 L 63.11 108.95 L 63.40 108.83 L 63.64 108.72 L 63.84 108.60 L 63.99 108.49 L 64.08 108.38 L 64.11 108.26 L 64.08 108.15 L 63.99 108.03 L 63.84 107.92 L 63.64 107.80 L 63.40 107.69 L 63.11 107.58 L 62.80 107.46 L 62.46 107.35 L 62.11 107.23 L 61.76 107.12 L 61.43 107.00 L 61.11 106.89 L 60.83 106.78 L 60.58 106.66 L 60.38 106.55 L 60.23 106.43 L 60.14 106.32 L 60.11 106.21 L 60.14 106.09 L 60.23 105.98 L 60.38 105.86 L 60.58 105.75 L 60.83 105.63 L 61.11 105.52 L 61.43 105.41 L 61.76 105.29 L 62.11 105.18 L 62.46 105.06 L 62.80 104.95 L 63.11 104.84 L 63.40 104.72 L 63.64 104.61 L 63.84 104.49 L 63.99 104.38 L 64.08 104.26 L 64.11 104.15 L 64.08 104.04 L 63.99 103.92 L 63.84 103.81 L 63.64 103.69 L 63.40 103.58 L 63.11 103.46 L 62.80 103.35 L 62.46 103.24 L 62.11 103.12 L 61.76 103.01 L 61.43 102.89 L 61.11 102.78 L 60.83 102.67 L 60.58 102.55 L 60.38 102.44 L 60.23 102.32 L 60.14 102.21 L 60.11 102.09 A 7.00 7.00 0 0 1 74.11 102.09 Z M 69.49 102.34 L 69.48 102.45 L 69.45 102.56 L 69.40 102.66 L 69.33 102.77 L 69.25 102.88 L 69.15 102.99 L 69.04 103.09 L 68.93 103.20 L 68.81 103.31 L 68.69 103.41 L 68.58 103.52 L 68.47 103.63 L 68.37 103.74 L 68.29 103.84 L 68.22 103.95 L 68.17 104.06 L 68.14 104.17 L 68.13 104.27 L 68.14 104.38 L 68.17 104.49 L 68.22 104.60 L 68.29 104.70 L 68.37 104.81 L 68.47 104.92 L 68.58 105.02 L 68.69 105.13 L 68.81 105.24 L 68.93 105.35 L 69.04 105.45 L 69.15 105.56 L 69.25 105.67 L 69.33 105.78 L 69.40 105.88 L 69.45 105.99 L 69.48 106.10 L 69.49 106.21 L 69.48 106.31 L 69.45 106.42 L 69.40 106.53 L 69.33 106.63 L 69.25 106.74 L 69.15 106.85 L 69.04 106.96 L 68.93 107.06 L 68.81 107.17 L 68.69 107.28 L 68.58 107.39 L 68.47 107.49 L 68.37 107.60 L 68.29 107.71 L 68.22 107.82 L 68.17 107.92 L 68.14 108.03 L 68.13 108.14 L 68.14 108.25 L 68.17 108.35 L 68.22 108.46 L 68.29 108.57 L 68.37 108.67 L 68.47 108.78 L 68.58 108.89 L 68.69 109.00 L 68.81 109.10 L 68.93 109.21 L 69.04 109.32 L 69.15 109.43 L 69.25 109.53 L 69.33 109.64 L 69.40 109.75 L 69.45 109.86 L 69.48 109.96 L 69.49 110.07 A 2.38 2.38 0 0 1 64.73 110.07 L 64.73 110.07 L 64.74 109.96 L 64.77 109.86 L 64.82 109.75 L 64.89 109.64 L 64.97 109.53 L 65.07 109.43 L 65.18 109.32 L 65.29 109.21 L 65.41 109.10 L 65.53 109.00 L 65.64 108.89 L 65.75 108.78 L 65.85 108.67 L 65.93 108.57 L 66.00 108.46 L 66.05 108.35 L 66.08 108.25 L 66.09 108.14 L 66.08 108.03 L 66.05 107.92 L 66.00 107.82 L 65.93 107.71 L 65.85 107.60 L 65.75 107.49 L 65.64 107.39 L 65.53 107.28 L 65.41 107.17 L 65.29 107.06 L 65.18 106.96 L 65.07 106.85 L 64.97 106.74 L 64.89 106.63 L 64.82 106.53 L 64.77 106.42 L 64.74 106.31 L 64.73 106.21 L 64.74 106.10 L 64.77 105.99 L 64.82 105.88 L 64.89 105.78 L 64.97 105.67 L 65.07 105.56 L 65.18 105.45 L 65.29 105.35 L 65.41 105.24 L 65.53 105.13 L 65.64 105.02 L 65.75 104.92 L 65.85 104.81 L 65.93 104.70 L 66.00 104.60 L 66.05 104.49 L 66.08 104.38 L 66.09 104.27 L 66.08 104.17 L 66.05 104.06 L 66.00 103.95 L 65.93 103.84 L 65.85 103.74 L 65.75 103.63 L 65.64 103.52 L 65.53 103.41 L 65.41 103.31 L 65.29 103.20 L 65.18 103.09 L 65.07 102.99 L 64.97 102.88 L 64.89 102.77 L 64.82 102.66 L 64.77 102.56 L 64.74 102.45 L 64.73 102.34 A 2.38 2.38 0 0 1 69.49 102.34 Z" fill="#1f7a44" fill-rule="evenodd"/></g><g transform="rotate(-110.0 87.3 90.6)"><path d="M 94.27 86.26 L 94.24 86.38 L 94.15 86.50 L 94.00 86.62 L 93.80 86.74 L 93.56 86.86 L 93.27 86.98 L 92.96 87.11 L 92.62 87.23 L 92.27 87.35 L 91.93 87.47 L 91.59 87.59 L 91.27 87.71 L 90.99 87.84 L 90.74 87.96 L 90.54 88.08 L 90.39 88.20 L 90.30 88.32 L 90.27 88.44 L 90.30 88.57 L 90.39 88.69 L 90.54 88.81 L 90.74 88.93 L 90.99 89.05 L 91.27 89.17 L 91.59 89.29 L 91.93 89.42 L 92.27 89.54 L 92.62 89.66 L 92.96 89.78 L 93.27 89.90 L 93.56 90.02 L 93.80 90.15 L 94.00 90.27 L 94.15 90.39 L 94.24 90.51 L 94.27 90.63 L 94.24 90.75 L 94.15 90.88 L 94.00 91.00 L 93.80 91.12 L 93.56 91.24 L 93.27 91.36 L 92.96 91.48 L 92.62 91.60 L 92.27 91.73 L 91.93 91.85 L 91.59 91.97 L 91.27 92.09 L 90.99 92.21 L 90.74 92.33 L 90.54 92.46 L 90.39 92.58 L 90.30 92.70 L 90.27 92.82 L 90.30 92.94 L 90.39 93.06 L 90.54 93.19 L 90.74 93.31 L 90.99 93.43 L 91.27 93.55 L 91.59 93.67 L 91.93 93.79 L 92.27 93.92 L 92.62 94.04 L 92.96 94.16 L 93.27 94.28 L 93.56 94.40 L 93.80 94.52 L 94.00 94.64 L 94.15 94.77 L 94.24 94.89 L 94.27 95.01 A 7.00 7.00 0 0 1 80.27 95.01 L 80.27 95.01 L 80.30 94.89 L 80.39 94.77 L 80.54 94.64 L 80.74 94.52 L 80.99 94.40 L 81.27 94.28 L 81.59 94.16 L 81.93 94.04 L 82.27 93.92 L 82.62 93.79 L 82.96 93.67 L 83.27 93.55 L 83.56 93.43 L 83.80 93.31 L 84.00 93.19 L 84.15 93.06 L 84.24 92.94 L 84.27 92.82 L 84.24 92.70 L 84.15 92.58 L 84.00 92.46 L 83.80 92.33 L 83.56 92.21 L 83.27 92.09 L 82.96 91.97 L 82.62 91.85 L 82.27 91.73 L 81.93 91.60 L 81.59 91.48 L 81.27 91.36 L 80.99 91.24 L 80.74 91.12 L 80.54 91.00 L 80.39 90.88 L 80.30 90.75 L 80.27 90.63 L 80.30 90.51 L 80.39 90.39 L 80.54 90.27 L 80.74 90.15 L 80.99 90.02 L 81.27 89.90 L 81.59 89.78 L 81.93 89.66 L 82.27 89.54 L 82.62 89.42 L 82.96 89.29 L 83.27 89.17 L 83.56 89.05 L 83.80 88.93 L 84.00 88.81 L 84.15 88.69 L 84.24 88.57 L 84.27 88.44 L 84.24 88.32 L 84.15 88.20 L 84.00 88.08 L 83.80 87.96 L 83.56 87.84 L 83.27 87.71 L 82.96 87.59 L 82.62 87.47 L 82.27 87.35 L 81.93 87.23 L 81.59 87.11 L 81.27 86.98 L 80.99 86.86 L 80.74 86.74 L 80.54 86.62 L 80.39 86.50 L 80.30 86.38 L 80.27 86.26 A 7.00 7.00 0 0 1 94.27 86.26 Z M 89.65 86.52 L 89.64 86.63 L 89.61 86.75 L 89.56 86.86 L 89.49 86.98 L 89.41 87.09 L 89.31 87.20 L 89.21 87.32 L 89.09 87.43 L 88.97 87.55 L 88.85 87.66 L 88.74 87.78 L 88.63 87.89 L 88.54 88.00 L 88.45 88.12 L 88.38 88.23 L 88.33 88.35 L 88.30 88.46 L 88.29 88.58 L 88.30 88.69 L 88.33 88.80 L 88.38 88.92 L 88.45 89.03 L 88.54 89.15 L 88.63 89.26 L 88.74 89.38 L 88.85 89.49 L 88.97 89.60 L 89.09 89.72 L 89.21 89.83 L 89.31 89.95 L 89.41 90.06 L 89.49 90.18 L 89.56 90.29 L 89.61 90.40 L 89.64 90.52 L 89.65 90.63 L 89.64 90.75 L 89.61 90.86 L 89.56 90.98 L 89.49 91.09 L 89.41 91.20 L 89.31 91.32 L 89.21 91.43 L 89.09 91.55 L 88.97 91.66 L 88.85 91.78 L 88.74 91.89 L 88.63 92.00 L 88.54 92.12 L 88.45 92.23 L 88.38 92.35 L 88.33 92.46 L 88.30 92.58 L 88.29 92.69 L 88.30 92.80 L 88.33 92.92 L 88.38 93.03 L 88.45 93.15 L 88.54 93.26 L 88.63 93.38 L 88.74 93.49 L 88.85 93.60 L 88.97 93.72 L 89.09 93.83 L 89.21 93.95 L 89.31 94.06 L 89.41 94.18 L 89.49 94.29 L 89.56 94.40 L 89.61 94.52 L 89.64 94.63 L 89.65 94.75 A 2.38 2.38 0 0 1 84.89 94.75 L 84.89 94.75 L 84.90 94.63 L 84.93 94.52 L 84.98 94.40 L 85.05 94.29 L 85.14 94.18 L 85.23 94.06 L 85.34 93.95 L 85.45 93.83 L 85.57 93.72 L 85.69 93.60 L 85.81 93.49 L 85.91 93.38 L 86.01 93.26 L 86.09 93.15 L 86.16 93.03 L 86.21 92.92 L 86.24 92.80 L 86.25 92.69 L 86.24 92.58 L 86.21 92.46 L 86.16 92.35 L 86.09 92.23 L 86.01 92.12 L 85.91 92.00 L 85.81 91.89 L 85.69 91.78 L 85.57 91.66 L 85.45 91.55 L 85.34 91.43 L 85.23 91.32 L 85.14 91.20 L 85.05 91.09 L 84.98 90.98 L 84.93 90.86 L 84.90 90.75 L 84.89 90.63 L 84.90 90.52 L 84.93 90.40 L 84.98 90.29 L 85.05 90.18 L 85.14 90.06 L 85.23 89.95 L 85.34 89.83 L 85.45 89.72 L 85.57 89.60 L 85.69 89.49 L 85.81 89.38 L 85.91 89.26 L 86.01 89.15 L 86.09 89.03 L 86.16 88.92 L 86.21 88.80 L 86.24 88.69 L 86.25 88.58 L 86.24 88.46 L 86.21 88.35 L 86.16 88.23 L 86.09 88.12 L 86.01 88.00 L 85.91 87.89 L 85.81 87.78 L 85.69 87.66 L 85.57 87.55 L 85.45 87.43 L 85.34 87.32 L 85.23 87.20 L 85.14 87.09 L 85.05 86.98 L 84.98 86.86 L 84.93 86.75 L 84.90 86.63 L 84.89 86.52 A 2.38 2.38 0 0 1 89.65 86.52 Z" fill="#1f7a44" fill-rule="evenodd"/></g><g transform="rotate(66.7 81.9 94.0)"><path d="M 88.90 92.80 L 88.87 92.83 L 88.78 92.87 L 88.63 92.90 L 88.43 92.94 L 88.18 92.97 L 87.90 93.01 L 87.58 93.04 L 87.25 93.07 L 86.90 93.11 L 86.55 93.14 L 86.21 93.18 L 85.90 93.21 L 85.61 93.25 L 85.37 93.28 L 85.17 93.32 L 85.02 93.35 L 84.93 93.39 L 84.90 93.42 L 84.93 93.46 L 85.02 93.49 L 85.17 93.53 L 85.37 93.56 L 85.61 93.59 L 85.90 93.63 L 86.21 93.66 L 86.55 93.70 L 86.90 93.73 L 87.25 93.77 L 87.58 93.80 L 87.90 93.84 L 88.18 93.87 L 88.43 93.91 L 88.63 93.94 L 88.78 93.98 L 88.87 94.01 L 88.90 94.05 L 88.87 94.08 L 88.78 94.12 L 88.63 94.15 L 88.43 94.18 L 88.18 94.22 L 87.90 94.25 L 87.58 94.29 L 87.25 94.32 L 86.90 94.36 L 86.55 94.39 L 86.21 94.43 L 85.90 94.46 L 85.61 94.50 L 85.37 94.53 L 85.17 94.57 L 85.02 94.60 L 84.93 94.64 L 84.90 94.67 L 84.93 94.70 L 85.02 94.74 L 85.17 94.77 L 85.37 94.81 L 85.61 94.84 L 85.90 94.88 L 86.21 94.91 L 86.55 94.95 L 86.90 94.98 L 87.25 95.02 L 87.58 95.05 L 87.90 95.09 L 88.18 95.12 L 88.43 95.16 L 88.63 95.19 L 88.78 95.22 L 88.87 95.26 L 88.90 95.29 A 7.00 7.00 0 0 1 74.90 95.29 L 74.90 95.29 L 74.93 95.26 L 75.02 95.22 L 75.17 95.19 L 75.37 95.16 L 75.61 95.12 L 75.90 95.09 L 76.21 95.05 L 76.55 95.02 L 76.90 94.98 L 77.25 94.95 L 77.58 94.91 L 77.90 94.88 L 78.18 94.84 L 78.43 94.81 L 78.63 94.77 L 78.78 94.74 L 78.87 94.70 L 78.90 94.67 L 78.87 94.64 L 78.78 94.60 L 78.63 94.57 L 78.43 94.53 L 78.18 94.50 L 77.90 94.46 L 77.58 94.43 L 77.25 94.39 L 76.90 94.36 L 76.55 94.32 L 76.21 94.29 L 75.90 94.25 L 75.61 94.22 L 75.37 94.18 L 75.17 94.15 L 75.02 94.12 L 74.93 94.08 L 74.90 94.05 L 74.93 94.01 L 75.02 93.98 L 75.17 93.94 L 75.37 93.91 L 75.61 93.87 L 75.90 93.84 L 76.21 93.80 L 76.55 93.77 L 76.90 93.73 L 77.25 93.70 L 77.58 93.66 L 77.90 93.63 L 78.18 93.59 L 78.43 93.56 L 78.63 93.53 L 78.78 93.49 L 78.87 93.46 L 78.90 93.42 L 78.87 93.39 L 78.78 93.35 L 78.63 93.32 L 78.43 93.28 L 78.18 93.25 L 77.90 93.21 L 77.58 93.18 L 77.25 93.14 L 76.90 93.11 L 76.55 93.07 L 76.21 93.04 L 75.90 93.01 L 75.61 92.97 L 75.37 92.94 L 75.17 92.90 L 75.02 92.87 L 74.93 92.83 L 74.90 92.80 A 7.00 7.00 0 0 1 88.90 92.80 Z M 84.28 92.87 L 84.27 92.90 L 84.24 92.94 L 84.19 92.97 L 84.12 93.00 L 84.04 93.04 L 83.94 93.07 L 83.83 93.10 L 83.72 93.13 L 83.60 93.17 L 83.48 93.20 L 83.37 93.23 L 83.26 93.26 L 83.16 93.30 L 83.08 93.33 L 83.01 93.36 L 82.96 93.39 L 82.93 93.43 L 82.92 93.46 L 82.93 93.49 L 82.96 93.52 L 83.01 93.56 L 83.08 93.59 L 83.16 93.62 L 83.26 93.65 L 83.37 93.69 L 83.48 93.72 L 83.60 93.75 L 83.72 93.78 L 83.83 93.82 L 83.94 93.85 L 84.04 93.88 L 84.12 93.92 L 84.19 93.95 L 84.24 93.98 L 84.27 94.01 L 84.28 94.05 L 84.27 94.08 L 84.24 94.11 L 84.19 94.14 L 84.12 94.18 L 84.04 94.21 L 83.94 94.24 L 83.83 94.27 L 83.72 94.31 L 83.60 94.34 L 83.48 94.37 L 83.37 94.40 L 83.26 94.44 L 83.16 94.47 L 83.08 94.50 L 83.01 94.53 L 82.96 94.57 L 82.93 94.60 L 82.92 94.63 L 82.93 94.67 L 82.96 94.70 L 83.01 94.73 L 83.08 94.76 L 83.16 94.80 L 83.26 94.83 L 83.37 94.86 L 83.48 94.89 L 83.60 94.93 L 83.72 94.96 L 83.83 94.99 L 83.94 95.02 L 84.04 95.06 L 84.12 95.09 L 84.19 95.12 L 84.24 95.15 L 84.27 95.19 L 84.28 95.22 A 2.38 2.38 0 0 1 79.52 95.22 L 79.52 95.22 L 79.53 95.19 L 79.56 95.15 L 79.61 95.12 L 79.68 95.09 L 79.76 95.06 L 79.86 95.02 L 79.97 94.99 L 80.08 94.96 L 80.20 94.93 L 80.32 94.89 L 80.43 94.86 L 80.54 94.83 L 80.64 94.80 L 80.72 94.76 L 80.79 94.73 L 80.84 94.70 L 80.87 94.67 L 80.88 94.63 L 80.87 94.60 L 80.84 94.57 L 80.79 94.53 L 80.72 94.50 L 80.64 94.47 L 80.54 94.44 L 80.43 94.40 L 80.32 94.37 L 80.20 94.34 L 80.08 94.31 L 79.97 94.27 L 79.86 94.24 L 79.76 94.21 L 79.68 94.18 L 79.61 94.14 L 79.56 94.11 L 79.53 94.08 L 79.52 94.05 L 79.53 94.01 L 79.56 93.98 L 79.61 93.95 L 79.68 93.92 L 79.76 93.88 L 79.86 93.85 L 79.97 93.82 L 80.08 93.78 L 80.20 93.75 L 80.32 93.72 L 80.43 93.69 L 80.54 93.65 L 80.64 93.62 L 80.72 93.59 L 80.79 93.56 L 80.84 93.52 L 80.87 93.49 L 80.88 93.46 L 80.87 93.43 L 80.84 93.39 L 80.79 93.36 L 80.72 93.33 L 80.64 93.30 L 80.54 93.26 L 80.43 93.23 L 80.32 93.20 L 80.20 93.17 L 80.08 93.13 L 79.97 93.10 L 79.86 93.07 L 79.76 93.04 L 79.68 93.00 L 79.61 92.97 L 79.56 92.94 L 79.53 92.90 L 79.52 92.87 A 2.38 2.38 0 0 1 84.28 92.87 Z" fill="#1f7a44" fill-rule="evenodd"/></g><g transform="rotate(-227.2 67.6 93.1)"><path d="M 74.64 94.08 L 74.61 94.05 L 74.52 94.02 L 74.37 93.99 L 74.17 93.97 L 73.92 93.94 L 73.64 93.91 L 73.32 93.88 L 72.98 93.86 L 72.64 93.83 L 72.29 93.80 L 71.95 93.77 L 71.64 93.74 L 71.35 93.72 L 71.10 93.69 L 70.91 93.66 L 70.76 93.63 L 70.67 93.61 L 70.64 93.58 L 70.67 93.55 L 70.76 93.52 L 70.91 93.50 L 71.10 93.47 L 71.35 93.44 L 71.64 93.41 L 71.95 93.38 L 72.29 93.36 L 72.64 93.33 L 72.98 93.30 L 73.32 93.27 L 73.64 93.25 L 73.92 93.22 L 74.17 93.19 L 74.37 93.16 L 74.52 93.14 L 74.61 93.11 L 74.64 93.08 L 74.61 93.05 L 74.52 93.02 L 74.37 93.00 L 74.17 92.97 L 73.92 92.94 L 73.64 92.91 L 73.32 92.89 L 72.98 92.86 L 72.64 92.83 L 72.29 92.80 L 71.95 92.78 L 71.64 92.75 L 71.35 92.72 L 71.10 92.69 L 70.91 92.66 L 70.76 92.64 L 70.67 92.61 L 70.64 92.58 L 70.67 92.55 L 70.76 92.53 L 70.91 92.50 L 71.10 92.47 L 71.35 92.44 L 71.64 92.42 L 71.95 92.39 L 72.29 92.36 L 72.64 92.33 L 72.98 92.30 L 73.32 92.28 L 73.64 92.25 L 73.92 92.22 L 74.17 92.19 L 74.37 92.17 L 74.52 92.14 L 74.61 92.11 L 74.64 92.08 A 7.00 7.00 0 0 1 60.64 92.08 L 60.64 92.08 L 60.67 92.11 L 60.76 92.14 L 60.91 92.17 L 61.10 92.19 L 61.35 92.22 L 61.64 92.25 L 61.95 92.28 L 62.29 92.30 L 62.64 92.33 L 62.98 92.36 L 63.32 92.39 L 63.64 92.42 L 63.92 92.44 L 64.17 92.47 L 64.37 92.50 L 64.52 92.53 L 64.61 92.55 L 64.64 92.58 L 64.61 92.61 L 64.52 92.64 L 64.37 92.66 L 64.17 92.69 L 63.92 92.72 L 63.64 92.75 L 63.32 92.78 L 62.98 92.80 L 62.64 92.83 L 62.29 92.86 L 61.95 92.89 L 61.64 92.91 L 61.35 92.94 L 61.10 92.97 L 60.91 93.00 L 60.76 93.02 L 60.67 93.05 L 60.64 93.08 L 60.67 93.11 L 60.76 93.14 L 60.91 93.16 L 61.10 93.19 L 61.35 93.22 L 61.64 93.25 L 61.95 93.27 L 62.29 93.30 L 62.64 93.33 L 62.98 93.36 L 63.32 93.38 L 63.64 93.41 L 63.92 93.44 L 64.17 93.47 L 64.37 93.50 L 64.52 93.52 L 64.61 93.55 L 64.64 93.58 L 64.61 93.61 L 64.52 93.63 L 64.37 93.66 L 64.17 93.69 L 63.92 93.72 L 63.64 93.74 L 63.32 93.77 L 62.98 93.80 L 62.64 93.83 L 62.29 93.86 L 61.95 93.88 L 61.64 93.91 L 61.35 93.94 L 61.10 93.97 L 60.91 93.99 L 60.76 94.02 L 60.67 94.05 L 60.64 94.08 A 7.00 7.00 0 0 1 74.64 94.08 Z M 70.02 94.02 L 70.01 93.99 L 69.98 93.96 L 69.93 93.94 L 69.86 93.91 L 69.77 93.89 L 69.68 93.86 L 69.57 93.83 L 69.46 93.81 L 69.34 93.78 L 69.22 93.76 L 69.10 93.73 L 69.00 93.70 L 68.90 93.68 L 68.82 93.65 L 68.75 93.63 L 68.70 93.60 L 68.67 93.57 L 68.66 93.55 L 68.67 93.52 L 68.70 93.50 L 68.75 93.47 L 68.82 93.44 L 68.90 93.42 L 69.00 93.39 L 69.10 93.37 L 69.22 93.34 L 69.34 93.31 L 69.46 93.29 L 69.57 93.26 L 69.68 93.24 L 69.77 93.21 L 69.86 93.18 L 69.93 93.16 L 69.98 93.13 L 70.01 93.11 L 70.02 93.08 L 70.01 93.05 L 69.98 93.03 L 69.93 93.00 L 69.86 92.98 L 69.77 92.95 L 69.68 92.92 L 69.57 92.90 L 69.46 92.87 L 69.34 92.85 L 69.22 92.82 L 69.10 92.79 L 69.00 92.77 L 68.90 92.74 L 68.82 92.72 L 68.75 92.69 L 68.70 92.66 L 68.67 92.64 L 68.66 92.61 L 68.67 92.59 L 68.70 92.56 L 68.75 92.53 L 68.82 92.51 L 68.90 92.48 L 69.00 92.46 L 69.10 92.43 L 69.22 92.40 L 69.34 92.38 L 69.46 92.35 L 69.57 92.33 L 69.68 92.30 L 69.77 92.27 L 69.86 92.25 L 69.93 92.22 L 69.98 92.20 L 70.01 92.17 L 70.02 92.14 A 2.38 2.38 0 0 1 65.26 92.14 L 65.26 92.14 L 65.27 92.17 L 65.30 92.20 L 65.35 92.22 L 65.42 92.25 L 65.50 92.27 L 65.60 92.30 L 65.70 92.33 L 65.82 92.35 L 65.94 92.38 L 66.06 92.40 L 66.17 92.43 L 66.28 92.46 L 66.37 92.48 L 66.46 92.51 L 66.53 92.53 L 66.58 92.56 L 66.61 92.59 L 66.62 92.61 L 66.61 92.64 L 66.58 92.66 L 66.53 92.69 L 66.46 92.72 L 66.37 92.74 L 66.28 92.77 L 66.17 92.79 L 66.06 92.82 L 65.94 92.85 L 65.82 92.87 L 65.70 92.90 L 65.60 92.92 L 65.50 92.95 L 65.42 92.98 L 65.35 93.00 L 65.30 93.03 L 65.27 93.05 L 65.26 93.08 L 65.27 93.11 L 65.30 93.13 L 65.35 93.16 L 65.42 93.18 L 65.50 93.21 L 65.60 93.24 L 65.70 93.26 L 65.82 93.29 L 65.94 93.31 L 66.06 93.34 L 66.17 93.37 L 66.28 93.39 L 66.37 93.42 L 66.46 93.44 L 66.53 93.47 L 66.58 93.50 L 66.61 93.52 L 66.62 93.55 L 66.61 93.57 L 66.58 93.60 L 66.53 93.63 L 66.46 93.65 L 66.37 93.68 L 66.28 93.70 L 66.17 93.73 L 66.06 93.76 L 65.94 93.78 L 65.82 93.81 L 65.70 93.83 L 65.60 93.86 L 65.50 93.89 L 65.42 93.91 L 65.35 93.94 L 65.30 93.96 L 65.27 93.99 L 65.26 94.02 A 2.38 2.38 0 0 1 70.02 94.02 Z" fill="#1f7a44" fill-rule="evenodd"/></g><g transform="rotate(-172.8 63.3 81.1)"><path d="M 70.29 82.13 L 70.26 82.10 L 70.17 82.08 L 70.02 82.05 L 69.82 82.02 L 69.57 81.99 L 69.29 81.96 L 68.97 81.94 L 68.64 81.91 L 68.29 81.88 L 67.94 81.85 L 67.61 81.83 L 67.29 81.80 L 67.00 81.77 L 66.76 81.74 L 66.56 81.72 L 66.41 81.69 L 66.32 81.66 L 66.29 81.63 L 66.32 81.61 L 66.41 81.58 L 66.56 81.55 L 66.76 81.52 L 67.00 81.49 L 67.29 81.47 L 67.61 81.44 L 67.94 81.41 L 68.29 81.38 L 68.64 81.36 L 68.97 81.33 L 69.29 81.30 L 69.57 81.27 L 69.82 81.25 L 70.02 81.22 L 70.17 81.19 L 70.26 81.16 L 70.29 81.13 L 70.26 81.11 L 70.17 81.08 L 70.02 81.05 L 69.82 81.02 L 69.57 81.00 L 69.29 80.97 L 68.97 80.94 L 68.64 80.91 L 68.29 80.89 L 67.94 80.86 L 67.61 80.83 L 67.29 80.80 L 67.00 80.77 L 66.76 80.75 L 66.56 80.72 L 66.41 80.69 L 66.32 80.66 L 66.29 80.64 L 66.32 80.61 L 66.41 80.58 L 66.56 80.55 L 66.76 80.53 L 67.00 80.50 L 67.29 80.47 L 67.61 80.44 L 67.94 80.41 L 68.29 80.39 L 68.64 80.36 L 68.97 80.33 L 69.29 80.30 L 69.57 80.28 L 69.82 80.25 L 70.02 80.22 L 70.17 80.19 L 70.26 80.17 L 70.29 80.14 A 7.00 7.00 0 0 1 56.29 80.14 L 56.29 80.14 L 56.32 80.17 L 56.41 80.19 L 56.56 80.22 L 56.76 80.25 L 57.00 80.28 L 57.29 80.30 L 57.61 80.33 L 57.94 80.36 L 58.29 80.39 L 58.64 80.41 L 58.97 80.44 L 59.29 80.47 L 59.57 80.50 L 59.82 80.53 L 60.02 80.55 L 60.17 80.58 L 60.26 80.61 L 60.29 80.64 L 60.26 80.66 L 60.17 80.69 L 60.02 80.72 L 59.82 80.75 L 59.57 80.77 L 59.29 80.80 L 58.97 80.83 L 58.64 80.86 L 58.29 80.89 L 57.94 80.91 L 57.61 80.94 L 57.29 80.97 L 57.00 81.00 L 56.76 81.02 L 56.56 81.05 L 56.41 81.08 L 56.32 81.11 L 56.29 81.13 L 56.32 81.16 L 56.41 81.19 L 56.56 81.22 L 56.76 81.25 L 57.00 81.27 L 57.29 81.30 L 57.61 81.33 L 57.94 81.36 L 58.29 81.38 L 58.64 81.41 L 58.97 81.44 L 59.29 81.47 L 59.57 81.49 L 59.82 81.52 L 60.02 81.55 L 60.17 81.58 L 60.26 81.61 L 60.29 81.63 L 60.26 81.66 L 60.17 81.69 L 60.02 81.72 L 59.82 81.74 L 59.57 81.77 L 59.29 81.80 L 58.97 81.83 L 58.64 81.85 L 58.29 81.88 L 57.94 81.91 L 57.61 81.94 L 57.29 81.96 L 57.00 81.99 L 56.76 82.02 L 56.56 82.05 L 56.41 82.08 L 56.32 82.10 L 56.29 82.13 A 7.00 7.00 0 0 1 70.29 82.13 Z M 65.67 82.07 L 65.66 82.05 L 65.63 82.02 L 65.58 81.99 L 65.51 81.97 L 65.43 81.94 L 65.33 81.92 L 65.22 81.89 L 65.11 81.86 L 64.99 81.84 L 64.87 81.81 L 64.76 81.79 L 64.65 81.76 L 64.55 81.73 L 64.47 81.71 L 64.40 81.68 L 64.35 81.65 L 64.32 81.63 L 64.31 81.60 L 64.32 81.58 L 64.35 81.55 L 64.40 81.52 L 64.47 81.50 L 64.55 81.47 L 64.65 81.45 L 64.76 81.42 L 64.87 81.39 L 64.99 81.37 L 65.11 81.34 L 65.22 81.32 L 65.33 81.29 L 65.43 81.26 L 65.51 81.24 L 65.58 81.21 L 65.63 81.19 L 65.66 81.16 L 65.67 81.13 L 65.66 81.11 L 65.63 81.08 L 65.58 81.06 L 65.51 81.03 L 65.43 81.00 L 65.33 80.98 L 65.22 80.95 L 65.11 80.93 L 64.99 80.90 L 64.87 80.87 L 64.76 80.85 L 64.65 80.82 L 64.55 80.80 L 64.47 80.77 L 64.40 80.74 L 64.35 80.72 L 64.32 80.69 L 64.31 80.67 L 64.32 80.64 L 64.35 80.61 L 64.40 80.59 L 64.47 80.56 L 64.55 80.54 L 64.65 80.51 L 64.76 80.48 L 64.87 80.46 L 64.99 80.43 L 65.11 80.41 L 65.22 80.38 L 65.33 80.35 L 65.43 80.33 L 65.51 80.30 L 65.58 80.28 L 65.63 80.25 L 65.66 80.22 L 65.67 80.20 A 2.38 2.38 0 0 1 60.91 80.20 L 60.91 80.20 L 60.92 80.22 L 60.95 80.25 L 61.00 80.28 L 61.07 80.30 L 61.15 80.33 L 61.25 80.35 L 61.36 80.38 L 61.47 80.41 L 61.59 80.43 L 61.71 80.46 L 61.82 80.48 L 61.93 80.51 L 62.03 80.54 L 62.11 80.56 L 62.18 80.59 L 62.23 80.61 L 62.26 80.64 L 62.27 80.67 L 62.26 80.69 L 62.23 80.72 L 62.18 80.74 L 62.11 80.77 L 62.03 80.80 L 61.93 80.82 L 61.82 80.85 L 61.71 80.87 L 61.59 80.90 L 61.47 80.93 L 61.36 80.95 L 61.25 80.98 L 61.15 81.00 L 61.07 81.03 L 61.00 81.06 L 60.95 81.08 L 60.92 81.11 L 60.91 81.13 L 60.92 81.16 L 60.95 81.19 L 61.00 81.21 L 61.07 81.24 L 61.15 81.26 L 61.25 81.29 L 61.36 81.32 L 61.47 81.34 L 61.59 81.37 L 61.71 81.39 L 61.82 81.42 L 61.93 81.45 L 62.03 81.47 L 62.11 81.50 L 62.18 81.52 L 62.23 81.55 L 62.26 81.58 L 62.27 81.60 L 62.26 81.63 L 62.23 81.65 L 62.18 81.68 L 62.11 81.71 L 62.03 81.73 L 61.93 81.76 L 61.82 81.79 L 61.71 81.81 L 61.59 81.84 L 61.47 81.86 L 61.36 81.89 L 61.25 81.92 L 61.15 81.94 L 61.07 81.97 L 61.00 81.99 L 60.95 82.02 L 60.92 82.05 L 60.91 82.07 A 2.38 2.38 0 0 1 65.67 82.07 Z" fill="#1f7a44" fill-rule="evenodd"/></g><g transform="rotate(-106.7 73.6 71.2)"><path d="M 80.59 69.98 L 80.56 70.01 L 80.47 70.05 L 80.33 70.08 L 80.13 70.12 L 79.88 70.15 L 79.59 70.19 L 79.28 70.22 L 78.94 70.26 L 78.59 70.29 L 78.25 70.33 L 77.91 70.36 L 77.59 70.40 L 77.31 70.43 L 77.06 70.46 L 76.86 70.50 L 76.71 70.53 L 76.62 70.57 L 76.59 70.60 L 76.62 70.64 L 76.71 70.67 L 76.86 70.71 L 77.06 70.74 L 77.31 70.78 L 77.59 70.81 L 77.91 70.85 L 78.25 70.88 L 78.59 70.92 L 78.94 70.95 L 79.28 70.99 L 79.59 71.02 L 79.88 71.05 L 80.13 71.09 L 80.33 71.12 L 80.47 71.16 L 80.56 71.19 L 80.59 71.23 L 80.56 71.26 L 80.47 71.30 L 80.33 71.33 L 80.13 71.37 L 79.88 71.40 L 79.59 71.44 L 79.28 71.47 L 78.94 71.51 L 78.59 71.54 L 78.25 71.57 L 77.91 71.61 L 77.59 71.64 L 77.31 71.68 L 77.06 71.71 L 76.86 71.75 L 76.71 71.78 L 76.62 71.82 L 76.59 71.85 L 76.62 71.89 L 76.71 71.92 L 76.86 71.96 L 77.06 71.99 L 77.31 72.03 L 77.59 72.06 L 77.91 72.09 L 78.25 72.13 L 78.59 72.16 L 78.94 72.20 L 79.28 72.23 L 79.59 72.27 L 79.88 72.30 L 80.13 72.34 L 80.33 72.37 L 80.47 72.41 L 80.56 72.44 L 80.59 72.48 A 7.00 7.00 0 0 1 66.59 72.48 L 66.59 72.48 L 66.62 72.44 L 66.71 72.41 L 66.86 72.37 L 67.06 72.34 L 67.31 72.30 L 67.59 72.27 L 67.91 72.23 L 68.25 72.20 L 68.59 72.16 L 68.94 72.13 L 69.28 72.09 L 69.59 72.06 L 69.88 72.03 L 70.13 71.99 L 70.33 71.96 L 70.47 71.92 L 70.56 71.89 L 70.59 71.85 L 70.56 71.82 L 70.47 71.78 L 70.33 71.75 L 70.13 71.71 L 69.88 71.68 L 69.59 71.64 L 69.28 71.61 L 68.94 71.57 L 68.59 71.54 L 68.25 71.51 L 67.91 71.47 L 67.59 71.44 L 67.31 71.40 L 67.06 71.37 L 66.86 71.33 L 66.71 71.30 L 66.62 71.26 L 66.59 71.23 L 66.62 71.19 L 66.71 71.16 L 66.86 71.12 L 67.06 71.09 L 67.31 71.05 L 67.59 71.02 L 67.91 70.99 L 68.25 70.95 L 68.59 70.92 L 68.94 70.88 L 69.28 70.85 L 69.59 70.81 L 69.88 70.78 L 70.13 70.74 L 70.33 70.71 L 70.47 70.67 L 70.56 70.64 L 70.59 70.60 L 70.56 70.57 L 70.47 70.53 L 70.33 70.50 L 70.13 70.46 L 69.88 70.43 L 69.59 70.40 L 69.28 70.36 L 68.94 70.33 L 68.59 70.29 L 68.25 70.26 L 67.91 70.22 L 67.59 70.19 L 67.31 70.15 L 67.06 70.12 L 66.86 70.08 L 66.71 70.05 L 66.62 70.01 L 66.59 69.98 A 7.00 7.00 0 0 1 80.59 69.98 Z M 75.97 70.05 L 75.96 70.09 L 75.93 70.12 L 75.88 70.15 L 75.81 70.18 L 75.73 70.22 L 75.63 70.25 L 75.53 70.28 L 75.41 70.32 L 75.29 70.35 L 75.17 70.38 L 75.06 70.41 L 74.95 70.45 L 74.86 70.48 L 74.77 70.51 L 74.70 70.54 L 74.65 70.58 L 74.62 70.61 L 74.61 70.64 L 74.62 70.67 L 74.65 70.71 L 74.70 70.74 L 74.77 70.77 L 74.86 70.80 L 74.95 70.84 L 75.06 70.87 L 75.17 70.90 L 75.29 70.93 L 75.41 70.97 L 75.53 71.00 L 75.63 71.03 L 75.73 71.06 L 75.81 71.10 L 75.88 71.13 L 75.93 71.16 L 75.96 71.20 L 75.97 71.23 L 75.96 71.26 L 75.93 71.29 L 75.88 71.33 L 75.81 71.36 L 75.73 71.39 L 75.63 71.42 L 75.53 71.46 L 75.41 71.49 L 75.29 71.52 L 75.17 71.55 L 75.06 71.59 L 74.95 71.62 L 74.86 71.65 L 74.77 71.68 L 74.70 71.72 L 74.65 71.75 L 74.62 71.78 L 74.61 71.81 L 74.62 71.85 L 74.65 71.88 L 74.70 71.91 L 74.77 71.94 L 74.86 71.98 L 74.95 72.01 L 75.06 72.04 L 75.17 72.08 L 75.29 72.11 L 75.41 72.14 L 75.53 72.17 L 75.63 72.21 L 75.73 72.24 L 75.81 72.27 L 75.88 72.30 L 75.93 72.34 L 75.96 72.37 L 75.97 72.40 A 2.38 2.38 0 0 1 71.21 72.40 L 71.21 72.40 L 71.22 72.37 L 71.25 72.34 L 71.30 72.30 L 71.37 72.27 L 71.46 72.24 L 71.55 72.21 L 71.66 72.17 L 71.77 72.14 L 71.89 72.11 L 72.01 72.08 L 72.13 72.04 L 72.23 72.01 L 72.33 71.98 L 72.41 71.94 L 72.48 71.91 L 72.53 71.88 L 72.56 71.85 L 72.57 71.81 L 72.56 71.78 L 72.53 71.75 L 72.48 71.72 L 72.41 71.68 L 72.33 71.65 L 72.23 71.62 L 72.13 71.59 L 72.01 71.55 L 71.89 71.52 L 71.77 71.49 L 71.66 71.46 L 71.55 71.42 L 71.46 71.39 L 71.37 71.36 L 71.30 71.33 L 71.25 71.29 L 71.22 71.26 L 71.21 71.23 L 71.22 71.20 L 71.25 71.16 L 71.30 71.13 L 71.37 71.10 L 71.46 71.06 L 71.55 71.03 L 71.66 71.00 L 71.77 70.97 L 71.89 70.93 L 72.01 70.90 L 72.13 70.87 L 72.23 70.84 L 72.33 70.80 L 72.41 70.77 L 72.48 70.74 L 72.53 70.71 L 72.56 70.67 L 72.57 70.64 L 72.56 70.61 L 72.53 70.58 L 72.48 70.54 L 72.41 70.51 L 72.33 70.48 L 72.23 70.45 L 72.13 70.41 L 72.01 70.38 L 71.89 70.35 L 71.77 70.32 L 71.66 70.28 L 71.55 70.25 L 71.46 70.22 L 71.37 70.18 L 71.30 70.15 L 71.25 70.12 L 71.22 70.09 L 71.21 70.05 A 2.38 2.38 0 0 1 75.97 70.05 Z" fill="#1f7a44" fill-rule="evenodd"/></g><g transform="rotate(-73.3 126.4 71.2)"><path d="M 133.41 69.98 L 133.38 70.01 L 133.29 70.05 L 133.14 70.08 L 132.94 70.12 L 132.69 70.15 L 132.41 70.19 L 132.09 70.22 L 131.75 70.26 L 131.41 70.29 L 131.06 70.33 L 130.72 70.36 L 130.41 70.40 L 130.12 70.43 L 129.87 70.46 L 129.67 70.50 L 129.53 70.53 L 129.44 70.57 L 129.41 70.60 L 129.44 70.64 L 129.53 70.67 L 129.67 70.71 L 129.87 70.74 L 130.12 70.78 L 130.41 70.81 L 130.72 70.85 L 131.06 70.88 L 131.41 70.92 L 131.75 70.95 L 132.09 70.99 L 132.41 71.02 L 132.69 71.05 L 132.94 71.09 L 133.14 71.12 L 133.29 71.16 L 133.38 71.19 L 133.41 71.23 L 133.38 71.26 L 133.29 71.30 L 133.14 71.33 L 132.94 71.37 L 132.69 71.40 L 132.41 71.44 L 132.09 71.47 L 131.75 71.51 L 131.41 71.54 L 131.06 71.57 L 130.72 71.61 L 130.41 71.64 L 130.12 71.68 L 129.87 71.71 L 129.67 71.75 L 129.53 71.78 L 129.44 71.82 L 129.41 71.85 L 129.44 71.89 L 129.53 71.92 L 129.67 71.96 L 129.87 71.99 L 130.12 72.03 L 130.41 72.06 L 130.72 72.09 L 131.06 72.13 L 131.41 72.16 L 131.75 72.20 L 132.09 72.23 L 132.41 72.27 L 132.69 72.30 L 132.94 72.34 L 133.14 72.37 L 133.29 72.41 L 133.38 72.44 L 133.41 72.48 A 7.00 7.00 0 0 1 119.41 72.48 L 119.41 72.48 L 119.44 72.44 L 119.53 72.41 L 119.67 72.37 L 119.87 72.34 L 120.12 72.30 L 120.41 72.27 L 120.72 72.23 L 121.06 72.20 L 121.41 72.16 L 121.75 72.13 L 122.09 72.09 L 122.41 72.06 L 122.69 72.03 L 122.94 71.99 L 123.14 71.96 L 123.29 71.92 L 123.38 71.89 L 123.41 71.85 L 123.38 71.82 L 123.29 71.78 L 123.14 71.75 L 122.94 71.71 L 122.69 71.68 L 122.41 71.64 L 122.09 71.61 L 121.75 71.57 L 121.41 71.54 L 121.06 71.51 L 120.72 71.47 L 120.41 71.44 L 120.12 71.40 L 119.87 71.37 L 119.67 71.33 L 119.53 71.30 L 119.44 71.26 L 119.41 71.23 L 119.44 71.19 L 119.53 71.16 L 119.67 71.12 L 119.87 71.09 L 120.12 71.05 L 120.41 71.02 L 120.72 70.99 L 121.06 70.95 L 121.41 70.92 L 121.75 70.88 L 122.09 70.85 L 122.41 70.81 L 122.69 70.78 L 122.94 70.74 L 123.14 70.71 L 123.29 70.67 L 123.38 70.64 L 123.41 70.60 L 123.38 70.57 L 123.29 70.53 L 123.14 70.50 L 122.94 70.46 L 122.69 70.43 L 122.41 70.40 L 122.09 70.36 L 121.75 70.33 L 121.41 70.29 L 121.06 70.26 L 120.72 70.22 L 120.41 70.19 L 120.12 70.15 L 119.87 70.12 L 119.67 70.08 L 119.53 70.05 L 119.44 70.01 L 119.41 69.98 A 7.00 7.00 0 0 1 133.41 69.98 Z M 128.79 70.05 L 128.78 70.09 L 128.75 70.12 L 128.70 70.15 L 128.63 70.18 L 128.54 70.22 L 128.45 70.25 L 128.34 70.28 L 128.23 70.32 L 128.11 70.35 L 127.99 70.38 L 127.87 70.41 L 127.77 70.45 L 127.67 70.48 L 127.59 70.51 L 127.52 70.54 L 127.47 70.58 L 127.44 70.61 L 127.43 70.64 L 127.44 70.67 L 127.47 70.71 L 127.52 70.74 L 127.59 70.77 L 127.67 70.80 L 127.77 70.84 L 127.87 70.87 L 127.99 70.90 L 128.11 70.93 L 128.23 70.97 L 128.34 71.00 L 128.45 71.03 L 128.54 71.06 L 128.63 71.10 L 128.70 71.13 L 128.75 71.16 L 128.78 71.20 L 128.79 71.23 L 128.78 71.26 L 128.75 71.29 L 128.70 71.33 L 128.63 71.36 L 128.54 71.39 L 128.45 71.42 L 128.34 71.46 L 128.23 71.49 L 128.11 71.52 L 127.99 71.55 L 127.87 71.59 L 127.77 71.62 L 127.67 71.65 L 127.59 71.68 L 127.52 71.72 L 127.47 71.75 L 127.44 71.78 L 127.43 71.81 L 127.44 71.85 L 127.47 71.88 L 127.52 71.91 L 127.59 71.94 L 127.67 71.98 L 127.77 72.01 L 127.87 72.04 L 127.99 72.08 L 128.11 72.11 L 128.23 72.14 L 128.34 72.17 L 128.45 72.21 L 128.54 72.24 L 128.63 72.27 L 128.70 72.30 L 128.75 72.34 L 128.78 72.37 L 128.79 72.40 A 2.38 2.38 0 0 1 124.03 72.40 L 124.03 72.40 L 124.04 72.37 L 124.07 72.34 L 124.12 72.30 L 124.19 72.27 L 124.27 72.24 L 124.37 72.21 L 124.47 72.17 L 124.59 72.14 L 124.71 72.11 L 124.83 72.08 L 124.94 72.04 L 125.05 72.01 L 125.14 71.98 L 125.23 71.94 L 125.30 71.91 L 125.35 71.88 L 125.38 71.85 L 125.39 71.81 L 125.38 71.78 L 125.35 71.75 L 125.30 71.72 L 125.23 71.68 L 125.14 71.65 L 125.05 71.62 L 124.94 71.59 L 124.83 71.55 L 124.71 71.52 L 124.59 71.49 L 124.47 71.46 L 124.37 71.42 L 124.27 71.39 L 124.19 71.36 L 124.12 71.33 L 124.07 71.29 L 124.04 71.26 L 124.03 71.23 L 124.04 71.20 L 124.07 71.16 L 124.12 71.13 L 124.19 71.10 L 124.27 71.06 L 124.37 71.03 L 124.47 71.00 L 124.59 70.97 L 124.71 70.93 L 124.83 70.90 L 124.94 70.87 L 125.05 70.84 L 125.14 70.80 L 125.23 70.77 L 125.30 70.74 L 125.35 70.71 L 125.38 70.67 L 125.39 70.64 L 125.38 70.61 L 125.35 70.58 L 125.30 70.54 L 125.23 70.51 L 125.14 70.48 L 125.05 70.45 L 124.94 70.41 L 124.83 70.38 L 124.71 70.35 L 124.59 70.32 L 124.47 70.28 L 124.37 70.25 L 124.27 70.22 L 124.19 70.18 L 124.12 70.15 L 124.07 70.12 L 124.04 70.09 L 124.03 70.05 A 2.38 2.38 0 0 1 128.79 70.05 Z" fill="#1f7a44" fill-rule="evenodd"/></g><g transform="rotate(-7.2 136.7 81.1)"><path d="M 143.71 82.13 L 143.68 82.10 L 143.59 82.08 L 143.44 82.05 L 143.24 82.02 L 143.00 81.99 L 142.71 81.96 L 142.39 81.94 L 142.06 81.91 L 141.71 81.88 L 141.36 81.85 L 141.03 81.83 L 140.71 81.80 L 140.43 81.77 L 140.18 81.74 L 139.98 81.72 L 139.83 81.69 L 139.74 81.66 L 139.71 81.63 L 139.74 81.61 L 139.83 81.58 L 139.98 81.55 L 140.18 81.52 L 140.43 81.49 L 140.71 81.47 L 141.03 81.44 L 141.36 81.41 L 141.71 81.38 L 142.06 81.36 L 142.39 81.33 L 142.71 81.30 L 143.00 81.27 L 143.24 81.25 L 143.44 81.22 L 143.59 81.19 L 143.68 81.16 L 143.71 81.13 L 143.68 81.11 L 143.59 81.08 L 143.44 81.05 L 143.24 81.02 L 143.00 81.00 L 142.71 80.97 L 142.39 80.94 L 142.06 80.91 L 141.71 80.89 L 141.36 80.86 L 141.03 80.83 L 140.71 80.80 L 140.43 80.77 L 140.18 80.75 L 139.98 80.72 L 139.83 80.69 L 139.74 80.66 L 139.71 80.64 L 139.74 80.61 L 139.83 80.58 L 139.98 80.55 L 140.18 80.53 L 140.43 80.50 L 140.71 80.47 L 141.03 80.44 L 141.36 80.41 L 141.71 80.39 L 142.06 80.36 L 142.39 80.33 L 142.71 80.30 L 143.00 80.28 L 143.24 80.25 L 143.44 80.22 L 143.59 80.19 L 143.68 80.17 L 143.71 80.14 A 7.00 7.00 0 0 1 129.71 80.14 L 129.71 80.14 L 129.74 80.17 L 129.83 80.19 L 129.98 80.22 L 130.18 80.25 L 130.43 80.28 L 130.71 80.30 L 131.03 80.33 L 131.36 80.36 L 131.71 80.39 L 132.06 80.41 L 132.39 80.44 L 132.71 80.47 L 133.00 80.50 L 133.24 80.53 L 133.44 80.55 L 133.59 80.58 L 133.68 80.61 L 133.71 80.64 L 133.68 80.66 L 133.59 80.69 L 133.44 80.72 L 133.24 80.75 L 133.00 80.77 L 132.71 80.80 L 132.39 80.83 L 132.06 80.86 L 131.71 80.89 L 131.36 80.91 L 131.03 80.94 L 130.71 80.97 L 130.43 81.00 L 130.18 81.02 L 129.98 81.05 L 129.83 81.08 L 129.74 81.11 L 129.71 81.13 L 129.74 81.16 L 129.83 81.19 L 129.98 81.22 L 130.18 81.25 L 130.43 81.27 L 130.71 81.30 L 131.03 81.33 L 131.36 81.36 L 131.71 81.38 L 132.06 81.41 L 132.39 81.44 L 132.71 81.47 L 133.00 81.49 L 133.24 81.52 L 133.44 81.55 L 133.59 81.58 L 133.68 81.61 L 133.71 81.63 L 133.68 81.66 L 133.59 81.69 L 133.44 81.72 L 133.24 81.74 L 133.00 81.77 L 132.71 81.80 L 132.39 81.83 L 132.06 81.85 L 131.71 81.88 L 131.36 81.91 L 131.03 81.94 L 130.71 81.96 L 130.43 81.99 L 130.18 82.02 L 129.98 82.05 L 129.83 82.08 L 129.74 82.10 L 129.71 82.13 A 7.00 7.00 0 0 1 143.71 82.13 Z M 139.09 82.07 L 139.08 82.05 L 139.05 82.02 L 139.00 81.99 L 138.93 81.97 L 138.85 81.94 L 138.75 81.92 L 138.64 81.89 L 138.53 81.86 L 138.41 81.84 L 138.29 81.81 L 138.18 81.79 L 138.07 81.76 L 137.97 81.73 L 137.89 81.71 L 137.82 81.68 L 137.77 81.65 L 137.74 81.63 L 137.73 81.60 L 137.74 81.58 L 137.77 81.55 L 137.82 81.52 L 137.89 81.50 L 137.97 81.47 L 138.07 81.45 L 138.18 81.42 L 138.29 81.39 L 138.41 81.37 L 138.53 81.34 L 138.64 81.32 L 138.75 81.29 L 138.85 81.26 L 138.93 81.24 L 139.00 81.21 L 139.05 81.19 L 139.08 81.16 L 139.09 81.13 L 139.08 81.11 L 139.05 81.08 L 139.00 81.06 L 138.93 81.03 L 138.85 81.00 L 138.75 80.98 L 138.64 80.95 L 138.53 80.93 L 138.41 80.90 L 138.29 80.87 L 138.18 80.85 L 138.07 80.82 L 137.97 80.80 L 137.89 80.77 L 137.82 80.74 L 137.77 80.72 L 137.74 80.69 L 137.73 80.67 L 137.74 80.64 L 137.77 80.61 L 137.82 80.59 L 137.89 80.56 L 137.97 80.54 L 138.07 80.51 L 138.18 80.48 L 138.29 80.46 L 138.41 80.43 L 138.53 80.41 L 138.64 80.38 L 138.75 80.35 L 138.85 80.33 L 138.93 80.30 L 139.00 80.28 L 139.05 80.25 L 139.08 80.22 L 139.09 80.20 A 2.38 2.38 0 0 1 134.33 80.20 L 134.33 80.20 L 134.34 80.22 L 134.37 80.25 L 134.42 80.28 L 134.49 80.30 L 134.57 80.33 L 134.67 80.35 L 134.78 80.38 L 134.89 80.41 L 135.01 80.43 L 135.13 80.46 L 135.24 80.48 L 135.35 80.51 L 135.45 80.54 L 135.53 80.56 L 135.60 80.59 L 135.65 80.61 L 135.68 80.64 L 135.69 80.67 L 135.68 80.69 L 135.65 80.72 L 135.60 80.74 L 135.53 80.77 L 135.45 80.80 L 135.35 80.82 L 135.24 80.85 L 135.13 80.87 L 135.01 80.90 L 134.89 80.93 L 134.78 80.95 L 134.67 80.98 L 134.57 81.00 L 134.49 81.03 L 134.42 81.06 L 134.37 81.08 L 134.34 81.11 L 134.33 81.13 L 134.34 81.16 L 134.37 81.19 L 134.42 81.21 L 134.49 81.24 L 134.57 81.26 L 134.67 81.29 L 134.78 81.32 L 134.89 81.34 L 135.01 81.37 L 135.13 81.39 L 135.24 81.42 L 135.35 81.45 L 135.45 81.47 L 135.53 81.50 L 135.60 81.52 L 135.65 81.55 L 135.68 81.58 L 135.69 81.60 L 135.68 81.63 L 135.65 81.65 L 135.60 81.68 L 135.53 81.71 L 135.45 81.73 L 135.35 81.76 L 135.24 81.79 L 135.13 81.81 L 135.01 81.84 L 134.89 81.86 L 134.78 81.89 L 134.67 81.92 L 134.57 81.94 L 134.49 81.97 L 134.42 81.99 L 134.37 82.02 L 134.34 82.05 L 134.33 82.07 A 2.38 2.38 0 0 1 139.09 82.07 Z" fill="#1f7a44" fill-rule="evenodd"/></g><g transform="rotate(47.2 132.4 93.1)"><path d="M 139.36 94.08 L 139.33 94.05 L 139.24 94.02 L 139.09 93.99 L 138.90 93.97 L 138.65 93.94 L 138.36 93.91 L 138.05 93.88 L 137.71 93.86 L 137.36 93.83 L 137.02 93.80 L 136.68 93.77 L 136.36 93.74 L 136.08 93.72 L 135.83 93.69 L 135.63 93.66 L 135.48 93.63 L 135.39 93.61 L 135.36 93.58 L 135.39 93.55 L 135.48 93.52 L 135.63 93.50 L 135.83 93.47 L 136.08 93.44 L 136.36 93.41 L 136.68 93.38 L 137.02 93.36 L 137.36 93.33 L 137.71 93.30 L 138.05 93.27 L 138.36 93.25 L 138.65 93.22 L 138.90 93.19 L 139.09 93.16 L 139.24 93.14 L 139.33 93.11 L 139.36 93.08 L 139.33 93.05 L 139.24 93.02 L 139.09 93.00 L 138.90 92.97 L 138.65 92.94 L 138.36 92.91 L 138.05 92.89 L 137.71 92.86 L 137.36 92.83 L 137.02 92.80 L 136.68 92.78 L 136.36 92.75 L 136.08 92.72 L 135.83 92.69 L 135.63 92.66 L 135.48 92.64 L 135.39 92.61 L 135.36 92.58 L 135.39 92.55 L 135.48 92.53 L 135.63 92.50 L 135.83 92.47 L 136.08 92.44 L 136.36 92.42 L 136.68 92.39 L 137.02 92.36 L 137.36 92.33 L 137.71 92.30 L 138.05 92.28 L 138.36 92.25 L 138.65 92.22 L 138.90 92.19 L 139.09 92.17 L 139.24 92.14 L 139.33 92.11 L 139.36 92.08 A 7.00 7.00 0 0 1 125.36 92.08 L 125.36 92.08 L 125.39 92.11 L 125.48 92.14 L 125.63 92.17 L 125.83 92.19 L 126.08 92.22 L 126.36 92.25 L 126.68 92.28 L 127.02 92.30 L 127.36 92.33 L 127.71 92.36 L 128.05 92.39 L 128.36 92.42 L 128.65 92.44 L 128.90 92.47 L 129.09 92.50 L 129.24 92.53 L 129.33 92.55 L 129.36 92.58 L 129.33 92.61 L 129.24 92.64 L 129.09 92.66 L 128.90 92.69 L 128.65 92.72 L 128.36 92.75 L 128.05 92.78 L 127.71 92.80 L 127.36 92.83 L 127.02 92.86 L 126.68 92.89 L 126.36 92.91 L 126.08 92.94 L 125.83 92.97 L 125.63 93.00 L 125.48 93.02 L 125.39 93.05 L 125.36 93.08 L 125.39 93.11 L 125.48 93.14 L 125.63 93.16 L 125.83 93.19 L 126.08 93.22 L 126.36 93.25 L 126.68 93.27 L 127.02 93.30 L 127.36 93.33 L 127.71 93.36 L 128.05 93.38 L 128.36 93.41 L 128.65 93.44 L 128.90 93.47 L 129.09 93.50 L 129.24 93.52 L 129.33 93.55 L 129.36 93.58 L 129.33 93.61 L 129.24 93.63 L 129.09 93.66 L 128.90 93.69 L 128.65 93.72 L 128.36 93.74 L 128.05 93.77 L 127.71 93.80 L 127.36 93.83 L 127.02 93.86 L 126.68 93.88 L 126.36 93.91 L 126.08 93.94 L 125.83 93.97 L 125.63 93.99 L 125.48 94.02 L 125.39 94.05 L 125.36 94.08 A 7.00 7.00 0 0 1 139.36 94.08 Z M 134.74 94.02 L 134.73 93.99 L 134.70 93.96 L 134.65 93.94 L 134.58 93.91 L 134.50 93.89 L 134.40 93.86 L 134.30 93.83 L 134.18 93.81 L 134.06 93.78 L 133.94 93.76 L 133.83 93.73 L 133.72 93.70 L 133.63 93.68 L 133.54 93.65 L 133.47 93.63 L 133.42 93.60 L 133.39 93.57 L 133.38 93.55 L 133.39 93.52 L 133.42 93.50 L 133.47 93.47 L 133.54 93.44 L 133.63 93.42 L 133.72 93.39 L 133.83 93.37 L 133.94 93.34 L 134.06 93.31 L 134.18 93.29 L 134.30 93.26 L 134.40 93.24 L 134.50 93.21 L 134.58 93.18 L 134.65 93.16 L 134.70 93.13 L 134.73 93.11 L 134.74 93.08 L 134.73 93.05 L 134.70 93.03 L 134.65 93.00 L 134.58 92.98 L 134.50 92.95 L 134.40 92.92 L 134.30 92.90 L 134.18 92.87 L 134.06 92.85 L 133.94 92.82 L 133.83 92.79 L 133.72 92.77 L 133.63 92.74 L 133.54 92.72 L 133.47 92.69 L 133.42 92.66 L 133.39 92.64 L 133.38 92.61 L 133.39 92.59 L 133.42 92.56 L 133.47 92.53 L 133.54 92.51 L 133.63 92.48 L 133.72 92.46 L 133.83 92.43 L 133.94 92.40 L 134.06 92.38 L 134.18 92.35 L 134.30 92.33 L 134.40 92.30 L 134.50 92.27 L 134.58 92.25 L 134.65 92.22 L 134.70 92.20 L 134.73 92.17 L 134.74 92.14 A 2.38 2.38 0 0 1 129.98 92.14 L 129.98 92.14 L 129.99 92.17 L 130.02 92.20 L 130.07 92.22 L 130.14 92.25 L 130.23 92.27 L 130.32 92.30 L 130.43 92.33 L 130.54 92.35 L 130.66 92.38 L 130.78 92.40 L 130.90 92.43 L 131.00 92.46 L 131.10 92.48 L 131.18 92.51 L 131.25 92.53 L 131.30 92.56 L 131.33 92.59 L 131.34 92.61 L 131.33 92.64 L 131.30 92.66 L 131.25 92.69 L 131.18 92.72 L 131.10 92.74 L 131.00 92.77 L 130.90 92.79 L 130.78 92.82 L 130.66 92.85 L 130.54 92.87 L 130.43 92.90 L 130.32 92.92 L 130.23 92.95 L 130.14 92.98 L 130.07 93.00 L 130.02 93.03 L 129.99 93.05 L 129.98 93.08 L 129.99 93.11 L 130.02 93.13 L 130.07 93.16 L 130.14 93.18 L 130.23 93.21 L 130.32 93.24 L 130.43 93.26 L 130.54 93.29 L 130.66 93.31 L 130.78 93.34 L 130.90 93.37 L 131.00 93.39 L 131.10 93.42 L 131.18 93.44 L 131.25 93.47 L 131.30 93.50 L 131.33 93.52 L 131.34 93.55 L 131.33 93.57 L 131.30 93.60 L 131.25 93.63 L 131.18 93.65 L 131.10 93.68 L 131.00 93.70 L 130.90 93.73 L 130.78 93.76 L 130.66 93.78 L 130.54 93.81 L 130.43 93.83 L 130.32 93.86 L 130.23 93.89 L 130.14 93.91 L 130.07 93.94 L 130.02 93.96 L 129.99 93.99 L 129.98 94.02 A 2.38 2.38 0 0 1 134.74 94.02 Z" fill="#1f7a44" fill-rule="evenodd"/></g><g transform="rotate(-246.7 118.1 94.0)"><path d="M 125.10 92.80 L 125.07 92.83 L 124.98 92.87 L 124.83 92.90 L 124.63 92.94 L 124.39 92.97 L 124.10 93.01 L 123.79 93.04 L 123.45 93.07 L 123.10 93.11 L 122.75 93.14 L 122.42 93.18 L 122.10 93.21 L 121.82 93.25 L 121.57 93.28 L 121.37 93.32 L 121.22 93.35 L 121.13 93.39 L 121.10 93.42 L 121.13 93.46 L 121.22 93.49 L 121.37 93.53 L 121.57 93.56 L 121.82 93.59 L 122.10 93.63 L 122.42 93.66 L 122.75 93.70 L 123.10 93.73 L 123.45 93.77 L 123.79 93.80 L 124.10 93.84 L 124.39 93.87 L 124.63 93.91 L 124.83 93.94 L 124.98 93.98 L 125.07 94.01 L 125.10 94.05 L 125.07 94.08 L 124.98 94.12 L 124.83 94.15 L 124.63 94.18 L 124.39 94.22 L 124.10 94.25 L 123.79 94.29 L 123.45 94.32 L 123.10 94.36 L 122.75 94.39 L 122.42 94.43 L 122.10 94.46 L 121.82 94.50 L 121.57 94.53 L 121.37 94.57 L 121.22 94.60 L 121.13 94.64 L 121.10 94.67 L 121.13 94.70 L 121.22 94.74 L 121.37 94.77 L 121.57 94.81 L 121.82 94.84 L 122.10 94.88 L 122.42 94.91 L 122.75 94.95 L 123.10 94.98 L 123.45 95.02 L 123.79 95.05 L 124.10 95.09 L 124.39 95.12 L 124.63 95.16 L 124.83 95.19 L 124.98 95.22 L 125.07 95.26 L 125.10 95.29 A 7.00 7.00 0 0 1 111.10 95.29 L 111.10 95.29 L 111.13 95.26 L 111.22 95.22 L 111.37 95.19 L 111.57 95.16 L 111.82 95.12 L 112.10 95.09 L 112.42 95.05 L 112.75 95.02 L 113.10 94.98 L 113.45 94.95 L 113.79 94.91 L 114.10 94.88 L 114.39 94.84 L 114.63 94.81 L 114.83 94.77 L 114.98 94.74 L 115.07 94.70 L 115.10 94.67 L 115.07 94.64 L 114.98 94.60 L 114.83 94.57 L 114.63 94.53 L 114.39 94.50 L 114.10 94.46 L 113.79 94.43 L 113.45 94.39 L 113.10 94.36 L 112.75 94.32 L 112.42 94.29 L 112.10 94.25 L 111.82 94.22 L 111.57 94.18 L 111.37 94.15 L 111.22 94.12 L 111.13 94.08 L 111.10 94.05 L 111.13 94.01 L 111.22 93.98 L 111.37 93.94 L 111.57 93.91 L 111.82 93.87 L 112.10 93.84 L 112.42 93.80 L 112.75 93.77 L 113.10 93.73 L 113.45 93.70 L 113.79 93.66 L 114.10 93.63 L 114.39 93.59 L 114.63 93.56 L 114.83 93.53 L 114.98 93.49 L 115.07 93.46 L 115.10 93.42 L 115.07 93.39 L 114.98 93.35 L 114.83 93.32 L 114.63 93.28 L 114.39 93.25 L 114.10 93.21 L 113.79 93.18 L 113.45 93.14 L 113.10 93.11 L 112.75 93.07 L 112.42 93.04 L 112.10 93.01 L 111.82 92.97 L 111.57 92.94 L 111.37 92.90 L 111.22 92.87 L 111.13 92.83 L 111.10 92.80 A 7.00 7.00 0 0 1 125.10 92.80 Z M 120.48 92.87 L 120.47 92.90 L 120.44 92.94 L 120.39 92.97 L 120.32 93.00 L 120.24 93.04 L 120.14 93.07 L 120.03 93.10 L 119.92 93.13 L 119.80 93.17 L 119.68 93.20 L 119.57 93.23 L 119.46 93.26 L 119.36 93.30 L 119.28 93.33 L 119.21 93.36 L 119.16 93.39 L 119.13 93.43 L 119.12 93.46 L 119.13 93.49 L 119.16 93.52 L 119.21 93.56 L 119.28 93.59 L 119.36 93.62 L 119.46 93.65 L 119.57 93.69 L 119.68 93.72 L 119.80 93.75 L 119.92 93.78 L 120.03 93.82 L 120.14 93.85 L 120.24 93.88 L 120.32 93.92 L 120.39 93.95 L 120.44 93.98 L 120.47 94.01 L 120.48 94.05 L 120.47 94.08 L 120.44 94.11 L 120.39 94.14 L 120.32 94.18 L 120.24 94.21 L 120.14 94.24 L 120.03 94.27 L 119.92 94.31 L 119.80 94.34 L 119.68 94.37 L 119.57 94.40 L 119.46 94.44 L 119.36 94.47 L 119.28 94.50 L 119.21 94.53 L 119.16 94.57 L 119.13 94.60 L 119.12 94.63 L 119.13 94.67 L 119.16 94.70 L 119.21 94.73 L 119.28 94.76 L 119.36 94.80 L 119.46 94.83 L 119.57 94.86 L 119.68 94.89 L 119.80 94.93 L 119.92 94.96 L 120.03 94.99 L 120.14 95.02 L 120.24 95.06 L 120.32 95.09 L 120.39 95.12 L 120.44 95.15 L 120.47 95.19 L 120.48 95.22 A 2.38 2.38 0 0 1 115.72 95.22 L 115.72 95.22 L 115.73 95.19 L 115.76 95.15 L 115.81 95.12 L 115.88 95.09 L 115.96 95.06 L 116.06 95.02 L 116.17 94.99 L 116.28 94.96 L 116.40 94.93 L 116.52 94.89 L 116.63 94.86 L 116.74 94.83 L 116.84 94.80 L 116.92 94.76 L 116.99 94.73 L 117.04 94.70 L 117.07 94.67 L 117.08 94.63 L 117.07 94.60 L 117.04 94.57 L 116.99 94.53 L 116.92 94.50 L 116.84 94.47 L 116.74 94.44 L 116.63 94.40 L 116.52 94.37 L 116.40 94.34 L 116.28 94.31 L 116.17 94.27 L 116.06 94.24 L 115.96 94.21 L 115.88 94.18 L 115.81 94.14 L 115.76 94.11 L 115.73 94.08 L 115.72 94.05 L 115.73 94.01 L 115.76 93.98 L 115.81 93.95 L 115.88 93.92 L 115.96 93.88 L 116.06 93.85 L 116.17 93.82 L 116.28 93.78 L 116.40 93.75 L 116.52 93.72 L 116.63 93.69 L 116.74 93.65 L 116.84 93.62 L 116.92 93.59 L 116.99 93.56 L 117.04 93.52 L 117.07 93.49 L 117.08 93.46 L 117.07 93.43 L 117.04 93.39 L 116.99 93.36 L 116.92 93.33 L 116.84 93.30 L 116.74 93.26 L 116.63 93.23 L 116.52 93.20 L 116.40 93.17 L 116.28 93.13 L 116.17 93.10 L 116.06 93.07 L 115.96 93.04 L 115.88 93.00 L 115.81 92.97 L 115.76 92.94 L 115.73 92.90 L 115.72 92.87 A 2.38 2.38 0 0 1 120.48 92.87 Z" fill="#1f7a44" fill-rule="evenodd"/></g><line x1="100" y1="128" x2="100" y2="100" stroke="#c0392b" stroke-width="7" stroke-linecap="round"/><line x1="100" y1="128" x2="126" y2="132" stroke="#c0392b" stroke-width="7" stroke-linecap="round"/><text x="158" y="84" text-anchor="middle" font-family="Arial" font-weight="bold" font-size="28" fill="#c0392b">!!</text></svg>