<?xml version="1.0" encoding="UTF-8"?>
<svg xmlns="http://www.w3.org/2000/svg" viewBox="0 0 200 270" width="200" height="270"><g transform="rotate(-90.0 60.4 146.0)"><path d="M 67.40 142.58 L 67.37 142.68 L 67.28 142.77 L 67.13 142.87 L 66.93 142.96 L 66.69 143.06 L 66.40 143.15 L 66.08 143.25 L 65.75 143.34 L 65.40 143.44 L 65.05 143.53 L 64.72 143.63 L 64.40 143.72 L 64.11 143.82 L 63.87 143.91 L 63.67 144.01 L 63.52 144.10 L 63.43 144.20 L 63.40 144.29 L 63.43 144.39 L 63.52 144.48 L 63.67 144.58 L 63.87 144.67 L 64.11 144.77 L 64.40 144.86 L 64.72 144.96 L 65.05 145.05 L 65.40 145.15 L 65.75 145.24 L 66.08 145.34 L 66.40 145.43 L 66.69 145.53 L 66.93 145.62 L 67.13 145.72 L 67.28 145.81 L 67.37 145.91 L 67.40 146.00 L 67.37 146.09 L 67.28 146.19 L 67.13 146.28 L 66.93 146.38 L 66.69 146.47 L 66.40 146.57 L 66.08 146.66 L 65.75 146.76 L 65.40 146.85 L 65.05 146.95 L 64.72 147.04 L 64.40 147.14 L 64.11 147.23 L 63.87 147.33 L 63.67 147.42 L 63.52 147.52 L 63.43 147.61 L 63.40 147.71 L 63.43 147.80 L 63.52 147.90 L 63.67 147.99 L 63.87 148.09 L 64.11 148.18 L 64.40 148.28 L 64.72 148.37 L 65.05 148.47 L 65.40 148.56 L 65.75 148.66 L 66.08 148.75 L 66.40 148.85 L 66.69 148.94 L 66.93 149.04 L 67.13 149.13 L 67.28 149.23 L 67.37 149.32 L 67.40 149.42 A 7.00 7.00 0 0 1 53.40 149.42 L 53.40 149.42 L 53.43 149.32 L 53.52 149.23 L 53.67 149.13 L 53.87 149.04 L 54.11 148.94 L 54.40 148.85 L 54.72 148.75 L 55.05 148.66 L 55.40 148.56 L 55.75 148.47 L 56.08 148.37 L 56.40 148.28 L 56.69 148.18 L 56.93 148.09 L 57.13 147.99 L 57.28 147.90 L 57.37 147.80 L 57.40 147.71 L 57.37 147.61 L 57.28 147.52 L 57.13 147.42 L 56.93 147.33 L 56.69 147.23 L 56.40 147.14 L 56.08 147.04 L 55.75 146.95 L 55.40 146.85 L 55.05 146.76 L 54.72 146.66 L 54.40 146.57 L 54.11 146.47 L 53.87 146.38 L 53.67 146.28 L 53.52 146.19 L 53.43 146.09 L 53.40 146.00 L 53.43 145.91 L 53.52 145.81 L 53.67 145.72 L 53.87 145.62 L 54.11 145.53 L 54.40 145.43 L 54.72 145.34 L 55.05 145.24 L 55.40 145.15 L 55.75 145.05 L 56.08 144.96 L 56.40 144.86 L 56.69 144.77 L 56.93 144.67 L 57.13 144.58 L 57.28 144.48 L 57.37 144.39 L 57.40 144.29 L 57.37 144.20 L 57.28 144.10 L 57.13 144.01 L 56.93 143.91 L 56.69 143.82 L 56.40 143.72 L 56.08 143.63 L 55.75 143.53 L 55.40 143.44 L 55.05 143.34 L 54.72 143.25 L 54.40 143.15 L 54.11 143.06 L 53.87 142.96 L 53.67 142.87 L 53.52 142.77 L 53.43 142.68 L 53.40 142.58 A 7.00 7.00 0 0 1 67.40 142.58 Z M 62.78 142.79 L 62.77 142.88 L 62.74 142.97 L 62.69 143.06 L 62.62 143.15 L 62.54 143.23 L 62.44 143.32 L 62.33 143.41 L 62.22 143.50 L 62.10 143.59 L 61.98 143.68 L 61.87 143.77 L 61.76 143.86 L 61.66 143.95 L 61.58 144.04 L 61.51 144.13 L 61.46 144.22 L 61.43 144.31 L 61.42 144.39 L 61.43 144.48 L 61.46 144.57 L 61.51 144.66 L 61.58 144.75 L 61.66 144.84 L 61.76 144.93 L 61.87 145.02 L 61.98 145.11 L 62.10 145.20 L 62.22 145.29 L 62.33 145.38 L 62.44 145.46 L 62.54 145.55 L 62.62 145.64 L 62.69 145.73 L 62.74 145.82 L 62.77 145.91 L 62.78 146.00 L 62.77 146.09 L 62.74 146.18 L 62.69 146.27 L 62.62 146.36 L 62.54 146.45 L 62.44 146.54 L 62.33 146.62 L 62.22 146.71 L 62.10 146.80 L 61.98 146.89 L 61.87 146.98 L 61.76 147.07 L 61.66 147.16 L 61.58 147.25 L 61.51 147.34 L 61.46 147.43 L 61.43 147.52 L 61.42 147.61 L 61.43 147.69 L 61.46 147.78 L 61.51 147.87 L 61.58 147.96 L 61.66 148.05 L 61.76 148.14 L 61.87 148.23 L 61.98 148.32 L 62.10 148.41 L 62.22 148.50 L 62.33 148.59 L 62.44 148.68 L 62.54 148.77 L 62.62 148.85 L 62.69 148.94 L 62.74 149.03 L 62.77 149.12 L 62.78 149.21 A 2.38 2.38 0 0 1 58.02 149.21 L 58.02 149.21 L 58.03 149.12 L 58.06 149.03 L 58.11 148.94 L 58.18 148.85 L 58.26 148.77 L 58.36 148.68 L 58.47 148.59 L 58.58 148.50 L 58.70 148.41 L 58.82 148.32 L 58.93 148.23 L 59.04 148.14 L 59.14 148.05 L 59.22 147.96 L 59.29 147.87 L 59.34 147.78 L 59.37 147.69 L 59.38 147.61 L 59.37 147.52 L 59.34 147.43 L 59.29 147.34 L 59.22 147.25 L 59.14 147.16 L 59.04 147.07 L 58.93 146.98 L 58.82 146.89 L 58.70 146.80 L 58.58 146.71 L 58.47 146.62 L 58.36 146.54 L 58.26 146.45 L 58.18 146.36 L 58.11 146.27 L 58.06 146.18 L 58.03 146.09 L 58.02 146.00 L 58.03 145.91 L 58.06 145.82 L 58.11 145.73 L 58.18 145.64 L 58.26 145.55 L 58.36 145.46 L 58.47 145.38 L 58.58 145.29 L 58.70 145.20 L 58.82 145.11 L 58.93 145.02 L 59.04 144.93 L 59.14 144.84 L 59.22 144.75 L 59.29 144.66 L 59.34 144.57 L 59.37 144.48 L 59.38 144.39 L 59.37 144.31 L 59.34 144.22 L 59.29 144.13 L 59.22 144.04 L 59.14 143.95 L 59.04 143.86 L 58.93 143.77 L 58.82 143.68 L 58.70 143.59 L 58.58 143.50 L 58.47 143.41 L 58.36 143.32 L 58.26 143.23 L 58.18 143.15 L 58.11 143.06 L 58.06 142.97 L 58.03 142.88 L 58.02 142.79 A 2.38 2.38 0 0 1 62.78 142.79 Z" fill="#1f7a44" fill-rule="evenodd"/></g><g transform="rotate(-90.0 85.2 146.0)"><path d="M 92.20 142.58 L 92.17 142.68 L 92.08 142.77 L 91.93 142.87 L 91.73 142.96 L 91.49 143.06 L 91.20 143.15 L 90.88 143.25 L 90.55 143.34 L 90.20 143.44 L 89.85 143.53 L 89.52 143.63 L 89.20 143.72 L 88.91 143.82 L 88.67 143.91 L 88.47 144.01 L 88.32 144.10 L 88.23 144.20 L 88.20 144.29 L 88.23 144.39 L 88.32 144.48 L 88.47 144.58 L 88.67 144.67 L 88.91 144.77 L 89.20 144.86 L 89.52 144.96 L 89.85 145.05 L 90.20 145.15 L 90.55 145.24 L 90.88 145.34 L 91.20 145.43 L 91.49 145.53 L 91.73 145.62 L 91.93 145.72 L 92.08 145.81 L 92.17 145.91 L 92.20 146.00 L 92.17 146.09 L 92.08 146.19 L 91.93 146.28 L 91.73 146.38 L 91.49 146.47 L 91.20 146.57 L 90.88 146.66 L 90.55 146.76 L 90.20 146.85 L 89.85 146.95 L 89.52 147.04 L 89.20 147.14 L 88.91 147.23 L 88.67 147.33 L 88.47 147.42 L 88.32 147.52 L 88.23 147.61 L 88.20 147.71 L 88.23 147.80 L 88.32 147.90 L 88.47 147.99 L 88.67 148.09 L 88.91 148.18 L 89.20 148.28 L 89.52 148.37 L 89.85 148.47 L 90.20 148.56 L 90.55 148.66 L 90.88 148.75 L 91.20 148.85 L 91.49 148.94 L 91.73 149.04 L 91.93 149.13 L 92.08 149.23 L 92.17 149.32 L 92.20 149.42 A 7.00 7.00 0 0 1 78.20 149.42 L 78.20 149.42 L 78.23 149.32 L 78.32 149.23 L 78.47 149.13 L 78.67 149.04 L 78.91 148.94 L 79.20 148.85 L 79.52 148.75 L 79.85 148.66 L 80.20 148.56 L 80.55 148.47 L 80.88 148.37 L 81.20 148.28 L 81.49 148.18 L 81.73 148.09 L 81.93 147.99 L 82.08 147.90 L 82.17 147.80 L 82.20 147.71 L 82.17 147.61 L 82.08 147.52 L 81.93 147.42 L 81.73 147.33 L 81.49 147.23 L 81.20 147.14 L 80.88 147.04 L 80.55 146.95 L 80.20 146.85 L 79.85 146.76 L 79.52 146.66 L 79.20 146.57 L 78.91 146.47 L 78.67 146.38 L 78.47 146.28 L 78.32 146.19 L 78.23 146.09 L 78.20 146.00 L 78.23 145.91 L 78.32 145.81 L 78.47 145.72 L 78.67 145.62 L 78.91 145.53 L 79.20 145.43 L 79.52 145.34 L 79.85 145.24 L 80.20 145.15 L 80.55 145.05 L 80.88 144.96 L 81.20 144.86 L 81.49 144.77 L 81.73 144.67 L 81.93 144.58 L 82.08 144.48 L 82.17 144.39 L 82.20 144.29 L 82.17 144.20 L 82.08 144.10 L 81.93 144.01 L 81.73 143.91 L 81.49 143.82 L 81.20 143.72 L 80.88 143.63 L 80.55 143.53 L 80.20 143.44 L 79.85 143.34 L 79.52 143.25 L 79.20 143.15 L 78.91 143.06 L 78.67 142.96 L 78.47 142.87 L 78.32 142.77 L 78.23 142.68 L 78.20 142.58 A 7.00 7.00 0 0 1 92.20 142.58 Z M 87.58 142.79 L 87.57 142.88 L 87.54 142.97 L 87.49 143.06 L 87.42 143.15 L 87.34 143.23 L 87.24 143.32 L 87.13 143.41 L 87.02 143.50 L 86.90 143.59 L 86.78 143.68 L 86.67 143.77 L 86.56 143.86 L 86.46 143.95 L 86.38 144.04 L 86.31 144.13 L 86.26 144.22 L 86.23 144.31 L 86.22 144.39 L 86.23 144.48 L 86.26 144.57 L 86.31 144.66 L 86.38 144.75 L 86.46 144.84 L 86.56 144.93 L 86.67 145.02 L 86.78 145.11 L 86.90 145.20 L 87.02 145.29 L 87.13 145.38 L 87.24 145.46 L 87.34 145.55 L 87.42 145.64 L 87.49 145.73 L 87.54 145.82 L 87.57 145.91 L 87.58 146.00 L 87.57 146.09 L 87.54 146.18 L 87.49 146.27 L 87.42 146.36 L 87.34 146.45 L 87.24 146.54 L 87.13 146.62 L 87.02 146.71 L 86.90 146.80 L 86.78 146.89 L 86.67 146.98 L 86.56 147.07 L 86.46 147.16 L 86.38 147.25 L 86.31 147.34 L 86.26 147.43 L 86.23 147.52 L 86.22 147.61 L 86.23 147.69 L 86.26 147.78 L 86.31 147.87 L 86.38 147.96 L 86.46 148.05 L 86.56 148.14 L 86.67 148.23 L 86.78 148.32 L 86.90 148.41 L 87.02 148.50 L 87.13 148.59 L 87.24 148.68 L 87.34 148.77 L 87.42 148.85 L 87.49 148.94 L 87.54 149.03 L 87.57 149.12 L 87.58 149.21 A 2.38 2.38 0 0 1 82.82 149.21 L 82.82 149.21 L 82.83 149.12 L 82.86 149.03 L 82.91 148.94 L 82.98 148.85 L 83.06 148.77 L 83.16 148.68 L 83.27 148.59 L 83.38 148.50 L 83.50 148.41 L 83.62 148.32 L 83.73 148.23 L 83.84 148.14 L 83.94 148.05 L 84.02 147.96 L 84.09 147.87 L 84.14 147.78 L 84.17 147.69 L 84.18 147.61 L 84.17 147.52 L 84.14 147.43 L 84.09 147.34 L 84.02 147.25 L 83.94 147.16 L 83.84 147.07 L 83.73 146.98 L 83.62 146.89 L 83.50 146.80 L 83.38 146.71 L 83.27 146.62 L 83.16 146.54 L 83.06 146.45 L 82.98 146.36 L 82.91 146.27 L 82.86 146.18 L 82.83 146.09 L 82.82 146.00 L 82.83 145.91 L 82.86 145.82 L 82.91 145.73 L 82.98 145.64 L 83.06 145.55 L 83.16 145.46 L 83.27 145.38 L 83.38 145.29 L 83.50 145.20 L 83.62 145.11 L 83.73 145.02 L 83.84 144.93 L 83.94 144.84 L 84.02 144.75 L 84.09 144.66 L 84.14 144.57 L 84.17 144.48 L 84.18 144.39 L 84.17 144.31 L 84.14 144.22 L 84.09 144.13 L 84.02 144.04 L 83.94 143.95 L 83.84 143.86 L 83.73 143.77 L 83.62 143.68 L 83.50 143.59 L 83.38 143.50 L 83.27 143.41 L 83.16 143.32 L 83.06 143.23 L 82.98 143.15 L 82.91 143.06 L 82.86 142.97 L 82.83 142.88 L 82.82 142.79 A 2.38 2.38 0 0 1 87.58 142.79 Z" fill="#1f7a44" fill-rule="evenodd"/></g><g transform="rotate(-90.0 110.0 146.0)"><path d="M 117.00 142.58 L 116.97 142.68 L 116.88 142.77 L 116.73 142.87 L 116.53 142.96 L 116.29 143.06 L 116.00 143.15 L 115.68 143.25 L 115.35 143.34 L 115.00 143.44 L 114.65 143.53 L 114.32 143.63 L 114.00 143.72 L 113.71 143.82 L 113.47 143.91 L 113.27 144.01 L 113.12 144.10 L 113.03 144.20 L 113.00 144.29 L 113.03 144.39 L 113.12 144.48 L 113.27 144.58 L 113.47 144.67 L 113.71 144.77 L 114.00 144.86 L 114.32 144.96 L 114.65 145.05 L 115.00 145.15 L 115.35 145.24 L 115.68 145.34 L 116.00 145.43 L 116.29 145.53 L 116.53 145.62 L 116.73 145.72 L 116.88 145.81 L 116.97 145.91 L 117.00 146.00 L 116.97 146.09 L 116.88 146.19 L 116.73 146.28 L 116.53 146.38 L 116.29 146.47 L 116.00 146.57 L 115.68 146.66 L 115.35 146.76 L 115.00 146.85 L 114.65 146.95 L 114.32 147.04 L 114.00 147.14 L 113.71 147.23 L 113.47 147.33 L 113.27 147.42 L 113.12 147.52 L 113.03 147.61 L 113.00 147.71 L 113.03 147.80 L 113.12 147.90 L 113.27 147.99 L 113.47 148.09 L 113.71 148.18 L 114.00 148.28 L 114.32 148.37 L 114.65 148.47 L 115.00 148.56 L 115.35 148.66 L 115.68 148.75 L 116.00 148.85 L 116.29 148.94 L 116.53 149.04 L 116.73 149.13 L 116.88 149.23 L 116.97 149.32 L 117.00 149.42 A 7.00 7.00 0 0 1 103.00 149.42 L 103.00 149.42 L 103.03 149.32 L 103.12 149.23 L 103.27 149.13 L 103.47 149.04 L 103.71 148.94 L 104.00 148.85 L 104.32 148.75 L 104.65 148.66 L 105.00 148.56 L 105.35 148.47 L 105.68 148.37 L 106.00 148.28 L 106.29 148.18 L 106.53 148.09 L 106.73 147.99 L 106.88 147.90 L 106.97 147.80 L 107.00 147.71 L 106.97 147.61 L 106.88 147.52 L 106.73 147.42 L 106.53 147.33 L 106.29 147.23 L 106.00 147.14 L 105.68 147.04 L 105.35 146.95 L 105.00 146.85 L 104.65 146.76 L 104.32 146.66 L 104.00 146.57 L 103.71 146.47 L 103.47 146.38 L 103.27 146.28 L 103.12 146.19 L 103.03 146.09 L 103.00 146.00 L 103.03 145.91 L 103.12 145.81 L 103.27 145.72 L 103.47 145.62 L 103.71 145.53 L 104.00 145.43 L 104.32 145.34 L 104.65 145.24 L 105.00 145.15 L 105.35 145.05 L 105.68 144.96 L 106.00 144.86 L 106.29 144.77 L 106.53 144.67 L 106.73 144.58 L 106.88 144.48 L 106.97 144.39 L 107.00 144.29 L 106.97 144.20 L 106.88 144.10 L 106.73 144.01 L 106.53 143.91 L 106.29 143.82 L 106.00 143.72 L 105.68 143.63 L 105.35 143.53 L 105.00 143.44 L 104.65 143.34 L 104.32 143.25 L 104.00 143.15 L 103.71 143.06 L 103.47 142.96 L 103.27 142.87 L 103.12 142.77 L 103.03 142.68 L 103.00 142.58 A 7.00 7.00 0 0 1 117.00 142.58 Z M 112.38 142.79 L 112.37 142.88 L 112.34 142.97 L 112.29 143.06 L 112.22 143.15 L 112.14 143.23 L 112.04 143.32 L 111.93 143.41 L 111.82 143.50 L 111.70 143.59 L 111.58 143.68 L 111.47 143.77 L 111.36 143.86 L 111.26 143.95 L 111.18 144.04 L 111.11 144.13 L 111.06 144.22 L 111.03 144.31 L 111.02 144.39 L 111.03 144.48 L 111.06 144.57 L 111.11 144.66 L 111.18 144.75 L 111.26 144.84 L 111.36 144.93 L 111.47 145.02 L 111.58 145.11 L 111.70 145.20 L 111.82 145.29 L 111.93 145.38 L 112.04 145.46 L 112.14 145.55 L 112.22 145.64 L 112.29 145.73 L 112.34 145.82 L 112.37 145.91 L 112.38 146.00 L 112.37 146.09 L 112.34 146.18 L 112.29 146.27 L 112.22 146.36 L 112.14 146.45 L 112.04 146.54 L 111.93 146.62 L 111.82 146.71 L 111.70 146.80 L 111.58 146.89 L 111.47 146.98 L 111.36 147.07 L 111.26 147.16 L 111.18 147.25 L 111.11 147.34 L 111.06 147.43 L 111.03 147.52 L 111.02 147.61 L 111.03 147.69 L 111.06 147.78 L 111.11 147.87 L 111.18 147.96 L 111.26 148.05 L 111.36 148.14 L 111.47 148.23 L 111.58 148.32 L 111.70 148.41 L 111.82 148.50 L 111.93 148.59 L 112.04 148.68 L 112.14 148.77 L 112.22 148.85 L 112.29 148.94 L 112.34 149.03 L 112.37 149.12 L 112.38 149.21 A 2.38 2.38 0 0 1 107.62 149.21 L 107.62 149.21 L 107.63 149.12 L 107.66 149.03 L 107.71 148.94 L 107.78 148.85 L 107.86 148.77 L 107.96 148.68 L 108.07 148.59 L 108.18 148.50 L 108.30 148.41 L 108.42 148.32 L 108.53 148.23 L 108.64 148.14 L 108.74 148.05 L 108.82 147.96 L 108.89 147.87 L 108.94 147.78 L 108.97 147.69 L 108.98 147.61 L 108.97 147.52 L 108.94 147.43 L 108.89 147.34 L 108.82 147.25 L 108.74 147.16 L 108.64 147.07 L 108.53 146.98 L 108.42 146.89 L 108.30 146.80 L 108.18 146.71 L 108.07 146.62 L 107.96 146.54 L 107.86 146.45 L 107.78 146.36 L 107.71 146.27 L 107.66 146.18 L 107.63 146.09 L 107.62 146.00 L 107.63 145.91 L 107.66 145.82 L 107.71 145.73 L 107.78 145.64 L 107.86 145.55 L 107.96 145.46 L 108.07 145.38 L 108.18 145.29 L 108.30 145.20 L 108.42 145.11 L 108.53 145.02 L 108.64 144.93 L 108.74 144.84 L 108.82 144.75 L 108.89 144.66 L 108.94 144.57 L 108.97 144.48 L 108.98 144.39 L 108.97 144.31 L 108.94 144.22 L 108.89 144.13 L 108.82 144.04 L 108.74 143.95 L 108.64 143.86 L 108.53 143.77 L 108.42 143.68 L 108.30 143.59 L 108.18 143.50 L 108.07 143.41 L 107.96 143.32 L 107.86 143.23 L 107.78 143.15 L 107.71 143.06 L 107.66 142.97 L 107.63 142.88 L 107.62 142.79 A 2.38 2.38 0 0 1 112.38 142.79 Z" fill="#1f7a44" fill-rule="evenodd"/></g><g transform="rotate(-90.0 134.8 146.0)"><path d="M 141.80 142.58 L 141.77 142.68 L 141.68 142.77 L 141.53 142.87 L 141.33 142.96 L 141.09 143.06 L 140.80 143.15 L 140.48 143.25 L 140.15 143.34 L 139.80 143.44 L 139.45 143.53 L 139.12 143.63 L 138.80 143.72 L 138.51 143.82 L 138.27 143.91 L 138.07 144.01 L 137.92 144.10 L 137.83 144.20 L 137.80 144.29 L 137.83 144.39 L 137.92 144.48 L 138.07 144.58 L 138.27 144.67 L 138.51 144.77 L 138.80 144.86 L 139.12 144.96 L 139.45 145.05 L 139.80 145.15 L 140.15 145.24 L 140.48 145.34 L 140.80 145.43 L 141.09 145.53 L 141.33 145.62 L 141.53 145.72 L 141.68 145.81 L 141.77 145.91 L 141.80 146.00 L 141.77 146.09 L 141.68 146.19 L 141.53 146.28 L 141.33 146.38 L 141.09 146.47 L 140.80 146.57 L 140.48 146.66 L 140.15 146.76 L 139.80 146.85 L 139.45 146.95 L 139.12 147.04 L 138.80 147.14 L 138.51 147.23 L 138.27 147.33 L 138.07 147.42 L 137.92 147.52 L 137.83 147.61 L 137.80 147.71 L 137.83 147.80 L 137.92 147.90 L 138.07 147.99 L 138.27 148.09 L 138.51 148.18 L 138.80 148.28 L 139.12 148.37 L 139.45 148.47 L 139.80 148.56 L 140.15 148.66 L 140.48 148.75 L 140.80 148.85 L 141.09 148.94 L 141.33 149.04 L 141.53 149.13 L 141.68 149.23 L 141.77 149.32 L 141.80 149.42 A 7.00 7.00 0 0 1 127.80 149.42 L 127.80 149.42 L 127.83 149.32 L 127.92 149.23 L 128.07 149.13 L 128.27 149.04 L 128.51 148.94 L 128.80 148.85 L 129.12 148.75 L 129.45 148.66 L 129.80 148.56 L 130.15 148.47 L 130.48 148.37 L 130.80 148.28 L 131.09 148.18 L 131.33 148.09 L 131.53 147.99 L 131.68 147.90 L 131.77 147.80 L 131.80 147.71 L 131.77 147.61 L 131.68 147.52 L 131.53 147.42 L 131.33 147.33 L 131.09 147.23 L 130.80 147.14 L 130.48 147.04 L 130.15 146.95 L 129.80 146.85 L 129.45 146.76 L 129.12 146.66 L 128.80 146.57 L 128.51 146.47 L 128.27 146.38 L 128.07 146.28 L 127.92 146.19 L 127.83 146.09 L 127.80 146.00 L 127.83 145.91 L 127.92 145.81 L 128.07 145.72 L 128.27 145.62 L 128.51 145.53 L 128.80 145.43 L 129.12 145.34 L 129.45 145.24 L 129.80 145.15 L 130.15 145.05 L 130.48 144.96 L 130.80 144.86 L 131.09 144.77 L 131.33 144.67 L 131.53 144.58 L 131.68 144.48 L 131.77 144.39 L 131.80 144.29 L 131.77 144.20 L 131.68 144.10 L 131.53 144.01 L 131.33 143.91 L 131.09 143.82 L 130.80 143.72 L 130.48 143.63 L 130.15 143.53 L 129.80 143.44 L 129.45 143.34 L 129.12 143.25 L 128.80 143.15 L 128.51 143.06 L 128.27 142.96 L 128.07 142.87 L 127.92 142.77 L 127.83 142.68 L 127.80 142.58 A 7.00 7.00 0 0 1 141.80 142.58 Z M 137.18 142.79 L 137.17 142.88 L 137.14 142.97 L 137.09 143.06 L 137.02 143.15 L 136.94 143.23 L 136.84 143.32 L 136.73 143.41 L 136.62 143.50 L 136.50 143.59 L 136.38 143.68 L 136.27 143.77 L 136.16 143.86 L 136.06 143.95 L 135.98 144.04 L 135.91 144.13 L 135.86 144.22 L 135.83 144.31 L 135.82 144.39 L 135.83 144.48 L 135.86 144.57 L 135.91 144.66 L 135.98 144.75 L 136.06 144.84 L 136.16 144.93 L 136.27 145.02 L 136.38 145.11 L 136.50 145.20 L 136.62 145.29 L 136.73 145.38 L 136.84 145.46 L 136.94 145.55 L 137.02 145.64 L 137.09 145.73 L 137.14 145.82 L 137.17 145.91 L 137.18 146.00 L 137.17 146.09 L 137.14 146.18 L 137.09 146.27 L 137.02 146.36 L 136.94 146.45 L 136.84 146.54 L 136.73 146.62 L 136.62 146.71 L 136.50 146.80 L 136.38 146.89 L 136.27 146.98 L 136.16 147.07 L 136.06 147.16 L 135.98 147.25 L 135.91 147.34 L 135.86 147.43 L 135.83 147.52 L 135.82 147.61 L 135.83 147.69 L 135.86 147.78 L 135.91 147.87 L 135.98 147.96 L 136.06 148.05 L 136.16 148.14 L 136.27 148.23 L 136.38 148.32 L 136.50 148.41 L 136.62 148.50 L 136.73 148.59 L 136.84 148.68 L 136.94 148.77 L 137.02 148.85 L 137.09 148.94 L 137.14 149.03 L 137.17 149.12 L 137.18 149.21 A 2.38 2.38 0 0 1 132.42 149.21 L 132.42 149.21 L 132.43 149.12 L 132.46 149.03 L 132.51 148.94 L 132.58 148.85 L 132.66 148.77 L 132.76 148.68 L 132.87 148.59 L 132.98 148.50 L 133.10 148.41 L 133.22 148.32 L 133.33 148.23 L 133.44 148.14 L 133.54 148.05 L 133.62 147.96 L 133.69 147.87 L 133.74 147.78 L 133.77 147.69 L 133.78 147.61 L 133.77 147.52 L 133.74 147.43 L 133.69 147.34 L 133.62 147.25 L 133.54 147.16 L 133.44 147.07 L 133.33 146.98 L 133.22 146.89 L 133.10 146.80 L 132.98 146.71 L 132.87 146.62 L 132.76 146.54 L 132.66 146.45 L 132.58 146.36 L 132.51 146.27 L 132.46 146.18 L 132.43 146.09 L 132.42 146.00 L 132.43 145.91 L 132.46 145.82 L 132.51 145.73 L 132.58 145.64 L 132.66 145.55 L 132.76 145.46 L 132.87 145.38 L 132.98 145.29 L 133.10 145.20 L 133.22 145.11 L 133.33 145.02 L 133.44 144.93 L 133.54 144.84 L 133.62 144.75 L 133.69 144.66 L 133.74 144.57 L 133.77 144.48 L 133.78 144.39 L 133.77 144.31 L 133.74 144.22 L 133.69 144.13 L 133.62 144.04 L 133.54 143.95 L 133.44 143.86 L 133.33 143.77 L 133.22 143.68 L 133.10 143.59 L 132.98 143.50 L 132.87 143.41 L 132.76 143.32 L 132.66 143.23 L 132.58 143.15 L 132.51 143.06 L 132.46 142.97 L 132.43 142.88 L 132.42 142.79 A 2.38 2.38 0 0 1 137.18 142.79 Z" fill="#1f7a44" fill-rule="evenodd"/></g><g transform="rotate(-13.5 149.6 156.0)"><path d="M 156.60 154.36 L 156.57 154.41 L 156.48 154.45 L 156.33 154.50 L 156.13 154.54 L 155.89 154.59 L 155.60 154.63 L 155.28 154.68 L 154.95 154.73 L 154.60 154.77 L 154.25 154.82 L 153.92 154.86 L 153.60 154.91 L 153.31 154.95 L 153.07 155.00 L 152.87 155.04 L 152.72 155.09 L 152.63 155.14 L 152.60 155.18 L 152.63 155.23 L 152.72 155.27 L 152.87 155.32 L 153.07 155.36 L 153.31 155.41 L 153.60 155.45 L 153.92 155.50 L 154.25 155.54 L 154.60 155.59 L 154.95 155.64 L 155.28 155.68 L 155.60 155.73 L 155.89 155.77 L 156.13 155.82 L 156.33 155.86 L 156.48 155.91 L 156.57 155.95 L 156.60 156.00 L 156.57 156.05 L 156.48 156.09 L 156.33 156.14 L 156.13 156.18 L 155.89 156.23 L 155.60 156.27 L 155.28 156.32 L 154.95 156.36 L 154.60 156.41 L 154.25 156.46 L 153.92 156.50 L 153.60 156.55 L 153.31 156.59 L 153.07 156.64 L 152.87 156.68 L 152.72 156.73 L 152.63 156.77 L 152.60 156.82 L 152.63 156.86 L 152.72 156.91 L 152.87 156.96 L 153.07 157.00 L 153.31 157.05 L 153.60 157.09 L 153.92 157.14 L 154.25 157.18 L 154.60 157.23 L 154.95 157.27 L 155.28 157.32 L 155.60 157.37 L 155.89 157.41 L 156.13 157.46 L 156.33 157.50 L 156.48 157.55 L 156.57 157.59 L 156.60 157.64 A 7.00 7.00 0 0 1 142.60 157.64 L 142.60 157.64 L 142.63 157.59 L 142.72 157.55 L 142.87 157.50 L 143.07 157.46 L 143.31 157.41 L 143.60 157.37 L 143.92 157.32 L 144.25 157.27 L 144.60 157.23 L 144.95 157.18 L 145.28 157.14 L 145.60 157.09 L 145.89 157.05 L 146.13 157.00 L 146.33 156.96 L 146.48 156.91 L 146.57 156.86 L 146.60 156.82 L 146.57 156.77 L 146.48 156.73 L 146.33 156.68 L 146.13 156.64 L 145.89 156.59 L 145.60 156.55 L 145.28 156.50 L 144.95 156.46 L 144.60 156.41 L 144.25 156.36 L 143.92 156.32 L 143.60 156.27 L 143.31 156.23 L 143.07 156.18 L 142.87 156.14 L 142.72 156.09 L 142.63 156.05 L 142.60 156.00 L 142.63 155.95 L 142.72 155.91 L 142.87 155.86 L 143.07 155.82 L 143.31 155.77 L 143.60 155.73 L 143.92 155.68 L 144.25 155.64 L 144.60 155.59 L 144.95 155.54 L 145.28 155.50 L 145.60 155.45 L 145.89 155.41 L 146.13 155.36 L 146.33 155.32 L 146.48 155.27 L 146.57 155.23 L 146.60 155.18 L 146.57 155.14 L 146.48 155.09 L 146.33 155.04 L 146.13 155.00 L 145.89 154.95 L 145.60 154.91 L 145.28 154.86 L 144.95 154.82 L 144.60 154.77 L 144.25 154.73 L 143.92 154.68 L 143.60 154.63 L 143.31 154.59 L 143.07 154.54 L 142.87 154.50 L 142.72 154.45 L 142.63 154.41 L 142.60 154.36 A 7.00 7.00 0 0 1 156.60 154.36 Z M 151.98 154.46 L 151.97 154.50 L 151.94 154.55 L 151.89 154.59 L 151.82 154.63 L 151.74 154.67 L 151.64 154.72 L 151.53 154.76 L 151.42 154.80 L 151.30 154.84 L 151.18 154.89 L 151.07 154.93 L 150.96 154.97 L 150.86 155.02 L 150.78 155.06 L 150.71 155.10 L 150.66 155.14 L 150.63 155.19 L 150.62 155.23 L 150.63 155.27 L 150.66 155.32 L 150.71 155.36 L 150.78 155.40 L 150.86 155.44 L 150.96 155.49 L 151.07 155.53 L 151.18 155.57 L 151.30 155.61 L 151.42 155.66 L 151.53 155.70 L 151.64 155.74 L 151.74 155.79 L 151.82 155.83 L 151.89 155.87 L 151.94 155.91 L 151.97 155.96 L 151.98 156.00 L 151.97 156.04 L 151.94 156.09 L 151.89 156.13 L 151.82 156.17 L 151.74 156.21 L 151.64 156.26 L 151.53 156.30 L 151.42 156.34 L 151.30 156.39 L 151.18 156.43 L 151.07 156.47 L 150.96 156.51 L 150.86 156.56 L 150.78 156.60 L 150.71 156.64 L 150.66 156.68 L 150.63 156.73 L 150.62 156.77 L 150.63 156.81 L 150.66 156.86 L 150.71 156.90 L 150.78 156.94 L 150.86 156.98 L 150.96 157.03 L 151.07 157.07 L 151.18 157.11 L 151.30 157.16 L 151.42 157.20 L 151.53 157.24 L 151.64 157.28 L 151.74 157.33 L 151.82 157.37 L 151.89 157.41 L 151.94 157.45 L 151.97 157.50 L 151.98 157.54 A 2.38 2.38 0 0 1 147.22 157.54 L 147.22 157.54 L 147.23 157.50 L 147.26 157.45 L 147.31 157.41 L 147.38 157.37 L 147.46 157.33 L 147.56 157.28 L 147.67 157.24 L 147.78 157.20 L 147.90 157.16 L 148.02 157.11 L 148.13 157.07 L 148.24 157.03 L 148.34 156.98 L 148.42 156.94 L 148.49 156.90 L 148.54 156.86 L 148.57 156.81 L 148.58 156.77 L 148.57 156.73 L 148.54 156.68 L 148.49 156.64 L 148.42 156.60 L 148.34 156.56 L 148.24 156.51 L 148.13 156.47 L 148.02 156.43 L 147.90 156.39 L 147.78 156.34 L 147.67 156.30 L 147.56 156.26 L 147.46 156.21 L 147.38 156.17 L 147.31 156.13 L 147.26 156.09 L 147.23 156.04 L 147.22 156.00 L 147.23 155.96 L 147.26 155.91 L 147.31 155.87 L 147.38 155.83 L 147.46 155.79 L 147.56 155.74 L 147.67 155.70 L 147.78 155.66 L 147.90 155.61 L 148.02 155.57 L 148.13 155.53 L 148.24 155.49 L 148.34 155.44 L 148.42 155.40 L 148.49 155.36 L 148.54 155.32 L 148.57 155.27 L 148.58 155.23 L 148.57 155.19 L 148.54 155.14 L 148.49 155.10 L 148.42 155.06 L 148.34 155.02 L 148.24 154.97 L 148.13 154.93 L 148.02 154.89 L 147.90 154.84 L 147.78 154.80 L 147.67 154.76 L 147.56 154.72 L 147.46 154.67 L 147.38 154.63 L 147.31 154.59 L 147.26 154.55 L 147.23 154.50 L 147.22 154.46 A 2.38 2.38 0 0 1 151.98 154.46 Z" fill="#1f7a44" fill-rule="evenodd"/></g><g transform="rotate(90.0 139.6 166.0)"><path d="M 146.60 162.58 L 146.57 162.68 L 146.48 162.77 L 146.33 162.87 L 146.13 162.96 L 145.89 163.06 L 145.60 163.15 L 145.28 163.25 L 144.95 163.34 L 144.60 163.44 L 144.25 163.53 L 143.92 163.63 L 143.60 163.72 L 143.31 163.82 L 143.07 163.91 L 142.87 164.01 L 142.72 164.10 L 142.63 164.20 L 142.60 164.29 L 142.63 164.39 L 142.72 164.48 L 142.87 164.58 L 143.07 164.67 L 143.31 164.77 L 143.60 164.86 L 143.92 164.96 L 144.25 165.05 L 144.60 165.15 L 144.95 165.24 L 145.28 165.34 L 145.60 165.43 L 145.89 165.53 L 146.13 165.62 L 146.33 165.72 L 146.48 165.81 L 146.57 165.91 L 146.60 166.00 L 146.57 166.09 L 146.48 166.19 L 146.33 166.28 L 146.13 166.38 L 145.89 166.47 L 145.60 166.57 L 145.28 166.66 L 144.95 166.76 L 144.60 166.85 L 144.25 166.95 L 143.92 167.04 L 143.60 167.14 L 143.31 167.23 L 143.07 167.33 L 142.87 167.42 L 142.72 167.52 L 142.63 167.61 L 142.60 167.71 L 142.63 167.80 L 142.72 167.90 L 142.87 167.99 L 143.07 168.09 L 143.31 168.18 L 143.60 168.28 L 143.92 168.37 L 144.25 168.47 L 144.60 168.56 L 144.95 168.66 L 145.28 168.75 L 145.60 168.85 L 145.89 168.94 L 146.13 169.04 L 146.33 169.13 L 146.48 169.23 L 146.57 169.32 L 146.60 169.42 A 7.00 7.00 0 0 1 132.60 169.42 L 132.60 169.42 L 132.63 169.32 L 132.72 169.23 L 132.87 169.13 L 133.07 169.04 L 133.31 168.94 L 133.60 168.85 L 133.92 168.75 L 134.25 168.66 L 134.60 168.56 L 134.95 168.47 L 135.28 168.37 L 135.60 168.28 L 135.89 168.18 L 136.13 168.09 L 136.33 167.99 L 136.48 167.90 L 136.57 167.80 L 136.60 167.71 L 136.57 167.61 L 136.48 167.52 L 136.33 167.42 L 136.13 167.33 L 135.89 167.23 L 135.60 167.14 L 135.28 167.04 L 134.95 166.95 L 134.60 166.85 L 134.25 166.76 L 133.92 166.66 L 133.60 166.57 L 133.31 166.47 L 133.07 166.38 L 132.87 166.28 L 132.72 166.19 L 132.63 166.09 L 132.60 166.00 L 132.63 165.91 L 132.72 165.81 L 132.87 165.72 L 133.07 165.62 L 133.31 165.53 L 133.60 165.43 L 133.92 165.34 L 134.25 165.24 L 134.60 165.15 L 134.95 165.05 L 135.28 164.96 L 135.60 164.86 L 135.89 164.77 L 136.13 164.67 L 136.33 164.58 L 136.48 164.48 L 136.57 164.39 L 136.60 164.29 L 136.57 164.20 L 136.48 164.10 L 136.33 164.01 L 136.13 163.91 L 135.89 163.82 L 135.60 163.72 L 135.28 163.63 L 134.95 163.53 L 134.60 163.44 L 134.25 163.34 L 133.92 163.25 L 133.60 163.15 L 133.31 163.06 L 133.07 162.96 L 132.87 162.87 L 132.72 162.77 L 132.63 162.68 L 132.60 162.58 A 7.00 7.00 0 0 1 146.60 162.58 Z M 141.98 162.79 L 141.97 162.88 L 141.94 162.97 L 141.89 163.06 L 141.82 163.15 L 141.74 163.23 L 141.64 163.32 L 141.53 163.41 L 141.42 163.50 L 141.30 163.59 L 141.18 163.68 L 141.07 163.77 L 140.96 163.86 L 140.86 163.95 L 140.78 164.04 L 140.71 164.13 L 140.66 164.22 L 140.63 164.31 L 140.62 164.39 L 140.63 164.48 L 140.66 164.57 L 140.71 164.66 L 140.78 164.75 L 140.86 164.84 L 140.96 164.93 L 141.07 165.02 L 141.18 165.11 L 141.30 165.20 L 141.42 165.29 L 141.53 165.38 L 141.64 165.46 L 141.74 165.55 L 141.82 165.64 L 141.89 165.73 L 141.94 165.82 L 141.97 165.91 L 141.98 166.00 L 141.97 166.09 L 141.94 166.18 L 141.89 166.27 L 141.82 166.36 L 141.74 166.45 L 141.64 166.54 L 141.53 166.62 L 141.42 166.71 L 141.30 166.80 L 141.18 166.89 L 141.07 166.98 L 140.96 167.07 L 140.86 167.16 L 140.78 167.25 L 140.71 167.34 L 140.66 167.43 L 140.63 167.52 L 140.62 167.61 L 140.63 167.69 L 140.66 167.78 L 140.71 167.87 L 140.78 167.96 L 140.86 168.05 L 140.96 168.14 L 141.07 168.23 L 141.18 168.32 L 141.30 168.41 L 141.42 168.50 L 141.53 168.59 L 141.64 168.68 L 141.74 168.77 L 141.82 168.85 L 141.89 168.94 L 141.94 169.03 L 141.97 169.12 L 141.98 169.21 A 2.38 2.38 0 0 1 137.22 169.21 L 137.22 169.21 L 137.23 169.12 L 137.26 169.03 L 137.31 168.94 L 137.38 168.85 L 137.46 168.77 L 137.56 168.68 L 137.67 168.59 L 137.78 168.50 L 137.90 168.41 L 138.02 168.32 L 138.13 168.23 L 138.24 168.14 L 138.34 168.05 L 138.42 167.96 L 138.49 167.87 L 138.54 167.78 L 138.57 167.69 L 138.58 167.61 L 138.57 167.52 L 138.54 167.43 L 138.49 167.34 L 138.42 167.25 L 138.34 167.16 L 138.24 167.07 L 138.13 166.98 L 138.02 166.89 L 137.90 166.80 L 137.78 166.71 L 137.67 166.62 L 137.56 166.54 L 137.46 166.45 L 137.38 166.36 L 137.31 166.27 L 137.26 166.18 L 137.23 166.09 L 137.22 166.00 L 137.23 165.91 L 137.26 165.82 L 137.31 165.73 L 137.38 165.64 L 137.46 165.55 L 137.56 165.46 L 137.67 165.38 L 137.78 165.29 L 137.90 165.20 L 138.02 165.11 L 138.13 165.02 L 138.24 164.93 L 138.34 164.84 L 138.42 164.75 L 138.49 164.66 L 138.54 164.57 L 138.57 164.48 L 138.58 164.39 L 138.57 164.31 L 138.54 164.22 L 138.49 164.13 L 138.42 164.04 L 138.34 163.95 L 138.24 163.86 L 138.13 163.77 L 138.02 163.68 L 137.90 163.59 L 137.78 163.50 L 137.67 163.41 L 137.56 163.32 L 137.46 163.23 L 137.38 163.15 L 137.31 163.06 L 137.26 162.97 L 137.23 162.88 L 137.22 162.79 A 2.38 2.38 0 0 1 141.98 162.79 Z" fill="#1f7a44" fill-rule="evenodd"/></g><g transform="rotate(90.0 114.8 166.0)"><path d="M 121.80 162.58 L 121.77 162.68 L 121.68 162.77 L 121.53 162.87 L 121.33 162.96 L 121.09 163.06 L 120.80 163.15 L 120.48 163.25 L 120.15 163.34 L 119.80 163.44 L 119.45 163.53 L 119.12 163.63 L 118.80 163.72 L 118.51 163.82 L 118.27 163.91 L 118.07 164.01 L 117.92 164.10 L 117.83 164.20 L 117.80 164.29 L 117.83 164.39 L 117.92 164.48 L 118.07 164.58 L 118.27 164.67 L 118.51 164.77 L 118.80 164.86 L 119.12 164.96 L 119.45 165.05 L 119.80 165.15 L 120.15 165.24 L 120.48 165.34 L 120.80 165.43 L 121.09 165.53 L 121.33 165.62 L 121.53 165.72 L 121.68 165.81 L 121.77 165.91 L 121.80 166.00 L 121.77 166.09 L 121.68 166.19 L 121.53 166.28 L 121.33 166.38 L 121.09 166.47 L 120.80 166.57 L 120.48 166.66 L 120.15 166.76 L 119.80 166.85 L 119.45 166.95 L 119.12 167.04 L 118.80 167.14 L 118.51 167.23 L 118.27 167.33 L 118.07 167.42 L 117.92 167.52 L 117.83 167.61 L 117.80 167.71 L 117.83 167.80 L 117.92 167.90 L 118.07 167.99 L 118.27 168.09 L 118.51 168.18 L 118.80 168.28 L 119.12 168.37 L 119.45 168.47 L 119.80 168.56 L 120.15 168.66 L 120.48 168.75 L 120.80 168.85 L 121.09 168.94 L 121.33 169.04 L 121.53 169.13 L 121.68 169.23 L 121.77 169.32 L 121.80 169.42 A 7.00 7.00 0 0 1 107.80 169.42 L 107.80 169.42 L 107.83 169.32 L 107.92 169.23 L 108.07 169.13 L 108.27 169.04 L 108.51 168.94 L 108.80 168.85 L 109.12 168.75 L 109.45 168.66 L 109.80 168.56 L 110.15 168.47 L 110.48 168.37 L 110.80 168.28 L 111.09 168.18 L 111.33 168.09 L 111.53 167.99 L 111.68 167.90 L 111.77 167.80 L 111.80 167.71 L 111.77 167.61 L 111.68 167.52 L 111.53 167.42 L 111.33 167.33 L 111.09 167.23 L 110.80 167.14 L 110.48 167.04 L 110.15 166.95 L 109.80 166.85 L 109.45 166.76 L 109.12 166.66 L 108.80 166.57 L 108.51 166.47 L 108.27 166.38 L 108.07 166.28 L 107.92 166.19 L 107.83 166.09 L 107.80 166.00 L 107.83 165.91 L 107.92 165.81 L 108.07 165.72 L 108.27 165.62 L 108.51 165.53 L 108.80 165.43 L 109.12 165.34 L 109.45 165.24 L 109.80 165.15 L 110.15 165.05 L 110.48 164.96 L 110.80 164.86 L 111.09 164.77 L 111.33 164.67 L 111.53 164.58 L 111.68 164.48 L 111.77 164.39 L 111.80 164.29 L 111.77 164.20 L 111.68 164.10 L 111.53 164.01 L 111.33 163.91 L 111.09 163.82 L 110.80 163.72 L 110.48 163.63 L 110.15 163.53 L 109.80 163.44 L 109.45 163.34 L 109.12 163.25 L 108.80 163.15 L 108.51 163.06 L 108.27 162.96 L 108.07 162.87 L 107.92 162.77 L 107.83 162.68 L 107.80 162.58 A 7.00 7.00 0 0 1 121.80 162.58 Z M 117.18 162.79 L 117.17 162.88 L 117.14 162.97 L 117.09 163.06 L 117.02 163.15 L 116.94 163.23 L 116.84 163.32 L 116.73 163.41 L 116.62 163.50 L 116.50 163.59 L 116.38 163.68 L 116.27 163.77 L 116.16 163.86 L 116.06 163.95 L 115.98 164.04 L 115.91 164.13 L 115.86 164.22 L 115.83 164.31 L 115.82 164.39 L 115.83 164.48 L 115.86 164.57 L 115.91 164.66 L 115.98 164.75 L 116.06 164.84 L 116.16 164.93 L 116.27 165.02 L 116.38 165.11 L 116.50 165.20 L 116.62 165.29 L 116.73 165.38 L 116.84 165.46 L 116.94 165.55 L 117.02 165.64 L 117.09 165.73 L 117.14 165.82 L 117.17 165.91 L 117.18 166.00 L 117.17 166.09 L 117.14 166.18 L 117.09 166.27 L 117.02 166.36 L 116.94 166.45 L 116.84 166.54 L 116.73 166.62 L 116.62 166.71 L 116.50 166.80 L 116.38 166.89 L 116.27 166.98 L 116.16 167.07 L 116.06 167.16 L 115.98 167.25 L 115.91 167.34 L 115.86 167.43 L 115.83 167.52 L 115.82 167.61 L 115.83 167.69 L 115.86 167.78 L 115.91 167.87 L 115.98 167.96 L 116.06 168.05 L 116.16 168.14 L 116.27 168.23 L 116.38 168.32 L 116.50 168.41 L 116.62 168.50 L 116.73 168.59 L 116.84 168.68 L 116.94 168.77 L 117.02 168.85 L 117.09 168.94 L 117.14 169.03 L 117.17 169.12 L 117.18 169.21 A 2.38 2.38 0 0 1 112.42 169.21 L 112.42 169.21 L 112.43 169.12 L 112.46 169.03 L 112.51 168.94 L 112.58 168.85 L 112.66 168.77 L 112.76 168.68 L 112.87 168.59 L 112.98 168.50 L 113.10 168.41 L 113.22 168.32 L 113.33 168.23 L 113.44 168.14 L 113.54 168.05 L 113.62 167.96 L 113.69 167.87 L 113.74 167.78 L 113.77 167.69 L 113.78 167.61 L 113.77 167.52 L 113.74 167.43 L 113.69 167.34 L 113.62 167.25 L 113.54 167.16 L 113.44 167.07 L 113.33 166.98 L 113.22 166.89 L 113.10 166.80 L 112.98 166.71 L 112.87 166.62 L 112.76 166.54 L 112.66 166.45 L 112.58 166.36 L 112.51 166.27 L 112.46 166.18 L 112.43 166.09 L 112.42 166.00 L 112.43 165.91 L 112.46 165.82 L 112.51 165.73 L 112.58 165.64 L 112.66 165.55 L 112.76 165.46 L 112.87 165.38 L 112.98 165.29 L 113.10 165.20 L 113.22 165.11 L 113.33 165.02 L 113.44 164.93 L 113.54 164.84 L 113.62 164.75 L 113.69 164.66 L 113.74 164.57 L 113.77 164.48 L 113.78 164.39 L 113.77 164.31 L 113.74 164.22 L 113.69 164.13 L 113.62 164.04 L 113.54 163.95 L 113.44 163.86 L 113.33 163.77 L 113.22 163.68 L 113.10 163.59 L 112.98 163.50 L 112.87 163.41 L 112.76 163.32 L 112.66 163.23 L 112.58 163.15 L 112.51 163.06 L 112.46 162.97 L 112.43 162.88 L 112.42 162.79 A 2.38 2.38 0 0 1 117.18 162.79 Z" fill="#1f7a44" fill-rule="evenodd"/></g><g transform="rotate(90.0 90.0 166.0)"><path d="M 97.00 162.58 L 96.97 162.68 L 96.88 162.77 L 96.73 162.87 L 96.53 162.96 L 96.29 163.06 L 96.00 163.15 L 95.68 163.25 L 95.35 163.34 L 95.00 163.44 L 94.65 163.53 L 94.32 163.63 L 94.00 163.72 L 93.71 163.82 L 93.47 163.91 L 93.27 164.01 L 93.12 164.10 L 93.03 164.20 L 93.00 164.29 L 93.03 164.39 L 93.12 164.48 L 93.27 164.58 L 93.47 164.67 L 93.71 164.77 L 94.00 164.86 L 94.32 164.96 L 94.65 165.05 L 95.00 165.15 L 95.35 165.24 L 95.68 165.34 L 96.00 165.43 L 96.29 165.53 L 96.53 165.62 L 96.73 165.72 L 96.88 165.81 L 96.97 165.91 L 97.00 166.00 L 96.97 166.09 L 96.88 166.19 L 96.73 166.28 L 96.53 166.38 L 96.29 166.47 L 96.00 166.57 L 95.68 166.66 L 95.35 166.76 L 95.00 166.85 L 94.65 166.95 L 94.32 167.04 L 94.00 167.14 L 93.71 167.23 L 93.47 167.33 L 93.27 167.42 L 93.12 167.52 L 93.03 167.61 L 93.00 167.71 L 93.03 167.80 L 93.12 167.90 L 93.27 167.99 L 93.47 168.09 L 93.71 168.18 L 94.00 168.28 L 94.32 168.37 L 94.65 168.47 L 95.00 168.56 L 95.35 168.66 L 95.68 168.75 L 96.00 168.85 L 96.29 168.94 L 96.53 169.04 L 96.73 169.13 L 96.88 169.23 L 96.97 169.32 L 97.00 169.42 A 7.00 7.00 0 0 1 83.00 169.42 L 83.00 169.42 L 83.03 169.32 L 83.12 169.23 L 83.27 169.13 L 83.47 169.04 L 83.71 168.94 L 84.00 168.85 L 84.32 168.75 L 84.65 168.66 L 85.00 168.56 L 85.35 168.47 L 85.68 168.37 L 86.00 168.28 L 86.29 168.18 L 86.53 168.09 L 86.73 167.99 L 86.88 167.90 L 86.97 167.80 L 87.00 167.71 L 86.97 167.61 L 86.88 167.52 L 86.73 167.42 L 86.53 167.33 L 86.29 167.23 L 86.00 167.14 L 85.68 167.04 L 85.35 166.95 L 85.00 166.85 L 84.65 166.76 L 84.32 166.66 L 84.00 166.57 L 83.71 166.47 L 83.47 166.38 L 83.27 166.28 L 83.12 166.19 L 83.03 166.09 L 83.00 166.00 L 83.03 165.91 L 83.12 165.81 L 83.27 165.72 L 83.47 165.62 L 83.71 165.53 L 84.00 165.43 L 84.32 165.34 L 84.65 165.24 L 85.00 165.15 L 85.35 165.05 L 85.68 164.96 L 86.00 164.86 L 86.29 164.77 L 86.53 164.67 L 86.73 164.58 L 86.88 164.48 L 86.97 164.39 L 87.00 164.29 L 86.97 164.20 L 86.88 164.10 L 86.73 164.01 L 86.53 163.91 L 86.29 163.82 L 86.00 163.72 L 85.68 163.63 L 85.35 163.53 L 85.00 163.44 L 84.65 163.34 L 84.32 163.25 L 84.00 163.15 L 83.71 163.06 L 83.47 162.96 L 83.27 162.87 L 83.12 162.77 L 83.03 162.68 L 83.00 162.58 A 7.00 7.00 0 0 1 97.00 162.58 Z M 92.38 162.79 L 92.37 162.88 L 92.34 162.97 L 92.29 163.06 L 92.22 163.15 L 92.14 163.23 L 92.04 163.32 L 91.93 163.41 L 91.82 163.50 L 91.70 163.59 L 91.58 163.68 L 91.47 163.77 L 91.36 163.86 L 91.26 163.95 L 91.18 164.04 L 91.11 164.13 L 91.06 164.22 L 91.03 164.31 L 91.02 164.39 L 91.03 164.48 L 91.06 164.57 L 91.11 164.66 L 91.18 164.75 L 91.26 164.84 L 91.36 164.93 L 91.47 165.02 L 91.58 165.11 L 91.70 165.20 L 91.82 165.29 L 91.93 165.38 L 92.04 165.46 L 92.14 165.55 L 92.22 165.64 L 92.29 165.73 L 92.34 165.82 L 92.37 165.91 L 92.38 166.00 L 92.37 166.09 L 92.34 166.18 L 92.29 166.27 L 92.22 166.36 L 92.14 166.45 L 92.04 166.54 L 91.93 166.62 L 91.82 166.71 L 91.70 166.80 L 91.58 166.89 L 91.47 166.98 L 91.36 167.07 L 91.26 167.16 L 91.18 167.25 L 91.11 167.34 L 91.06 167.43 L 91.03 167.52 L 91.02 167.61 L 91.03 167.69 L 91.06 167.78 L 91.11 167.87 L 91.18 167.96 L 91.26 168.05 L 91.36 168.14 L 91.47 168.23 L 91.58 168.32 L 91.70 168.41 L 91.82 168.50 L 91.93 168.59 L 92.04 168.68 L 92.14 168.77 L 92.22 168.85 L 92.29 168.94 L 92.34 169.03 L 92.37 169.12 L 92.38 169.21 A 2.38 2.38 0 0 1 87.62 169.21 L 87.62 169.21 L 87.63 169.12 L 87.66 169.03 L 87.71 168.94 L 87.78 168.85 L 87.86 168.77 L 87.96 168.68 L 88.07 168.59 L 88.18 168.50 L 88.30 168.41 L 88.42 168.32 L 88.53 168.23 L 88.64 168.14 L 88.74 168.05 L 88.82 167.96 L 88.89 167.87 L 88.94 167.78 L 88.97 167.69 L 88.98 167.61 L 88.97 167.52 L 88.94 167.43 L 88.89 167.34 L 88.82 167.25 L 88.74 167.16 L 88.64 167.07 L 88.53 166.98 L 88.42 166.89 L 88.30 166.80 L 88.18 166.71 L 88.07 166.62 L 87.96 166.54 L 87.86 166.45 L 87.78 166.36 L 87.71 166.27 L 87.66 166.18 L 87.63 166.09 L 87.62 166.00 L 87.63 165.91 L 87.66 165.82 L 87.71 165.73 L 87.78 165.64 L 87.86 165.55 L 87.96 165.46 L 88.07 165.38 L 88.18 165.29 L 88.30 165.20 L 88.42 165.11 L 88.53 165.02 L 88.64 164.93 L 88.74 164.84 L 88.82 164.75 L 88.89 164.66 L 88.94 164.57 L 88.97 164.48 L 88.98 164.39 L 88.97 164.31 L 88.94 164.22 L 88.89 164.13 L 88.82 164.04 L 88.74 163.95 L 88.64 163.86 L 88.53 163.77 L 88.42 163.68 L 88.30 163.59 L 88.18 163.50 L 88.07 163.41 L 87.96 163.32 L 87.86 163.23 L 87.78 163.15 L 87.71 163.06 L 87.66 162.97 L 87.63 162.88 L 87.62 162.79 A 2.38 2.38 0 0 1 92.38 162.79 Z" fill="#1f7a44" fill-rule="evenodd"/></g><g transform="rotate(90.0 65.2 166.0)"><path d="M 72.20 162.58 L 72.17 162.68 L 72.08 162.77 L 71.93 162.87 L 71.73 162.96 L 71.49 163.06 L 71.20 163.15 L 70.88 163.25 L 70.55 163.34 L 70.20 163.44 L 69.85 163.53 L 69.52 163.63 L 69.20 163.72 L 68.91 163.82 L 68.67 163.91 L 68.47 164.01 L 68.32 164.10 L 68.23 164.20 L 68.20 164.29 L 68.23 164.39 L 68.32 164.48 L 68.47 164.58 L 68.67 164.67 L 68.91 164.77 L 69.20 164.86 L 69.52 164.96 L 69.85 165.05 L 70.20 165.15 L 70.55 165.24 L 70.88 165.34 L 71.20 165.43 L 71.49 165.53 L 71.73 165.62 L 71.93 165.72 L 72.08 165.81 L 72.17 165.91 L 72.20 166.00 L 72.17 166.09 L 72.08 166.19 L 71.93 166.28 L 71.73 166.38 L 71.49 166.47 L 71.20 166.57 L 70.88 166.66 L 70.55 166.76 L 70.20 166.85 L 69.85 166.95 L 69.52 167.04 L 69.20 167.14 L 68.91 167.23 L 68.67 167.33 L 68.47 167.42 L 68.32 167.52 L 68.23 167.61 L 68.20 167.71 L 68.23 167.80 L 68.32 167.90 L 68.47 167.99 L 68.67 168.09 L 68.91 168.18 L 69.20 168.28 L 69.52 168.37 L 69.85 168.47 L 70.20 168.56 L 70.55 168.66 L 70.88 168.75 L 71.20 168.85 L 71.49 168.94 L 71.73 169.04 L 71.93 169.13 L 72.08 169.23 L 72.17 169.32 L 72.20 169.42 A 7.00 7.00 0 0 1 58.20 169.42 L 58.20 169.42 L 58.23 169.32 L 58.32 169.23 L 58.47 169.13 L 58.67 169.04 L 58.91 168.94 L 59.20 168.85 L 59.52 168.75 L 59.85 168.66 L 60.20 168.56 L 60.55 168.47 L 60.88 168.37 L 61.20 168.28 L 61.49 168.18 L 61.73 168.09 L 61.93 167.99 L 62.08 167.90 L 62.17 167.80 L 62.20 167.71 L 62.17 167.61 L 62.08 167.52 L 61.93 167.42 L 61.73 167.33 L 61.49 167.23 L 61.20 167.14 L 60.88 167.04 L 60.55 166.95 L 60.20 166.85 L 59.85 166.76 L 59.52 166.66 L 59.20 166.57 L 58.91 166.47 L 58.67 166.38 L 58.47 166.28 L 58.32 166.19 L 58.23 166.09 L 58.20 166.00 L 58.23 165.91 L 58.32 165.81 L 58.47 165.72 L 58.67 165.62 L 58.91 165.53 L 59.20 165.43 L 59.52 165.34 L 59.85 165.24 L 60.20 165.15 L 60.55 165.05 L 60.88 164.96 L 61.20 164.86 L 61.49 164.77 L 61.73 164.67 L 61.93 164.58 L 62.08 164.48 L 62.17 164.39 L 62.20 164.29 L 62.17 164.20 L 62.08 164.10 L 61.93 164.01 L 61.73 163.91 L 61.49 163.82 L 61.20 163.72 L 60.88 163.63 L 60.55 163.53 L 60.20 163.44 L 59.85 163.34 L 59.52 163.25 L 59.20 163.15 L 58.91 163.06 L 58.67 162.96 L 58.47 162.87 L 58.32 162.77 L 58.23 162.68 L 58.20 162.58 A 7.00 7.00 0 0 1 72.20 162.58 Z M 67.58 162.79 L 67.57 162.88 L 67.54 162.97 L 67.49 163.06 L 67.42 163.15 L 67.34 163.23 L 67.24 163.32 L 67.13 163.41 L 67.02 163.50 L 66.90 163.59 L 66.78 163.68 L 66.67 163.77 L 66.56 163.86 L 66.46 163.95 L 66.38 164.04 L 66.31 164.13 L 66.26 164.22 L 66.23 164.31 L 66.22 164.39 L 66.23 164.48 L 66.26 164.57 L 66.31 164.66 L 66.38 164.75 L 66.46 164.84 L 66.56 164.93 L 66.67 165.02 L 66.78 165.11 L 66.90 165.20 L 67.02 165.29 L 67.13 165.38 L 67.24 165.46 L 67.34 165.55 L 67.42 165.64 L 67.49 165.73 L 67.54 165.82 L 67.57 165.91 L 67.58 166.00 L 67.57 166.09 L 67.54 166.18 L 67.49 166.27 L 67.42 166.36 L 67.34 166.45 L 67.24 166.54 L 67.13 166.62 L 67.02 166.71 L 66.90 166.80 L 66.78 166.89 L 66.67 166.98 L 66.56 167.07 L 66.46 167.16 L 66.38 167.25 L 66.31 167.34 L 66.26 167.43 L 66.23 167.52 L 66.22 167.61 L 66.23 167.69 L 66.26 167.78 L 66.31 167.87 L 66.38 167.96 L 66.46 168.05 L 66.56 168.14 L 66.67 168.23 L 66.78 168.32 L 66.90 168.41 L 67.02 168.50 L 67.13 168.59 L 67.24 168.68 L 67.34 168.77 L 67.42 168.85 L 67.49 168.94 L 67.54 169.03 L 67.57 169.12 L 67.58 169.21 A 2.38 2.38 0 0 1 62.82 169.21 L 62.82 169.21 L 62.83 169.12 L 62.86 169.03 L 62.91 168.94 L 62.98 168.85 L 63.06 168.77 L 63.16 168.68 L 63.27 168.59 L 63.38 168.50 L 63.50 168.41 L 63.62 168.32 L 63.73 168.23 L 63.84 168.14 L 63.94 168.05 L 64.02 167.96 L 64.09 167.87 L 64.14 167.78 L 64.17 167.69 L 64.18 167.61 L 64.17 167.52 L 64.14 167.43 L 64.09 167.34 L 64.02 167.25 L 63.94 167.16 L 63.84 167.07 L 63.73 166.98 L 63.62 166.89 L 63.50 166.80 L 63.38 166.71 L 63.27 166.62 L 63.16 166.54 L 63.06 166.45 L 62.98 166.36 L 62.91 166.27 L 62.86 166.18 L 62.83 166.09 L 62.82 166.00 L 62.83 165.91 L 62.86 165.82 L 62.91 165.73 L 62.98 165.64 L 63.06 165.55 L 63.16 165.46 L 63.27 165.38 L 63.38 165.29 L 63.50 165.20 L 63.62 165.11 L 63.73 165.02 L 63.84 164.93 L 63.94 164.84 L 64.02 164.75 L 64.09 164.66 L 64.14 164.57 L 64.17 164.48 L 64.18 164.39 L 64.17 164.31 L 64.14 164.22 L 64.09 164.13 L 64.02 164.04 L 63.94 163.95 L 63.84 163.86 L 63.73 163.77 L 63.62 163.68 L 63.50 163.59 L 63.38 163.50 L 63.27 163.41 L 63.16 163.32 L 63.06 163.23 L 62.98 163.15 L 62.91 163.06 L 62.86 162.97 L 62.83 162.88 L 62.82 162.79 A 2.38 2.38 0 0 1 67.58 162.79 Z" fill="#1f7a44" fill-rule="evenodd"/></g><g transform="rotate(-193.5 50.4 156.0)"><path d="M 57.40 154.36 L 57.37 154.41 L 57.28 154.45 L 57.13 154.50 L 56.93 154.54 L 56.69 154.59 L 56.40 154.63 L 56.08 154.68 L 55.75 154.73 L 55.40 154.77 L 55.05 154.82 L 54.72 154.86 L 54.40 154.91 L 54.11 154.95 L 53.87 155.00 L 53.67 155.04 L 53.52 155.09 L 53.43 155.14 L 53.40 155.18 L 53.43 155.23 L 53.52 155.27 L 53.67 155.32 L 53.87 155.36 L 54.11 155.41 L 54.40 155.45 L 54.72 155.50 L 55.05 155.54 L 55.40 155.59 L 55.75 155.64 L 56.08 155.68 L 56.40 155.73 L 56.69 155.77 L 56.93 155.82 L 57.13 155.86 L 57.28 155.91 L 57.37 155.95 L 57.40 156.00 L 57.37 156.05 L 57.28 156.09 L 57.13 156.14 L 56.93 156.18 L 56.69 156.23 L 56.40 156.27 L 56.08 156.32 L 55.75 156.36 L 55.40 156.41 L 55.05 156.46 L 54.72 156.50 L 54.40 156.55 L 54.11 156.59 L 53.87 156.64 L 53.67 156.68 L 53.52 156.73 L 53.43 156.77 L 53.40 156.82 L 53.43 156.86 L 53.52 156.91 L 53.67 156.96 L 53.87 157.00 L 54.11 157.05 L 54.40 157.09 L 54.72 157.14 L 55.05 157.18 L 55.40 157.23 L 55.75 157.27 L 56.08 157.32 L 56.40 157.37 L 56.69 157.41 L 56.93 157.46 L 57.13 157.50 L 57.28 157.55 L 57.37 157.59 L 57.40 157.64 A 7.00 7.00 0 0 1 43.40 157.64 L 43.40 157.64 L 43.43 157.59 L 43.52 157.55 L 43.67 157.50 L 43.87 157.46 L 44.11 157.41 L 44.40 157.37 L 44.72 157.32 L 45.05 157.27 L 45.40 157.23 L 45.75 157.18 L 46.08 157.14 L 46.40 157.09 L 46.69 157.05 L 46.93 157.00 L 47.13 156.96 L 47.28 156.91 L 47.37 156.86 L 47.40 156.82 L 47.37 156.77 L 47.28 156.73 L 47.13 156.68 L 46.93 156.64 L 46.69 156.59 L 46.40 156.55 L 46.08 156.50 L 45.75 156.46 L 45.40 156.41 L 45.05 156.36 L 44.72 156.32 L 44.40 156.27 L 44.11 156.23 L 43.87 156.18 L 43.67 156.14 L 43.52 156.09 L 43.43 156.05 L 43.40 156.00 L 43.43 155.95 L 43.52 155.91 L 43.67 155.86 L 43.87 155.82 L 44.11 155.77 L 44.40 155.73 L 44.72 155.68 L 45.05 155.64 L 45.40 155.59 L 45.75 155.54 L 46.08 155.50 L 46.40 155.45 L 46.69 155.41 L 46.93 155.36 L 47.13 155.32 L 47.28 155.27 L 47.37 155.23 L 47.40 155.18 L 47.37 155.14 L 47.28 155.09 L 47.13 155.04 L 46.93 155.00 L 46.69 154.95 L 46.40 154.91 L 46.08 154.86 L 45.75 154.82 L 45.40 154.77 L 45.05 154.73 L 44.72 154.68 L 44.40 154.63 L 44.11 154.59 L 43.87 154.54 L 43.67 154.50 L 43.52 154.45 L 43.43 154.41 L 43.40 154.36 A 7.00 7.00 0 0 1 57.40 154.36 Z M 52.78 154.46 L 52.77 154.50 L 52.74 154.55 L 52.69 154.59 L 52.62 154.63 L 52.54 154.67 L 52.44 154.72 L 52.33 154.76 L 52.22 154.80 L 52.10 154.84 L 51.98 154.89 L 51.87 154.93 L 51.76 154.97 L 51.66 155.02 L 51.58 155.06 L 51.51 155.10 L 51.46 155.14 L 51.43 155.19 L 51.42 155.23 L 51.43 155.27 L 51.46 155.32 L 51.51 155.36 L 51.58 155.40 L 51.66 155.44 L 51.76 155.49 L 51.87 155.53 L 51.98 155.57 L 52.10 155.61 L 52.22 155.66 L 52.33 155.70 L 52.44 155.74 L 52.54 155.79 L 52.62 155.83 L 52.69 155.87 L 52.74 155.91 L 52.77 155.96 L 52.78 156.00 L 52.77 156.04 L 52.74 156.09 L 52.69 156.13 L 52.62 156.17 L 52.54 156.21 L 52.44 156.26 L 52.33 156.30 L 52.22 156.34 L 52.10 156.39 L 51.98 156.43 L 51.87 156.47 L 51.76 156.51 L 51.66 156.56 L 51.58 156.60 L 51.51 156.64 L 51.46 156.68 L 51.43 156.73 L 51.42 156.77 L 51.43 156.81 L 51.46 156.86 L 51.51 156.90 L 51.58 156.94 L 51.66 156.98 L 51.76 157.03 L 51.87 157.07 L 51.98 157.11 L 52.10 157.16 L 52.22 157.20 L 52.33 157.24 L 52.44 157.28 L 52.54 157.33 L 52.62 157.37 L 52.69 157.41 L 52.74 157.45 L 52.77 157.50 L 52.78 157.54 A 2.38 2.38 0 0 1 48.02 157.54 L 48.02 157.54 L 48.03 157.50 L 48.06 157.45 L 48.11 157.41 L 48.18 157.37 L 48.26 157.33 L 48.36 157.28 L 48.47 157.24 L 48.58 157.20 L 48.70 157.16 L 48.82 157.11 L 48.93 157.07 L 49.04 157.03 L 49.14 156.98 L 49.22 156.94 L 49.29 156.90 L 49.34 156.86 L 49.37 156.81 L 49.38 156.77 L 49.37 156.73 L 49.34 156.68 L 49.29 156.64 L 49.22 156.60 L 49.14 156.56 L 49.04 156.51 L 48.93 156.47 L 48.82 156.43 L 48.70 156.39 L 48.58 156.34 L 48.47 156.30 L 48.36 156.26 L 48.26 156.21 L 48.18 156.17 L 48.11 156.13 L 48.06 156.09 L 48.03 156.04 L 48.02 156.00 L 48.03 155.96 L 48.06 155.91 L 48.11 155.87 L 48.18 155.83 L 48.26 155.79 L 48.36 155.74 L 48.47 155.70 L 48.58 155.66 L 48.70 155.61 L 48.82 155.57 L 48.93 155.53 L 49.04 155.49 L 49.14 155.44 L 49.22 155.40 L 49.29 155.36 L 49.34 155.32 L 49.37 155.27 L 49.38 155.23 L 49.37 155.19 L 49.34 155.14 L 49.29 155.10 L 49.22 155.06 L 49.14 155.02 L 49.04 154.97 L 48.93 154.93 L 48.82 154.89 L 48.70 154.84 L 48.58 154.80 L 48.47 154.76 L 48.36 154.72 L 48.26 154.67 L 48.18 154.63 L 48.11 154.59 L 48.06 154.55 L 48.03 154.50 L 48.02 154.46 A 2.38 2.38 0 0 1 52.78 154.46 Z" fill="#1f7a44" fill-rule="evenodd"/></g><g transform="rotate(-90.0 62.3 130.0)"><path d="M 69.33 130.00 L 69.30 130.00 L 69.21 130.00 L 69.07 130.00 L 68.87 130.00 L 68.62 130.00 L 68.33 130.00 L 68.02 130.00 L 67.68 130.00 L 67.33 130.00 L 66.99 130.00 L 66.65 130.00 L 66.33 130.00 L 66.05 130.00 L 65.80 130.00 L 65.60 130.00 L 65.45 130.00 L 65.36 130.00 L 65.33 130.00 L 65.36 130.00 L 65.45 130.00 L 65.60 130.00 L 65.80 130.00 L 66.05 130.00 L 66.33 130.00 L 66.65 130.00 L 66.99 130.00 L 67.33 130.00 L 67.68 130.00 L 68.02 130.00 L 68.33 130.00 L 68.62 130.00 L 68.87 130.00 L 69.07 130.00 L 69.21 130.00 L 69.30 130.00 L 69.33 130.00 L 69.30 130.00 L 69.21 130.00 L 69.07 130.00 L 68.87 130.00 L 68.62 130.00 L 68.33 130.00 L 68.02 130.00 L 67.68 130.00 L 67.33 130.00 L 66.99 130.00 L 66.65 130.00 L 66.33 130.00 L 66.05 130.00 L 65.80 130.00 L 65.60 130.00 L 65.45 130.00 L 65.36 130.00 L 65.33 130.00 L 65.36 130.00 L 65.45 130.00 L 65.60 130.00 L 65.80 130.00 L 66.05 130.00 L 66.33 130.00 L 66.65 130.00 L 66.99 130.00 L 67.33 130.00 L 67.68 130.00 L 68.02 130.00 L 68.33 130.00 L 68.62 130.00 L 68.87 130.00 L 69.07 130.00 L 69.21 130.00 L 69.30 130.00 L 69.33 130.00 A 7.00 7.00 0 0 1 55.33 130.00 L 55.33 130.00 L 55.36 130.00 L 55.45 130.00 L 55.60 130.00 L 55.80 130.00 L 56.05 130.00 L 56.33 130.00 L 56.65 130.00 L 56.99 130.00 L 57.33 130.00 L 57.68 130.00 L 58.02 130.00 L 58.33 130.00 L 58.62 130.00 L 58.87 130.00 L 59.07 130.00 L 59.21 130.00 L 59.30 130.00 L 59.33 130.00 L 59.30 130.00 L 59.21 130.00 L 59.07 130.00 L 58.87 130.00 L 58.62 130.00 L 58.33 130.00 L 58.02 130.00 L 57.68 130.00 L 57.33 130.00 L 56.99 130.00 L 56.65 130.00 L 56.33 130.00 L 56.05 130.00 L 55.80 130.00 L 55.60 130.00 L 55.45 130.00 L 55.36 130.00 L 55.33 130.00 L 55.36 130.00 L 55.45 130.00 L 55.60 130.00 L 55.80 130.00 L 56.05 130.00 L 56.33 130.00 L 56.65 130.00 L 56.99 130.00 L 57.33 130.00 L 57.68 130.00 L 58.02 130.00 L 58.33 130.00 L 58.62 130.00 L 58.87 130.00 L 59.07 130.00 L 59.21 130.00 L 59.30 130.00 L 59.33 130.00 L 59.30 130.00 L 59.21 130.00 L 59.07 130.00 L 58.87 130.00 L 58.62 130.00 L 58.33 130.00 L 58.02 130.00 L 57.68 130.00 L 57.33 130.00 L 56.99 130.00 L 56.65 130.00 L 56.33 130.00 L 56.05 130.00 L 55.80 130.00 L 55.60 130.00 L 55.45 130.00 L 55.36 130.00 L 55.33 130.00 A 7.00 7.00 0 0 1 69.33 130.00 Z M 64.71 130.00 L 64.70 130.00 L 64.67 130.00 L 64.62 130.00 L 64.55 130.00 L 64.47 130.00 L 64.37 130.00 L 64.27 130.00 L 64.15 130.00 L 64.03 130.00 L 63.92 130.00 L 63.80 130.00 L 63.69 130.00 L 63.60 130.00 L 63.51 130.00 L 63.44 130.00 L 63.39 130.00 L 63.36 130.00 L 63.35 130.00 L 63.36 130.00 L 63.39 130.00 L 63.44 130.00 L 63.51 130.00 L 63.60 130.00 L 63.69 130.00 L 63.80 130.00 L 63.92 130.00 L 64.03 130.00 L 64.15 130.00 L 64.27 130.00 L 64.37 130.00 L 64.47 130.00 L 64.55 130.00 L 64.62 130.00 L 64.67 130.00 L 64.70 130.00 L 64.71 130.00 L 64.70 130.00 L 64.67 130.00 L 64.62 130.00 L 64.55 130.00 L 64.47 130.00 L 64.37 130.00 L 64.27 130.00 L 64.15 130.00 L 64.03 130.00 L 63.92 130.00 L 63.80 130.00 L 63.69 130.00 L 63.60 130.00 L 63.51 130.00 L 63.44 130.00 L 63.39 130.00 L 63.36 130.00 L 63.35 130.00 L 63.36 130.00 L 63.39 130.00 L 63.44 130.00 L 63.51 130.00 L 63.60 130.00 L 63.69 130.00 L 63.80 130.00 L 63.92 130.00 L 64.03 130.00 L 64.15 130.00 L 64.27 130.00 L 64.37 130.00 L 64.47 130.00 L 64.55 130.00 L 64.62 130.00 L 64.67 130.00 L 64.70 130.00 L 64.71 130.00 A 2.38 2.38 0 0 1 59.95 130.00 L 59.95 130.00 L 59.96 130.00 L 59.99 130.00 L 60.04 130.00 L 60.11 130.00 L 60.20 130.00 L 60.29 130.00 L 60.40 130.00 L 60.52 130.00 L 60.63 130.00 L 60.75 130.00 L 60.87 130.00 L 60.97 130.00 L 61.07 130.00 L 61.15 130.00 L 61.22 130.00 L 61.27 130.00 L 61.30 130.00 L 61.31 130.00 L 61.30 130.00 L 61.27 130.00 L 61.22 130.00 L 61.15 130.00 L 61.07 130.00 L 60.97 130.00 L 60.87 130.00 L 60.75 130.00 L 60.63 130.00 L 60.52 130.00 L 60.40 130.00 L 60.29 130.00 L 60.20 130.00 L 60.11 130.00 L 60.04 130.00 L 59.99 130.00 L 59.96 130.00 L 59.95 130.00 L 59.96 130.00 L 59.99 130.00 L 60.04 130.00 L 60.11 130.00 L 60.20 130.00 L 60.29 130.00 L 60.40 130.00 L 60.52 130.00 L 60.63 130.00 L 60.75 130.00 L 60.87 130.00 L 60.97 130.00 L 61.07 130.00 L 61.15 130.00 L 61.22 130.00 L 61.27 130.00 L 61.30 130.00 L 61.31 130.00 L 61.30 130.00 L 61.27 130.00 L 61.22 130.00 L 61.15 130.00 L 61.07 130.00 L 60.97 130.00 L 60.87 130.00 L 60.75 130.00 L 60.63 130.00 L 60.52 130.00 L 60.40 130.00 L 60.29 130.00 L 60.20 130.00 L 60.11 130.00 L 60.04 130.00 L 59.99 130.00 L 59.96 130.00 L 59.95 130.00 A 2.38 2.38 0 0 1 64.71 130.00 Z" fill="#1f7a44" fill-rule="evenodd"/></g><g transform="rotate(-90.0 79.0 130.0)"><path d="M 86.00 130.00 L 85.97 130.00 L 85.88 130.00 L 85.73 130.00 L 85.53 130.00 L 85.29 130.00 L 85.00 130.00 L 84.68 130.00 L 84.35 130.00 L 84.00 130.00 L 83.65 130.00 L 83.32 130.00 L 83.00 130.00 L 82.71 130.00 L 82.47 130.00 L 82.27 130.00 L 82.12 130.00 L 82.03 130.00 L 82.00 130.00 L 82.03 130.00 L 82.12 130.00 L 82.27 130.00 L 82.47 130.00 L 82.71 130.00 L 83.00 130.00 L 83.32 130.00 L 83.65 130.00 L 84.00 130.00 L 84.35 130.00 L 84.68 130.00 L 85.00 130.00 L 85.29 130.00 L 85.53 130.00 L 85.73 130.00 L 85.88 130.00 L 85.97 130.00 L 86.00 130.00 L 85.97 130.00 L 85.88 130.00 L 85.73 130.00 L 85.53 130.00 L 85.29 130.00 L 85.00 130.00 L 84.68 130.00 L 84.35 130.00 L 84.00 130.00 L 83.65 130.00 L 83.32 130.00 L 83.00 130.00 L 82.71 130.00 L 82.47 130.00 L 82.27 130.00 L 82.12 130.00 L 82.03 130.00 L 82.00 130.00 L 82.03 130.00 L 82.12 130.00 L 82.27 130.00 L 82.47 130.00 L 82.71 130.00 L 83.00 130.00 L 83.32 130.00 L 83.65 130.00 L 84.00 130.00 L 84.35 130.00 L 84.68 130.00 L 85.00 130.00 L 85.29 130.00 L 85.53 130.00 L 85.73 130.00 L 85.88 130.00 L 85.97 130.00 L 86.00 130.00 A 7.00 7.00 0 0 1 72.00 130.00 L 72.00 130.00 L 72.03 130.00 L 72.12 130.00 L 72.27 130.00 L 72.47 130.00 L 72.71 130.00 L 73.00 130.00 L 73.32 130.00 L 73.65 130.00 L 74.00 130.00 L 74.35 130.00 L 74.68 130.00 L 75.00 130.00 L 75.29 130.00 L 75.53 130.00 L 75.73 130.00 L 75.88 130.00 L 75.97 130.00 L 76.00 130.00 L 75.97 130.00 L 75.88 130.00 L 75.73 130.00 L 75.53 130.00 L 75.29 130.00 L 75.00 130.00 L 74.68 130.00 L 74.35 130.00 L 74.00 130.00 L 73.65 130.00 L 73.32 130.00 L 73.00 130.00 L 72.71 130.00 L 72.47 130.00 L 72.27 130.00 L 72.12 130.00 L 72.03 130.00 L 72.00 130.00 L 72.03 130.00 L 72.12 130.00 L 72.27 130.00 L 72.47 130.00 L 72.71 130.00 L 73.00 130.00 L 73.32 130.00 L 73.65 130.00 L 74.00 130.00 L 74.35 130.00 L 74.68 130.00 L 75.00 130.00 L 75.29 130.00 L 75.53 130.00 L 75.73 130.00 L 75.88 130.00 L 75.97 130.00 L 76.00 130.00 L 75.97 130.00 L 75.88 130.00 L 75.73 130.00 L 75.53 130.00 L 75.29 130.00 L 75.00 130.00 L 74.68 130.00 L 74.35 130.00 L 74.00 130.00 L 73.65 130.00 L 73.32 130.00 L 73.00 130.00 L 72.71 130.00 L 72.47 130.00 L 72.27 130.00 L 72.12 130.00 L 72.03 130.00 L 72.00 130.00 A 7.00 7.00 0 0 1 86.00 130.00 Z M 81.38 130.00 L 81.37 130.00 L 81.34 130.00 L 81.29 130.00 L 81.22 130.00 L 81.14 130.00 L 81.04 130.00 L 80.93 130.00 L 80.82 130.00 L 80.70 130.00 L 80.58 130.00 L 80.47 130.00 L 80.36 130.00 L 80.26 130.00 L 80.18 130.00 L 80.11 130.00 L 80.06 130.00 L 80.03 130.00 L 80.02 130.00 L 80.03 130.00 L 80.06 130.00 L 80.11 130.00 L 80.18 130.00 L 80.26 130.00 L 80.36 130.00 L 80.47 130.00 L 80.58 130.00 L 80.70 130.00 L 80.82 130.00 L 80.93 130.00 L 81.04 130.00 L 81.14 130.00 L 81.22 130.00 L 81.29 130.00 L 81.34 130.00 L 81.37 130.00 L 81.38 130.00 L 81.37 130.00 L 81.34 130.00 L 81.29 130.00 L 81.22 130.00 L 81.14 130.00 L 81.04 130.00 L 80.93 130.00 L 80.82 130.00 L 80.70 130.00 L 80.58 130.00 L 80.47 130.00 L 80.36 130.00 L 80.26 130.00 L 80.18 130.00 L 80.11 130.00 L 80.06 130.00 L 80.03 130.00 L 80.02 130.00 L 80.03 130.00 L 80.06 130.00 L 80.11 130.00 L 80.18 130.00 L 80.26 130.00 L 80.36 130.00 L 80.47 130.00 L 80.58 130.00 L 80.70 130.00 L 80.82 130.00 L 80.93 130.00 L 81.04 130.00 L 81.14 130.00 L 81.22 130.00 L 81.29 130.00 L 81.34 130.00 L 81.37 130.00 L 81.38 130.00 A 2.38 2.38 0 0 1 76.62 130.00 L 76.62 130.00 L 76.63 130.00 L 76.66 130.00 L 76.71 130.00 L 76.78 130.00 L 76.86 130.00 L 76.96 130.00 L 77.07 130.00 L 77.18 130.00 L 77.30 130.00 L 77.42 130.00 L 77.53 130.00 L 77.64 130.00 L 77.74 130.00 L 77.82 130.00 L 77.89 130.00 L 77.94 130.00 L 77.97 130.00 L 77.98 130.00 L 77.97 130.00 L 77.94 130.00 L 77.89 130.00 L 77.82 130.00 L 77.74 130.00 L 77.64 130.00 L 77.53 130.00 L 77.42 130.00 L 77.30 130.00 L 77.18 130.00 L 77.07 130.00 L 76.96 130.00 L 76.86 130.00 L 76.78 130.00 L 76.71 130.00 L 76.66 130.00 L 76.63 130.00 L 76.62 130.00 L 76.63 130.00 L 76.66 130.00 L 76.71 130.00 L 76.78 130.00 L 76.86 130.00 L 76.96 130.00 L 77.07 130.00 L 77.18 130.00 L 77.30 130.00 L 77.42 130.00 L 77.53 130.00 L 77.64 130.00 L 77.74 130.00 L 77.82 130.00 L 77.89 130.00 L 77.94 130.00 L 77.97 130.00 L 77.98 130.00 L 77.97 130.00 L 77.94 130.00 L 77.89 130.00 L 77.82 130.00 L 77.74 130.00 L 77.64 130.00 L 77.53 130.00 L 77.42 130.00 L 77.30 130.00 L 77.18 130.00 L 77.07 130.00 L 76.96 130.00 L 76.86 130.00 L 76.78 130.00 L 76.71 130.00 L 76.66 130.00 L 76.63 130.00 L 76.62 130.00 A 2.38 2.38 0 0 1 81.38 130.00 Z" fill="#1f7a44" fill-rule="evenodd"/></g><g transform="rotate(-2.4 87.7 138.0)"><path d="M 94.67 138.27 L 94.64 138.27 L 94.55 138.26 L 94.40 138.25 L 94.20 138.24 L 93.95 138.24 L 93.67 138.23 L 93.35 138.22 L 93.01 138.21 L 92.67 138.21 L 92.32 138.20 L 91.98 138.19 L 91.67 138.18 L 91.38 138.18 L 91.13 138.17 L 90.93 138.16 L 90.79 138.15 L 90.70 138.14 L 90.67 138.14 L 90.70 138.13 L 90.79 138.12 L 90.93 138.11 L 91.13 138.11 L 91.38 138.10 L 91.67 138.09 L 91.98 138.08 L 92.32 138.08 L 92.67 138.07 L 93.01 138.06 L 93.35 138.05 L 93.67 138.05 L 93.95 138.04 L 94.20 138.03 L 94.40 138.02 L 94.55 138.02 L 94.64 138.01 L 94.67 138.00 L 94.64 137.99 L 94.55 137.98 L 94.40 137.98 L 94.20 137.97 L 93.95 137.96 L 93.67 137.95 L 93.35 137.95 L 93.01 137.94 L 92.67 137.93 L 92.32 137.92 L 91.98 137.92 L 91.67 137.91 L 91.38 137.90 L 91.13 137.89 L 90.93 137.89 L 90.79 137.88 L 90.70 137.87 L 90.67 137.86 L 90.70 137.86 L 90.79 137.85 L 90.93 137.84 L 91.13 137.83 L 91.38 137.82 L 91.67 137.82 L 91.98 137.81 L 92.32 137.80 L 92.67 137.79 L 93.01 137.79 L 93.35 137.78 L 93.67 137.77 L 93.95 137.76 L 94.20 137.76 L 94.40 137.75 L 94.55 137.74 L 94.64 137.73 L 94.67 137.73 A 7.00 7.00 0 0 1 80.67 137.73 L 80.67 137.73 L 80.70 137.73 L 80.79 137.74 L 80.93 137.75 L 81.13 137.76 L 81.38 137.76 L 81.67 137.77 L 81.98 137.78 L 82.32 137.79 L 82.67 137.79 L 83.01 137.80 L 83.35 137.81 L 83.67 137.82 L 83.95 137.82 L 84.20 137.83 L 84.40 137.84 L 84.55 137.85 L 84.64 137.86 L 84.67 137.86 L 84.64 137.87 L 84.55 137.88 L 84.40 137.89 L 84.20 137.89 L 83.95 137.90 L 83.67 137.91 L 83.35 137.92 L 83.01 137.92 L 82.67 137.93 L 82.32 137.94 L 81.98 137.95 L 81.67 137.95 L 81.38 137.96 L 81.13 137.97 L 80.93 137.98 L 80.79 137.98 L 80.70 137.99 L 80.67 138.00 L 80.70 138.01 L 80.79 138.02 L 80.93 138.02 L 81.13 138.03 L 81.38 138.04 L 81.67 138.05 L 81.98 138.05 L 82.32 138.06 L 82.67 138.07 L 83.01 138.08 L 83.35 138.08 L 83.67 138.09 L 83.95 138.10 L 84.20 138.11 L 84.40 138.11 L 84.55 138.12 L 84.64 138.13 L 84.67 138.14 L 84.64 138.14 L 84.55 138.15 L 84.40 138.16 L 84.20 138.17 L 83.95 138.18 L 83.67 138.18 L 83.35 138.19 L 83.01 138.20 L 82.67 138.21 L 82.32 138.21 L 81.98 138.22 L 81.67 138.23 L 81.38 138.24 L 81.13 138.24 L 80.93 138.25 L 80.79 138.26 L 80.70 138.27 L 80.67 138.27 A 7.00 7.00 0 0 1 94.67 138.27 Z M 90.05 138.26 L 90.04 138.25 L 90.01 138.24 L 89.96 138.24 L 89.89 138.23 L 89.80 138.22 L 89.71 138.21 L 89.60 138.21 L 89.48 138.20 L 89.37 138.19 L 89.25 138.19 L 89.13 138.18 L 89.03 138.17 L 88.93 138.16 L 88.85 138.16 L 88.78 138.15 L 88.73 138.14 L 88.70 138.14 L 88.69 138.13 L 88.70 138.12 L 88.73 138.11 L 88.78 138.11 L 88.85 138.10 L 88.93 138.09 L 89.03 138.09 L 89.13 138.08 L 89.25 138.07 L 89.37 138.06 L 89.48 138.06 L 89.60 138.05 L 89.71 138.04 L 89.80 138.04 L 89.89 138.03 L 89.96 138.02 L 90.01 138.01 L 90.04 138.01 L 90.05 138.00 L 90.04 137.99 L 90.01 137.99 L 89.96 137.98 L 89.89 137.97 L 89.80 137.96 L 89.71 137.96 L 89.60 137.95 L 89.48 137.94 L 89.37 137.94 L 89.25 137.93 L 89.13 137.92 L 89.03 137.91 L 88.93 137.91 L 88.85 137.90 L 88.78 137.89 L 88.73 137.89 L 88.70 137.88 L 88.69 137.87 L 88.70 137.86 L 88.73 137.86 L 88.78 137.85 L 88.85 137.84 L 88.93 137.84 L 89.03 137.83 L 89.13 137.82 L 89.25 137.81 L 89.37 137.81 L 89.48 137.80 L 89.60 137.79 L 89.71 137.79 L 89.80 137.78 L 89.89 137.77 L 89.96 137.76 L 90.01 137.76 L 90.04 137.75 L 90.05 137.74 A 2.38 2.38 0 0 1 85.29 137.74 L 85.29 137.74 L 85.30 137.75 L 85.33 137.76 L 85.38 137.76 L 85.45 137.77 L 85.53 137.78 L 85.63 137.79 L 85.73 137.79 L 85.85 137.80 L 85.97 137.81 L 86.08 137.81 L 86.20 137.82 L 86.31 137.83 L 86.40 137.84 L 86.49 137.84 L 86.56 137.85 L 86.61 137.86 L 86.64 137.86 L 86.65 137.87 L 86.64 137.88 L 86.61 137.89 L 86.56 137.89 L 86.49 137.90 L 86.40 137.91 L 86.31 137.91 L 86.20 137.92 L 86.08 137.93 L 85.97 137.94 L 85.85 137.94 L 85.73 137.95 L 85.63 137.96 L 85.53 137.96 L 85.45 137.97 L 85.38 137.98 L 85.33 137.99 L 85.30 137.99 L 85.29 138.00 L 85.30 138.01 L 85.33 138.01 L 85.38 138.02 L 85.45 138.03 L 85.53 138.04 L 85.63 138.04 L 85.73 138.05 L 85.85 138.06 L 85.97 138.06 L 86.08 138.07 L 86.20 138.08 L 86.31 138.09 L 86.40 138.09 L 86.49 138.10 L 86.56 138.11 L 86.61 138.11 L 86.64 138.12 L 86.65 138.13 L 86.64 138.14 L 86.61 138.14 L 86.56 138.15 L 86.49 138.16 L 86.40 138.16 L 86.31 138.17 L 86.20 138.18 L 86.08 138.19 L 85.97 138.19 L 85.85 138.20 L 85.73 138.21 L 85.63 138.21 L 85.53 138.22 L 85.45 138.23 L 85.38 138.24 L 85.33 138.24 L 85.30 138.25 L 85.29 138.26 A 2.38 2.38 0 0 1 90.05 138.26 Z" fill="#1f7a44" fill-rule="evenodd"/></g><g transform="rotate(90.0 79.7 146.0)"><path d="M 86.67 146.00 L 86.64 146.00 L 86.55 146.00 L 86.40 146.00 L 86.20 146.00 L 85.95 146.00 L 85.67 146.00 L 85.35 146.00 L 85.01 146.00 L 84.67 146.00 L 84.32 146.00 L 83.98 146.00 L 83.67 146.00 L 83.38 146.00 L 83.13 146.00 L 82.93 146.00 L 82.79 146.00 L 82.70 146.00 L 82.67 146.00 L 82.70 146.00 L 82.79 146.00 L 82.93 146.00 L 83.13 146.00 L 83.38 146.00 L 83.67 146.00 L 83.98 146.00 L 84.32 146.00 L 84.67 146.00 L 85.01 146.00 L 85.35 146.00 L 85.67 146.00 L 85.95 146.00 L 86.20 146.00 L 86.40 146.00 L 86.55 146.00 L 86.64 146.00 L 86.67 146.00 L 86.64 146.00 L 86.55 146.00 L 86.40 146.00 L 86.20 146.00 L 85.95 146.00 L 85.67 146.00 L 85.35 146.00 L 85.01 146.00 L 84.67 146.00 L 84.32 146.00 L 83.98 146.00 L 83.67 146.00 L 83.38 146.00 L 83.13 146.00 L 82.93 146.00 L 82.79 146.00 L 82.70 146.00 L 82.67 146.00 L 82.70 146.00 L 82.79 146.00 L 82.93 146.00 L 83.13 146.00 L 83.38 146.00 L 83.67 146.00 L 83.98 146.00 L 84.32 146.00 L 84.67 146.00 L 85.01 146.00 L 85.35 146.00 L 85.67 146.00 L 85.95 146.00 L 86.20 146.00 L 86.40 146.00 L 86.55 146.00 L 86.64 146.00 L 86.67 146.00 A 7.00 7.00 0 0 1 72.67 146.00 L 72.67 146.00 L 72.70 146.00 L 72.79 146.00 L 72.93 146.00 L 73.13 146.00 L 73.38 146.00 L 73.67 146.00 L 73.98 146.00 L 74.32 146.00 L 74.67 146.00 L 75.01 146.00 L 75.35 146.00 L 75.67 146.00 L 75.95 146.00 L 76.20 146.00 L 76.40 146.00 L 76.55 146.00 L 76.64 146.00 L 76.67 146.00 L 76.64 146.00 L 76.55 146.00 L 76.40 146.00 L 76.20 146.00 L 75.95 146.00 L 75.67 146.00 L 75.35 146.00 L 75.01 146.00 L 74.67 146.00 L 74.32 146.00 L 73.98 146.00 L 73.67 146.00 L 73.38 146.00 L 73.13 146.00 L 72.93 146.00 L 72.79 146.00 L 72.70 146.00 L 72.67 146.00 L 72.70 146.00 L 72.79 146.00 L 72.93 146.00 L 73.13 146.00 L 73.38 146.00 L 73.67 146.00 L 73.98 146.00 L 74.32 146.00 L 74.67 146.00 L 75.01 146.00 L 75.35 146.00 L 75.67 146.00 L 75.95 146.00 L 76.20 146.00 L 76.40 146.00 L 76.55 146.00 L 76.64 146.00 L 76.67 146.00 L 76.64 146.00 L 76.55 146.00 L 76.40 146.00 L 76.20 146.00 L 75.95 146.00 L 75.67 146.00 L 75.35 146.00 L 75.01 146.00 L 74.67 146.00 L 74.32 146.00 L 73.98 146.00 L 73.67 146.00 L 73.38 146.00 L 73.13 146.00 L 72.93 146.00 L 72.79 146.00 L 72.70 146.00 L 72.67 146.00 A 7.00 7.00 0 0 1 86.67 146.00 Z M 82.05 146.00 L 82.04 146.00 L 82.01 146.00 L 81.96 146.00 L 81.89 146.00 L 81.80 146.00 L 81.71 146.00 L 81.60 146.00 L 81.48 146.00 L 81.37 146.00 L 81.25 146.00 L 81.13 146.00 L 81.03 146.00 L 80.93 146.00 L 80.85 146.00 L 80.78 146.00 L 80.73 146.00 L 80.70 146.00 L 80.69 146.00 L 80.70 146.00 L 80.73 146.00 L 80.78 146.00 L 80.85 146.00 L 80.93 146.00 L 81.03 146.00 L 81.13 146.00 L 81.25 146.00 L 81.37 146.00 L 81.48 146.00 L 81.60 146.00 L 81.71 146.00 L 81.80 146.00 L 81.89 146.00 L 81.96 146.00 L 82.01 146.00 L 82.04 146.00 L 82.05 146.00 L 82.04 146.00 L 82.01 146.00 L 81.96 146.00 L 81.89 146.00 L 81.80 146.00 L 81.71 146.00 L 81.60 146.00 L 81.48 146.00 L 81.37 146.00 L 81.25 146.00 L 81.13 146.00 L 81.03 146.00 L 80.93 146.00 L 80.85 146.00 L 80.78 146.00 L 80.73 146.00 L 80.70 146.00 L 80.69 146.00 L 80.70 146.00 L 80.73 146.00 L 80.78 146.00 L 80.85 146.00 L 80.93 146.00 L 81.03 146.00 L 81.13 146.00 L 81.25 146.00 L 81.37 146.00 L 81.48 146.00 L 81.60 146.00 L 81.71 146.00 L 81.80 146.00 L 81.89 146.00 L 81.96 146.00 L 82.01 146.00 L 82.04 146.00 L 82.05 146.00 A 2.38 2.38 0 0 1 77.29 146.00 L 77.29 146.00 L 77.30 146.00 L 77.33 146.00 L 77.38 146.00 L 77.45 146.00 L 77.53 146.00 L 77.63 146.00 L 77.73 146.00 L 77.85 146.00 L 77.97 146.00 L 78.08 146.00 L 78.20 146.00 L 78.31 146.00 L 78.40 146.00 L 78.49 146.00 L 78.56 146.00 L 78.61 146.00 L 78.64 146.00 L 78.65 146.00 L 78.64 146.00 L 78.61 146.00 L 78.56 146.00 L 78.49 146.00 L 78.40 146.00 L 78.31 146.00 L 78.20 146.00 L 78.08 146.00 L 77.97 146.00 L 77.85 146.00 L 77.73 146.00 L 77.63 146.00 L 77.53 146.00 L 77.45 146.00 L 77.38 146.00 L 77.33 146.00 L 77.30 146.00 L 77.29 146.00 L 77.30 146.00 L 77.33 146.00 L 77.38 146.00 L 77.45 146.00 L 77.53 146.00 L 77.63 146.00 L 77.73 146.00 L 77.85 146.00 L 77.97 146.00 L 78.08 146.00 L 78.20 146.00 L 78.31 146.00 L 78.40 146.00 L 78.49 146.00 L 78.56 146.00 L 78.61 146.00 L 78.64 146.00 L 78.65 146.00 L 78.64 146.00 L 78.61 146.00 L 78.56 146.00 L 78.49 146.00 L 78.40 146.00 L 78.31 146.00 L 78.20 146.00 L 78.08 146.00 L 77.97 146.00 L 77.85 146.00 L 77.73 146.00 L 77.63 146.00 L 77.53 146.00 L 77.45 146.00 L 77.38 146.00 L 77.33 146.00 L 77.30 146.00 L 77.29 146.00 A 2.38 2.38 0 0 1 82.05 146.00 Z" fill="#1f7a44" fill-rule="evenodd"/></g><g transform="rotate(90.0 63.0 146.0)"><path d="M 70.00 146.00 L 69.97 146.00 L 69.88 146.00 L 69.73 146.00 L 69.53 146.00 L 69.29 146.00 L 69.00 146.00 L 68.68 146.00 L 68.35 146.00 L 68.00 146.00 L 67.65 146.00 L 67.32 146.00 L 67.00 146.00 L 66.71 146.00 L 66.47 146.00 L 66.27 146.00 L 66.12 146.00 L 66.03 146.00 L 66.00 146.00 L 66.03 146.00 L 66.12 146.00 L 66.27 146.00 L 66.47 146.00 L 66.71 146.00 L 67.00 146.00 L 67.32 146.00 L 67.65 146.00 L 68.00 146.00 L 68.35 146.00 L 68.68 146.00 L 69.00 146.00 L 69.29 146.00 L 69.53 146.00 L 69.73 146.00 L 69.88 146.00 L 69.97 146.00 L 70.00 146.00 L 69.97 146.00 L 69.88 146.00 L 69.73 146.00 L 69.53 146.00 L 69.29 146.00 L 69.00 146.00 L 68.68 146.00 L 68.35 146.00 L 68.00 146.00 L 67.65 146.00 L 67.32 146.00 L 67.00 146.00 L 66.71 146.00 L 66.47 146.00 L 66.27 146.00 L 66.12 146.00 L 66.03 146.00 L 66.00 146.00 L 66.03 146.00 L 66.12 146.00 L 66.27 146.00 L 66.47 146.00 L 66.71 146.00 L 67.00 146.00 L 67.32 146.00 L 67.65 146.00 L 68.00 146.00 L 68.35 146.00 L 68.68 146.00 L 69.00 146.00 L 69.29 146.00 L 69.53 146.00 L 69.73 146.00 L 69.88 146.00 L 69.97 146.00 L 70.00 146.00 A 7.00 7.00 0 0 1 56.00 146.00 L 56.00 146.00 L 56.03 146.00 L 56.12 146.00 L 56.27 146.00 L 56.47 146.00 L 56.71 146.00 L 57.00 146.00 L 57.32 146.00 L 57.65 146.00 L 58.00 146.00 L 58.35 146.00 L 58.68 146.00 L 59.00 146.00 L 59.29 146.00 L 59.53 146.00 L 59.73 146.00 L 59.88 146.00 L 59.97 146.00 L 60.00 146.00 L 59.97 146.00 L 59.88 146.00 L 59.73 146.00 L 59.53 146.00 L 59.29 146.00 L 59.00 146.00 L 58.68 146.00 L 58.35 146.00 L 58.00 146.00 L 57.65 146.00 L 57.32 146.00 L 57.00 146.00 L 56.71 146.00 L 56.47 146.00 L 56.27 146.00 L 56.12 146.00 L 56.03 146.00 L 56.00 146.00 L 56.03 146.00 L 56.12 146.00 L 56.27 146.00 L 56.47 146.00 L 56.71 146.00 L 57.00 146.00 L 57.32 146.00 L 57.65 146.00 L 58.00 146.00 L 58.35 146.00 L 58.68 146.00 L 59.00 146.00 L 59.29 146.00 L 59.53 146.00 L 59.73 146.00 L 59.88 146.00 L 59.97 146.00 L 60.00 146.00 L 59.97 146.00 L 59.88 146.00 L 59.73 146.00 L 59.53 146.00 L 59.29 146.00 L 59.00 146.00 L 58.68 146.00 L 58.35 146.00 L 58.00 146.00 L 57.65 146.00 L 57.32 146.00 L 57.00 146.00 L 56.71 146.00 L 56.47 146.00 L 56.27 146.00 L 56.12 146.00 L 56.03 146.00 L 56.00 146.00 A 7.00 7.00 0 0 1 70.00 146.00 Z M 65.38 146.00 L 65.37 146.00 L 65.34 146.00 L 65.29 146.00 L 65.22 146.00 L 65.14 146.00 L 65.04 146.00 L 64.93 146.00 L 64.82 146.00 L 64.70 146.00 L 64.58 146.00 L 64.47 146.00 L 64.36 146.00 L 64.26 146.00 L 64.18 146.00 L 64.11 146.00 L 64.06 146.00 L 64.03 146.00 L 64.02 146.00 L 64.03 146.00 L 64.06 146.00 L 64.11 146.00 L 64.18 146.00 L 64.26 146.00 L 64.36 146.00 L 64.47 146.00 L 64.58 146.00 L 64.70 146.00 L 64.82 146.00 L 64.93 146.00 L 65.04 146.00 L 65.14 146.00 L 65.22 146.00 L 65.29 146.00 L 65.34 146.00 L 65.37 146.00 L 65.38 146.00 L 65.37 146.00 L 65.34 146.00 L 65.29 146.00 L 65.22 146.00 L 65.14 146.00 L 65.04 146.00 L 64.93 146.00 L 64.82 146.00 L 64.70 146.00 L 64.58 146.00 L 64.47 146.00 L 64.36 146.00 L 64.26 146.00 L 64.18 146.00 L 64.11 146.00 L 64.06 146.00 L 64.03 146.00 L 64.02 146.00 L 64.03 146.00 L 64.06 146.00 L 64.11 146.00 L 64.18 146.00 L 64.26 146.00 L 64.36 146.00 L 64.47 146.00 L 64.58 146.00 L 64.70 146.00 L 64.82 146.00 L 64.93 146.00 L 65.04 146.00 L 65.14 146.00 L 65.22 146.00 L 65.29 146.00 L 65.34 146.00 L 65.37 146.00 L 65.38 146.00 A 2.38 2.38 0 0 1 60.62 146.00 L 60.62 146.00 L 60.63 146.00 L 60.66 146.00 L 60.71 146.00 L 60.78 146.00 L 60.86 146.00 L 60.96 146.00 L 61.07 146.00 L 61.18 146.00 L 61.30 146.00 L 61.42 146.00 L 61.53 146.00 L 61.64 146.00 L 61.74 146.00 L 61.82 146.00 L 61.89 146.00 L 61.94 146.00 L 61.97 146.00 L 61.98 146.00 L 61.97 146.00 L 61.94 146.00 L 61.89 146.00 L 61.82 146.00 L 61.74 146.00 L 61.64 146.00 L 61.53 146.00 L 61.42 146.00 L 61.30 146.00 L 61.18 146.00 L 61.07 146.00 L 60.96 146.00 L 60.86 146.00 L 60.78 146.00 L 60.71 146.00 L 60.66 146.00 L 60.63 146.00 L 60.62 146.00 L 60.63 146.00 L 60.66 146.00 L 60.71 146.00 L 60.78 146.00 L 60.86 146.00 L 60.96 146.00 L 61.07 146.00 L 61.18 146.00 L 61.30 146.00 L 61.42 146.00 L 61.53 146.00 L 61.64 146.00 L 61.74 146.00 L 61.82 146.00 L 61.89 146.00 L 61.94 146.00 L 61.97 146.00 L 61.98 146.00 L 61.97 146.00 L 61.94 146.00 L 61.89 146.00 L 61.82 146.00 L 61.74 146.00 L 61.64 146.00 L 61.53 146.00 L 61.42 146.00 L 61.30 146.00 L 61.18 146.00 L 61.07 146.00 L 60.96 146.00 L 60.86 146.00 L 60.78 146.00 L 60.71 146.00 L 60.66 146.00 L 60.63 146.00 L 60.62 146.00 A 2.38 2.38 0 0 1 65.38 146.00 Z" fill="#1f7a44" fill-rule="evenodd"/></g><g transform="rotate(-182.4 54.3 138.0)"><path d="M 61.33 138.27 L 61.30 138.27 L 61.21 138.26 L 61.07 138.25 L 60.87 138.24 L 60.62 138.24 L 60.33 138.23 L 60.02 138.22 L 59.68 138.21 L 59.33 138.21 L 58.99 138.20 L 58.65 138.19 L 58.33 138.18 L 58.05 138.18 L 57.80 138.17 L 57.60 138.16 L 57.45 138.15 L 57.36 138.14 L 57.33 138.14 L 57.36 138.13 L 57.45 138.12 L 57.60 138.11 L 57.80 138.11 L 58.05 138.10 L 58.33 138.09 L 58.65 138.08 L 58.99 138.08 L 59.33 138.07 L 59.68 138.06 L 60.02 138.05 L 60.33 138.05 L 60.62 138.04 L 60.87 138.03 L 61.07 138.02 L 61.21 138.02 L 61.30 138.01 L 61.33 138.00 L 61.30 137.99 L 61.21 137.98 L 61.07 137.98 L 60.87 137.97 L 60.62 137.96 L 60.33 137.95 L 60.02 137.95 L 59.68 137.94 L 59.33 137.93 L 58.99 137.92 L 58.65 137.92 L 58.33 137.91 L 58.05 137.90 L 57.80 137.89 L 57.60 137.89 L 57.45 137.88 L 57.36 137.87 L 57.33 137.86 L 57.36 137.86 L 57.45 137.85 L 57.60 137.84 L 57.80 137.83 L 58.05 137.82 L 58.33 137.82 L 58.65 137.81 L 58.99 137.80 L 59.33 137.79 L 59.68 137.79 L 60.02 137.78 L 60.33 137.77 L 60.62 137.76 L 60.87 137.76 L 61.07 137.75 L 61.21 137.74 L 61.30 137.73 L 61.33 137.73 A 7.00 7.00 0 0 1 47.33 137.73 L 47.33 137.73 L 47.36 137.73 L 47.45 137.74 L 47.60 137.75 L 47.80 137.76 L 48.05 137.76 L 48.33 137.77 L 48.65 137.78 L 48.99 137.79 L 49.33 137.79 L 49.68 137.80 L 50.02 137.81 L 50.33 137.82 L 50.62 137.82 L 50.87 137.83 L 51.07 137.84 L 51.21 137.85 L 51.30 137.86 L 51.33 137.86 L 51.30 137.87 L 51.21 137.88 L 51.07 137.89 L 50.87 137.89 L 50.62 137.90 L 50.33 137.91 L 50.02 137.92 L 49.68 137.92 L 49.33 137.93 L 48.99 137.94 L 48.65 137.95 L 48.33 137.95 L 48.05 137.96 L 47.80 137.97 L 47.60 137.98 L 47.45 137.98 L 47.36 137.99 L 47.33 138.00 L 47.36 138.01 L 47.45 138.02 L 47.60 138.02 L 47.80 138.03 L 48.05 138.04 L 48.33 138.05 L 48.65 138.05 L 48.99 138.06 L 49.33 138.07 L 49.68 138.08 L 50.02 138.08 L 50.33 138.09 L 50.62 138.10 L 50.87 138.11 L 51.07 138.11 L 51.21 138.12 L 51.30 138.13 L 51.33 138.14 L 51.30 138.14 L 51.21 138.15 L 51.07 138.16 L 50.87 138.17 L 50.62 138.18 L 50.33 138.18 L 50.02 138.19 L 49.68 138.20 L 49.33 138.21 L 48.99 138.21 L 48.65 138.22 L 48.33 138.23 L 48.05 138.24 L 47.80 138.24 L 47.60 138.25 L 47.45 138.26 L 47.36 138.27 L 47.33 138.27 A 7.00 7.00 0 0 1 61.33 138.27 Z M 56.71 138.26 L 56.70 138.25 L 56.67 138.24 L 56.62 138.24 L 56.55 138.23 L 56.47 138.22 L 56.37 138.21 L 56.27 138.21 L 56.15 138.20 L 56.03 138.19 L 55.92 138.19 L 55.80 138.18 L 55.69 138.17 L 55.60 138.16 L 55.51 138.16 L 55.44 138.15 L 55.39 138.14 L 55.36 138.14 L 55.35 138.13 L 55.36 138.12 L 55.39 138.11 L 55.44 138.11 L 55.51 138.10 L 55.60 138.09 L 55.69 138.09 L 55.80 138.08 L 55.92 138.07 L 56.03 138.06 L 56.15 138.06 L 56.27 138.05 L 56.37 138.04 L 56.47 138.04 L 56.55 138.03 L 56.62 138.02 L 56.67 138.01 L 56.70 138.01 L 56.71 138.00 L 56.70 137.99 L 56.67 137.99 L 56.62 137.98 L 56.55 137.97 L 56.47 137.96 L 56.37 137.96 L 56.27 137.95 L 56.15 137.94 L 56.03 137.94 L 55.92 137.93 L 55.80 137.92 L 55.69 137.91 L 55.60 137.91 L 55.51 137.90 L 55.44 137.89 L 55.39 137.89 L 55.36 137.88 L 55.35 137.87 L 55.36 137.86 L 55.39 137.86 L 55.44 137.85 L 55.51 137.84 L 55.60 137.84 L 55.69 137.83 L 55.80 137.82 L 55.92 137.81 L 56.03 137.81 L 56.15 137.80 L 56.27 137.79 L 56.37 137.79 L 56.47 137.78 L 56.55 137.77 L 56.62 137.76 L 56.67 137.76 L 56.70 137.75 L 56.71 137.74 A 2.38 2.38 0 0 1 51.95 137.74 L 51.95 137.74 L 51.96 137.75 L 51.99 137.76 L 52.04 137.76 L 52.11 137.77 L 52.20 137.78 L 52.29 137.79 L 52.40 137.79 L 52.52 137.80 L 52.63 137.81 L 52.75 137.81 L 52.87 137.82 L 52.97 137.83 L 53.07 137.84 L 53.15 137.84 L 53.22 137.85 L 53.27 137.86 L 53.30 137.86 L 53.31 137.87 L 53.30 137.88 L 53.27 137.89 L 53.22 137.89 L 53.15 137.90 L 53.07 137.91 L 52.97 137.91 L 52.87 137.92 L 52.75 137.93 L 52.63 137.94 L 52.52 137.94 L 52.40 137.95 L 52.29 137.96 L 52.20 137.96 L 52.11 137.97 L 52.04 137.98 L 51.99 137.99 L 51.96 137.99 L 51.95 138.00 L 51.96 138.01 L 51.99 138.01 L 52.04 138.02 L 52.11 138.03 L 52.20 138.04 L 52.29 138.04 L 52.40 138.05 L 52.52 138.06 L 52.63 138.06 L 52.75 138.07 L 52.87 138.08 L 52.97 138.09 L 53.07 138.09 L 53.15 138.10 L 53.22 138.11 L 53.27 138.11 L 53.30 138.12 L 53.31 138.13 L 53.30 138.14 L 53.27 138.14 L 53.22 138.15 L 53.15 138.16 L 53.07 138.16 L 52.97 138.17 L 52.87 138.18 L 52.75 138.19 L 52.63 138.19 L 52.52 138.20 L 52.40 138.21 L 52.29 138.21 L 52.20 138.22 L 52.11 138.23 L 52.04 138.24 L 51.99 138.24 L 51.96 138.25 L 51.95 138.26 A 2.38 2.38 0 0 1 56.71 138.26 Z" fill="#1f7a44" fill-rule="evenodd"/></g><line x1="48" y1="122" x2="48" y2="168" stroke="#1f7a44" stroke-width="7" stroke-linecap="round"/><line x1="56" y1="166" x2="56" y2="180" stroke="#1f7a44" stroke-width="6" stroke-linecap="round"/><line x1="144" y1="166" x2="144" y2="180" stroke="#1f7a44" stroke-width="6" stroke-linecap="round"/><path d="M148 64 A16 16 0 1 0 148 96 A13 13 0 1 1 148 64 Z" fill="#e3a52b"/></svg>