<?xml version="1.0" encoding="UTF-8"?>
<svg xmlns="http://www.w3.org/2000/svg" viewBox="0 0 200 270" width="200" height="270"><g transform="rotate(-90.0 58.6 92.0)"><path d="M 65.62 88.39 L 65.59 88.50 L 65.50 88.60 L 65.36 88.70 L 65.16 88.80 L 64.91 88.90 L 64.62 89.00 L 64.31 89.10 L 63.97 89.20 L 63.62 89.30 L 63.28 89.40 L 62.94 89.50 L 62.62 89.60 L 62.34 89.70 L 62.09 89.80 L 61.89 89.90 L 61.75 90.00 L 61.66 90.10 L 61.62 90.20 L 61.66 90.30 L 61.75 90.40 L 61.89 90.50 L 62.09 90.60 L 62.34 90.70 L 62.62 90.80 L 62.94 90.90 L 63.28 91.00 L 63.62 91.10 L 63.97 91.20 L 64.31 91.30 L 64.62 91.40 L 64.91 91.50 L 65.16 91.60 L 65.36 91.70 L 65.50 91.80 L 65.59 91.90 L 65.62 92.00 L 65.59 92.10 L 65.50 92.20 L 65.36 92.30 L 65.16 92.40 L 64.91 92.50 L 64.62 92.60 L 64.31 92.70 L 63.97 92.80 L 63.62 92.90 L 63.28 93.00 L 62.94 93.10 L 62.62 93.20 L 62.34 93.30 L 62.09 93.40 L 61.89 93.50 L 61.75 93.60 L 61.66 93.70 L 61.62 93.80 L 61.66 93.90 L 61.75 94.00 L 61.89 94.10 L 62.09 94.20 L 62.34 94.30 L 62.62 94.40 L 62.94 94.50 L 63.28 94.60 L 63.62 94.70 L 63.97 94.80 L 64.31 94.90 L 64.62 95.00 L 64.91 95.10 L 65.16 95.20 L 65.36 95.30 L 65.50 95.40 L 65.59 95.50 L 65.62 95.60 A 7.00 7.00 0 0 1 51.62 95.61 L 51.62 95.60 L 51.66 95.50 L 51.75 95.40 L 51.89 95.30 L 52.09 95.20 L 52.34 95.10 L 52.62 95.00 L 52.94 94.90 L 53.28 94.80 L 53.62 94.70 L 53.97 94.60 L 54.31 94.50 L 54.62 94.40 L 54.91 94.30 L 55.16 94.20 L 55.36 94.10 L 55.50 94.00 L 55.59 93.90 L 55.62 93.80 L 55.59 93.70 L 55.50 93.60 L 55.36 93.50 L 55.16 93.40 L 54.91 93.30 L 54.62 93.20 L 54.31 93.10 L 53.97 93.00 L 53.62 92.90 L 53.28 92.80 L 52.94 92.70 L 52.62 92.60 L 52.34 92.50 L 52.09 92.40 L 51.89 92.30 L 51.75 92.20 L 51.66 92.10 L 51.62 92.00 L 51.66 91.90 L 51.75 91.80 L 51.89 91.70 L 52.09 91.60 L 52.34 91.50 L 52.62 91.40 L 52.94 91.30 L 53.28 91.20 L 53.62 91.10 L 53.97 91.00 L 54.31 90.90 L 54.62 90.80 L 54.91 90.70 L 55.16 90.60 L 55.36 90.50 L 55.50 90.40 L 55.59 90.30 L 55.62 90.20 L 55.59 90.10 L 55.50 90.00 L 55.36 89.90 L 55.16 89.80 L 54.91 89.70 L 54.62 89.60 L 54.31 89.50 L 53.97 89.40 L 53.62 89.30 L 53.28 89.20 L 52.94 89.10 L 52.62 89.00 L 52.34 88.90 L 52.09 88.80 L 51.89 88.70 L 51.75 88.60 L 51.66 88.50 L 51.62 88.39 A 7.00 7.00 0 0 1 65.62 88.39 Z M 61.01 88.61 L 60.99 88.71 L 60.96 88.80 L 60.91 88.89 L 60.85 88.99 L 60.76 89.08 L 60.66 89.18 L 60.56 89.27 L 60.44 89.36 L 60.33 89.46 L 60.21 89.55 L 60.09 89.65 L 59.98 89.74 L 59.89 89.83 L 59.80 89.93 L 59.74 90.02 L 59.69 90.12 L 59.66 90.21 L 59.65 90.31 L 59.66 90.40 L 59.69 90.49 L 59.74 90.59 L 59.80 90.68 L 59.89 90.78 L 59.98 90.87 L 60.09 90.96 L 60.21 91.06 L 60.33 91.15 L 60.44 91.25 L 60.56 91.34 L 60.66 91.44 L 60.76 91.53 L 60.85 91.62 L 60.91 91.72 L 60.96 91.81 L 60.99 91.91 L 61.01 92.00 L 60.99 92.09 L 60.96 92.19 L 60.91 92.28 L 60.85 92.38 L 60.76 92.47 L 60.66 92.56 L 60.56 92.66 L 60.44 92.75 L 60.33 92.85 L 60.21 92.94 L 60.09 93.04 L 59.98 93.13 L 59.89 93.22 L 59.80 93.32 L 59.74 93.41 L 59.69 93.51 L 59.66 93.60 L 59.65 93.69 L 59.66 93.79 L 59.69 93.88 L 59.74 93.98 L 59.80 94.07 L 59.89 94.17 L 59.98 94.26 L 60.09 94.35 L 60.21 94.45 L 60.33 94.54 L 60.44 94.64 L 60.56 94.73 L 60.66 94.82 L 60.76 94.92 L 60.85 95.01 L 60.91 95.11 L 60.96 95.20 L 60.99 95.29 L 61.01 95.39 A 2.38 2.38 0 0 1 56.24 95.39 L 56.24 95.39 L 56.26 95.29 L 56.29 95.20 L 56.34 95.11 L 56.40 95.01 L 56.49 94.92 L 56.59 94.82 L 56.69 94.73 L 56.81 94.64 L 56.92 94.54 L 57.04 94.45 L 57.16 94.35 L 57.27 94.26 L 57.36 94.17 L 57.45 94.07 L 57.51 93.98 L 57.56 93.88 L 57.59 93.79 L 57.60 93.69 L 57.59 93.60 L 57.56 93.51 L 57.51 93.41 L 57.45 93.32 L 57.36 93.22 L 57.27 93.13 L 57.16 93.04 L 57.04 92.94 L 56.92 92.85 L 56.81 92.75 L 56.69 92.66 L 56.59 92.56 L 56.49 92.47 L 56.40 92.38 L 56.34 92.28 L 56.29 92.19 L 56.26 92.09 L 56.24 92.00 L 56.26 91.91 L 56.29 91.81 L 56.34 91.72 L 56.40 91.62 L 56.49 91.53 L 56.59 91.44 L 56.69 91.34 L 56.81 91.25 L 56.92 91.15 L 57.04 91.06 L 57.16 90.96 L 57.27 90.87 L 57.36 90.78 L 57.45 90.68 L 57.51 90.59 L 57.56 90.49 L 57.59 90.40 L 57.60 90.31 L 57.59 90.21 L 57.56 90.12 L 57.51 90.02 L 57.45 89.93 L 57.36 89.83 L 57.27 89.74 L 57.16 89.65 L 57.04 89.55 L 56.92 89.46 L 56.81 89.36 L 56.69 89.27 L 56.59 89.18 L 56.49 89.08 L 56.40 88.99 L 56.34 88.89 L 56.29 88.80 L 56.26 88.71 L 56.24 88.61 A 2.38 2.38 0 0 1 61.01 88.61 Z" fill="#1f7a44" fill-rule="evenodd"/></g><g transform="rotate(-90.0 83.9 92.0)"><path d="M 90.88 88.39 L 90.84 88.50 L 90.75 88.60 L 90.61 88.70 L 90.41 88.80 L 90.16 88.90 L 89.88 89.00 L 89.56 89.10 L 89.22 89.20 L 88.88 89.30 L 88.53 89.40 L 88.19 89.50 L 87.88 89.60 L 87.59 89.70 L 87.34 89.80 L 87.14 89.90 L 87.00 90.00 L 86.91 90.10 L 86.88 90.20 L 86.91 90.30 L 87.00 90.40 L 87.14 90.50 L 87.34 90.60 L 87.59 90.70 L 87.88 90.80 L 88.19 90.90 L 88.53 91.00 L 88.88 91.10 L 89.22 91.20 L 89.56 91.30 L 89.88 91.40 L 90.16 91.50 L 90.41 91.60 L 90.61 91.70 L 90.75 91.80 L 90.84 91.90 L 90.88 92.00 L 90.84 92.10 L 90.75 92.20 L 90.61 92.30 L 90.41 92.40 L 90.16 92.50 L 89.88 92.60 L 89.56 92.70 L 89.22 92.80 L 88.88 92.90 L 88.53 93.00 L 88.19 93.10 L 87.88 93.20 L 87.59 93.30 L 87.34 93.40 L 87.14 93.50 L 87.00 93.60 L 86.91 93.70 L 86.88 93.80 L 86.91 93.90 L 87.00 94.00 L 87.14 94.10 L 87.34 94.20 L 87.59 94.30 L 87.88 94.40 L 88.19 94.50 L 88.53 94.60 L 88.88 94.70 L 89.22 94.80 L 89.56 94.90 L 89.88 95.00 L 90.16 95.10 L 90.41 95.20 L 90.61 95.30 L 90.75 95.40 L 90.84 95.50 L 90.88 95.60 A 7.00 7.00 0 0 1 76.88 95.61 L 76.88 95.60 L 76.91 95.50 L 77.00 95.40 L 77.14 95.30 L 77.34 95.20 L 77.59 95.10 L 77.88 95.00 L 78.19 94.90 L 78.53 94.80 L 78.88 94.70 L 79.22 94.60 L 79.56 94.50 L 79.88 94.40 L 80.16 94.30 L 80.41 94.20 L 80.61 94.10 L 80.75 94.00 L 80.84 93.90 L 80.88 93.80 L 80.84 93.70 L 80.75 93.60 L 80.61 93.50 L 80.41 93.40 L 80.16 93.30 L 79.88 93.20 L 79.56 93.10 L 79.22 93.00 L 78.88 92.90 L 78.53 92.80 L 78.19 92.70 L 77.88 92.60 L 77.59 92.50 L 77.34 92.40 L 77.14 92.30 L 77.00 92.20 L 76.91 92.10 L 76.88 92.00 L 76.91 91.90 L 77.00 91.80 L 77.14 91.70 L 77.34 91.60 L 77.59 91.50 L 77.88 91.40 L 78.19 91.30 L 78.53 91.20 L 78.88 91.10 L 79.22 91.00 L 79.56 90.90 L 79.88 90.80 L 80.16 90.70 L 80.41 90.60 L 80.61 90.50 L 80.75 90.40 L 80.84 90.30 L 80.88 90.20 L 80.84 90.10 L 80.75 90.00 L 80.61 89.90 L 80.41 89.80 L 80.16 89.70 L 79.88 89.60 L 79.56 89.50 L 79.22 89.40 L 78.88 89.30 L 78.53 89.20 L 78.19 89.10 L 77.88 89.00 L 77.59 88.90 L 77.34 88.80 L 77.14 88.70 L 77.00 88.60 L 76.91 88.50 L 76.88 88.39 A 7.00 7.00 0 0 1 90.88 88.39 Z M 86.25 88.61 L 86.24 88.71 L 86.21 88.80 L 86.16 88.89 L 86.10 88.99 L 86.01 89.08 L 85.92 89.18 L 85.81 89.27 L 85.69 89.36 L 85.58 89.46 L 85.46 89.55 L 85.34 89.65 L 85.23 89.74 L 85.14 89.83 L 85.05 89.93 L 84.99 90.02 L 84.94 90.12 L 84.91 90.21 L 84.89 90.31 L 84.91 90.40 L 84.94 90.49 L 84.99 90.59 L 85.05 90.68 L 85.14 90.78 L 85.23 90.87 L 85.34 90.96 L 85.46 91.06 L 85.58 91.15 L 85.69 91.25 L 85.81 91.34 L 85.92 91.44 L 86.01 91.53 L 86.10 91.62 L 86.16 91.72 L 86.21 91.81 L 86.24 91.91 L 86.25 92.00 L 86.24 92.09 L 86.21 92.19 L 86.16 92.28 L 86.10 92.38 L 86.01 92.47 L 85.92 92.56 L 85.81 92.66 L 85.69 92.75 L 85.58 92.85 L 85.46 92.94 L 85.34 93.04 L 85.23 93.13 L 85.14 93.22 L 85.05 93.32 L 84.99 93.41 L 84.94 93.51 L 84.91 93.60 L 84.89 93.69 L 84.91 93.79 L 84.94 93.88 L 84.99 93.98 L 85.05 94.07 L 85.14 94.17 L 85.23 94.26 L 85.34 94.35 L 85.46 94.45 L 85.58 94.54 L 85.69 94.64 L 85.81 94.73 L 85.92 94.82 L 86.01 94.92 L 86.10 95.01 L 86.16 95.11 L 86.21 95.20 L 86.24 95.29 L 86.25 95.39 A 2.38 2.38 0 0 1 81.50 95.39 L 81.50 95.39 L 81.51 95.29 L 81.54 95.20 L 81.59 95.11 L 81.65 95.01 L 81.74 94.92 L 81.83 94.82 L 81.94 94.73 L 82.06 94.64 L 82.17 94.54 L 82.29 94.45 L 82.41 94.35 L 82.52 94.26 L 82.61 94.17 L 82.70 94.07 L 82.76 93.98 L 82.81 93.88 L 82.84 93.79 L 82.86 93.69 L 82.84 93.60 L 82.81 93.51 L 82.76 93.41 L 82.70 93.32 L 82.61 93.22 L 82.52 93.13 L 82.41 93.04 L 82.29 92.94 L 82.17 92.85 L 82.06 92.75 L 81.94 92.66 L 81.83 92.56 L 81.74 92.47 L 81.65 92.38 L 81.59 92.28 L 81.54 92.19 L 81.51 92.09 L 81.50 92.00 L 81.51 91.91 L 81.54 91.81 L 81.59 91.72 L 81.65 91.62 L 81.74 91.53 L 81.83 91.44 L 81.94 91.34 L 82.06 91.25 L 82.17 91.15 L 82.29 91.06 L 82.41 90.96 L 82.52 90.87 L 82.61 90.78 L 82.70 90.68 L 82.76 90.59 L 82.81 90.49 L 82.84 90.40 L 82.86 90.31 L 82.84 90.21 L 82.81 90.12 L 82.76 90.02 L 82.70 89.93 L 82.61 89.83 L 82.52 89.74 L 82.41 89.65 L 82.29 89.55 L 82.17 89.46 L 82.06 89.36 L 81.94 89.27 L 81.83 89.18 L 81.74 89.08 L 81.65 88.99 L 81.59 88.89 L 81.54 88.80 L 81.51 88.71 L 81.50 88.61 A 2.38 2.38 0 0 1 86.25 88.61 Z" fill="#1f7a44" fill-rule="evenodd"/></g><g transform="rotate(-90.0 109.1 92.0)"><path d="M 116.12 88.39 L 116.09 88.50 L 116.00 88.60 L 115.86 88.70 L 115.66 88.80 L 115.41 88.90 L 115.12 89.00 L 114.81 89.10 L 114.47 89.20 L 114.12 89.30 L 113.78 89.40 L 113.44 89.50 L 113.12 89.60 L 112.84 89.70 L 112.59 89.80 L 112.39 89.90 L 112.25 90.00 L 112.16 90.10 L 112.12 90.20 L 112.16 90.30 L 112.25 90.40 L 112.39 90.50 L 112.59 90.60 L 112.84 90.70 L 113.12 90.80 L 113.44 90.90 L 113.78 91.00 L 114.12 91.10 L 114.47 91.20 L 114.81 91.30 L 115.12 91.40 L 115.41 91.50 L 115.66 91.60 L 115.86 91.70 L 116.00 91.80 L 116.09 91.90 L 116.12 92.00 L 116.09 92.10 L 116.00 92.20 L 115.86 92.30 L 115.66 92.40 L 115.41 92.50 L 115.12 92.60 L 114.81 92.70 L 114.47 92.80 L 114.12 92.90 L 113.78 93.00 L 113.44 93.10 L 113.12 93.20 L 112.84 93.30 L 112.59 93.40 L 112.39 93.50 L 112.25 93.60 L 112.16 93.70 L 112.12 93.80 L 112.16 93.90 L 112.25 94.00 L 112.39 94.10 L 112.59 94.20 L 112.84 94.30 L 113.12 94.40 L 113.44 94.50 L 113.78 94.60 L 114.12 94.70 L 114.47 94.80 L 114.81 94.90 L 115.12 95.00 L 115.41 95.10 L 115.66 95.20 L 115.86 95.30 L 116.00 95.40 L 116.09 95.50 L 116.12 95.60 A 7.00 7.00 0 0 1 102.12 95.61 L 102.12 95.60 L 102.16 95.50 L 102.25 95.40 L 102.39 95.30 L 102.59 95.20 L 102.84 95.10 L 103.12 95.00 L 103.44 94.90 L 103.78 94.80 L 104.12 94.70 L 104.47 94.60 L 104.81 94.50 L 105.12 94.40 L 105.41 94.30 L 105.66 94.20 L 105.86 94.10 L 106.00 94.00 L 106.09 93.90 L 106.12 93.80 L 106.09 93.70 L 106.00 93.60 L 105.86 93.50 L 105.66 93.40 L 105.41 93.30 L 105.12 93.20 L 104.81 93.10 L 104.47 93.00 L 104.12 92.90 L 103.78 92.80 L 103.44 92.70 L 103.12 92.60 L 102.84 92.50 L 102.59 92.40 L 102.39 92.30 L 102.25 92.20 L 102.16 92.10 L 102.12 92.00 L 102.16 91.90 L 102.25 91.80 L 102.39 91.70 L 102.59 91.60 L 102.84 91.50 L 103.12 91.40 L 103.44 91.30 L 103.78 91.20 L 104.12 91.10 L 104.47 91.00 L 104.81 90.90 L 105.12 90.80 L 105.41 90.70 L 105.66 90.60 L 105.86 90.50 L 106.00 90.40 L 106.09 90.30 L 106.12 90.20 L 106.09 90.10 L 106.00 90.00 L 105.86 89.90 L 105.66 89.80 L 105.41 89.70 L 105.12 89.60 L 104.81 89.50 L 104.47 89.40 L 104.12 89.30 L 103.78 89.20 L 103.44 89.10 L 103.12 89.00 L 102.84 88.90 L 102.59 88.80 L 102.39 88.70 L 102.25 88.60 L 102.16 88.50 L 102.12 88.39 A 7.00 7.00 0 0 1 116.12 88.39 Z M 111.50 88.61 L 111.49 88.71 L 111.46 88.80 L 111.41 88.89 L 111.35 88.99 L 111.26 89.08 L 111.17 89.18 L 111.06 89.27 L 110.94 89.36 L 110.83 89.46 L 110.71 89.55 L 110.59 89.65 L 110.48 89.74 L 110.39 89.83 L 110.30 89.93 L 110.24 90.02 L 110.19 90.12 L 110.16 90.21 L 110.14 90.31 L 110.16 90.40 L 110.19 90.49 L 110.24 90.59 L 110.30 90.68 L 110.39 90.78 L 110.48 90.87 L 110.59 90.96 L 110.71 91.06 L 110.83 91.15 L 110.94 91.25 L 111.06 91.34 L 111.17 91.44 L 111.26 91.53 L 111.35 91.62 L 111.41 91.72 L 111.46 91.81 L 111.49 91.91 L 111.50 92.00 L 111.49 92.09 L 111.46 92.19 L 111.41 92.28 L 111.35 92.38 L 111.26 92.47 L 111.17 92.56 L 111.06 92.66 L 110.94 92.75 L 110.83 92.85 L 110.71 92.94 L 110.59 93.04 L 110.48 93.13 L 110.39 93.22 L 110.30 93.32 L 110.24 93.41 L 110.19 93.51 L 110.16 93.60 L 110.14 93.69 L 110.16 93.79 L 110.19 93.88 L 110.24 93.98 L 110.30 94.07 L 110.39 94.17 L 110.48 94.26 L 110.59 94.35 L 110.71 94.45 L 110.83 94.54 L 110.94 94.64 L 111.06 94.73 L 111.17 94.82 L 111.26 94.92 L 111.35 95.01 L 111.41 95.11 L 111.46 95.20 L 111.49 95.29 L 111.50 95.39 A 2.38 2.38 0 0 1 106.75 95.39 L 106.75 95.39 L 106.76 95.29 L 106.79 95.20 L 106.84 95.11 L 106.90 95.01 L 106.99 94.92 L 107.08 94.82 L 107.19 94.73 L 107.31 94.64 L 107.42 94.54 L 107.54 94.45 L 107.66 94.35 L 107.77 94.26 L 107.86 94.17 L 107.95 94.07 L 108.01 93.98 L 108.06 93.88 L 108.09 93.79 L 108.11 93.69 L 108.09 93.60 L 108.06 93.51 L 108.01 93.41 L 107.95 93.32 L 107.86 93.22 L 107.77 93.13 L 107.66 93.04 L 107.54 92.94 L 107.42 92.85 L 107.31 92.75 L 107.19 92.66 L 107.08 92.56 L 106.99 92.47 L 106.90 92.38 L 106.84 92.28 L 106.79 92.19 L 106.76 92.09 L 106.75 92.00 L 106.76 91.91 L 106.79 91.81 L 106.84 91.72 L 106.90 91.62 L 106.99 91.53 L 107.08 91.44 L 107.19 91.34 L 107.31 91.25 L 107.42 91.15 L 107.54 91.06 L 107.66 90.96 L 107.77 90.87 L 107.86 90.78 L 107.95 90.68 L 108.01 90.59 L 108.06 90.49 L 108.09 90.40 L 108.11 90.31 L 108.09 90.21 L 108.06 90.12 L 108.01 90.02 L 107.95 89.93 L 107.86 89.83 L 107.77 89.74 L 107.66 89.65 L 107.54 89.55 L 107.42 89.46 L 107.31 89.36 L 107.19 89.27 L 107.08 89.18 L 106.99 89.08 L 106.90 88.99 L 106.84 88.89 L 106.79 88.80 L 106.76 88.71 L 106.75 88.61 A 2.38 2.38 0 0 1 111.50 88.61 Z" fill="#1f7a44" fill-rule="evenodd"/></g><g transform="rotate(-90.0 134.4 92.0)"><path d="M 141.38 88.39 L 141.34 88.50 L 141.25 88.60 L 141.11 88.70 L 140.91 88.80 L 140.66 88.90 L 140.38 89.00 L 140.06 89.10 L 139.72 89.20 L 139.38 89.30 L 139.03 89.40 L 138.69 89.50 L 138.38 89.60 L 138.09 89.70 L 137.84 89.80 L 137.64 89.90 L 137.50 90.00 L 137.41 90.10 L 137.38 90.20 L 137.41 90.30 L 137.50 90.40 L 137.64 90.50 L 137.84 90.60 L 138.09 90.70 L 138.38 90.80 L 138.69 90.90 L 139.03 91.00 L 139.38 91.10 L 139.72 91.20 L 140.06 91.30 L 140.38 91.40 L 140.66 91.50 L 140.91 91.60 L 141.11 91.70 L 141.25 91.80 L 141.34 91.90 L 141.38 92.00 L 141.34 92.10 L 141.25 92.20 L 141.11 92.30 L 140.91 92.40 L 140.66 92.50 L 140.38 92.60 L 140.06 92.70 L 139.72 92.80 L 139.38 92.90 L 139.03 93.00 L 138.69 93.10 L 138.38 93.20 L 138.09 93.30 L 137.84 93.40 L 137.64 93.50 L 137.50 93.60 L 137.41 93.70 L 137.38 93.80 L 137.41 93.90 L 137.50 94.00 L 137.64 94.10 L 137.84 94.20 L 138.09 94.30 L 138.38 94.40 L 138.69 94.50 L 139.03 94.60 L 139.38 94.70 L 139.72 94.80 L 140.06 94.90 L 140.38 95.00 L 140.66 95.10 L 140.91 95.20 L 141.11 95.30 L 141.25 95.40 L 141.34 95.50 L 141.38 95.60 A 7.00 7.00 0 0 1 127.38 95.61 L 127.38 95.60 L 127.41 95.50 L 127.50 95.40 L 127.64 95.30 L 127.84 95.20 L 128.09 95.10 L 128.38 95.00 L 128.69 94.90 L 129.03 94.80 L 129.38 94.70 L 129.72 94.60 L 130.06 94.50 L 130.38 94.40 L 130.66 94.30 L 130.91 94.20 L 131.11 94.10 L 131.25 94.00 L 131.34 93.90 L 131.38 93.80 L 131.34 93.70 L 131.25 93.60 L 131.11 93.50 L 130.91 93.40 L 130.66 93.30 L 130.38 93.20 L 130.06 93.10 L 129.72 93.00 L 129.38 92.90 L 129.03 92.80 L 128.69 92.70 L 128.38 92.60 L 128.09 92.50 L 127.84 92.40 L 127.64 92.30 L 127.50 92.20 L 127.41 92.10 L 127.38 92.00 L 127.41 91.90 L 127.50 91.80 L 127.64 91.70 L 127.84 91.60 L 128.09 91.50 L 128.38 91.40 L 128.69 91.30 L 129.03 91.20 L 129.38 91.10 L 129.72 91.00 L 130.06 90.90 L 130.38 90.80 L 130.66 90.70 L 130.91 90.60 L 131.11 90.50 L 131.25 90.40 L 131.34 90.30 L 131.38 90.20 L 131.34 90.10 L 131.25 90.00 L 131.11 89.90 L 130.91 89.80 L 130.66 89.70 L 130.38 89.60 L 130.06 89.50 L 129.72 89.40 L 129.38 89.30 L 129.03 89.20 L 128.69 89.10 L 128.38 89.00 L 128.09 88.90 L 127.84 88.80 L 127.64 88.70 L 127.50 88.60 L 127.41 88.50 L 127.38 88.39 A 7.00 7.00 0 0 1 141.38 88.39 Z M 136.75 88.61 L 136.74 88.71 L 136.71 88.80 L 136.66 88.89 L 136.60 88.99 L 136.51 89.08 L 136.41 89.18 L 136.31 89.27 L 136.19 89.36 L 136.07 89.46 L 135.96 89.55 L 135.84 89.65 L 135.74 89.74 L 135.64 89.83 L 135.55 89.93 L 135.49 90.02 L 135.44 90.12 L 135.41 90.21 L 135.40 90.31 L 135.41 90.40 L 135.44 90.49 L 135.49 90.59 L 135.55 90.68 L 135.64 90.78 L 135.74 90.87 L 135.84 90.96 L 135.96 91.06 L 136.07 91.15 L 136.19 91.25 L 136.31 91.34 L 136.41 91.44 L 136.51 91.53 L 136.60 91.62 L 136.66 91.72 L 136.71 91.81 L 136.74 91.91 L 136.75 92.00 L 136.74 92.09 L 136.71 92.19 L 136.66 92.28 L 136.60 92.38 L 136.51 92.47 L 136.41 92.56 L 136.31 92.66 L 136.19 92.75 L 136.07 92.85 L 135.96 92.94 L 135.84 93.04 L 135.74 93.13 L 135.64 93.22 L 135.55 93.32 L 135.49 93.41 L 135.44 93.51 L 135.41 93.60 L 135.40 93.69 L 135.41 93.79 L 135.44 93.88 L 135.49 93.98 L 135.55 94.07 L 135.64 94.17 L 135.74 94.26 L 135.84 94.35 L 135.96 94.45 L 136.07 94.54 L 136.19 94.64 L 136.31 94.73 L 136.41 94.82 L 136.51 94.92 L 136.60 95.01 L 136.66 95.11 L 136.71 95.20 L 136.74 95.29 L 136.75 95.39 A 2.38 2.38 0 0 1 132.00 95.39 L 132.00 95.39 L 132.01 95.29 L 132.04 95.20 L 132.09 95.11 L 132.15 95.01 L 132.24 94.92 L 132.34 94.82 L 132.44 94.73 L 132.56 94.64 L 132.68 94.54 L 132.79 94.45 L 132.91 94.35 L 133.01 94.26 L 133.11 94.17 L 133.20 94.07 L 133.26 93.98 L 133.31 93.88 L 133.34 93.79 L 133.35 93.69 L 133.34 93.60 L 133.31 93.51 L 133.26 93.41 L 133.20 93.32 L 133.11 93.22 L 133.01 93.13 L 132.91 93.04 L 132.79 92.94 L 132.68 92.85 L 132.56 92.75 L 132.44 92.66 L 132.34 92.56 L 132.24 92.47 L 132.15 92.38 L 132.09 92.28 L 132.04 92.19 L 132.01 92.09 L 132.00 92.00 L 132.01 91.91 L 132.04 91.81 L 132.09 91.72 L 132.15 91.62 L 132.24 91.53 L 132.34 91.44 L 132.44 91.34 L 132.56 91.25 L 132.68 91.15 L 132.79 91.06 L 132.91 90.96 L 133.01 90.87 L 133.11 90.78 L 133.20 90.68 L 133.26 90.59 L 133.31 90.49 L 133.34 90.40 L 133.35 90.31 L 133.34 90.21 L 133.31 90.12 L 133.26 90.02 L 133.20 89.93 L 133.11 89.83 L 133.01 89.74 L 132.91 89.65 L 132.79 89.55 L 132.68 89.46 L 132.56 89.36 L 132.44 89.27 L 132.34 89.18 L 132.24 89.08 L 132.15 88.99 L 132.09 88.89 L 132.04 88.80 L 132.01 88.71 L 132.00 88.61 A 2.38 2.38 0 0 1 136.75 88.61 Z" fill="#1f7a44" fill-rule="evenodd"/></g><g transform="rotate(-21.0 150.5 101.1)"><path d="M 157.50 99.92 L 157.47 99.95 L 157.38 99.98 L 157.23 100.02 L 157.03 100.05 L 156.79 100.08 L 156.50 100.12 L 156.18 100.15 L 155.85 100.18 L 155.50 100.22 L 155.15 100.25 L 154.82 100.29 L 154.50 100.32 L 154.21 100.35 L 153.97 100.39 L 153.77 100.42 L 153.62 100.45 L 153.53 100.49 L 153.50 100.52 L 153.53 100.55 L 153.62 100.59 L 153.77 100.62 L 153.97 100.65 L 154.21 100.69 L 154.50 100.72 L 154.82 100.76 L 155.15 100.79 L 155.50 100.82 L 155.85 100.86 L 156.18 100.89 L 156.50 100.92 L 156.79 100.96 L 157.03 100.99 L 157.23 101.02 L 157.38 101.06 L 157.47 101.09 L 157.50 101.12 L 157.47 101.16 L 157.38 101.19 L 157.23 101.23 L 157.03 101.26 L 156.79 101.29 L 156.50 101.33 L 156.18 101.36 L 155.85 101.39 L 155.50 101.43 L 155.15 101.46 L 154.82 101.49 L 154.50 101.53 L 154.21 101.56 L 153.97 101.60 L 153.77 101.63 L 153.62 101.66 L 153.53 101.70 L 153.50 101.73 L 153.53 101.76 L 153.62 101.80 L 153.77 101.83 L 153.97 101.86 L 154.21 101.90 L 154.50 101.93 L 154.82 101.96 L 155.15 102.00 L 155.50 102.03 L 155.85 102.07 L 156.18 102.10 L 156.50 102.13 L 156.79 102.17 L 157.03 102.20 L 157.23 102.23 L 157.38 102.27 L 157.47 102.30 L 157.50 102.33 A 7.00 7.00 0 0 1 143.50 102.33 L 143.50 102.33 L 143.53 102.30 L 143.62 102.27 L 143.77 102.23 L 143.97 102.20 L 144.21 102.17 L 144.50 102.13 L 144.82 102.10 L 145.15 102.07 L 145.50 102.03 L 145.85 102.00 L 146.18 101.96 L 146.50 101.93 L 146.79 101.90 L 147.03 101.86 L 147.23 101.83 L 147.38 101.80 L 147.47 101.76 L 147.50 101.73 L 147.47 101.70 L 147.38 101.66 L 147.23 101.63 L 147.03 101.60 L 146.79 101.56 L 146.50 101.53 L 146.18 101.49 L 145.85 101.46 L 145.50 101.43 L 145.15 101.39 L 144.82 101.36 L 144.50 101.33 L 144.21 101.29 L 143.97 101.26 L 143.77 101.23 L 143.62 101.19 L 143.53 101.16 L 143.50 101.12 L 143.53 101.09 L 143.62 101.06 L 143.77 101.02 L 143.97 100.99 L 144.21 100.96 L 144.50 100.92 L 144.82 100.89 L 145.15 100.86 L 145.50 100.82 L 145.85 100.79 L 146.18 100.76 L 146.50 100.72 L 146.79 100.69 L 147.03 100.65 L 147.23 100.62 L 147.38 100.59 L 147.47 100.55 L 147.50 100.52 L 147.47 100.49 L 147.38 100.45 L 147.23 100.42 L 147.03 100.39 L 146.79 100.35 L 146.50 100.32 L 146.18 100.29 L 145.85 100.25 L 145.50 100.22 L 145.15 100.18 L 144.82 100.15 L 144.50 100.12 L 144.21 100.08 L 143.97 100.05 L 143.77 100.02 L 143.62 99.98 L 143.53 99.95 L 143.50 99.92 A 7.00 7.00 0 0 1 157.50 99.92 Z M 152.88 99.99 L 152.87 100.02 L 152.84 100.05 L 152.79 100.08 L 152.72 100.11 L 152.64 100.15 L 152.54 100.18 L 152.43 100.21 L 152.32 100.24 L 152.20 100.27 L 152.08 100.30 L 151.97 100.34 L 151.86 100.37 L 151.76 100.40 L 151.68 100.43 L 151.61 100.46 L 151.56 100.49 L 151.53 100.52 L 151.52 100.56 L 151.53 100.59 L 151.56 100.62 L 151.61 100.65 L 151.68 100.68 L 151.76 100.71 L 151.86 100.75 L 151.97 100.78 L 152.08 100.81 L 152.20 100.84 L 152.32 100.87 L 152.43 100.90 L 152.54 100.94 L 152.64 100.97 L 152.72 101.00 L 152.79 101.03 L 152.84 101.06 L 152.87 101.09 L 152.88 101.12 L 152.87 101.16 L 152.84 101.19 L 152.79 101.22 L 152.72 101.25 L 152.64 101.28 L 152.54 101.31 L 152.43 101.35 L 152.32 101.38 L 152.20 101.41 L 152.08 101.44 L 151.97 101.47 L 151.86 101.50 L 151.76 101.54 L 151.68 101.57 L 151.61 101.60 L 151.56 101.63 L 151.53 101.66 L 151.52 101.69 L 151.53 101.73 L 151.56 101.76 L 151.61 101.79 L 151.68 101.82 L 151.76 101.85 L 151.86 101.88 L 151.97 101.91 L 152.08 101.95 L 152.20 101.98 L 152.32 102.01 L 152.43 102.04 L 152.54 102.07 L 152.64 102.10 L 152.72 102.14 L 152.79 102.17 L 152.84 102.20 L 152.87 102.23 L 152.88 102.26 A 2.38 2.38 0 0 1 148.12 102.26 L 148.12 102.26 L 148.13 102.23 L 148.16 102.20 L 148.21 102.17 L 148.28 102.14 L 148.36 102.10 L 148.46 102.07 L 148.57 102.04 L 148.68 102.01 L 148.80 101.98 L 148.92 101.95 L 149.03 101.91 L 149.14 101.88 L 149.24 101.85 L 149.32 101.82 L 149.39 101.79 L 149.44 101.76 L 149.47 101.73 L 149.48 101.69 L 149.47 101.66 L 149.44 101.63 L 149.39 101.60 L 149.32 101.57 L 149.24 101.54 L 149.14 101.50 L 149.03 101.47 L 148.92 101.44 L 148.80 101.41 L 148.68 101.38 L 148.57 101.35 L 148.46 101.31 L 148.36 101.28 L 148.28 101.25 L 148.21 101.22 L 148.16 101.19 L 148.13 101.16 L 148.12 101.12 L 148.13 101.09 L 148.16 101.06 L 148.21 101.03 L 148.28 101.00 L 148.36 100.97 L 148.46 100.94 L 148.57 100.90 L 148.68 100.87 L 148.80 100.84 L 148.92 100.81 L 149.03 100.78 L 149.14 100.75 L 149.24 100.71 L 149.32 100.68 L 149.39 100.65 L 149.44 100.62 L 149.47 100.59 L 149.48 100.56 L 149.47 100.52 L 149.44 100.49 L 149.39 100.46 L 149.32 100.43 L 149.24 100.40 L 149.14 100.37 L 149.03 100.34 L 148.92 100.30 L 148.80 100.27 L 148.68 100.24 L 148.57 100.21 L 148.46 100.18 L 148.36 100.15 L 148.28 100.11 L 148.21 100.08 L 148.16 100.05 L 148.13 100.02 L 148.12 99.99 A 2.38 2.38 0 0 1 152.88 99.99 Z" fill="#1f7a44" fill-rule="evenodd"/></g><g transform="rotate(0.0 154.0 122.9)"><path d="M 161.00 119.27 L 160.97 119.37 L 160.88 119.47 L 160.73 119.57 L 160.53 119.67 L 160.29 119.77 L 160.00 119.87 L 159.68 119.97 L 159.35 120.07 L 159.00 120.17 L 158.65 120.27 L 158.32 120.37 L 158.00 120.47 L 157.71 120.57 L 157.47 120.67 L 157.27 120.77 L 157.12 120.87 L 157.03 120.97 L 157.00 121.07 L 157.03 121.17 L 157.12 121.27 L 157.27 121.37 L 157.47 121.47 L 157.71 121.57 L 158.00 121.67 L 158.32 121.77 L 158.65 121.87 L 159.00 121.97 L 159.35 122.07 L 159.68 122.17 L 160.00 122.27 L 160.29 122.37 L 160.53 122.47 L 160.73 122.57 L 160.88 122.67 L 160.97 122.77 L 161.00 122.88 L 160.97 122.98 L 160.88 123.08 L 160.73 123.18 L 160.53 123.28 L 160.29 123.38 L 160.00 123.48 L 159.68 123.58 L 159.35 123.68 L 159.00 123.78 L 158.65 123.88 L 158.32 123.98 L 158.00 124.08 L 157.71 124.18 L 157.47 124.28 L 157.27 124.38 L 157.12 124.48 L 157.03 124.58 L 157.00 124.68 L 157.03 124.78 L 157.12 124.88 L 157.27 124.98 L 157.47 125.08 L 157.71 125.18 L 158.00 125.28 L 158.32 125.38 L 158.65 125.48 L 159.00 125.58 L 159.35 125.68 L 159.68 125.78 L 160.00 125.88 L 160.29 125.98 L 160.53 126.08 L 160.73 126.18 L 160.88 126.28 L 160.97 126.38 L 161.00 126.48 A 7.00 7.00 0 0 1 147.00 126.48 L 147.00 126.48 L 147.03 126.38 L 147.12 126.28 L 147.27 126.18 L 147.47 126.08 L 147.71 125.98 L 148.00 125.88 L 148.32 125.78 L 148.65 125.68 L 149.00 125.58 L 149.35 125.48 L 149.68 125.38 L 150.00 125.28 L 150.29 125.18 L 150.53 125.08 L 150.73 124.98 L 150.88 124.88 L 150.97 124.78 L 151.00 124.68 L 150.97 124.58 L 150.88 124.48 L 150.73 124.38 L 150.53 124.28 L 150.29 124.18 L 150.00 124.08 L 149.68 123.98 L 149.35 123.88 L 149.00 123.78 L 148.65 123.68 L 148.32 123.58 L 148.00 123.48 L 147.71 123.38 L 147.47 123.28 L 147.27 123.18 L 147.12 123.08 L 147.03 122.98 L 147.00 122.88 L 147.03 122.77 L 147.12 122.67 L 147.27 122.57 L 147.47 122.47 L 147.71 122.37 L 148.00 122.27 L 148.32 122.17 L 148.65 122.07 L 149.00 121.97 L 149.35 121.87 L 149.68 121.77 L 150.00 121.67 L 150.29 121.57 L 150.53 121.47 L 150.73 121.37 L 150.88 121.27 L 150.97 121.17 L 151.00 121.07 L 150.97 120.97 L 150.88 120.87 L 150.73 120.77 L 150.53 120.67 L 150.29 120.57 L 150.00 120.47 L 149.68 120.37 L 149.35 120.27 L 149.00 120.17 L 148.65 120.07 L 148.32 119.97 L 148.00 119.87 L 147.71 119.77 L 147.47 119.67 L 147.27 119.57 L 147.12 119.47 L 147.03 119.37 L 147.00 119.27 A 7.00 7.00 0 0 1 161.00 119.27 Z M 156.38 119.49 L 156.37 119.58 L 156.34 119.67 L 156.29 119.77 L 156.22 119.86 L 156.14 119.96 L 156.04 120.05 L 155.93 120.15 L 155.82 120.24 L 155.70 120.33 L 155.58 120.43 L 155.47 120.52 L 155.36 120.62 L 155.26 120.71 L 155.18 120.80 L 155.11 120.90 L 155.06 120.99 L 155.03 121.09 L 155.02 121.18 L 155.03 121.27 L 155.06 121.37 L 155.11 121.46 L 155.18 121.56 L 155.26 121.65 L 155.36 121.75 L 155.47 121.84 L 155.58 121.93 L 155.70 122.03 L 155.82 122.12 L 155.93 122.22 L 156.04 122.31 L 156.14 122.40 L 156.22 122.50 L 156.29 122.59 L 156.34 122.69 L 156.37 122.78 L 156.38 122.88 L 156.37 122.97 L 156.34 123.06 L 156.29 123.16 L 156.22 123.25 L 156.14 123.35 L 156.04 123.44 L 155.93 123.53 L 155.82 123.63 L 155.70 123.72 L 155.58 123.82 L 155.47 123.91 L 155.36 124.00 L 155.26 124.10 L 155.18 124.19 L 155.11 124.29 L 155.06 124.38 L 155.03 124.48 L 155.02 124.57 L 155.03 124.66 L 155.06 124.76 L 155.11 124.85 L 155.18 124.95 L 155.26 125.04 L 155.36 125.13 L 155.47 125.23 L 155.58 125.32 L 155.70 125.42 L 155.82 125.51 L 155.93 125.60 L 156.04 125.70 L 156.14 125.79 L 156.22 125.89 L 156.29 125.98 L 156.34 126.08 L 156.37 126.17 L 156.38 126.26 A 2.38 2.38 0 0 1 151.62 126.26 L 151.62 126.26 L 151.63 126.17 L 151.66 126.08 L 151.71 125.98 L 151.78 125.89 L 151.86 125.79 L 151.96 125.70 L 152.07 125.60 L 152.18 125.51 L 152.30 125.42 L 152.42 125.32 L 152.53 125.23 L 152.64 125.13 L 152.74 125.04 L 152.82 124.95 L 152.89 124.85 L 152.94 124.76 L 152.97 124.66 L 152.98 124.57 L 152.97 124.48 L 152.94 124.38 L 152.89 124.29 L 152.82 124.19 L 152.74 124.10 L 152.64 124.00 L 152.53 123.91 L 152.42 123.82 L 152.30 123.72 L 152.18 123.63 L 152.07 123.53 L 151.96 123.44 L 151.86 123.35 L 151.78 123.25 L 151.71 123.16 L 151.66 123.06 L 151.63 122.97 L 151.62 122.88 L 151.63 122.78 L 151.66 122.69 L 151.71 122.59 L 151.78 122.50 L 151.86 122.40 L 151.96 122.31 L 152.07 122.22 L 152.18 122.12 L 152.30 122.03 L 152.42 121.93 L 152.53 121.84 L 152.64 121.75 L 152.74 121.65 L 152.82 121.56 L 152.89 121.46 L 152.94 121.37 L 152.97 121.27 L 152.98 121.18 L 152.97 121.09 L 152.94 120.99 L 152.89 120.90 L 152.82 120.80 L 152.74 120.71 L 152.64 120.62 L 152.53 120.52 L 152.42 120.43 L 152.30 120.33 L 152.18 120.24 L 152.07 120.15 L 151.96 120.05 L 151.86 119.96 L 151.78 119.86 L 151.71 119.77 L 151.66 119.67 L 151.63 119.58 L 151.62 119.49 A 2.38 2.38 0 0 1 156.38 119.49 Z" fill="#1f7a44" fill-rule="evenodd"/></g><g transform="rotate(0.0 154.0 148.1)"><path d="M 161.00 144.52 L 160.97 144.62 L 160.88 144.72 L 160.73 144.82 L 160.53 144.92 L 160.29 145.02 L 160.00 145.12 L 159.68 145.22 L 159.35 145.32 L 159.00 145.42 L 158.65 145.52 L 158.32 145.62 L 158.00 145.72 L 157.71 145.82 L 157.47 145.92 L 157.27 146.02 L 157.12 146.12 L 157.03 146.22 L 157.00 146.32 L 157.03 146.42 L 157.12 146.52 L 157.27 146.62 L 157.47 146.72 L 157.71 146.82 L 158.00 146.92 L 158.32 147.02 L 158.65 147.12 L 159.00 147.22 L 159.35 147.32 L 159.68 147.42 L 160.00 147.52 L 160.29 147.62 L 160.53 147.72 L 160.73 147.82 L 160.88 147.92 L 160.97 148.02 L 161.00 148.12 L 160.97 148.23 L 160.88 148.33 L 160.73 148.43 L 160.53 148.53 L 160.29 148.63 L 160.00 148.73 L 159.68 148.83 L 159.35 148.93 L 159.00 149.03 L 158.65 149.13 L 158.32 149.23 L 158.00 149.33 L 157.71 149.43 L 157.47 149.53 L 157.27 149.63 L 157.12 149.73 L 157.03 149.83 L 157.00 149.93 L 157.03 150.03 L 157.12 150.13 L 157.27 150.23 L 157.47 150.33 L 157.71 150.43 L 158.00 150.53 L 158.32 150.63 L 158.65 150.73 L 159.00 150.83 L 159.35 150.93 L 159.68 151.03 L 160.00 151.13 L 160.29 151.23 L 160.53 151.33 L 160.73 151.43 L 160.88 151.53 L 160.97 151.63 L 161.00 151.73 A 7.00 7.00 0 0 1 147.00 151.73 L 147.00 151.73 L 147.03 151.63 L 147.12 151.53 L 147.27 151.43 L 147.47 151.33 L 147.71 151.23 L 148.00 151.13 L 148.32 151.03 L 148.65 150.93 L 149.00 150.83 L 149.35 150.73 L 149.68 150.63 L 150.00 150.53 L 150.29 150.43 L 150.53 150.33 L 150.73 150.23 L 150.88 150.13 L 150.97 150.03 L 151.00 149.93 L 150.97 149.83 L 150.88 149.73 L 150.73 149.63 L 150.53 149.53 L 150.29 149.43 L 150.00 149.33 L 149.68 149.23 L 149.35 149.13 L 149.00 149.03 L 148.65 148.93 L 148.32 148.83 L 148.00 148.73 L 147.71 148.63 L 147.47 148.53 L 147.27 148.43 L 147.12 148.33 L 147.03 148.23 L 147.00 148.12 L 147.03 148.02 L 147.12 147.92 L 147.27 147.82 L 147.47 147.72 L 147.71 147.62 L 148.00 147.52 L 148.32 147.42 L 148.65 147.32 L 149.00 147.22 L 149.35 147.12 L 149.68 147.02 L 150.00 146.92 L 150.29 146.82 L 150.53 146.72 L 150.73 146.62 L 150.88 146.52 L 150.97 146.42 L 151.00 146.32 L 150.97 146.22 L 150.88 146.12 L 150.73 146.02 L 150.53 145.92 L 150.29 145.82 L 150.00 145.72 L 149.68 145.62 L 149.35 145.52 L 149.00 145.42 L 148.65 145.32 L 148.32 145.22 L 148.00 145.12 L 147.71 145.02 L 147.47 144.92 L 147.27 144.82 L 147.12 144.72 L 147.03 144.62 L 147.00 144.52 A 7.00 7.00 0 0 1 161.00 144.52 Z M 156.38 144.74 L 156.37 144.83 L 156.34 144.92 L 156.29 145.02 L 156.22 145.11 L 156.14 145.21 L 156.04 145.30 L 155.93 145.40 L 155.82 145.49 L 155.70 145.58 L 155.58 145.68 L 155.47 145.77 L 155.36 145.87 L 155.26 145.96 L 155.18 146.05 L 155.11 146.15 L 155.06 146.24 L 155.03 146.34 L 155.02 146.43 L 155.03 146.52 L 155.06 146.62 L 155.11 146.71 L 155.18 146.81 L 155.26 146.90 L 155.36 147.00 L 155.47 147.09 L 155.58 147.18 L 155.70 147.28 L 155.82 147.37 L 155.93 147.47 L 156.04 147.56 L 156.14 147.65 L 156.22 147.75 L 156.29 147.84 L 156.34 147.94 L 156.37 148.03 L 156.38 148.12 L 156.37 148.22 L 156.34 148.31 L 156.29 148.41 L 156.22 148.50 L 156.14 148.60 L 156.04 148.69 L 155.93 148.78 L 155.82 148.88 L 155.70 148.97 L 155.58 149.07 L 155.47 149.16 L 155.36 149.25 L 155.26 149.35 L 155.18 149.44 L 155.11 149.54 L 155.06 149.63 L 155.03 149.73 L 155.02 149.82 L 155.03 149.91 L 155.06 150.01 L 155.11 150.10 L 155.18 150.20 L 155.26 150.29 L 155.36 150.38 L 155.47 150.48 L 155.58 150.57 L 155.70 150.67 L 155.82 150.76 L 155.93 150.85 L 156.04 150.95 L 156.14 151.04 L 156.22 151.14 L 156.29 151.23 L 156.34 151.33 L 156.37 151.42 L 156.38 151.51 A 2.38 2.38 0 0 1 151.62 151.51 L 151.62 151.51 L 151.63 151.42 L 151.66 151.33 L 151.71 151.23 L 151.78 151.14 L 151.86 151.04 L 151.96 150.95 L 152.07 150.85 L 152.18 150.76 L 152.30 150.67 L 152.42 150.57 L 152.53 150.48 L 152.64 150.38 L 152.74 150.29 L 152.82 150.20 L 152.89 150.10 L 152.94 150.01 L 152.97 149.91 L 152.98 149.82 L 152.97 149.73 L 152.94 149.63 L 152.89 149.54 L 152.82 149.44 L 152.74 149.35 L 152.64 149.25 L 152.53 149.16 L 152.42 149.07 L 152.30 148.97 L 152.18 148.88 L 152.07 148.78 L 151.96 148.69 L 151.86 148.60 L 151.78 148.50 L 151.71 148.41 L 151.66 148.31 L 151.63 148.22 L 151.62 148.12 L 151.63 148.03 L 151.66 147.94 L 151.71 147.84 L 151.78 147.75 L 151.86 147.65 L 151.96 147.56 L 152.07 147.47 L 152.18 147.37 L 152.30 147.28 L 152.42 147.18 L 152.53 147.09 L 152.64 147.00 L 152.74 146.90 L 152.82 146.81 L 152.89 146.71 L 152.94 146.62 L 152.97 146.52 L 152.98 146.43 L 152.97 146.34 L 152.94 146.24 L 152.89 146.15 L 152.82 146.05 L 152.74 145.96 L 152.64 145.87 L 152.53 145.77 L 152.42 145.68 L 152.30 145.58 L 152.18 145.49 L 152.07 145.40 L 151.96 145.30 L 151.86 145.21 L 151.78 145.11 L 151.71 145.02 L 151.66 144.92 L 151.63 144.83 L 151.62 144.74 A 2.38 2.38 0 0 1 156.38 144.74 Z" fill="#1f7a44" fill-rule="evenodd"/></g><g transform="rotate(0.0 154.0 173.4)"><path d="M 161.00 169.77 L 160.97 169.87 L 160.88 169.97 L 160.73 170.07 L 160.53 170.17 L 160.29 170.27 L 160.00 170.37 L 159.68 170.47 L 159.35 170.57 L 159.00 170.67 L 158.65 170.77 L 158.32 170.87 L 158.00 170.97 L 157.71 171.07 L 157.47 171.17 L 157.27 171.27 L 157.12 171.37 L 157.03 171.47 L 157.00 171.57 L 157.03 171.67 L 157.12 171.77 L 157.27 171.87 L 157.47 171.97 L 157.71 172.07 L 158.00 172.17 L 158.32 172.27 L 158.65 172.37 L 159.00 172.47 L 159.35 172.57 L 159.68 172.67 L 160.00 172.77 L 160.29 172.87 L 160.53 172.97 L 160.73 173.07 L 160.88 173.17 L 160.97 173.27 L 161.00 173.38 L 160.97 173.48 L 160.88 173.58 L 160.73 173.68 L 160.53 173.78 L 160.29 173.88 L 160.00 173.98 L 159.68 174.08 L 159.35 174.18 L 159.00 174.28 L 158.65 174.38 L 158.32 174.48 L 158.00 174.58 L 157.71 174.68 L 157.47 174.78 L 157.27 174.88 L 157.12 174.98 L 157.03 175.08 L 157.00 175.18 L 157.03 175.28 L 157.12 175.38 L 157.27 175.48 L 157.47 175.58 L 157.71 175.68 L 158.00 175.78 L 158.32 175.88 L 158.65 175.98 L 159.00 176.08 L 159.35 176.18 L 159.68 176.28 L 160.00 176.38 L 160.29 176.48 L 160.53 176.58 L 160.73 176.68 L 160.88 176.78 L 160.97 176.88 L 161.00 176.98 A 7.00 7.00 0 0 1 147.00 176.98 L 147.00 176.98 L 147.03 176.88 L 147.12 176.78 L 147.27 176.68 L 147.47 176.58 L 147.71 176.48 L 148.00 176.38 L 148.32 176.28 L 148.65 176.18 L 149.00 176.08 L 149.35 175.98 L 149.68 175.88 L 150.00 175.78 L 150.29 175.68 L 150.53 175.58 L 150.73 175.48 L 150.88 175.38 L 150.97 175.28 L 151.00 175.18 L 150.97 175.08 L 150.88 174.98 L 150.73 174.88 L 150.53 174.78 L 150.29 174.68 L 150.00 174.58 L 149.68 174.48 L 149.35 174.38 L 149.00 174.28 L 148.65 174.18 L 148.32 174.08 L 148.00 173.98 L 147.71 173.88 L 147.47 173.78 L 147.27 173.68 L 147.12 173.58 L 147.03 173.48 L 147.00 173.38 L 147.03 173.27 L 147.12 173.17 L 147.27 173.07 L 147.47 172.97 L 147.71 172.87 L 148.00 172.77 L 148.32 172.67 L 148.65 172.57 L 149.00 172.47 L 149.35 172.37 L 149.68 172.27 L 150.00 172.17 L 150.29 172.07 L 150.53 171.97 L 150.73 171.87 L 150.88 171.77 L 150.97 171.67 L 151.00 171.57 L 150.97 171.47 L 150.88 171.37 L 150.73 171.27 L 150.53 171.17 L 150.29 171.07 L 150.00 170.97 L 149.68 170.87 L 149.35 170.77 L 149.00 170.67 L 148.65 170.57 L 148.32 170.47 L 148.00 170.37 L 147.71 170.27 L 147.47 170.17 L 147.27 170.07 L 147.12 169.97 L 147.03 169.87 L 147.00 169.77 A 7.00 7.00 0 0 1 161.00 169.77 Z M 156.38 169.99 L 156.37 170.08 L 156.34 170.17 L 156.29 170.27 L 156.22 170.36 L 156.14 170.46 L 156.04 170.55 L 155.93 170.65 L 155.82 170.74 L 155.70 170.83 L 155.58 170.93 L 155.47 171.02 L 155.36 171.12 L 155.26 171.21 L 155.18 171.30 L 155.11 171.40 L 155.06 171.49 L 155.03 171.59 L 155.02 171.68 L 155.03 171.77 L 155.06 171.87 L 155.11 171.96 L 155.18 172.06 L 155.26 172.15 L 155.36 172.25 L 155.47 172.34 L 155.58 172.43 L 155.70 172.53 L 155.82 172.62 L 155.93 172.72 L 156.04 172.81 L 156.14 172.90 L 156.22 173.00 L 156.29 173.09 L 156.34 173.19 L 156.37 173.28 L 156.38 173.38 L 156.37 173.47 L 156.34 173.56 L 156.29 173.66 L 156.22 173.75 L 156.14 173.85 L 156.04 173.94 L 155.93 174.03 L 155.82 174.13 L 155.70 174.22 L 155.58 174.32 L 155.47 174.41 L 155.36 174.50 L 155.26 174.60 L 155.18 174.69 L 155.11 174.79 L 155.06 174.88 L 155.03 174.98 L 155.02 175.07 L 155.03 175.16 L 155.06 175.26 L 155.11 175.35 L 155.18 175.45 L 155.26 175.54 L 155.36 175.63 L 155.47 175.73 L 155.58 175.82 L 155.70 175.92 L 155.82 176.01 L 155.93 176.10 L 156.04 176.20 L 156.14 176.29 L 156.22 176.39 L 156.29 176.48 L 156.34 176.58 L 156.37 176.67 L 156.38 176.76 A 2.38 2.38 0 0 1 151.62 176.76 L 151.62 176.76 L 151.63 176.67 L 151.66 176.58 L 151.71 176.48 L 151.78 176.39 L 151.86 176.29 L 151.96 176.20 L 152.07 176.10 L 152.18 176.01 L 152.30 175.92 L 152.42 175.82 L 152.53 175.73 L 152.64 175.63 L 152.74 175.54 L 152.82 175.45 L 152.89 175.35 L 152.94 175.26 L 152.97 175.16 L 152.98 175.07 L 152.97 174.98 L 152.94 174.88 L 152.89 174.79 L 152.82 174.69 L 152.74 174.60 L 152.64 174.50 L 152.53 174.41 L 152.42 174.32 L 152.30 174.22 L 152.18 174.13 L 152.07 174.03 L 151.96 173.94 L 151.86 173.85 L 151.78 173.75 L 151.71 173.66 L 151.66 173.56 L 151.63 173.47 L 151.62 173.38 L 151.63 173.28 L 151.66 173.19 L 151.71 173.09 L 151.78 173.00 L 151.86 172.90 L 151.96 172.81 L 152.07 172.72 L 152.18 172.62 L 152.30 172.53 L 152.42 172.43 L 152.53 172.34 L 152.64 172.25 L 152.74 172.15 L 152.82 172.06 L 152.89 171.96 L 152.94 171.87 L 152.97 171.77 L 152.98 171.68 L 152.97 171.59 L 152.94 171.49 L 152.89 171.40 L 152.82 171.30 L 152.74 171.21 L 152.64 171.12 L 152.53 171.02 L 152.42 170.93 L 152.30 170.83 L 152.18 170.74 L 152.07 170.65 L 151.96 170.55 L 151.86 170.46 L 151.78 170.36 L 151.71 170.27 L 151.66 170.17 L 151.63 170.08 L 151.62 169.99 A 2.38 2.38 0 0 1 156.38 169.99 Z" fill="#1f7a44" fill-rule="evenodd"/></g><g transform="rotate(90.0 141.4 186.0)"><path d="M 148.38 182.40 L 148.34 182.50 L 148.25 182.60 L 148.11 182.70 L 147.91 182.80 L 147.66 182.90 L 147.38 183.00 L 147.06 183.10 L 146.72 183.20 L 146.38 183.30 L 146.03 183.40 L 145.69 183.50 L 145.38 183.60 L 145.09 183.70 L 144.84 183.80 L 144.64 183.90 L 144.50 184.00 L 144.41 184.10 L 144.38 184.20 L 144.41 184.30 L 144.50 184.40 L 144.64 184.50 L 144.84 184.60 L 145.09 184.70 L 145.38 184.80 L 145.69 184.90 L 146.03 185.00 L 146.38 185.10 L 146.72 185.20 L 147.06 185.30 L 147.38 185.40 L 147.66 185.50 L 147.91 185.60 L 148.11 185.70 L 148.25 185.80 L 148.34 185.90 L 148.38 186.00 L 148.34 186.10 L 148.25 186.20 L 148.11 186.30 L 147.91 186.40 L 147.66 186.50 L 147.38 186.60 L 147.06 186.70 L 146.72 186.80 L 146.38 186.90 L 146.03 187.00 L 145.69 187.10 L 145.38 187.20 L 145.09 187.30 L 144.84 187.40 L 144.64 187.50 L 144.50 187.60 L 144.41 187.70 L 144.38 187.80 L 144.41 187.90 L 144.50 188.00 L 144.64 188.10 L 144.84 188.20 L 145.09 188.30 L 145.38 188.40 L 145.69 188.50 L 146.03 188.60 L 146.38 188.70 L 146.72 188.80 L 147.06 188.90 L 147.38 189.00 L 147.66 189.10 L 147.91 189.20 L 148.11 189.30 L 148.25 189.40 L 148.34 189.50 L 148.38 189.61 A 7.00 7.00 0 0 1 134.38 189.60 L 134.38 189.61 L 134.41 189.50 L 134.50 189.40 L 134.64 189.30 L 134.84 189.20 L 135.09 189.10 L 135.38 189.00 L 135.69 188.90 L 136.03 188.80 L 136.38 188.70 L 136.72 188.60 L 137.06 188.50 L 137.38 188.40 L 137.66 188.30 L 137.91 188.20 L 138.11 188.10 L 138.25 188.00 L 138.34 187.90 L 138.38 187.80 L 138.34 187.70 L 138.25 187.60 L 138.11 187.50 L 137.91 187.40 L 137.66 187.30 L 137.38 187.20 L 137.06 187.10 L 136.72 187.00 L 136.38 186.90 L 136.03 186.80 L 135.69 186.70 L 135.38 186.60 L 135.09 186.50 L 134.84 186.40 L 134.64 186.30 L 134.50 186.20 L 134.41 186.10 L 134.38 186.00 L 134.41 185.90 L 134.50 185.80 L 134.64 185.70 L 134.84 185.60 L 135.09 185.50 L 135.38 185.40 L 135.69 185.30 L 136.03 185.20 L 136.38 185.10 L 136.72 185.00 L 137.06 184.90 L 137.38 184.80 L 137.66 184.70 L 137.91 184.60 L 138.11 184.50 L 138.25 184.40 L 138.34 184.30 L 138.38 184.20 L 138.34 184.10 L 138.25 184.00 L 138.11 183.90 L 137.91 183.80 L 137.66 183.70 L 137.38 183.60 L 137.06 183.50 L 136.72 183.40 L 136.38 183.30 L 136.03 183.20 L 135.69 183.10 L 135.38 183.00 L 135.09 182.90 L 134.84 182.80 L 134.64 182.70 L 134.50 182.60 L 134.41 182.50 L 134.38 182.40 A 7.00 7.00 0 0 1 148.38 182.40 Z M 143.75 182.61 L 143.74 182.71 L 143.71 182.80 L 143.66 182.89 L 143.60 182.99 L 143.51 183.08 L 143.41 183.18 L 143.31 183.27 L 143.19 183.36 L 143.07 183.46 L 142.96 183.55 L 142.84 183.65 L 142.74 183.74 L 142.64 183.83 L 142.55 183.93 L 142.49 184.02 L 142.44 184.12 L 142.41 184.21 L 142.40 184.31 L 142.41 184.40 L 142.44 184.49 L 142.49 184.59 L 142.55 184.68 L 142.64 184.78 L 142.74 184.87 L 142.84 184.96 L 142.96 185.06 L 143.07 185.15 L 143.19 185.25 L 143.31 185.34 L 143.41 185.44 L 143.51 185.53 L 143.60 185.62 L 143.66 185.72 L 143.71 185.81 L 143.74 185.91 L 143.75 186.00 L 143.74 186.09 L 143.71 186.19 L 143.66 186.28 L 143.60 186.38 L 143.51 186.47 L 143.41 186.56 L 143.31 186.66 L 143.19 186.75 L 143.07 186.85 L 142.96 186.94 L 142.84 187.04 L 142.74 187.13 L 142.64 187.22 L 142.55 187.32 L 142.49 187.41 L 142.44 187.51 L 142.41 187.60 L 142.40 187.69 L 142.41 187.79 L 142.44 187.88 L 142.49 187.98 L 142.55 188.07 L 142.64 188.17 L 142.74 188.26 L 142.84 188.35 L 142.96 188.45 L 143.07 188.54 L 143.19 188.64 L 143.31 188.73 L 143.41 188.82 L 143.51 188.92 L 143.60 189.01 L 143.66 189.11 L 143.71 189.20 L 143.74 189.29 L 143.75 189.39 A 2.38 2.38 0 0 1 139.00 189.39 L 139.00 189.39 L 139.01 189.29 L 139.04 189.20 L 139.09 189.11 L 139.15 189.01 L 139.24 188.92 L 139.34 188.82 L 139.44 188.73 L 139.56 188.64 L 139.68 188.54 L 139.79 188.45 L 139.91 188.35 L 140.01 188.26 L 140.11 188.17 L 140.20 188.07 L 140.26 187.98 L 140.31 187.88 L 140.34 187.79 L 140.35 187.69 L 140.34 187.60 L 140.31 187.51 L 140.26 187.41 L 140.20 187.32 L 140.11 187.22 L 140.01 187.13 L 139.91 187.04 L 139.79 186.94 L 139.68 186.85 L 139.56 186.75 L 139.44 186.66 L 139.34 186.56 L 139.24 186.47 L 139.15 186.38 L 139.09 186.28 L 139.04 186.19 L 139.01 186.09 L 139.00 186.00 L 139.01 185.91 L 139.04 185.81 L 139.09 185.72 L 139.15 185.62 L 139.24 185.53 L 139.34 185.44 L 139.44 185.34 L 139.56 185.25 L 139.68 185.15 L 139.79 185.06 L 139.91 184.96 L 140.01 184.87 L 140.11 184.78 L 140.20 184.68 L 140.26 184.59 L 140.31 184.49 L 140.34 184.40 L 140.35 184.31 L 140.34 184.21 L 140.31 184.12 L 140.26 184.02 L 140.20 183.93 L 140.11 183.83 L 140.01 183.74 L 139.91 183.65 L 139.79 183.55 L 139.68 183.46 L 139.56 183.36 L 139.44 183.27 L 139.34 183.18 L 139.24 183.08 L 139.15 182.99 L 139.09 182.89 L 139.04 182.80 L 139.01 182.71 L 139.00 182.61 A 2.38 2.38 0 0 1 143.75 182.61 Z" fill="#1f7a44" fill-rule="evenodd"/></g><g transform="rotate(90.0 116.1 186.0)"><path d="M 123.12 182.40 L 123.09 182.50 L 123.00 182.60 L 122.86 182.70 L 122.66 182.80 L 122.41 182.90 L 122.12 183.00 L 121.81 183.10 L 121.47 183.20 L 121.12 183.30 L 120.78 183.40 L 120.44 183.50 L 120.12 183.60 L 119.84 183.70 L 119.59 183.80 L 119.39 183.90 L 119.25 184.00 L 119.16 184.10 L 119.12 184.20 L 119.16 184.30 L 119.25 184.40 L 119.39 184.50 L 119.59 184.60 L 119.84 184.70 L 120.12 184.80 L 120.44 184.90 L 120.78 185.00 L 121.12 185.10 L 121.47 185.20 L 121.81 185.30 L 122.12 185.40 L 122.41 185.50 L 122.66 185.60 L 122.86 185.70 L 123.00 185.80 L 123.09 185.90 L 123.12 186.00 L 123.09 186.10 L 123.00 186.20 L 122.86 186.30 L 122.66 186.40 L 122.41 186.50 L 122.12 186.60 L 121.81 186.70 L 121.47 186.80 L 121.12 186.90 L 120.78 187.00 L 120.44 187.10 L 120.12 187.20 L 119.84 187.30 L 119.59 187.40 L 119.39 187.50 L 119.25 187.60 L 119.16 187.70 L 119.12 187.80 L 119.16 187.90 L 119.25 188.00 L 119.39 188.10 L 119.59 188.20 L 119.84 188.30 L 120.12 188.40 L 120.44 188.50 L 120.78 188.60 L 121.12 188.70 L 121.47 188.80 L 121.81 188.90 L 122.12 189.00 L 122.41 189.10 L 122.66 189.20 L 122.86 189.30 L 123.00 189.40 L 123.09 189.50 L 123.12 189.61 A 7.00 7.00 0 0 1 109.12 189.60 L 109.12 189.61 L 109.16 189.50 L 109.25 189.40 L 109.39 189.30 L 109.59 189.20 L 109.84 189.10 L 110.12 189.00 L 110.44 188.90 L 110.78 188.80 L 111.12 188.70 L 111.47 188.60 L 111.81 188.50 L 112.12 188.40 L 112.41 188.30 L 112.66 188.20 L 112.86 188.10 L 113.00 188.00 L 113.09 187.90 L 113.12 187.80 L 113.09 187.70 L 113.00 187.60 L 112.86 187.50 L 112.66 187.40 L 112.41 187.30 L 112.12 187.20 L 111.81 187.10 L 111.47 187.00 L 111.12 186.90 L 110.78 186.80 L 110.44 186.70 L 110.12 186.60 L 109.84 186.50 L 109.59 186.40 L 109.39 186.30 L 109.25 186.20 L 109.16 186.10 L 109.12 186.00 L 109.16 185.90 L 109.25 185.80 L 109.39 185.70 L 109.59 185.60 L 109.84 185.50 L 110.12 185.40 L 110.44 185.30 L 110.78 185.20 L 111.12 185.10 L 111.47 185.00 L 111.81 184.90 L 112.12 184.80 L 112.41 184.70 L 112.66 184.60 L 112.86 184.50 L 113.00 184.40 L 113.09 184.30 L 113.12 184.20 L 113.09 184.10 L 113.00 184.00 L 112.86 183.90 L 112.66 183.80 L 112.41 183.70 L 112.12 183.60 L 111.81 183.50 L 111.47 183.40 L 111.12 183.30 L 110.78 183.20 L 110.44 183.10 L 110.12 183.00 L 109.84 182.90 L 109.59 182.80 L 109.39 182.70 L 109.25 182.60 L 109.16 182.50 L 109.12 182.40 A 7.00 7.00 0 0 1 123.12 182.40 Z M 118.50 182.61 L 118.49 182.71 L 118.46 182.80 L 118.41 182.89 L 118.35 182.99 L 118.26 183.08 L 118.17 183.18 L 118.06 183.27 L 117.94 183.36 L 117.83 183.46 L 117.71 183.55 L 117.59 183.65 L 117.48 183.74 L 117.39 183.83 L 117.30 183.93 L 117.24 184.02 L 117.19 184.12 L 117.16 184.21 L 117.14 184.31 L 117.16 184.40 L 117.19 184.49 L 117.24 184.59 L 117.30 184.68 L 117.39 184.78 L 117.48 184.87 L 117.59 184.96 L 117.71 185.06 L 117.83 185.15 L 117.94 185.25 L 118.06 185.34 L 118.17 185.44 L 118.26 185.53 L 118.35 185.62 L 118.41 185.72 L 118.46 185.81 L 118.49 185.91 L 118.50 186.00 L 118.49 186.09 L 118.46 186.19 L 118.41 186.28 L 118.35 186.38 L 118.26 186.47 L 118.17 186.56 L 118.06 186.66 L 117.94 186.75 L 117.83 186.85 L 117.71 186.94 L 117.59 187.04 L 117.48 187.13 L 117.39 187.22 L 117.30 187.32 L 117.24 187.41 L 117.19 187.51 L 117.16 187.60 L 117.14 187.69 L 117.16 187.79 L 117.19 187.88 L 117.24 187.98 L 117.30 188.07 L 117.39 188.17 L 117.48 188.26 L 117.59 188.35 L 117.71 188.45 L 117.83 188.54 L 117.94 188.64 L 118.06 188.73 L 118.17 188.82 L 118.26 188.92 L 118.35 189.01 L 118.41 189.11 L 118.46 189.20 L 118.49 189.29 L 118.50 189.39 A 2.38 2.38 0 0 1 113.75 189.39 L 113.75 189.39 L 113.76 189.29 L 113.79 189.20 L 113.84 189.11 L 113.90 189.01 L 113.99 188.92 L 114.08 188.82 L 114.19 188.73 L 114.31 188.64 L 114.42 188.54 L 114.54 188.45 L 114.66 188.35 L 114.77 188.26 L 114.86 188.17 L 114.95 188.07 L 115.01 187.98 L 115.06 187.88 L 115.09 187.79 L 115.11 187.69 L 115.09 187.60 L 115.06 187.51 L 115.01 187.41 L 114.95 187.32 L 114.86 187.22 L 114.77 187.13 L 114.66 187.04 L 114.54 186.94 L 114.42 186.85 L 114.31 186.75 L 114.19 186.66 L 114.08 186.56 L 113.99 186.47 L 113.90 186.38 L 113.84 186.28 L 113.79 186.19 L 113.76 186.09 L 113.75 186.00 L 113.76 185.91 L 113.79 185.81 L 113.84 185.72 L 113.90 185.62 L 113.99 185.53 L 114.08 185.44 L 114.19 185.34 L 114.31 185.25 L 114.42 185.15 L 114.54 185.06 L 114.66 184.96 L 114.77 184.87 L 114.86 184.78 L 114.95 184.68 L 115.01 184.59 L 115.06 184.49 L 115.09 184.40 L 115.11 184.31 L 115.09 184.21 L 115.06 184.12 L 115.01 184.02 L 114.95 183.93 L 114.86 183.83 L 114.77 183.74 L 114.66 183.65 L 114.54 183.55 L 114.42 183.46 L 114.31 183.36 L 114.19 183.27 L 114.08 183.18 L 113.99 183.08 L 113.90 182.99 L 113.84 182.89 L 113.79 182.80 L 113.76 182.71 L 113.75 182.61 A 2.38 2.38 0 0 1 118.50 182.61 Z" fill="#1f7a44" fill-rule="evenodd"/></g><g transform="rotate(90.0 90.9 186.0)"><path d="M 97.88 182.40 L 97.84 182.50 L 97.75 182.60 L 97.61 182.70 L 97.41 182.80 L 97.16 182.90 L 96.88 183.00 L 96.56 183.10 L 96.22 183.20 L 95.88 183.30 L 95.53 183.40 L 95.19 183.50 L 94.88 183.60 L 94.59 183.70 L 94.34 183.80 L 94.14 183.90 L 94.00 184.00 L 93.91 184.10 L 93.88 184.20 L 93.91 184.30 L 94.00 184.40 L 94.14 184.50 L 94.34 184.60 L 94.59 184.70 L 94.88 184.80 L 95.19 184.90 L 95.53 185.00 L 95.88 185.10 L 96.22 185.20 L 96.56 185.30 L 96.88 185.40 L 97.16 185.50 L 97.41 185.60 L 97.61 185.70 L 97.75 185.80 L 97.84 185.90 L 97.88 186.00 L 97.84 186.10 L 97.75 186.20 L 97.61 186.30 L 97.41 186.40 L 97.16 186.50 L 96.88 186.60 L 96.56 186.70 L 96.22 186.80 L 95.88 186.90 L 95.53 187.00 L 95.19 187.10 L 94.88 187.20 L 94.59 187.30 L 94.34 187.40 L 94.14 187.50 L 94.00 187.60 L 93.91 187.70 L 93.88 187.80 L 93.91 187.90 L 94.00 188.00 L 94.14 188.10 L 94.34 188.20 L 94.59 188.30 L 94.88 188.40 L 95.19 188.50 L 95.53 188.60 L 95.88 188.70 L 96.22 188.80 L 96.56 188.90 L 96.88 189.00 L 97.16 189.10 L 97.41 189.20 L 97.61 189.30 L 97.75 189.40 L 97.84 189.50 L 97.88 189.61 A 7.00 7.00 0 0 1 83.88 189.60 L 83.88 189.61 L 83.91 189.50 L 84.00 189.40 L 84.14 189.30 L 84.34 189.20 L 84.59 189.10 L 84.88 189.00 L 85.19 188.90 L 85.53 188.80 L 85.88 188.70 L 86.22 188.60 L 86.56 188.50 L 86.88 188.40 L 87.16 188.30 L 87.41 188.20 L 87.61 188.10 L 87.75 188.00 L 87.84 187.90 L 87.88 187.80 L 87.84 187.70 L 87.75 187.60 L 87.61 187.50 L 87.41 187.40 L 87.16 187.30 L 86.88 187.20 L 86.56 187.10 L 86.22 187.00 L 85.88 186.90 L 85.53 186.80 L 85.19 186.70 L 84.88 186.60 L 84.59 186.50 L 84.34 186.40 L 84.14 186.30 L 84.00 186.20 L 83.91 186.10 L 83.88 186.00 L 83.91 185.90 L 84.00 185.80 L 84.14 185.70 L 84.34 185.60 L 84.59 185.50 L 84.88 185.40 L 85.19 185.30 L 85.53 185.20 L 85.88 185.10 L 86.22 185.00 L 86.56 184.90 L 86.88 184.80 L 87.16 184.70 L 87.41 184.60 L 87.61 184.50 L 87.75 184.40 L 87.84 184.30 L 87.88 184.20 L 87.84 184.10 L 87.75 184.00 L 87.61 183.90 L 87.41 183.80 L 87.16 183.70 L 86.88 183.60 L 86.56 183.50 L 86.22 183.40 L 85.88 183.30 L 85.53 183.20 L 85.19 183.10 L 84.88 183.00 L 84.59 182.90 L 84.34 182.80 L 84.14 182.70 L 84.00 182.60 L 83.91 182.50 L 83.88 182.40 A 7.00 7.00 0 0 1 97.88 182.40 Z M 93.25 182.61 L 93.24 182.71 L 93.21 182.80 L 93.16 182.89 L 93.10 182.99 L 93.01 183.08 L 92.92 183.18 L 92.81 183.27 L 92.69 183.36 L 92.58 183.46 L 92.46 183.55 L 92.34 183.65 L 92.23 183.74 L 92.14 183.83 L 92.05 183.93 L 91.99 184.02 L 91.94 184.12 L 91.91 184.21 L 91.89 184.31 L 91.91 184.40 L 91.94 184.49 L 91.99 184.59 L 92.05 184.68 L 92.14 184.78 L 92.23 184.87 L 92.34 184.96 L 92.46 185.06 L 92.58 185.15 L 92.69 185.25 L 92.81 185.34 L 92.92 185.44 L 93.01 185.53 L 93.10 185.62 L 93.16 185.72 L 93.21 185.81 L 93.24 185.91 L 93.25 186.00 L 93.24 186.09 L 93.21 186.19 L 93.16 186.28 L 93.10 186.38 L 93.01 186.47 L 92.92 186.56 L 92.81 186.66 L 92.69 186.75 L 92.58 186.85 L 92.46 186.94 L 92.34 187.04 L 92.23 187.13 L 92.14 187.22 L 92.05 187.32 L 91.99 187.41 L 91.94 187.51 L 91.91 187.60 L 91.89 187.69 L 91.91 187.79 L 91.94 187.88 L 91.99 187.98 L 92.05 188.07 L 92.14 188.17 L 92.23 188.26 L 92.34 188.35 L 92.46 188.45 L 92.58 188.54 L 92.69 188.64 L 92.81 188.73 L 92.92 188.82 L 93.01 188.92 L 93.10 189.01 L 93.16 189.11 L 93.21 189.20 L 93.24 189.29 L 93.25 189.39 A 2.38 2.38 0 0 1 88.50 189.39 L 88.50 189.39 L 88.51 189.29 L 88.54 189.20 L 88.59 189.11 L 88.65 189.01 L 88.74 188.92 L 88.83 188.82 L 88.94 188.73 L 89.06 188.64 L 89.17 188.54 L 89.29 188.45 L 89.41 188.35 L 89.52 188.26 L 89.61 188.17 L 89.70 188.07 L 89.76 187.98 L 89.81 187.88 L 89.84 187.79 L 89.86 187.69 L 89.84 187.60 L 89.81 187.51 L 89.76 187.41 L 89.70 187.32 L 89.61 187.22 L 89.52 187.13 L 89.41 187.04 L 89.29 186.94 L 89.17 186.85 L 89.06 186.75 L 88.94 186.66 L 88.83 186.56 L 88.74 186.47 L 88.65 186.38 L 88.59 186.28 L 88.54 186.19 L 88.51 186.09 L 88.50 186.00 L 88.51 185.91 L 88.54 185.81 L 88.59 185.72 L 88.65 185.62 L 88.74 185.53 L 88.83 185.44 L 88.94 185.34 L 89.06 185.25 L 89.17 185.15 L 89.29 185.06 L 89.41 184.96 L 89.52 184.87 L 89.61 184.78 L 89.70 184.68 L 89.76 184.59 L 89.81 184.49 L 89.84 184.40 L 89.86 184.31 L 89.84 184.21 L 89.81 184.12 L 89.76 184.02 L 89.70 183.93 L 89.61 183.83 L 89.52 183.74 L 89.41 183.65 L 89.29 183.55 L 89.17 183.46 L 89.06 183.36 L 88.94 183.27 L 88.83 183.18 L 88.74 183.08 L 88.65 182.99 L 88.59 182.89 L 88.54 182.80 L 88.51 182.71 L 88.50 182.61 A 2.38 2.38 0 0 1 93.25 182.61 Z" fill="#1f7a44" fill-rule="evenodd"/></g><g transform="rotate(90.0 65.6 186.0)"><path d="M 72.62 182.40 L 72.59 182.50 L 72.50 182.60 L 72.36 182.70 L 72.16 182.80 L 71.91 182.90 L 71.62 183.00 L 71.31 183.10 L 70.97 183.20 L 70.62 183.30 L 70.28 183.40 L 69.94 183.50 L 69.62 183.60 L 69.34 183.70 L 69.09 183.80 L 68.89 183.90 L 68.75 184.00 L 68.66 184.10 L 68.62 184.20 L 68.66 184.30 L 68.75 184.40 L 68.89 184.50 L 69.09 184.60 L 69.34 184.70 L 69.62 184.80 L 69.94 184.90 L 70.28 185.00 L 70.62 185.10 L 70.97 185.20 L 71.31 185.30 L 71.62 185.40 L 71.91 185.50 L 72.16 185.60 L 72.36 185.70 L 72.50 185.80 L 72.59 185.90 L 72.62 186.00 L 72.59 186.10 L 72.50 186.20 L 72.36 186.30 L 72.16 186.40 L 71.91 186.50 L 71.62 186.60 L 71.31 186.70 L 70.97 186.80 L 70.62 186.90 L 70.28 187.00 L 69.94 187.10 L 69.62 187.20 L 69.34 187.30 L 69.09 187.40 L 68.89 187.50 L 68.75 187.60 L 68.66 187.70 L 68.62 187.80 L 68.66 187.90 L 68.75 188.00 L 68.89 188.10 L 69.09 188.20 L 69.34 188.30 L 69.62 188.40 L 69.94 188.50 L 70.28 188.60 L 70.62 188.70 L 70.97 188.80 L 71.31 188.90 L 71.62 189.00 L 71.91 189.10 L 72.16 189.20 L 72.36 189.30 L 72.50 189.40 L 72.59 189.50 L 72.62 189.61 A 7.00 7.00 0 0 1 58.62 189.60 L 58.62 189.61 L 58.66 189.50 L 58.75 189.40 L 58.89 189.30 L 59.09 189.20 L 59.34 189.10 L 59.62 189.00 L 59.94 188.90 L 60.28 188.80 L 60.62 188.70 L 60.97 188.60 L 61.31 188.50 L 61.62 188.40 L 61.91 188.30 L 62.16 188.20 L 62.36 188.10 L 62.50 188.00 L 62.59 187.90 L 62.62 187.80 L 62.59 187.70 L 62.50 187.60 L 62.36 187.50 L 62.16 187.40 L 61.91 187.30 L 61.62 187.20 L 61.31 187.10 L 60.97 187.00 L 60.62 186.90 L 60.28 186.80 L 59.94 186.70 L 59.62 186.60 L 59.34 186.50 L 59.09 186.40 L 58.89 186.30 L 58.75 186.20 L 58.66 186.10 L 58.62 186.00 L 58.66 185.90 L 58.75 185.80 L 58.89 185.70 L 59.09 185.60 L 59.34 185.50 L 59.62 185.40 L 59.94 185.30 L 60.28 185.20 L 60.62 185.10 L 60.97 185.00 L 61.31 184.90 L 61.62 184.80 L 61.91 184.70 L 62.16 184.60 L 62.36 184.50 L 62.50 184.40 L 62.59 184.30 L 62.62 184.20 L 62.59 184.10 L 62.50 184.00 L 62.36 183.90 L 62.16 183.80 L 61.91 183.70 L 61.62 183.60 L 61.31 183.50 L 60.97 183.40 L 60.62 183.30 L 60.28 183.20 L 59.94 183.10 L 59.62 183.00 L 59.34 182.90 L 59.09 182.80 L 58.89 182.70 L 58.75 182.60 L 58.66 182.50 L 58.62 182.40 A 7.00 7.00 0 0 1 72.62 182.40 Z M 68.00 182.61 L 67.99 182.71 L 67.96 182.80 L 67.91 182.89 L 67.85 182.99 L 67.76 183.08 L 67.67 183.18 L 67.56 183.27 L 67.44 183.36 L 67.33 183.46 L 67.21 183.55 L 67.09 183.65 L 66.98 183.74 L 66.89 183.83 L 66.80 183.93 L 66.74 184.02 L 66.69 184.12 L 66.66 184.21 L 66.64 184.31 L 66.66 184.40 L 66.69 184.49 L 66.74 184.59 L 66.80 184.68 L 66.89 184.78 L 66.98 184.87 L 67.09 184.96 L 67.21 185.06 L 67.33 185.15 L 67.44 185.25 L 67.56 185.34 L 67.67 185.44 L 67.76 185.53 L 67.85 185.62 L 67.91 185.72 L 67.96 185.81 L 67.99 185.91 L 68.00 186.00 L 67.99 186.09 L 67.96 186.19 L 67.91 186.28 L 67.85 186.38 L 67.76 186.47 L 67.67 186.56 L 67.56 186.66 L 67.44 186.75 L 67.33 186.85 L 67.21 186.94 L 67.09 187.04 L 66.98 187.13 L 66.89 187.22 L 66.80 187.32 L 66.74 187.41 L 66.69 187.51 L 66.66 187.60 L 66.64 187.69 L 66.66 187.79 L 66.69 187.88 L 66.74 187.98 L 66.80 188.07 L 66.89 188.17 L 66.98 188.26 L 67.09 188.35 L 67.21 188.45 L 67.33 188.54 L 67.44 188.64 L 67.56 188.73 L 67.67 188.82 L 67.76 188.92 L 67.85 189.01 L 67.91 189.11 L 67.96 189.20 L 67.99 189.29 L 68.00 189.39 A 2.38 2.38 0 0 1 63.24 189.39 L 63.24 189.39 L 63.26 189.29 L 63.29 189.20 L 63.34 189.11 L 63.40 189.01 L 63.49 188.92 L 63.59 188.82 L 63.69 188.73 L 63.81 188.64 L 63.92 188.54 L 64.04 188.45 L 64.16 188.35 L 64.27 188.26 L 64.36 188.17 L 64.45 188.07 L 64.51 187.98 L 64.56 187.88 L 64.59 187.79 L 64.61 187.69 L 64.59 187.60 L 64.56 187.51 L 64.51 187.41 L 64.45 187.32 L 64.36 187.22 L 64.27 187.13 L 64.16 187.04 L 64.04 186.94 L 63.92 186.85 L 63.81 186.75 L 63.69 186.66 L 63.59 186.56 L 63.49 186.47 L 63.40 186.38 L 63.34 186.28 L 63.29 186.19 L 63.26 186.09 L 63.24 186.00 L 63.26 185.91 L 63.29 185.81 L 63.34 185.72 L 63.40 185.62 L 63.49 185.53 L 63.59 185.44 L 63.69 185.34 L 63.81 185.25 L 63.92 185.15 L 64.04 185.06 L 64.16 184.96 L 64.27 184.87 L 64.36 184.78 L 64.45 184.68 L 64.51 184.59 L 64.56 184.49 L 64.59 184.40 L 64.61 184.31 L 64.59 184.21 L 64.56 184.12 L 64.51 184.02 L 64.45 183.93 L 64.36 183.83 L 64.27 183.74 L 64.16 183.65 L 64.04 183.55 L 63.92 183.46 L 63.81 183.36 L 63.69 183.27 L 63.59 183.18 L 63.49 183.08 L 63.40 182.99 L 63.34 182.89 L 63.29 182.80 L 63.26 182.71 L 63.24 182.61 A 2.38 2.38 0 0 1 68.00 182.61 Z" fill="#1f7a44" fill-rule="evenodd"/></g><g transform="rotate(-201.0 49.5 176.9)"><path d="M 56.50 175.67 L 56.47 175.70 L 56.38 175.73 L 56.23 175.77 L 56.03 175.80 L 55.79 175.83 L 55.50 175.87 L 55.18 175.90 L 54.85 175.93 L 54.50 175.97 L 54.15 176.00 L 53.82 176.04 L 53.50 176.07 L 53.21 176.10 L 52.97 176.14 L 52.77 176.17 L 52.62 176.20 L 52.53 176.24 L 52.50 176.27 L 52.53 176.30 L 52.62 176.34 L 52.77 176.37 L 52.97 176.40 L 53.21 176.44 L 53.50 176.47 L 53.82 176.51 L 54.15 176.54 L 54.50 176.57 L 54.85 176.61 L 55.18 176.64 L 55.50 176.67 L 55.79 176.71 L 56.03 176.74 L 56.23 176.77 L 56.38 176.81 L 56.47 176.84 L 56.50 176.88 L 56.47 176.91 L 56.38 176.94 L 56.23 176.98 L 56.03 177.01 L 55.79 177.04 L 55.50 177.08 L 55.18 177.11 L 54.85 177.14 L 54.50 177.18 L 54.15 177.21 L 53.82 177.24 L 53.50 177.28 L 53.21 177.31 L 52.97 177.35 L 52.77 177.38 L 52.62 177.41 L 52.53 177.45 L 52.50 177.48 L 52.53 177.51 L 52.62 177.55 L 52.77 177.58 L 52.97 177.61 L 53.21 177.65 L 53.50 177.68 L 53.82 177.71 L 54.15 177.75 L 54.50 177.78 L 54.85 177.82 L 55.18 177.85 L 55.50 177.88 L 55.79 177.92 L 56.03 177.95 L 56.23 177.98 L 56.38 178.02 L 56.47 178.05 L 56.50 178.08 A 7.00 7.00 0 0 1 42.50 178.08 L 42.50 178.08 L 42.53 178.05 L 42.62 178.02 L 42.77 177.98 L 42.97 177.95 L 43.21 177.92 L 43.50 177.88 L 43.82 177.85 L 44.15 177.82 L 44.50 177.78 L 44.85 177.75 L 45.18 177.71 L 45.50 177.68 L 45.79 177.65 L 46.03 177.61 L 46.23 177.58 L 46.38 177.55 L 46.47 177.51 L 46.50 177.48 L 46.47 177.45 L 46.38 177.41 L 46.23 177.38 L 46.03 177.35 L 45.79 177.31 L 45.50 177.28 L 45.18 177.24 L 44.85 177.21 L 44.50 177.18 L 44.15 177.14 L 43.82 177.11 L 43.50 177.08 L 43.21 177.04 L 42.97 177.01 L 42.77 176.98 L 42.62 176.94 L 42.53 176.91 L 42.50 176.88 L 42.53 176.84 L 42.62 176.81 L 42.77 176.77 L 42.97 176.74 L 43.21 176.71 L 43.50 176.67 L 43.82 176.64 L 44.15 176.61 L 44.50 176.57 L 44.85 176.54 L 45.18 176.51 L 45.50 176.47 L 45.79 176.44 L 46.03 176.40 L 46.23 176.37 L 46.38 176.34 L 46.47 176.30 L 46.50 176.27 L 46.47 176.24 L 46.38 176.20 L 46.23 176.17 L 46.03 176.14 L 45.79 176.10 L 45.50 176.07 L 45.18 176.04 L 44.85 176.00 L 44.50 175.97 L 44.15 175.93 L 43.82 175.90 L 43.50 175.87 L 43.21 175.83 L 42.97 175.80 L 42.77 175.77 L 42.62 175.73 L 42.53 175.70 L 42.50 175.67 A 7.00 7.00 0 0 1 56.50 175.67 Z M 51.88 175.74 L 51.87 175.77 L 51.84 175.80 L 51.79 175.83 L 51.72 175.86 L 51.64 175.90 L 51.54 175.93 L 51.43 175.96 L 51.32 175.99 L 51.20 176.02 L 51.08 176.05 L 50.97 176.09 L 50.86 176.12 L 50.76 176.15 L 50.68 176.18 L 50.61 176.21 L 50.56 176.24 L 50.53 176.27 L 50.52 176.31 L 50.53 176.34 L 50.56 176.37 L 50.61 176.40 L 50.68 176.43 L 50.76 176.46 L 50.86 176.50 L 50.97 176.53 L 51.08 176.56 L 51.20 176.59 L 51.32 176.62 L 51.43 176.65 L 51.54 176.69 L 51.64 176.72 L 51.72 176.75 L 51.79 176.78 L 51.84 176.81 L 51.87 176.84 L 51.88 176.88 L 51.87 176.91 L 51.84 176.94 L 51.79 176.97 L 51.72 177.00 L 51.64 177.03 L 51.54 177.06 L 51.43 177.10 L 51.32 177.13 L 51.20 177.16 L 51.08 177.19 L 50.97 177.22 L 50.86 177.25 L 50.76 177.29 L 50.68 177.32 L 50.61 177.35 L 50.56 177.38 L 50.53 177.41 L 50.52 177.44 L 50.53 177.48 L 50.56 177.51 L 50.61 177.54 L 50.68 177.57 L 50.76 177.60 L 50.86 177.63 L 50.97 177.66 L 51.08 177.70 L 51.20 177.73 L 51.32 177.76 L 51.43 177.79 L 51.54 177.82 L 51.64 177.85 L 51.72 177.89 L 51.79 177.92 L 51.84 177.95 L 51.87 177.98 L 51.88 178.01 A 2.38 2.38 0 0 1 47.12 178.01 L 47.12 178.01 L 47.13 177.98 L 47.16 177.95 L 47.21 177.92 L 47.28 177.89 L 47.36 177.85 L 47.46 177.82 L 47.57 177.79 L 47.68 177.76 L 47.80 177.73 L 47.92 177.70 L 48.03 177.66 L 48.14 177.63 L 48.24 177.60 L 48.32 177.57 L 48.39 177.54 L 48.44 177.51 L 48.47 177.48 L 48.48 177.44 L 48.47 177.41 L 48.44 177.38 L 48.39 177.35 L 48.32 177.32 L 48.24 177.29 L 48.14 177.25 L 48.03 177.22 L 47.92 177.19 L 47.80 177.16 L 47.68 177.13 L 47.57 177.10 L 47.46 177.06 L 47.36 177.03 L 47.28 177.00 L 47.21 176.97 L 47.16 176.94 L 47.13 176.91 L 47.12 176.88 L 47.13 176.84 L 47.16 176.81 L 47.21 176.78 L 47.28 176.75 L 47.36 176.72 L 47.46 176.69 L 47.57 176.65 L 47.68 176.62 L 47.80 176.59 L 47.92 176.56 L 48.03 176.53 L 48.14 176.50 L 48.24 176.46 L 48.32 176.43 L 48.39 176.40 L 48.44 176.37 L 48.47 176.34 L 48.48 176.31 L 48.47 176.27 L 48.44 176.24 L 48.39 176.21 L 48.32 176.18 L 48.24 176.15 L 48.14 176.12 L 48.03 176.09 L 47.92 176.05 L 47.80 176.02 L 47.68 175.99 L 47.57 175.96 L 47.46 175.93 L 47.36 175.90 L 47.28 175.86 L 47.21 175.83 L 47.16 175.80 L 47.13 175.77 L 47.12 175.74 A 2.38 2.38 0 0 1 51.88 175.74 Z" fill="#1f7a44" fill-rule="evenodd"/></g><g transform="rotate(-180.0 46.0 155.1)"><path d="M 53.00 151.52 L 52.97 151.62 L 52.88 151.72 L 52.73 151.82 L 52.53 151.92 L 52.29 152.02 L 52.00 152.12 L 51.68 152.22 L 51.35 152.32 L 51.00 152.42 L 50.65 152.52 L 50.32 152.62 L 50.00 152.72 L 49.71 152.82 L 49.47 152.92 L 49.27 153.02 L 49.12 153.12 L 49.03 153.22 L 49.00 153.32 L 49.03 153.42 L 49.12 153.52 L 49.27 153.62 L 49.47 153.72 L 49.71 153.82 L 50.00 153.92 L 50.32 154.02 L 50.65 154.12 L 51.00 154.22 L 51.35 154.32 L 51.68 154.42 L 52.00 154.52 L 52.29 154.62 L 52.53 154.72 L 52.73 154.82 L 52.88 154.92 L 52.97 155.02 L 53.00 155.12 L 52.97 155.23 L 52.88 155.33 L 52.73 155.43 L 52.53 155.53 L 52.29 155.63 L 52.00 155.73 L 51.68 155.83 L 51.35 155.93 L 51.00 156.03 L 50.65 156.13 L 50.32 156.23 L 50.00 156.33 L 49.71 156.43 L 49.47 156.53 L 49.27 156.63 L 49.12 156.73 L 49.03 156.83 L 49.00 156.93 L 49.03 157.03 L 49.12 157.13 L 49.27 157.23 L 49.47 157.33 L 49.71 157.43 L 50.00 157.53 L 50.32 157.63 L 50.65 157.73 L 51.00 157.83 L 51.35 157.93 L 51.68 158.03 L 52.00 158.13 L 52.29 158.23 L 52.53 158.33 L 52.73 158.43 L 52.88 158.53 L 52.97 158.63 L 53.00 158.73 A 7.00 7.00 0 0 1 39.00 158.73 L 39.00 158.73 L 39.03 158.63 L 39.12 158.53 L 39.27 158.43 L 39.47 158.33 L 39.71 158.23 L 40.00 158.13 L 40.32 158.03 L 40.65 157.93 L 41.00 157.83 L 41.35 157.73 L 41.68 157.63 L 42.00 157.53 L 42.29 157.43 L 42.53 157.33 L 42.73 157.23 L 42.88 157.13 L 42.97 157.03 L 43.00 156.93 L 42.97 156.83 L 42.88 156.73 L 42.73 156.63 L 42.53 156.53 L 42.29 156.43 L 42.00 156.33 L 41.68 156.23 L 41.35 156.13 L 41.00 156.03 L 40.65 155.93 L 40.32 155.83 L 40.00 155.73 L 39.71 155.63 L 39.47 155.53 L 39.27 155.43 L 39.12 155.33 L 39.03 155.23 L 39.00 155.12 L 39.03 155.02 L 39.12 154.92 L 39.27 154.82 L 39.47 154.72 L 39.71 154.62 L 40.00 154.52 L 40.32 154.42 L 40.65 154.32 L 41.00 154.22 L 41.35 154.12 L 41.68 154.02 L 42.00 153.92 L 42.29 153.82 L 42.53 153.72 L 42.73 153.62 L 42.88 153.52 L 42.97 153.42 L 43.00 153.32 L 42.97 153.22 L 42.88 153.12 L 42.73 153.02 L 42.53 152.92 L 42.29 152.82 L 42.00 152.72 L 41.68 152.62 L 41.35 152.52 L 41.00 152.42 L 40.65 152.32 L 40.32 152.22 L 40.00 152.12 L 39.71 152.02 L 39.47 151.92 L 39.27 151.82 L 39.12 151.72 L 39.03 151.62 L 39.00 151.52 A 7.00 7.00 0 0 1 53.00 151.52 Z M 48.38 151.74 L 48.37 151.83 L 48.34 151.92 L 48.29 152.02 L 48.22 152.11 L 48.14 152.21 L 48.04 152.30 L 47.93 152.40 L 47.82 152.49 L 47.70 152.58 L 47.58 152.68 L 47.47 152.77 L 47.36 152.87 L 47.26 152.96 L 47.18 153.05 L 47.11 153.15 L 47.06 153.24 L 47.03 153.34 L 47.02 153.43 L 47.03 153.52 L 47.06 153.62 L 47.11 153.71 L 47.18 153.81 L 47.26 153.90 L 47.36 154.00 L 47.47 154.09 L 47.58 154.18 L 47.70 154.28 L 47.82 154.37 L 47.93 154.47 L 48.04 154.56 L 48.14 154.65 L 48.22 154.75 L 48.29 154.84 L 48.34 154.94 L 48.37 155.03 L 48.38 155.12 L 48.37 155.22 L 48.34 155.31 L 48.29 155.41 L 48.22 155.50 L 48.14 155.60 L 48.04 155.69 L 47.93 155.78 L 47.82 155.88 L 47.70 155.97 L 47.58 156.07 L 47.47 156.16 L 47.36 156.25 L 47.26 156.35 L 47.18 156.44 L 47.11 156.54 L 47.06 156.63 L 47.03 156.73 L 47.02 156.82 L 47.03 156.91 L 47.06 157.01 L 47.11 157.10 L 47.18 157.20 L 47.26 157.29 L 47.36 157.38 L 47.47 157.48 L 47.58 157.57 L 47.70 157.67 L 47.82 157.76 L 47.93 157.85 L 48.04 157.95 L 48.14 158.04 L 48.22 158.14 L 48.29 158.23 L 48.34 158.33 L 48.37 158.42 L 48.38 158.51 A 2.38 2.38 0 0 1 43.62 158.51 L 43.62 158.51 L 43.63 158.42 L 43.66 158.33 L 43.71 158.23 L 43.78 158.14 L 43.86 158.04 L 43.96 157.95 L 44.07 157.85 L 44.18 157.76 L 44.30 157.67 L 44.42 157.57 L 44.53 157.48 L 44.64 157.38 L 44.74 157.29 L 44.82 157.20 L 44.89 157.10 L 44.94 157.01 L 44.97 156.91 L 44.98 156.82 L 44.97 156.73 L 44.94 156.63 L 44.89 156.54 L 44.82 156.44 L 44.74 156.35 L 44.64 156.25 L 44.53 156.16 L 44.42 156.07 L 44.30 155.97 L 44.18 155.88 L 44.07 155.78 L 43.96 155.69 L 43.86 155.60 L 43.78 155.50 L 43.71 155.41 L 43.66 155.31 L 43.63 155.22 L 43.62 155.12 L 43.63 155.03 L 43.66 154.94 L 43.71 154.84 L 43.78 154.75 L 43.86 154.65 L 43.96 154.56 L 44.07 154.47 L 44.18 154.37 L 44.30 154.28 L 44.42 154.18 L 44.53 154.09 L 44.64 154.00 L 44.74 153.90 L 44.82 153.81 L 44.89 153.71 L 44.94 153.62 L 44.97 153.52 L 44.98 153.43 L 44.97 153.34 L 44.94 153.24 L 44.89 153.15 L 44.82 153.05 L 44.74 152.96 L 44.64 152.87 L 44.53 152.77 L 44.42 152.68 L 44.30 152.58 L 44.18 152.49 L 44.07 152.40 L 43.96 152.30 L 43.86 152.21 L 43.78 152.11 L 43.71 152.02 L 43.66 151.92 L 43.63 151.83 L 43.62 151.74 A 2.38 2.38 0 0 1 48.38 151.74 Z" fill="#1f7a44" fill-rule="evenodd"/></g><g transform="rotate(-180.0 46.0 129.9)"><path d="M 53.00 126.27 L 52.97 126.37 L 52.88 126.47 L 52.73 126.57 L 52.53 126.67 L 52.29 126.77 L 52.00 126.87 L 51.68 126.97 L 51.35 127.07 L 51.00 127.17 L 50.65 127.27 L 50.32 127.37 L 50.00 127.47 L 49.71 127.57 L 49.47 127.67 L 49.27 127.77 L 49.12 127.87 L 49.03 127.97 L 49.00 128.07 L 49.03 128.17 L 49.12 128.27 L 49.27 128.37 L 49.47 128.47 L 49.71 128.57 L 50.00 128.67 L 50.32 128.77 L 50.65 128.87 L 51.00 128.97 L 51.35 129.07 L 51.68 129.17 L 52.00 129.27 L 52.29 129.37 L 52.53 129.47 L 52.73 129.57 L 52.88 129.67 L 52.97 129.77 L 53.00 129.88 L 52.97 129.98 L 52.88 130.08 L 52.73 130.18 L 52.53 130.28 L 52.29 130.38 L 52.00 130.48 L 51.68 130.58 L 51.35 130.68 L 51.00 130.78 L 50.65 130.88 L 50.32 130.98 L 50.00 131.08 L 49.71 131.18 L 49.47 131.28 L 49.27 131.38 L 49.12 131.48 L 49.03 131.58 L 49.00 131.68 L 49.03 131.78 L 49.12 131.88 L 49.27 131.98 L 49.47 132.08 L 49.71 132.18 L 50.00 132.28 L 50.32 132.38 L 50.65 132.48 L 51.00 132.58 L 51.35 132.68 L 51.68 132.78 L 52.00 132.88 L 52.29 132.98 L 52.53 133.08 L 52.73 133.18 L 52.88 133.28 L 52.97 133.38 L 53.00 133.48 A 7.00 7.00 0 0 1 39.00 133.48 L 39.00 133.48 L 39.03 133.38 L 39.12 133.28 L 39.27 133.18 L 39.47 133.08 L 39.71 132.98 L 40.00 132.88 L 40.32 132.78 L 40.65 132.68 L 41.00 132.58 L 41.35 132.48 L 41.68 132.38 L 42.00 132.28 L 42.29 132.18 L 42.53 132.08 L 42.73 131.98 L 42.88 131.88 L 42.97 131.78 L 43.00 131.68 L 42.97 131.58 L 42.88 131.48 L 42.73 131.38 L 42.53 131.28 L 42.29 131.18 L 42.00 131.08 L 41.68 130.98 L 41.35 130.88 L 41.00 130.78 L 40.65 130.68 L 40.32 130.58 L 40.00 130.48 L 39.71 130.38 L 39.47 130.28 L 39.27 130.18 L 39.12 130.08 L 39.03 129.98 L 39.00 129.88 L 39.03 129.77 L 39.12 129.67 L 39.27 129.57 L 39.47 129.47 L 39.71 129.37 L 40.00 129.27 L 40.32 129.17 L 40.65 129.07 L 41.00 128.97 L 41.35 128.87 L 41.68 128.77 L 42.00 128.67 L 42.29 128.57 L 42.53 128.47 L 42.73 128.37 L 42.88 128.27 L 42.97 128.17 L 43.00 128.07 L 42.97 127.97 L 42.88 127.87 L 42.73 127.77 L 42.53 127.67 L 42.29 127.57 L 42.00 127.47 L 41.68 127.37 L 41.35 127.27 L 41.00 127.17 L 40.65 127.07 L 40.32 126.97 L 40.00 126.87 L 39.71 126.77 L 39.47 126.67 L 39.27 126.57 L 39.12 126.47 L 39.03 126.37 L 39.00 126.27 A 7.00 7.00 0 0 1 53.00 126.27 Z M 48.38 126.49 L 48.37 126.58 L 48.34 126.67 L 48.29 126.77 L 48.22 126.86 L 48.14 126.96 L 48.04 127.05 L 47.93 127.15 L 47.82 127.24 L 47.70 127.33 L 47.58 127.43 L 47.47 127.52 L 47.36 127.62 L 47.26 127.71 L 47.18 127.80 L 47.11 127.90 L 47.06 127.99 L 47.03 128.09 L 47.02 128.18 L 47.03 128.27 L 47.06 128.37 L 47.11 128.46 L 47.18 128.56 L 47.26 128.65 L 47.36 128.75 L 47.47 128.84 L 47.58 128.93 L 47.70 129.03 L 47.82 129.12 L 47.93 129.22 L 48.04 129.31 L 48.14 129.40 L 48.22 129.50 L 48.29 129.59 L 48.34 129.69 L 48.37 129.78 L 48.38 129.88 L 48.37 129.97 L 48.34 130.06 L 48.29 130.16 L 48.22 130.25 L 48.14 130.35 L 48.04 130.44 L 47.93 130.53 L 47.82 130.63 L 47.70 130.72 L 47.58 130.82 L 47.47 130.91 L 47.36 131.00 L 47.26 131.10 L 47.18 131.19 L 47.11 131.29 L 47.06 131.38 L 47.03 131.48 L 47.02 131.57 L 47.03 131.66 L 47.06 131.76 L 47.11 131.85 L 47.18 131.95 L 47.26 132.04 L 47.36 132.13 L 47.47 132.23 L 47.58 132.32 L 47.70 132.42 L 47.82 132.51 L 47.93 132.60 L 48.04 132.70 L 48.14 132.79 L 48.22 132.89 L 48.29 132.98 L 48.34 133.08 L 48.37 133.17 L 48.38 133.26 A 2.38 2.38 0 0 1 43.62 133.26 L 43.62 133.26 L 43.63 133.17 L 43.66 133.08 L 43.71 132.98 L 43.78 132.89 L 43.86 132.79 L 43.96 132.70 L 44.07 132.60 L 44.18 132.51 L 44.30 132.42 L 44.42 132.32 L 44.53 132.23 L 44.64 132.13 L 44.74 132.04 L 44.82 131.95 L 44.89 131.85 L 44.94 131.76 L 44.97 131.66 L 44.98 131.57 L 44.97 131.48 L 44.94 131.38 L 44.89 131.29 L 44.82 131.19 L 44.74 131.10 L 44.64 131.00 L 44.53 130.91 L 44.42 130.82 L 44.30 130.72 L 44.18 130.63 L 44.07 130.53 L 43.96 130.44 L 43.86 130.35 L 43.78 130.25 L 43.71 130.16 L 43.66 130.06 L 43.63 129.97 L 43.62 129.88 L 43.63 129.78 L 43.66 129.69 L 43.71 129.59 L 43.78 129.50 L 43.86 129.40 L 43.96 129.31 L 44.07 129.22 L 44.18 129.12 L 44.30 129.03 L 44.42 128.93 L 44.53 128.84 L 44.64 128.75 L 44.74 128.65 L 44.82 128.56 L 44.89 128.46 L 44.94 128.37 L 44.97 128.27 L 44.98 128.18 L 44.97 128.09 L 44.94 127.99 L 44.89 127.90 L 44.82 127.80 L 44.74 127.71 L 44.64 127.62 L 44.53 127.52 L 44.42 127.43 L 44.30 127.33 L 44.18 127.24 L 44.07 127.15 L 43.96 127.05 L 43.86 126.96 L 43.78 126.86 L 43.71 126.77 L 43.66 126.67 L 43.63 126.58 L 43.62 126.49 A 2.38 2.38 0 0 1 48.38 126.49 Z" fill="#1f7a44" fill-rule="evenodd"/></g><g transform="rotate(-180.0 46.0 104.6)"><path d="M 53.00 101.02 L 52.97 101.12 L 52.88 101.22 L 52.73 101.32 L 52.53 101.42 L 52.29 101.52 L 52.00 101.62 L 51.68 101.72 L 51.35 101.82 L 51.00 101.92 L 50.65 102.02 L 50.32 102.12 L 50.00 102.22 L 49.71 102.32 L 49.47 102.42 L 49.27 102.52 L 49.12 102.62 L 49.03 102.72 L 49.00 102.82 L 49.03 102.92 L 49.12 103.02 L 49.27 103.12 L 49.47 103.22 L 49.71 103.32 L 50.00 103.42 L 50.32 103.52 L 50.65 103.62 L 51.00 103.72 L 51.35 103.82 L 51.68 103.92 L 52.00 104.02 L 52.29 104.12 L 52.53 104.22 L 52.73 104.32 L 52.88 104.42 L 52.97 104.52 L 53.00 104.62 L 52.97 104.73 L 52.88 104.83 L 52.73 104.93 L 52.53 105.03 L 52.29 105.13 L 52.00 105.23 L 51.68 105.33 L 51.35 105.43 L 51.00 105.53 L 50.65 105.63 L 50.32 105.73 L 50.00 105.83 L 49.71 105.93 L 49.47 106.03 L 49.27 106.13 L 49.12 106.23 L 49.03 106.33 L 49.00 106.43 L 49.03 106.53 L 49.12 106.63 L 49.27 106.73 L 49.47 106.83 L 49.71 106.93 L 50.00 107.03 L 50.32 107.13 L 50.65 107.23 L 51.00 107.33 L 51.35 107.43 L 51.68 107.53 L 52.00 107.63 L 52.29 107.73 L 52.53 107.83 L 52.73 107.93 L 52.88 108.03 L 52.97 108.13 L 53.00 108.23 A 7.00 7.00 0 0 1 39.00 108.23 L 39.00 108.23 L 39.03 108.13 L 39.12 108.03 L 39.27 107.93 L 39.47 107.83 L 39.71 107.73 L 40.00 107.63 L 40.32 107.53 L 40.65 107.43 L 41.00 107.33 L 41.35 107.23 L 41.68 107.13 L 42.00 107.03 L 42.29 106.93 L 42.53 106.83 L 42.73 106.73 L 42.88 106.63 L 42.97 106.53 L 43.00 106.43 L 42.97 106.33 L 42.88 106.23 L 42.73 106.13 L 42.53 106.03 L 42.29 105.93 L 42.00 105.83 L 41.68 105.73 L 41.35 105.63 L 41.00 105.53 L 40.65 105.43 L 40.32 105.33 L 40.00 105.23 L 39.71 105.13 L 39.47 105.03 L 39.27 104.93 L 39.12 104.83 L 39.03 104.73 L 39.00 104.62 L 39.03 104.52 L 39.12 104.42 L 39.27 104.32 L 39.47 104.22 L 39.71 104.12 L 40.00 104.02 L 40.32 103.92 L 40.65 103.82 L 41.00 103.72 L 41.35 103.62 L 41.68 103.52 L 42.00 103.42 L 42.29 103.32 L 42.53 103.22 L 42.73 103.12 L 42.88 103.02 L 42.97 102.92 L 43.00 102.82 L 42.97 102.72 L 42.88 102.62 L 42.73 102.52 L 42.53 102.42 L 42.29 102.32 L 42.00 102.22 L 41.68 102.12 L 41.35 102.02 L 41.00 101.92 L 40.65 101.82 L 40.32 101.72 L 40.00 101.62 L 39.71 101.52 L 39.47 101.42 L 39.27 101.32 L 39.12 101.22 L 39.03 101.12 L 39.00 101.02 A 7.00 7.00 0 0 1 53.00 101.02 Z M 48.38 101.24 L 48.37 101.33 L 48.34 101.42 L 48.29 101.52 L 48.22 101.61 L 48.14 101.71 L 48.04 101.80 L 47.93 101.90 L 47.82 101.99 L 47.70 102.08 L 47.58 102.18 L 47.47 102.27 L 47.36 102.37 L 47.26 102.46 L 47.18 102.55 L 47.11 102.65 L 47.06 102.74 L 47.03 102.84 L 47.02 102.93 L 47.03 103.02 L 47.06 103.12 L 47.11 103.21 L 47.18 103.31 L 47.26 103.40 L 47.36 103.50 L 47.47 103.59 L 47.58 103.68 L 47.70 103.78 L 47.82 103.87 L 47.93 103.97 L 48.04 104.06 L 48.14 104.15 L 48.22 104.25 L 48.29 104.34 L 48.34 104.44 L 48.37 104.53 L 48.38 104.62 L 48.37 104.72 L 48.34 104.81 L 48.29 104.91 L 48.22 105.00 L 48.14 105.10 L 48.04 105.19 L 47.93 105.28 L 47.82 105.38 L 47.70 105.47 L 47.58 105.57 L 47.47 105.66 L 47.36 105.75 L 47.26 105.85 L 47.18 105.94 L 47.11 106.04 L 47.06 106.13 L 47.03 106.23 L 47.02 106.32 L 47.03 106.41 L 47.06 106.51 L 47.11 106.60 L 47.18 106.70 L 47.26 106.79 L 47.36 106.88 L 47.47 106.98 L 47.58 107.07 L 47.70 107.17 L 47.82 107.26 L 47.93 107.35 L 48.04 107.45 L 48.14 107.54 L 48.22 107.64 L 48.29 107.73 L 48.34 107.83 L 48.37 107.92 L 48.38 108.01 A 2.38 2.38 0 0 1 43.62 108.01 L 43.62 108.01 L 43.63 107.92 L 43.66 107.83 L 43.71 107.73 L 43.78 107.64 L 43.86 107.54 L 43.96 107.45 L 44.07 107.35 L 44.18 107.26 L 44.30 107.17 L 44.42 107.07 L 44.53 106.98 L 44.64 106.88 L 44.74 106.79 L 44.82 106.70 L 44.89 106.60 L 44.94 106.51 L 44.97 106.41 L 44.98 106.32 L 44.97 106.23 L 44.94 106.13 L 44.89 106.04 L 44.82 105.94 L 44.74 105.85 L 44.64 105.75 L 44.53 105.66 L 44.42 105.57 L 44.30 105.47 L 44.18 105.38 L 44.07 105.28 L 43.96 105.19 L 43.86 105.10 L 43.78 105.00 L 43.71 104.91 L 43.66 104.81 L 43.63 104.72 L 43.62 104.62 L 43.63 104.53 L 43.66 104.44 L 43.71 104.34 L 43.78 104.25 L 43.86 104.15 L 43.96 104.06 L 44.07 103.97 L 44.18 103.87 L 44.30 103.78 L 44.42 103.68 L 44.53 103.59 L 44.64 103.50 L 44.74 103.40 L 44.82 103.31 L 44.89 103.21 L 44.94 103.12 L 44.97 103.02 L 44.98 102.93 L 44.97 102.84 L 44.94 102.74 L 44.89 102.65 L 44.82 102.55 L 44.74 102.46 L 44.64 102.37 L 44.53 102.27 L 44.42 102.18 L 44.30 102.08 L 44.18 101.99 L 44.07 101.90 L 43.96 101.80 L 43.86 101.71 L 43.78 101.61 L 43.71 101.52 L 43.66 101.42 L 43.63 101.33 L 43.62 101.24 A 2.38 2.38 0 0 1 48.38 101.24 Z" fill="#1f7a44" fill-rule="evenodd"/></g><rect x="60" y="110" width="24" height="54" fill="#fff" stroke="#3a3a3a" stroke-width="2"/><rect x="60" y="110" width="24" height="11" fill="#3f8fd0"/><text x="72" y="150" text-anchor="middle" font-family="Arial" font-weight="bold" font-size="22" fill="#c0392b">7</text><rect x="88" y="110" width="24" height="54" fill="#fff" stroke="#3a3a3a" stroke-width="2"/><rect x="88" y="110" width="24" height="11" fill="#3f8fd0"/><text x="100" y="150" text-anchor="middle" font-family="Arial" font-weight="bold" font-size="22" fill="#3a3a3a">7</text><rect x="116" y="110" width="24" height="54" fill="#fff" stroke="#3a3a3a" stroke-width="2"/><rect x="116" y="110" width="24" height="11" fill="#3f8fd0"/><text x="128" y="150" text-anchor="middle" font-family="Arial" font-weight="bold" font-size="22" fill="#185fa5">7</text><ellipse cx="72" cy="174" rx="11" ry="7" fill="#f2a93b"/><ellipse cx="100" cy="174" rx="11" ry="7" fill="#f2a93b"/><ellipse cx="128" cy="174" rx="11" ry="7" fill="#f2a93b"/></svg>