<?xml version="1.0" encoding="UTF-8"?>
<svg xmlns="http://www.w3.org/2000/svg" viewBox="0 0 200 270" width="200" height="270"><g transform="rotate(-73.6 112.9 83.8)"><path d="M 119.89 79.50 L 119.85 79.62 L 119.76 79.74 L 119.62 79.86 L 119.42 79.98 L 119.17 80.10 L 118.89 80.22 L 118.57 80.34 L 118.23 80.45 L 117.89 80.57 L 117.54 80.69 L 117.20 80.81 L 116.89 80.93 L 116.60 81.05 L 116.35 81.17 L 116.15 81.29 L 116.01 81.41 L 115.92 81.52 L 115.89 81.64 L 115.92 81.76 L 116.01 81.88 L 116.15 82.00 L 116.35 82.12 L 116.60 82.24 L 116.89 82.36 L 117.20 82.48 L 117.54 82.59 L 117.89 82.71 L 118.23 82.83 L 118.57 82.95 L 118.89 83.07 L 119.17 83.19 L 119.42 83.31 L 119.62 83.43 L 119.76 83.55 L 119.85 83.66 L 119.89 83.78 L 119.85 83.90 L 119.76 84.02 L 119.62 84.14 L 119.42 84.26 L 119.17 84.38 L 118.89 84.50 L 118.57 84.62 L 118.23 84.73 L 117.89 84.85 L 117.54 84.97 L 117.20 85.09 L 116.89 85.21 L 116.60 85.33 L 116.35 85.45 L 116.15 85.57 L 116.01 85.69 L 115.92 85.80 L 115.89 85.92 L 115.92 86.04 L 116.01 86.16 L 116.15 86.28 L 116.35 86.40 L 116.60 86.52 L 116.89 86.64 L 117.20 86.76 L 117.54 86.87 L 117.89 86.99 L 118.23 87.11 L 118.57 87.23 L 118.89 87.35 L 119.17 87.47 L 119.42 87.59 L 119.62 87.71 L 119.76 87.83 L 119.85 87.95 L 119.89 88.06 A 7.00 7.00 0 0 1 105.89 88.06 L 105.89 88.06 L 105.92 87.95 L 106.01 87.83 L 106.15 87.71 L 106.35 87.59 L 106.60 87.47 L 106.89 87.35 L 107.20 87.23 L 107.54 87.11 L 107.89 86.99 L 108.23 86.87 L 108.57 86.76 L 108.89 86.64 L 109.17 86.52 L 109.42 86.40 L 109.62 86.28 L 109.76 86.16 L 109.85 86.04 L 109.89 85.92 L 109.85 85.80 L 109.76 85.69 L 109.62 85.57 L 109.42 85.45 L 109.17 85.33 L 108.89 85.21 L 108.57 85.09 L 108.23 84.97 L 107.89 84.85 L 107.54 84.73 L 107.20 84.62 L 106.89 84.50 L 106.60 84.38 L 106.35 84.26 L 106.15 84.14 L 106.01 84.02 L 105.92 83.90 L 105.89 83.78 L 105.92 83.66 L 106.01 83.55 L 106.15 83.43 L 106.35 83.31 L 106.60 83.19 L 106.89 83.07 L 107.20 82.95 L 107.54 82.83 L 107.89 82.71 L 108.23 82.59 L 108.57 82.48 L 108.89 82.36 L 109.17 82.24 L 109.42 82.12 L 109.62 82.00 L 109.76 81.88 L 109.85 81.76 L 109.89 81.64 L 109.85 81.52 L 109.76 81.41 L 109.62 81.29 L 109.42 81.17 L 109.17 81.05 L 108.89 80.93 L 108.57 80.81 L 108.23 80.69 L 107.89 80.57 L 107.54 80.45 L 107.20 80.34 L 106.89 80.22 L 106.60 80.10 L 106.35 79.98 L 106.15 79.86 L 106.01 79.74 L 105.92 79.62 L 105.89 79.50 A 7.00 7.00 0 0 1 119.89 79.50 Z M 115.27 79.76 L 115.25 79.87 L 115.22 79.98 L 115.17 80.10 L 115.11 80.21 L 115.02 80.32 L 114.93 80.43 L 114.82 80.54 L 114.70 80.65 L 114.59 80.77 L 114.47 80.88 L 114.35 80.99 L 114.25 81.10 L 114.15 81.21 L 114.06 81.32 L 114.00 81.44 L 113.95 81.55 L 113.92 81.66 L 113.91 81.77 L 113.92 81.88 L 113.95 82.00 L 114.00 82.11 L 114.06 82.22 L 114.15 82.33 L 114.25 82.44 L 114.35 82.55 L 114.47 82.67 L 114.59 82.78 L 114.70 82.89 L 114.82 83.00 L 114.93 83.11 L 115.02 83.22 L 115.11 83.34 L 115.17 83.45 L 115.22 83.56 L 115.25 83.67 L 115.27 83.78 L 115.25 83.90 L 115.22 84.01 L 115.17 84.12 L 115.11 84.23 L 115.02 84.34 L 114.93 84.45 L 114.82 84.57 L 114.70 84.68 L 114.59 84.79 L 114.47 84.90 L 114.35 85.01 L 114.25 85.12 L 114.15 85.24 L 114.06 85.35 L 114.00 85.46 L 113.95 85.57 L 113.92 85.68 L 113.91 85.80 L 113.92 85.91 L 113.95 86.02 L 114.00 86.13 L 114.06 86.24 L 114.15 86.35 L 114.25 86.47 L 114.35 86.58 L 114.47 86.69 L 114.59 86.80 L 114.70 86.91 L 114.82 87.02 L 114.93 87.14 L 115.02 87.25 L 115.11 87.36 L 115.17 87.47 L 115.22 87.58 L 115.25 87.70 L 115.27 87.81 A 2.38 2.38 0 0 1 110.51 87.81 L 110.51 87.81 L 110.52 87.70 L 110.55 87.58 L 110.60 87.47 L 110.66 87.36 L 110.75 87.25 L 110.85 87.14 L 110.95 87.02 L 111.07 86.91 L 111.19 86.80 L 111.30 86.69 L 111.42 86.58 L 111.53 86.47 L 111.62 86.35 L 111.71 86.24 L 111.77 86.13 L 111.82 86.02 L 111.85 85.91 L 111.87 85.80 L 111.85 85.68 L 111.82 85.57 L 111.77 85.46 L 111.71 85.35 L 111.62 85.24 L 111.53 85.12 L 111.42 85.01 L 111.30 84.90 L 111.19 84.79 L 111.07 84.68 L 110.95 84.57 L 110.85 84.45 L 110.75 84.34 L 110.66 84.23 L 110.60 84.12 L 110.55 84.01 L 110.52 83.90 L 110.51 83.78 L 110.52 83.67 L 110.55 83.56 L 110.60 83.45 L 110.66 83.34 L 110.75 83.22 L 110.85 83.11 L 110.95 83.00 L 111.07 82.89 L 111.19 82.78 L 111.30 82.67 L 111.42 82.55 L 111.53 82.44 L 111.62 82.33 L 111.71 82.22 L 111.77 82.11 L 111.82 82.00 L 111.85 81.88 L 111.87 81.77 L 111.85 81.66 L 111.82 81.55 L 111.77 81.44 L 111.71 81.32 L 111.62 81.21 L 111.53 81.10 L 111.42 80.99 L 111.30 80.88 L 111.19 80.77 L 111.07 80.65 L 110.95 80.54 L 110.85 80.43 L 110.75 80.32 L 110.66 80.21 L 110.60 80.10 L 110.55 79.98 L 110.52 79.87 L 110.51 79.76 A 2.38 2.38 0 0 1 115.27 79.76 Z" fill="#1f7a44" fill-rule="evenodd"/></g><g transform="rotate(-43.8 134.9 97.1)"><path d="M 141.94 93.01 L 141.91 93.12 L 141.82 93.24 L 141.67 93.35 L 141.47 93.46 L 141.22 93.58 L 140.94 93.69 L 140.62 93.81 L 140.28 93.92 L 139.94 94.04 L 139.59 94.15 L 139.25 94.27 L 138.94 94.38 L 138.65 94.50 L 138.40 94.61 L 138.20 94.73 L 138.06 94.84 L 137.97 94.96 L 137.94 95.07 L 137.97 95.19 L 138.06 95.30 L 138.20 95.42 L 138.40 95.53 L 138.65 95.65 L 138.94 95.76 L 139.25 95.87 L 139.59 95.99 L 139.94 96.10 L 140.28 96.22 L 140.62 96.33 L 140.94 96.45 L 141.22 96.56 L 141.47 96.68 L 141.67 96.79 L 141.82 96.91 L 141.91 97.02 L 141.94 97.14 L 141.91 97.25 L 141.82 97.37 L 141.67 97.48 L 141.47 97.60 L 141.22 97.71 L 140.94 97.83 L 140.62 97.94 L 140.28 98.06 L 139.94 98.17 L 139.59 98.29 L 139.25 98.40 L 138.94 98.51 L 138.65 98.63 L 138.40 98.74 L 138.20 98.86 L 138.06 98.97 L 137.97 99.09 L 137.94 99.20 L 137.97 99.32 L 138.06 99.43 L 138.20 99.55 L 138.40 99.66 L 138.65 99.78 L 138.94 99.89 L 139.25 100.01 L 139.59 100.12 L 139.94 100.24 L 140.28 100.35 L 140.62 100.47 L 140.94 100.58 L 141.22 100.70 L 141.47 100.81 L 141.67 100.92 L 141.82 101.04 L 141.91 101.15 L 141.94 101.27 A 7.00 7.00 0 0 1 127.94 101.27 L 127.94 101.27 L 127.97 101.15 L 128.06 101.04 L 128.20 100.92 L 128.40 100.81 L 128.65 100.70 L 128.94 100.58 L 129.25 100.47 L 129.59 100.35 L 129.94 100.24 L 130.28 100.12 L 130.62 100.01 L 130.94 99.89 L 131.22 99.78 L 131.47 99.66 L 131.67 99.55 L 131.82 99.43 L 131.91 99.32 L 131.94 99.20 L 131.91 99.09 L 131.82 98.97 L 131.67 98.86 L 131.47 98.74 L 131.22 98.63 L 130.94 98.51 L 130.62 98.40 L 130.28 98.29 L 129.94 98.17 L 129.59 98.06 L 129.25 97.94 L 128.94 97.83 L 128.65 97.71 L 128.40 97.60 L 128.20 97.48 L 128.06 97.37 L 127.97 97.25 L 127.94 97.14 L 127.97 97.02 L 128.06 96.91 L 128.20 96.79 L 128.40 96.68 L 128.65 96.56 L 128.94 96.45 L 129.25 96.33 L 129.59 96.22 L 129.94 96.10 L 130.28 95.99 L 130.62 95.87 L 130.94 95.76 L 131.22 95.65 L 131.47 95.53 L 131.67 95.42 L 131.82 95.30 L 131.91 95.19 L 131.94 95.07 L 131.91 94.96 L 131.82 94.84 L 131.67 94.73 L 131.47 94.61 L 131.22 94.50 L 130.94 94.38 L 130.62 94.27 L 130.28 94.15 L 129.94 94.04 L 129.59 93.92 L 129.25 93.81 L 128.94 93.69 L 128.65 93.58 L 128.40 93.46 L 128.20 93.35 L 128.06 93.24 L 127.97 93.12 L 127.94 93.01 A 7.00 7.00 0 0 1 141.94 93.01 Z M 137.32 93.25 L 137.31 93.36 L 137.28 93.47 L 137.23 93.58 L 137.16 93.69 L 137.07 93.79 L 136.98 93.90 L 136.87 94.01 L 136.75 94.12 L 136.64 94.22 L 136.52 94.33 L 136.40 94.44 L 136.30 94.55 L 136.20 94.66 L 136.12 94.76 L 136.05 94.87 L 136.00 94.98 L 135.97 95.09 L 135.96 95.20 L 135.97 95.30 L 136.00 95.41 L 136.05 95.52 L 136.12 95.63 L 136.20 95.73 L 136.30 95.84 L 136.40 95.95 L 136.52 96.06 L 136.64 96.17 L 136.75 96.27 L 136.87 96.38 L 136.98 96.49 L 137.07 96.60 L 137.16 96.71 L 137.23 96.81 L 137.28 96.92 L 137.31 97.03 L 137.32 97.14 L 137.31 97.25 L 137.28 97.35 L 137.23 97.46 L 137.16 97.57 L 137.07 97.68 L 136.98 97.78 L 136.87 97.89 L 136.75 98.00 L 136.64 98.11 L 136.52 98.22 L 136.40 98.32 L 136.30 98.43 L 136.20 98.54 L 136.12 98.65 L 136.05 98.76 L 136.00 98.86 L 135.97 98.97 L 135.96 99.08 L 135.97 99.19 L 136.00 99.29 L 136.05 99.40 L 136.12 99.51 L 136.20 99.62 L 136.30 99.73 L 136.40 99.83 L 136.52 99.94 L 136.64 100.05 L 136.75 100.16 L 136.87 100.27 L 136.98 100.37 L 137.07 100.48 L 137.16 100.59 L 137.23 100.70 L 137.28 100.81 L 137.31 100.91 L 137.32 101.02 A 2.38 2.38 0 0 1 132.56 101.02 L 132.56 101.02 L 132.57 100.91 L 132.60 100.81 L 132.65 100.70 L 132.72 100.59 L 132.80 100.48 L 132.90 100.37 L 133.00 100.27 L 133.12 100.16 L 133.24 100.05 L 133.35 99.94 L 133.47 99.83 L 133.58 99.73 L 133.67 99.62 L 133.76 99.51 L 133.83 99.40 L 133.88 99.29 L 133.91 99.19 L 133.92 99.08 L 133.91 98.97 L 133.88 98.86 L 133.83 98.76 L 133.76 98.65 L 133.67 98.54 L 133.58 98.43 L 133.47 98.32 L 133.35 98.22 L 133.24 98.11 L 133.12 98.00 L 133.00 97.89 L 132.90 97.78 L 132.80 97.68 L 132.72 97.57 L 132.65 97.46 L 132.60 97.35 L 132.57 97.25 L 132.56 97.14 L 132.57 97.03 L 132.60 96.92 L 132.65 96.81 L 132.72 96.71 L 132.80 96.60 L 132.90 96.49 L 133.00 96.38 L 133.12 96.27 L 133.24 96.17 L 133.35 96.06 L 133.47 95.95 L 133.58 95.84 L 133.67 95.73 L 133.76 95.63 L 133.83 95.52 L 133.88 95.41 L 133.91 95.30 L 133.92 95.20 L 133.91 95.09 L 133.88 94.98 L 133.83 94.87 L 133.76 94.76 L 133.67 94.66 L 133.58 94.55 L 133.47 94.44 L 133.35 94.33 L 133.24 94.22 L 133.12 94.12 L 133.00 94.01 L 132.90 93.90 L 132.80 93.79 L 132.72 93.69 L 132.65 93.58 L 132.60 93.47 L 132.57 93.36 L 132.56 93.25 A 2.38 2.38 0 0 1 137.32 93.25 Z" fill="#1f7a44" fill-rule="evenodd"/></g><g transform="rotate(-14.0 147.3 119.4)"><path d="M 154.27 115.42 L 154.24 115.53 L 154.14 115.64 L 154.00 115.75 L 153.80 115.86 L 153.55 115.97 L 153.27 116.09 L 152.95 116.20 L 152.61 116.31 L 152.27 116.42 L 151.92 116.53 L 151.58 116.64 L 151.27 116.75 L 150.98 116.87 L 150.73 116.98 L 150.53 117.09 L 150.39 117.20 L 150.30 117.31 L 150.27 117.42 L 150.30 117.53 L 150.39 117.65 L 150.53 117.76 L 150.73 117.87 L 150.98 117.98 L 151.27 118.09 L 151.58 118.20 L 151.92 118.31 L 152.27 118.43 L 152.61 118.54 L 152.95 118.65 L 153.27 118.76 L 153.55 118.87 L 153.80 118.98 L 154.00 119.09 L 154.14 119.21 L 154.24 119.32 L 154.27 119.43 L 154.24 119.54 L 154.14 119.65 L 154.00 119.76 L 153.80 119.87 L 153.55 119.99 L 153.27 120.10 L 152.95 120.21 L 152.61 120.32 L 152.27 120.43 L 151.92 120.54 L 151.58 120.65 L 151.27 120.77 L 150.98 120.88 L 150.73 120.99 L 150.53 121.10 L 150.39 121.21 L 150.30 121.32 L 150.27 121.43 L 150.30 121.55 L 150.39 121.66 L 150.53 121.77 L 150.73 121.88 L 150.98 121.99 L 151.27 122.10 L 151.58 122.21 L 151.92 122.33 L 152.27 122.44 L 152.61 122.55 L 152.95 122.66 L 153.27 122.77 L 153.55 122.88 L 153.80 122.99 L 154.00 123.11 L 154.14 123.22 L 154.24 123.33 L 154.27 123.44 A 7.00 7.00 0 0 1 140.27 123.44 L 140.27 123.44 L 140.30 123.33 L 140.39 123.22 L 140.53 123.11 L 140.73 122.99 L 140.98 122.88 L 141.27 122.77 L 141.58 122.66 L 141.92 122.55 L 142.27 122.44 L 142.61 122.33 L 142.95 122.21 L 143.27 122.10 L 143.55 121.99 L 143.80 121.88 L 144.00 121.77 L 144.14 121.66 L 144.24 121.55 L 144.27 121.43 L 144.24 121.32 L 144.14 121.21 L 144.00 121.10 L 143.80 120.99 L 143.55 120.88 L 143.27 120.77 L 142.95 120.65 L 142.61 120.54 L 142.27 120.43 L 141.92 120.32 L 141.58 120.21 L 141.27 120.10 L 140.98 119.99 L 140.73 119.87 L 140.53 119.76 L 140.39 119.65 L 140.30 119.54 L 140.27 119.43 L 140.30 119.32 L 140.39 119.21 L 140.53 119.09 L 140.73 118.98 L 140.98 118.87 L 141.27 118.76 L 141.58 118.65 L 141.92 118.54 L 142.27 118.43 L 142.61 118.31 L 142.95 118.20 L 143.27 118.09 L 143.55 117.98 L 143.80 117.87 L 144.00 117.76 L 144.14 117.65 L 144.24 117.53 L 144.27 117.42 L 144.24 117.31 L 144.14 117.20 L 144.00 117.09 L 143.80 116.98 L 143.55 116.87 L 143.27 116.75 L 142.95 116.64 L 142.61 116.53 L 142.27 116.42 L 141.92 116.31 L 141.58 116.20 L 141.27 116.09 L 140.98 115.97 L 140.73 115.86 L 140.53 115.75 L 140.39 115.64 L 140.30 115.53 L 140.27 115.42 A 7.00 7.00 0 0 1 154.27 115.42 Z M 149.65 115.66 L 149.64 115.76 L 149.60 115.87 L 149.55 115.97 L 149.49 116.08 L 149.40 116.18 L 149.31 116.29 L 149.20 116.39 L 149.08 116.50 L 148.97 116.60 L 148.85 116.71 L 148.73 116.81 L 148.63 116.92 L 148.53 117.02 L 148.44 117.12 L 148.38 117.23 L 148.33 117.33 L 148.30 117.44 L 148.29 117.54 L 148.30 117.65 L 148.33 117.75 L 148.38 117.86 L 148.44 117.96 L 148.53 118.07 L 148.63 118.17 L 148.73 118.28 L 148.85 118.38 L 148.97 118.49 L 149.08 118.59 L 149.20 118.70 L 149.31 118.80 L 149.40 118.91 L 149.49 119.01 L 149.55 119.11 L 149.60 119.22 L 149.64 119.32 L 149.65 119.43 L 149.64 119.53 L 149.60 119.64 L 149.55 119.74 L 149.49 119.85 L 149.40 119.95 L 149.31 120.06 L 149.20 120.16 L 149.08 120.27 L 148.97 120.37 L 148.85 120.48 L 148.73 120.58 L 148.63 120.69 L 148.53 120.79 L 148.44 120.90 L 148.38 121.00 L 148.33 121.10 L 148.30 121.21 L 148.29 121.31 L 148.30 121.42 L 148.33 121.52 L 148.38 121.63 L 148.44 121.73 L 148.53 121.84 L 148.63 121.94 L 148.73 122.05 L 148.85 122.15 L 148.97 122.26 L 149.08 122.36 L 149.20 122.47 L 149.31 122.57 L 149.40 122.68 L 149.49 122.78 L 149.55 122.88 L 149.60 122.99 L 149.64 123.09 L 149.65 123.20 A 2.38 2.38 0 0 1 144.89 123.20 L 144.89 123.20 L 144.90 123.09 L 144.93 122.99 L 144.98 122.88 L 145.04 122.78 L 145.13 122.68 L 145.23 122.57 L 145.33 122.47 L 145.45 122.36 L 145.57 122.26 L 145.68 122.15 L 145.80 122.05 L 145.91 121.94 L 146.00 121.84 L 146.09 121.73 L 146.15 121.63 L 146.20 121.52 L 146.24 121.42 L 146.25 121.31 L 146.24 121.21 L 146.20 121.10 L 146.15 121.00 L 146.09 120.90 L 146.00 120.79 L 145.91 120.69 L 145.80 120.58 L 145.68 120.48 L 145.57 120.37 L 145.45 120.27 L 145.33 120.16 L 145.23 120.06 L 145.13 119.95 L 145.04 119.85 L 144.98 119.74 L 144.93 119.64 L 144.90 119.53 L 144.89 119.43 L 144.90 119.32 L 144.93 119.22 L 144.98 119.11 L 145.04 119.01 L 145.13 118.91 L 145.23 118.80 L 145.33 118.70 L 145.45 118.59 L 145.57 118.49 L 145.68 118.38 L 145.80 118.28 L 145.91 118.17 L 146.00 118.07 L 146.09 117.96 L 146.15 117.86 L 146.20 117.75 L 146.24 117.65 L 146.25 117.54 L 146.24 117.44 L 146.20 117.33 L 146.15 117.23 L 146.09 117.12 L 146.00 117.02 L 145.91 116.92 L 145.80 116.81 L 145.68 116.71 L 145.57 116.60 L 145.45 116.50 L 145.33 116.39 L 145.23 116.29 L 145.13 116.18 L 145.04 116.08 L 144.98 115.97 L 144.93 115.87 L 144.90 115.76 L 144.89 115.66 A 2.38 2.38 0 0 1 149.65 115.66 Z" fill="#1f7a44" fill-rule="evenodd"/></g><g transform="rotate(15.8 146.9 144.7)"><path d="M 153.89 140.74 L 153.86 140.85 L 153.77 140.96 L 153.62 141.07 L 153.42 141.18 L 153.18 141.28 L 152.89 141.39 L 152.58 141.50 L 152.24 141.61 L 151.89 141.72 L 151.54 141.83 L 151.21 141.94 L 150.89 142.05 L 150.61 142.16 L 150.36 142.26 L 150.16 142.37 L 150.01 142.48 L 149.92 142.59 L 149.89 142.70 L 149.92 142.81 L 150.01 142.92 L 150.16 143.03 L 150.36 143.13 L 150.61 143.24 L 150.89 143.35 L 151.21 143.46 L 151.54 143.57 L 151.89 143.68 L 152.24 143.79 L 152.58 143.90 L 152.89 144.01 L 153.18 144.11 L 153.42 144.22 L 153.62 144.33 L 153.77 144.44 L 153.86 144.55 L 153.89 144.66 L 153.86 144.77 L 153.77 144.88 L 153.62 144.99 L 153.42 145.09 L 153.18 145.20 L 152.89 145.31 L 152.58 145.42 L 152.24 145.53 L 151.89 145.64 L 151.54 145.75 L 151.21 145.86 L 150.89 145.97 L 150.61 146.07 L 150.36 146.18 L 150.16 146.29 L 150.01 146.40 L 149.92 146.51 L 149.89 146.62 L 149.92 146.73 L 150.01 146.84 L 150.16 146.95 L 150.36 147.05 L 150.61 147.16 L 150.89 147.27 L 151.21 147.38 L 151.54 147.49 L 151.89 147.60 L 152.24 147.71 L 152.58 147.82 L 152.89 147.93 L 153.18 148.03 L 153.42 148.14 L 153.62 148.25 L 153.77 148.36 L 153.86 148.47 L 153.89 148.58 A 7.00 7.00 0 0 1 139.89 148.58 L 139.89 148.58 L 139.92 148.47 L 140.01 148.36 L 140.16 148.25 L 140.36 148.14 L 140.61 148.03 L 140.89 147.93 L 141.21 147.82 L 141.54 147.71 L 141.89 147.60 L 142.24 147.49 L 142.58 147.38 L 142.89 147.27 L 143.18 147.16 L 143.42 147.05 L 143.62 146.95 L 143.77 146.84 L 143.86 146.73 L 143.89 146.62 L 143.86 146.51 L 143.77 146.40 L 143.62 146.29 L 143.42 146.18 L 143.18 146.07 L 142.89 145.97 L 142.58 145.86 L 142.24 145.75 L 141.89 145.64 L 141.54 145.53 L 141.21 145.42 L 140.89 145.31 L 140.61 145.20 L 140.36 145.09 L 140.16 144.99 L 140.01 144.88 L 139.92 144.77 L 139.89 144.66 L 139.92 144.55 L 140.01 144.44 L 140.16 144.33 L 140.36 144.22 L 140.61 144.11 L 140.89 144.01 L 141.21 143.90 L 141.54 143.79 L 141.89 143.68 L 142.24 143.57 L 142.58 143.46 L 142.89 143.35 L 143.18 143.24 L 143.42 143.13 L 143.62 143.03 L 143.77 142.92 L 143.86 142.81 L 143.89 142.70 L 143.86 142.59 L 143.77 142.48 L 143.62 142.37 L 143.42 142.26 L 143.18 142.16 L 142.89 142.05 L 142.58 141.94 L 142.24 141.83 L 141.89 141.72 L 141.54 141.61 L 141.21 141.50 L 140.89 141.39 L 140.61 141.28 L 140.36 141.18 L 140.16 141.07 L 140.01 140.96 L 139.92 140.85 L 139.89 140.74 A 7.00 7.00 0 0 1 153.89 140.74 Z M 149.27 140.97 L 149.26 141.08 L 149.23 141.18 L 149.18 141.28 L 149.11 141.38 L 149.03 141.49 L 148.93 141.59 L 148.82 141.69 L 148.71 141.79 L 148.59 141.90 L 148.47 142.00 L 148.36 142.10 L 148.25 142.20 L 148.16 142.31 L 148.07 142.41 L 148.00 142.51 L 147.95 142.61 L 147.92 142.71 L 147.91 142.82 L 147.92 142.92 L 147.95 143.02 L 148.00 143.12 L 148.07 143.23 L 148.16 143.33 L 148.25 143.43 L 148.36 143.53 L 148.47 143.64 L 148.59 143.74 L 148.71 143.84 L 148.82 143.94 L 148.93 144.05 L 149.03 144.15 L 149.11 144.25 L 149.18 144.35 L 149.23 144.45 L 149.26 144.56 L 149.27 144.66 L 149.26 144.76 L 149.23 144.86 L 149.18 144.97 L 149.11 145.07 L 149.03 145.17 L 148.93 145.27 L 148.82 145.38 L 148.71 145.48 L 148.59 145.58 L 148.47 145.68 L 148.36 145.79 L 148.25 145.89 L 148.16 145.99 L 148.07 146.09 L 148.00 146.19 L 147.95 146.30 L 147.92 146.40 L 147.91 146.50 L 147.92 146.60 L 147.95 146.71 L 148.00 146.81 L 148.07 146.91 L 148.16 147.01 L 148.25 147.12 L 148.36 147.22 L 148.47 147.32 L 148.59 147.42 L 148.71 147.52 L 148.82 147.63 L 148.93 147.73 L 149.03 147.83 L 149.11 147.93 L 149.18 148.04 L 149.23 148.14 L 149.26 148.24 L 149.27 148.34 A 2.38 2.38 0 0 1 144.51 148.34 L 144.51 148.34 L 144.52 148.24 L 144.55 148.14 L 144.60 148.04 L 144.67 147.93 L 144.76 147.83 L 144.85 147.73 L 144.96 147.63 L 145.07 147.52 L 145.19 147.42 L 145.31 147.32 L 145.42 147.22 L 145.53 147.12 L 145.63 147.01 L 145.71 146.91 L 145.78 146.81 L 145.83 146.71 L 145.86 146.60 L 145.87 146.50 L 145.86 146.40 L 145.83 146.30 L 145.78 146.19 L 145.71 146.09 L 145.63 145.99 L 145.53 145.89 L 145.42 145.79 L 145.31 145.68 L 145.19 145.58 L 145.07 145.48 L 144.96 145.38 L 144.85 145.27 L 144.76 145.17 L 144.67 145.07 L 144.60 144.97 L 144.55 144.86 L 144.52 144.76 L 144.51 144.66 L 144.52 144.56 L 144.55 144.45 L 144.60 144.35 L 144.67 144.25 L 144.76 144.15 L 144.85 144.05 L 144.96 143.94 L 145.07 143.84 L 145.19 143.74 L 145.31 143.64 L 145.42 143.53 L 145.53 143.43 L 145.63 143.33 L 145.71 143.23 L 145.78 143.12 L 145.83 143.02 L 145.86 142.92 L 145.87 142.82 L 145.86 142.71 L 145.83 142.61 L 145.78 142.51 L 145.71 142.41 L 145.63 142.31 L 145.53 142.20 L 145.42 142.10 L 145.31 142.00 L 145.19 141.90 L 145.07 141.79 L 144.96 141.69 L 144.85 141.59 L 144.76 141.49 L 144.67 141.38 L 144.60 141.28 L 144.55 141.18 L 144.52 141.08 L 144.51 140.97 A 2.38 2.38 0 0 1 149.27 140.97 Z" fill="#1f7a44" fill-rule="evenodd"/></g><g transform="rotate(45.5 134.1 166.2)"><path d="M 141.14 162.37 L 141.11 162.48 L 141.02 162.59 L 140.87 162.69 L 140.67 162.80 L 140.42 162.91 L 140.14 163.02 L 139.82 163.12 L 139.49 163.23 L 139.14 163.34 L 138.79 163.44 L 138.45 163.55 L 138.14 163.66 L 137.85 163.77 L 137.61 163.87 L 137.41 163.98 L 137.26 164.09 L 137.17 164.19 L 137.14 164.30 L 137.17 164.41 L 137.26 164.52 L 137.41 164.62 L 137.61 164.73 L 137.85 164.84 L 138.14 164.94 L 138.45 165.05 L 138.79 165.16 L 139.14 165.27 L 139.49 165.37 L 139.82 165.48 L 140.14 165.59 L 140.42 165.70 L 140.67 165.80 L 140.87 165.91 L 141.02 166.02 L 141.11 166.12 L 141.14 166.23 L 141.11 166.34 L 141.02 166.45 L 140.87 166.55 L 140.67 166.66 L 140.42 166.77 L 140.14 166.87 L 139.82 166.98 L 139.49 167.09 L 139.14 167.20 L 138.79 167.30 L 138.45 167.41 L 138.14 167.52 L 137.85 167.62 L 137.61 167.73 L 137.41 167.84 L 137.26 167.95 L 137.17 168.05 L 137.14 168.16 L 137.17 168.27 L 137.26 168.37 L 137.41 168.48 L 137.61 168.59 L 137.85 168.70 L 138.14 168.80 L 138.45 168.91 L 138.79 169.02 L 139.14 169.12 L 139.49 169.23 L 139.82 169.34 L 140.14 169.45 L 140.42 169.55 L 140.67 169.66 L 140.87 169.77 L 141.02 169.87 L 141.11 169.98 L 141.14 170.09 A 7.00 7.00 0 0 1 127.14 170.09 L 127.14 170.09 L 127.17 169.98 L 127.26 169.87 L 127.41 169.77 L 127.61 169.66 L 127.85 169.55 L 128.14 169.45 L 128.45 169.34 L 128.79 169.23 L 129.14 169.12 L 129.49 169.02 L 129.82 168.91 L 130.14 168.80 L 130.42 168.70 L 130.67 168.59 L 130.87 168.48 L 131.02 168.37 L 131.11 168.27 L 131.14 168.16 L 131.11 168.05 L 131.02 167.95 L 130.87 167.84 L 130.67 167.73 L 130.42 167.62 L 130.14 167.52 L 129.82 167.41 L 129.49 167.30 L 129.14 167.20 L 128.79 167.09 L 128.45 166.98 L 128.14 166.87 L 127.85 166.77 L 127.61 166.66 L 127.41 166.55 L 127.26 166.45 L 127.17 166.34 L 127.14 166.23 L 127.17 166.12 L 127.26 166.02 L 127.41 165.91 L 127.61 165.80 L 127.85 165.70 L 128.14 165.59 L 128.45 165.48 L 128.79 165.37 L 129.14 165.27 L 129.49 165.16 L 129.82 165.05 L 130.14 164.94 L 130.42 164.84 L 130.67 164.73 L 130.87 164.62 L 131.02 164.52 L 131.11 164.41 L 131.14 164.30 L 131.11 164.19 L 131.02 164.09 L 130.87 163.98 L 130.67 163.87 L 130.42 163.77 L 130.14 163.66 L 129.82 163.55 L 129.49 163.44 L 129.14 163.34 L 128.79 163.23 L 128.45 163.12 L 128.14 163.02 L 127.85 162.91 L 127.61 162.80 L 127.41 162.69 L 127.26 162.59 L 127.17 162.48 L 127.14 162.37 A 7.00 7.00 0 0 1 141.14 162.37 Z M 136.52 162.60 L 136.51 162.70 L 136.48 162.81 L 136.43 162.91 L 136.36 163.01 L 136.28 163.11 L 136.18 163.21 L 136.07 163.31 L 135.96 163.41 L 135.84 163.51 L 135.72 163.61 L 135.61 163.71 L 135.50 163.81 L 135.40 163.91 L 135.32 164.01 L 135.25 164.12 L 135.20 164.22 L 135.17 164.32 L 135.16 164.42 L 135.17 164.52 L 135.20 164.62 L 135.25 164.72 L 135.32 164.82 L 135.40 164.92 L 135.50 165.02 L 135.61 165.12 L 135.72 165.22 L 135.84 165.32 L 135.96 165.42 L 136.07 165.53 L 136.18 165.63 L 136.28 165.73 L 136.36 165.83 L 136.43 165.93 L 136.48 166.03 L 136.51 166.13 L 136.52 166.23 L 136.51 166.33 L 136.48 166.43 L 136.43 166.53 L 136.36 166.63 L 136.28 166.73 L 136.18 166.84 L 136.07 166.94 L 135.96 167.04 L 135.84 167.14 L 135.72 167.24 L 135.61 167.34 L 135.50 167.44 L 135.40 167.54 L 135.32 167.64 L 135.25 167.74 L 135.20 167.84 L 135.17 167.94 L 135.16 168.04 L 135.17 168.15 L 135.20 168.25 L 135.25 168.35 L 135.32 168.45 L 135.40 168.55 L 135.50 168.65 L 135.61 168.75 L 135.72 168.85 L 135.84 168.95 L 135.96 169.05 L 136.07 169.15 L 136.18 169.25 L 136.28 169.35 L 136.36 169.45 L 136.43 169.56 L 136.48 169.66 L 136.51 169.76 L 136.52 169.86 A 2.38 2.38 0 0 1 131.76 169.86 L 131.76 169.86 L 131.77 169.76 L 131.80 169.66 L 131.85 169.56 L 131.92 169.45 L 132.00 169.35 L 132.10 169.25 L 132.21 169.15 L 132.32 169.05 L 132.44 168.95 L 132.56 168.85 L 132.67 168.75 L 132.78 168.65 L 132.88 168.55 L 132.96 168.45 L 133.03 168.35 L 133.08 168.25 L 133.11 168.15 L 133.12 168.04 L 133.11 167.94 L 133.08 167.84 L 133.03 167.74 L 132.96 167.64 L 132.88 167.54 L 132.78 167.44 L 132.67 167.34 L 132.56 167.24 L 132.44 167.14 L 132.32 167.04 L 132.21 166.94 L 132.10 166.84 L 132.00 166.73 L 131.92 166.63 L 131.85 166.53 L 131.80 166.43 L 131.77 166.33 L 131.76 166.23 L 131.77 166.13 L 131.80 166.03 L 131.85 165.93 L 131.92 165.83 L 132.00 165.73 L 132.10 165.63 L 132.21 165.53 L 132.32 165.42 L 132.44 165.32 L 132.56 165.22 L 132.67 165.12 L 132.78 165.02 L 132.88 164.92 L 132.96 164.82 L 133.03 164.72 L 133.08 164.62 L 133.11 164.52 L 133.12 164.42 L 133.11 164.32 L 133.08 164.22 L 133.03 164.12 L 132.96 164.01 L 132.88 163.91 L 132.78 163.81 L 132.67 163.71 L 132.56 163.61 L 132.44 163.51 L 132.32 163.41 L 132.21 163.31 L 132.10 163.21 L 132.00 163.11 L 131.92 163.01 L 131.85 162.91 L 131.80 162.81 L 131.77 162.70 L 131.76 162.60 A 2.38 2.38 0 0 1 136.52 162.60 Z" fill="#1f7a44" fill-rule="evenodd"/></g><g transform="rotate(75.2 112.5 178.6)"><path d="M 119.46 174.77 L 119.43 174.87 L 119.34 174.98 L 119.19 175.08 L 118.99 175.19 L 118.75 175.30 L 118.46 175.40 L 118.14 175.51 L 117.81 175.62 L 117.46 175.72 L 117.11 175.83 L 116.78 175.94 L 116.46 176.04 L 116.17 176.15 L 115.93 176.25 L 115.73 176.36 L 115.58 176.47 L 115.49 176.57 L 115.46 176.68 L 115.49 176.79 L 115.58 176.89 L 115.73 177.00 L 115.93 177.10 L 116.17 177.21 L 116.46 177.32 L 116.78 177.42 L 117.11 177.53 L 117.46 177.64 L 117.81 177.74 L 118.14 177.85 L 118.46 177.96 L 118.75 178.06 L 118.99 178.17 L 119.19 178.27 L 119.34 178.38 L 119.43 178.49 L 119.46 178.59 L 119.43 178.70 L 119.34 178.81 L 119.19 178.91 L 118.99 179.02 L 118.75 179.13 L 118.46 179.23 L 118.14 179.34 L 117.81 179.44 L 117.46 179.55 L 117.11 179.66 L 116.78 179.76 L 116.46 179.87 L 116.17 179.98 L 115.93 180.08 L 115.73 180.19 L 115.58 180.29 L 115.49 180.40 L 115.46 180.51 L 115.49 180.61 L 115.58 180.72 L 115.73 180.83 L 115.93 180.93 L 116.17 181.04 L 116.46 181.15 L 116.78 181.25 L 117.11 181.36 L 117.46 181.46 L 117.81 181.57 L 118.14 181.68 L 118.46 181.78 L 118.75 181.89 L 118.99 182.00 L 119.19 182.10 L 119.34 182.21 L 119.43 182.31 L 119.46 182.42 A 7.00 7.00 0 0 1 105.46 182.42 L 105.46 182.42 L 105.49 182.31 L 105.58 182.21 L 105.73 182.10 L 105.93 182.00 L 106.17 181.89 L 106.46 181.78 L 106.78 181.68 L 107.11 181.57 L 107.46 181.46 L 107.81 181.36 L 108.14 181.25 L 108.46 181.15 L 108.75 181.04 L 108.99 180.93 L 109.19 180.83 L 109.34 180.72 L 109.43 180.61 L 109.46 180.51 L 109.43 180.40 L 109.34 180.29 L 109.19 180.19 L 108.99 180.08 L 108.75 179.98 L 108.46 179.87 L 108.14 179.76 L 107.81 179.66 L 107.46 179.55 L 107.11 179.44 L 106.78 179.34 L 106.46 179.23 L 106.17 179.13 L 105.93 179.02 L 105.73 178.91 L 105.58 178.81 L 105.49 178.70 L 105.46 178.59 L 105.49 178.49 L 105.58 178.38 L 105.73 178.27 L 105.93 178.17 L 106.17 178.06 L 106.46 177.96 L 106.78 177.85 L 107.11 177.74 L 107.46 177.64 L 107.81 177.53 L 108.14 177.42 L 108.46 177.32 L 108.75 177.21 L 108.99 177.10 L 109.19 177.00 L 109.34 176.89 L 109.43 176.79 L 109.46 176.68 L 109.43 176.57 L 109.34 176.47 L 109.19 176.36 L 108.99 176.25 L 108.75 176.15 L 108.46 176.04 L 108.14 175.94 L 107.81 175.83 L 107.46 175.72 L 107.11 175.62 L 106.78 175.51 L 106.46 175.40 L 106.17 175.30 L 105.93 175.19 L 105.73 175.08 L 105.58 174.98 L 105.49 174.87 L 105.46 174.77 A 7.00 7.00 0 0 1 119.46 174.77 Z M 114.84 175.00 L 114.83 175.10 L 114.80 175.20 L 114.75 175.30 L 114.68 175.40 L 114.60 175.50 L 114.50 175.60 L 114.39 175.70 L 114.28 175.80 L 114.16 175.90 L 114.04 176.00 L 113.93 176.09 L 113.82 176.19 L 113.72 176.29 L 113.64 176.39 L 113.57 176.49 L 113.52 176.59 L 113.49 176.69 L 113.48 176.79 L 113.49 176.89 L 113.52 176.99 L 113.57 177.09 L 113.64 177.19 L 113.72 177.29 L 113.82 177.39 L 113.93 177.49 L 114.04 177.59 L 114.16 177.69 L 114.28 177.79 L 114.39 177.89 L 114.50 177.99 L 114.60 178.09 L 114.68 178.19 L 114.75 178.29 L 114.80 178.39 L 114.83 178.49 L 114.84 178.59 L 114.83 178.69 L 114.80 178.79 L 114.75 178.89 L 114.68 178.99 L 114.60 179.09 L 114.50 179.19 L 114.39 179.29 L 114.28 179.39 L 114.16 179.49 L 114.04 179.59 L 113.93 179.69 L 113.82 179.79 L 113.72 179.89 L 113.64 179.99 L 113.57 180.09 L 113.52 180.19 L 113.49 180.29 L 113.48 180.39 L 113.49 180.49 L 113.52 180.59 L 113.57 180.69 L 113.64 180.79 L 113.72 180.89 L 113.82 180.99 L 113.93 181.09 L 114.04 181.19 L 114.16 181.29 L 114.28 181.39 L 114.39 181.49 L 114.50 181.59 L 114.60 181.69 L 114.68 181.79 L 114.75 181.89 L 114.80 181.99 L 114.83 182.09 L 114.84 182.19 A 2.38 2.38 0 0 1 110.08 182.19 L 110.08 182.19 L 110.09 182.09 L 110.12 181.99 L 110.17 181.89 L 110.24 181.79 L 110.32 181.69 L 110.42 181.59 L 110.53 181.49 L 110.64 181.39 L 110.76 181.29 L 110.88 181.19 L 110.99 181.09 L 111.10 180.99 L 111.20 180.89 L 111.28 180.79 L 111.35 180.69 L 111.40 180.59 L 111.43 180.49 L 111.44 180.39 L 111.43 180.29 L 111.40 180.19 L 111.35 180.09 L 111.28 179.99 L 111.20 179.89 L 111.10 179.79 L 110.99 179.69 L 110.88 179.59 L 110.76 179.49 L 110.64 179.39 L 110.53 179.29 L 110.42 179.19 L 110.32 179.09 L 110.24 178.99 L 110.17 178.89 L 110.12 178.79 L 110.09 178.69 L 110.08 178.59 L 110.09 178.49 L 110.12 178.39 L 110.17 178.29 L 110.24 178.19 L 110.32 178.09 L 110.42 177.99 L 110.53 177.89 L 110.64 177.79 L 110.76 177.69 L 110.88 177.59 L 110.99 177.49 L 111.10 177.39 L 111.20 177.29 L 111.28 177.19 L 111.35 177.09 L 111.40 176.99 L 111.43 176.89 L 111.44 176.79 L 111.43 176.69 L 111.40 176.59 L 111.35 176.49 L 111.28 176.39 L 111.20 176.29 L 111.10 176.19 L 110.99 176.09 L 110.88 176.00 L 110.76 175.90 L 110.64 175.80 L 110.53 175.70 L 110.42 175.60 L 110.32 175.50 L 110.24 175.40 L 110.17 175.30 L 110.12 175.20 L 110.09 175.10 L 110.08 175.00 A 2.38 2.38 0 0 1 114.84 175.00 Z" fill="#1f7a44" fill-rule="evenodd"/></g><g transform="rotate(-255.2 87.5 178.6)"><path d="M 94.54 174.77 L 94.51 174.87 L 94.42 174.98 L 94.27 175.08 L 94.07 175.19 L 93.83 175.30 L 93.54 175.40 L 93.22 175.51 L 92.89 175.62 L 92.54 175.72 L 92.19 175.83 L 91.86 175.94 L 91.54 176.04 L 91.25 176.15 L 91.01 176.25 L 90.81 176.36 L 90.66 176.47 L 90.57 176.57 L 90.54 176.68 L 90.57 176.79 L 90.66 176.89 L 90.81 177.00 L 91.01 177.10 L 91.25 177.21 L 91.54 177.32 L 91.86 177.42 L 92.19 177.53 L 92.54 177.64 L 92.89 177.74 L 93.22 177.85 L 93.54 177.96 L 93.83 178.06 L 94.07 178.17 L 94.27 178.27 L 94.42 178.38 L 94.51 178.49 L 94.54 178.59 L 94.51 178.70 L 94.42 178.81 L 94.27 178.91 L 94.07 179.02 L 93.83 179.13 L 93.54 179.23 L 93.22 179.34 L 92.89 179.44 L 92.54 179.55 L 92.19 179.66 L 91.86 179.76 L 91.54 179.87 L 91.25 179.98 L 91.01 180.08 L 90.81 180.19 L 90.66 180.29 L 90.57 180.40 L 90.54 180.51 L 90.57 180.61 L 90.66 180.72 L 90.81 180.83 L 91.01 180.93 L 91.25 181.04 L 91.54 181.15 L 91.86 181.25 L 92.19 181.36 L 92.54 181.46 L 92.89 181.57 L 93.22 181.68 L 93.54 181.78 L 93.83 181.89 L 94.07 182.00 L 94.27 182.10 L 94.42 182.21 L 94.51 182.31 L 94.54 182.42 A 7.00 7.00 0 0 1 80.54 182.42 L 80.54 182.42 L 80.57 182.31 L 80.66 182.21 L 80.81 182.10 L 81.01 182.00 L 81.25 181.89 L 81.54 181.78 L 81.86 181.68 L 82.19 181.57 L 82.54 181.46 L 82.89 181.36 L 83.22 181.25 L 83.54 181.15 L 83.83 181.04 L 84.07 180.93 L 84.27 180.83 L 84.42 180.72 L 84.51 180.61 L 84.54 180.51 L 84.51 180.40 L 84.42 180.29 L 84.27 180.19 L 84.07 180.08 L 83.83 179.98 L 83.54 179.87 L 83.22 179.76 L 82.89 179.66 L 82.54 179.55 L 82.19 179.44 L 81.86 179.34 L 81.54 179.23 L 81.25 179.13 L 81.01 179.02 L 80.81 178.91 L 80.66 178.81 L 80.57 178.70 L 80.54 178.59 L 80.57 178.49 L 80.66 178.38 L 80.81 178.27 L 81.01 178.17 L 81.25 178.06 L 81.54 177.96 L 81.86 177.85 L 82.19 177.74 L 82.54 177.64 L 82.89 177.53 L 83.22 177.42 L 83.54 177.32 L 83.83 177.21 L 84.07 177.10 L 84.27 177.00 L 84.42 176.89 L 84.51 176.79 L 84.54 176.68 L 84.51 176.57 L 84.42 176.47 L 84.27 176.36 L 84.07 176.25 L 83.83 176.15 L 83.54 176.04 L 83.22 175.94 L 82.89 175.83 L 82.54 175.72 L 82.19 175.62 L 81.86 175.51 L 81.54 175.40 L 81.25 175.30 L 81.01 175.19 L 80.81 175.08 L 80.66 174.98 L 80.57 174.87 L 80.54 174.77 A 7.00 7.00 0 0 1 94.54 174.77 Z M 89.92 175.00 L 89.91 175.10 L 89.88 175.20 L 89.83 175.30 L 89.76 175.40 L 89.68 175.50 L 89.58 175.60 L 89.47 175.70 L 89.36 175.80 L 89.24 175.90 L 89.12 176.00 L 89.01 176.09 L 88.90 176.19 L 88.80 176.29 L 88.72 176.39 L 88.65 176.49 L 88.60 176.59 L 88.57 176.69 L 88.56 176.79 L 88.57 176.89 L 88.60 176.99 L 88.65 177.09 L 88.72 177.19 L 88.80 177.29 L 88.90 177.39 L 89.01 177.49 L 89.12 177.59 L 89.24 177.69 L 89.36 177.79 L 89.47 177.89 L 89.58 177.99 L 89.68 178.09 L 89.76 178.19 L 89.83 178.29 L 89.88 178.39 L 89.91 178.49 L 89.92 178.59 L 89.91 178.69 L 89.88 178.79 L 89.83 178.89 L 89.76 178.99 L 89.68 179.09 L 89.58 179.19 L 89.47 179.29 L 89.36 179.39 L 89.24 179.49 L 89.12 179.59 L 89.01 179.69 L 88.90 179.79 L 88.80 179.89 L 88.72 179.99 L 88.65 180.09 L 88.60 180.19 L 88.57 180.29 L 88.56 180.39 L 88.57 180.49 L 88.60 180.59 L 88.65 180.69 L 88.72 180.79 L 88.80 180.89 L 88.90 180.99 L 89.01 181.09 L 89.12 181.19 L 89.24 181.29 L 89.36 181.39 L 89.47 181.49 L 89.58 181.59 L 89.68 181.69 L 89.76 181.79 L 89.83 181.89 L 89.88 181.99 L 89.91 182.09 L 89.92 182.19 A 2.38 2.38 0 0 1 85.16 182.19 L 85.16 182.19 L 85.17 182.09 L 85.20 181.99 L 85.25 181.89 L 85.32 181.79 L 85.40 181.69 L 85.50 181.59 L 85.61 181.49 L 85.72 181.39 L 85.84 181.29 L 85.96 181.19 L 86.07 181.09 L 86.18 180.99 L 86.28 180.89 L 86.36 180.79 L 86.43 180.69 L 86.48 180.59 L 86.51 180.49 L 86.52 180.39 L 86.51 180.29 L 86.48 180.19 L 86.43 180.09 L 86.36 179.99 L 86.28 179.89 L 86.18 179.79 L 86.07 179.69 L 85.96 179.59 L 85.84 179.49 L 85.72 179.39 L 85.61 179.29 L 85.50 179.19 L 85.40 179.09 L 85.32 178.99 L 85.25 178.89 L 85.20 178.79 L 85.17 178.69 L 85.16 178.59 L 85.17 178.49 L 85.20 178.39 L 85.25 178.29 L 85.32 178.19 L 85.40 178.09 L 85.50 177.99 L 85.61 177.89 L 85.72 177.79 L 85.84 177.69 L 85.96 177.59 L 86.07 177.49 L 86.18 177.39 L 86.28 177.29 L 86.36 177.19 L 86.43 177.09 L 86.48 176.99 L 86.51 176.89 L 86.52 176.79 L 86.51 176.69 L 86.48 176.59 L 86.43 176.49 L 86.36 176.39 L 86.28 176.29 L 86.18 176.19 L 86.07 176.09 L 85.96 176.00 L 85.84 175.90 L 85.72 175.80 L 85.61 175.70 L 85.50 175.60 L 85.40 175.50 L 85.32 175.40 L 85.25 175.30 L 85.20 175.20 L 85.17 175.10 L 85.16 175.00 A 2.38 2.38 0 0 1 89.92 175.00 Z" fill="#1f7a44" fill-rule="evenodd"/></g><g transform="rotate(-225.5 65.9 166.2)"><path d="M 72.86 162.37 L 72.83 162.48 L 72.74 162.59 L 72.59 162.69 L 72.39 162.80 L 72.15 162.91 L 71.86 163.02 L 71.55 163.12 L 71.21 163.23 L 70.86 163.34 L 70.51 163.44 L 70.18 163.55 L 69.86 163.66 L 69.58 163.77 L 69.33 163.87 L 69.13 163.98 L 68.98 164.09 L 68.89 164.19 L 68.86 164.30 L 68.89 164.41 L 68.98 164.52 L 69.13 164.62 L 69.33 164.73 L 69.58 164.84 L 69.86 164.94 L 70.18 165.05 L 70.51 165.16 L 70.86 165.27 L 71.21 165.37 L 71.55 165.48 L 71.86 165.59 L 72.15 165.70 L 72.39 165.80 L 72.59 165.91 L 72.74 166.02 L 72.83 166.12 L 72.86 166.23 L 72.83 166.34 L 72.74 166.45 L 72.59 166.55 L 72.39 166.66 L 72.15 166.77 L 71.86 166.87 L 71.55 166.98 L 71.21 167.09 L 70.86 167.20 L 70.51 167.30 L 70.18 167.41 L 69.86 167.52 L 69.58 167.62 L 69.33 167.73 L 69.13 167.84 L 68.98 167.95 L 68.89 168.05 L 68.86 168.16 L 68.89 168.27 L 68.98 168.37 L 69.13 168.48 L 69.33 168.59 L 69.58 168.70 L 69.86 168.80 L 70.18 168.91 L 70.51 169.02 L 70.86 169.12 L 71.21 169.23 L 71.55 169.34 L 71.86 169.45 L 72.15 169.55 L 72.39 169.66 L 72.59 169.77 L 72.74 169.87 L 72.83 169.98 L 72.86 170.09 A 7.00 7.00 0 0 1 58.86 170.09 L 58.86 170.09 L 58.89 169.98 L 58.98 169.87 L 59.13 169.77 L 59.33 169.66 L 59.58 169.55 L 59.86 169.45 L 60.18 169.34 L 60.51 169.23 L 60.86 169.12 L 61.21 169.02 L 61.55 168.91 L 61.86 168.80 L 62.15 168.70 L 62.39 168.59 L 62.59 168.48 L 62.74 168.37 L 62.83 168.27 L 62.86 168.16 L 62.83 168.05 L 62.74 167.95 L 62.59 167.84 L 62.39 167.73 L 62.15 167.62 L 61.86 167.52 L 61.55 167.41 L 61.21 167.30 L 60.86 167.20 L 60.51 167.09 L 60.18 166.98 L 59.86 166.87 L 59.58 166.77 L 59.33 166.66 L 59.13 166.55 L 58.98 166.45 L 58.89 166.34 L 58.86 166.23 L 58.89 166.12 L 58.98 166.02 L 59.13 165.91 L 59.33 165.80 L 59.58 165.70 L 59.86 165.59 L 60.18 165.48 L 60.51 165.37 L 60.86 165.27 L 61.21 165.16 L 61.55 165.05 L 61.86 164.94 L 62.15 164.84 L 62.39 164.73 L 62.59 164.62 L 62.74 164.52 L 62.83 164.41 L 62.86 164.30 L 62.83 164.19 L 62.74 164.09 L 62.59 163.98 L 62.39 163.87 L 62.15 163.77 L 61.86 163.66 L 61.55 163.55 L 61.21 163.44 L 60.86 163.34 L 60.51 163.23 L 60.18 163.12 L 59.86 163.02 L 59.58 162.91 L 59.33 162.80 L 59.13 162.69 L 58.98 162.59 L 58.89 162.48 L 58.86 162.37 A 7.00 7.00 0 0 1 72.86 162.37 Z M 68.24 162.60 L 68.23 162.70 L 68.20 162.81 L 68.15 162.91 L 68.08 163.01 L 68.00 163.11 L 67.90 163.21 L 67.79 163.31 L 67.68 163.41 L 67.56 163.51 L 67.44 163.61 L 67.33 163.71 L 67.22 163.81 L 67.12 163.91 L 67.04 164.01 L 66.97 164.12 L 66.92 164.22 L 66.89 164.32 L 66.88 164.42 L 66.89 164.52 L 66.92 164.62 L 66.97 164.72 L 67.04 164.82 L 67.12 164.92 L 67.22 165.02 L 67.33 165.12 L 67.44 165.22 L 67.56 165.32 L 67.68 165.42 L 67.79 165.53 L 67.90 165.63 L 68.00 165.73 L 68.08 165.83 L 68.15 165.93 L 68.20 166.03 L 68.23 166.13 L 68.24 166.23 L 68.23 166.33 L 68.20 166.43 L 68.15 166.53 L 68.08 166.63 L 68.00 166.73 L 67.90 166.84 L 67.79 166.94 L 67.68 167.04 L 67.56 167.14 L 67.44 167.24 L 67.33 167.34 L 67.22 167.44 L 67.12 167.54 L 67.04 167.64 L 66.97 167.74 L 66.92 167.84 L 66.89 167.94 L 66.88 168.04 L 66.89 168.15 L 66.92 168.25 L 66.97 168.35 L 67.04 168.45 L 67.12 168.55 L 67.22 168.65 L 67.33 168.75 L 67.44 168.85 L 67.56 168.95 L 67.68 169.05 L 67.79 169.15 L 67.90 169.25 L 68.00 169.35 L 68.08 169.45 L 68.15 169.56 L 68.20 169.66 L 68.23 169.76 L 68.24 169.86 A 2.38 2.38 0 0 1 63.48 169.86 L 63.48 169.86 L 63.49 169.76 L 63.52 169.66 L 63.57 169.56 L 63.64 169.45 L 63.72 169.35 L 63.82 169.25 L 63.93 169.15 L 64.04 169.05 L 64.16 168.95 L 64.28 168.85 L 64.39 168.75 L 64.50 168.65 L 64.60 168.55 L 64.68 168.45 L 64.75 168.35 L 64.80 168.25 L 64.83 168.15 L 64.84 168.04 L 64.83 167.94 L 64.80 167.84 L 64.75 167.74 L 64.68 167.64 L 64.60 167.54 L 64.50 167.44 L 64.39 167.34 L 64.28 167.24 L 64.16 167.14 L 64.04 167.04 L 63.93 166.94 L 63.82 166.84 L 63.72 166.73 L 63.64 166.63 L 63.57 166.53 L 63.52 166.43 L 63.49 166.33 L 63.48 166.23 L 63.49 166.13 L 63.52 166.03 L 63.57 165.93 L 63.64 165.83 L 63.72 165.73 L 63.82 165.63 L 63.93 165.53 L 64.04 165.42 L 64.16 165.32 L 64.28 165.22 L 64.39 165.12 L 64.50 165.02 L 64.60 164.92 L 64.68 164.82 L 64.75 164.72 L 64.80 164.62 L 64.83 164.52 L 64.84 164.42 L 64.83 164.32 L 64.80 164.22 L 64.75 164.12 L 64.68 164.01 L 64.60 163.91 L 64.50 163.81 L 64.39 163.71 L 64.28 163.61 L 64.16 163.51 L 64.04 163.41 L 63.93 163.31 L 63.82 163.21 L 63.72 163.11 L 63.64 163.01 L 63.57 162.91 L 63.52 162.81 L 63.49 162.70 L 63.48 162.60 A 2.38 2.38 0 0 1 68.24 162.60 Z" fill="#1f7a44" fill-rule="evenodd"/></g><g transform="rotate(-195.8 53.1 144.7)"><path d="M 60.11 140.74 L 60.08 140.85 L 59.99 140.96 L 59.84 141.07 L 59.64 141.18 L 59.39 141.28 L 59.11 141.39 L 58.79 141.50 L 58.46 141.61 L 58.11 141.72 L 57.76 141.83 L 57.42 141.94 L 57.11 142.05 L 56.82 142.16 L 56.58 142.26 L 56.38 142.37 L 56.23 142.48 L 56.14 142.59 L 56.11 142.70 L 56.14 142.81 L 56.23 142.92 L 56.38 143.03 L 56.58 143.13 L 56.82 143.24 L 57.11 143.35 L 57.42 143.46 L 57.76 143.57 L 58.11 143.68 L 58.46 143.79 L 58.79 143.90 L 59.11 144.01 L 59.39 144.11 L 59.64 144.22 L 59.84 144.33 L 59.99 144.44 L 60.08 144.55 L 60.11 144.66 L 60.08 144.77 L 59.99 144.88 L 59.84 144.99 L 59.64 145.09 L 59.39 145.20 L 59.11 145.31 L 58.79 145.42 L 58.46 145.53 L 58.11 145.64 L 57.76 145.75 L 57.42 145.86 L 57.11 145.97 L 56.82 146.07 L 56.58 146.18 L 56.38 146.29 L 56.23 146.40 L 56.14 146.51 L 56.11 146.62 L 56.14 146.73 L 56.23 146.84 L 56.38 146.95 L 56.58 147.05 L 56.82 147.16 L 57.11 147.27 L 57.42 147.38 L 57.76 147.49 L 58.11 147.60 L 58.46 147.71 L 58.79 147.82 L 59.11 147.93 L 59.39 148.03 L 59.64 148.14 L 59.84 148.25 L 59.99 148.36 L 60.08 148.47 L 60.11 148.58 A 7.00 7.00 0 0 1 46.11 148.58 L 46.11 148.58 L 46.14 148.47 L 46.23 148.36 L 46.38 148.25 L 46.58 148.14 L 46.82 148.03 L 47.11 147.93 L 47.42 147.82 L 47.76 147.71 L 48.11 147.60 L 48.46 147.49 L 48.79 147.38 L 49.11 147.27 L 49.39 147.16 L 49.64 147.05 L 49.84 146.95 L 49.99 146.84 L 50.08 146.73 L 50.11 146.62 L 50.08 146.51 L 49.99 146.40 L 49.84 146.29 L 49.64 146.18 L 49.39 146.07 L 49.11 145.97 L 48.79 145.86 L 48.46 145.75 L 48.11 145.64 L 47.76 145.53 L 47.42 145.42 L 47.11 145.31 L 46.82 145.20 L 46.58 145.09 L 46.38 144.99 L 46.23 144.88 L 46.14 144.77 L 46.11 144.66 L 46.14 144.55 L 46.23 144.44 L 46.38 144.33 L 46.58 144.22 L 46.82 144.11 L 47.11 144.01 L 47.42 143.90 L 47.76 143.79 L 48.11 143.68 L 48.46 143.57 L 48.79 143.46 L 49.11 143.35 L 49.39 143.24 L 49.64 143.13 L 49.84 143.03 L 49.99 142.92 L 50.08 142.81 L 50.11 142.70 L 50.08 142.59 L 49.99 142.48 L 49.84 142.37 L 49.64 142.26 L 49.39 142.16 L 49.11 142.05 L 48.79 141.94 L 48.46 141.83 L 48.11 141.72 L 47.76 141.61 L 47.42 141.50 L 47.11 141.39 L 46.82 141.28 L 46.58 141.18 L 46.38 141.07 L 46.23 140.96 L 46.14 140.85 L 46.11 140.74 A 7.00 7.00 0 0 1 60.11 140.74 Z M 55.49 140.97 L 55.48 141.08 L 55.45 141.18 L 55.40 141.28 L 55.33 141.38 L 55.24 141.49 L 55.15 141.59 L 55.04 141.69 L 54.93 141.79 L 54.81 141.90 L 54.69 142.00 L 54.58 142.10 L 54.47 142.20 L 54.37 142.31 L 54.29 142.41 L 54.22 142.51 L 54.17 142.61 L 54.14 142.71 L 54.13 142.82 L 54.14 142.92 L 54.17 143.02 L 54.22 143.12 L 54.29 143.23 L 54.37 143.33 L 54.47 143.43 L 54.58 143.53 L 54.69 143.64 L 54.81 143.74 L 54.93 143.84 L 55.04 143.94 L 55.15 144.05 L 55.24 144.15 L 55.33 144.25 L 55.40 144.35 L 55.45 144.45 L 55.48 144.56 L 55.49 144.66 L 55.48 144.76 L 55.45 144.86 L 55.40 144.97 L 55.33 145.07 L 55.24 145.17 L 55.15 145.27 L 55.04 145.38 L 54.93 145.48 L 54.81 145.58 L 54.69 145.68 L 54.58 145.79 L 54.47 145.89 L 54.37 145.99 L 54.29 146.09 L 54.22 146.19 L 54.17 146.30 L 54.14 146.40 L 54.13 146.50 L 54.14 146.60 L 54.17 146.71 L 54.22 146.81 L 54.29 146.91 L 54.37 147.01 L 54.47 147.12 L 54.58 147.22 L 54.69 147.32 L 54.81 147.42 L 54.93 147.52 L 55.04 147.63 L 55.15 147.73 L 55.24 147.83 L 55.33 147.93 L 55.40 148.04 L 55.45 148.14 L 55.48 148.24 L 55.49 148.34 A 2.38 2.38 0 0 1 50.73 148.34 L 50.73 148.34 L 50.74 148.24 L 50.77 148.14 L 50.82 148.04 L 50.89 147.93 L 50.97 147.83 L 51.07 147.73 L 51.18 147.63 L 51.29 147.52 L 51.41 147.42 L 51.53 147.32 L 51.64 147.22 L 51.75 147.12 L 51.84 147.01 L 51.93 146.91 L 52.00 146.81 L 52.05 146.71 L 52.08 146.60 L 52.09 146.50 L 52.08 146.40 L 52.05 146.30 L 52.00 146.19 L 51.93 146.09 L 51.84 145.99 L 51.75 145.89 L 51.64 145.79 L 51.53 145.68 L 51.41 145.58 L 51.29 145.48 L 51.18 145.38 L 51.07 145.27 L 50.97 145.17 L 50.89 145.07 L 50.82 144.97 L 50.77 144.86 L 50.74 144.76 L 50.73 144.66 L 50.74 144.56 L 50.77 144.45 L 50.82 144.35 L 50.89 144.25 L 50.97 144.15 L 51.07 144.05 L 51.18 143.94 L 51.29 143.84 L 51.41 143.74 L 51.53 143.64 L 51.64 143.53 L 51.75 143.43 L 51.84 143.33 L 51.93 143.23 L 52.00 143.12 L 52.05 143.02 L 52.08 142.92 L 52.09 142.82 L 52.08 142.71 L 52.05 142.61 L 52.00 142.51 L 51.93 142.41 L 51.84 142.31 L 51.75 142.20 L 51.64 142.10 L 51.53 142.00 L 51.41 141.90 L 51.29 141.79 L 51.18 141.69 L 51.07 141.59 L 50.97 141.49 L 50.89 141.38 L 50.82 141.28 L 50.77 141.18 L 50.74 141.08 L 50.73 140.97 A 2.38 2.38 0 0 1 55.49 140.97 Z" fill="#1f7a44" fill-rule="evenodd"/></g><g transform="rotate(-166.0 52.7 119.4)"><path d="M 59.73 115.42 L 59.70 115.53 L 59.61 115.64 L 59.47 115.75 L 59.27 115.86 L 59.02 115.97 L 58.73 116.09 L 58.42 116.20 L 58.08 116.31 L 57.73 116.42 L 57.39 116.53 L 57.05 116.64 L 56.73 116.75 L 56.45 116.87 L 56.20 116.98 L 56.00 117.09 L 55.86 117.20 L 55.76 117.31 L 55.73 117.42 L 55.76 117.53 L 55.86 117.65 L 56.00 117.76 L 56.20 117.87 L 56.45 117.98 L 56.73 118.09 L 57.05 118.20 L 57.39 118.31 L 57.73 118.43 L 58.08 118.54 L 58.42 118.65 L 58.73 118.76 L 59.02 118.87 L 59.27 118.98 L 59.47 119.09 L 59.61 119.21 L 59.70 119.32 L 59.73 119.43 L 59.70 119.54 L 59.61 119.65 L 59.47 119.76 L 59.27 119.87 L 59.02 119.99 L 58.73 120.10 L 58.42 120.21 L 58.08 120.32 L 57.73 120.43 L 57.39 120.54 L 57.05 120.65 L 56.73 120.77 L 56.45 120.88 L 56.20 120.99 L 56.00 121.10 L 55.86 121.21 L 55.76 121.32 L 55.73 121.43 L 55.76 121.55 L 55.86 121.66 L 56.00 121.77 L 56.20 121.88 L 56.45 121.99 L 56.73 122.10 L 57.05 122.21 L 57.39 122.33 L 57.73 122.44 L 58.08 122.55 L 58.42 122.66 L 58.73 122.77 L 59.02 122.88 L 59.27 122.99 L 59.47 123.11 L 59.61 123.22 L 59.70 123.33 L 59.73 123.44 A 7.00 7.00 0 0 1 45.73 123.44 L 45.73 123.44 L 45.76 123.33 L 45.86 123.22 L 46.00 123.11 L 46.20 122.99 L 46.45 122.88 L 46.73 122.77 L 47.05 122.66 L 47.39 122.55 L 47.73 122.44 L 48.08 122.33 L 48.42 122.21 L 48.73 122.10 L 49.02 121.99 L 49.27 121.88 L 49.47 121.77 L 49.61 121.66 L 49.70 121.55 L 49.73 121.43 L 49.70 121.32 L 49.61 121.21 L 49.47 121.10 L 49.27 120.99 L 49.02 120.88 L 48.73 120.77 L 48.42 120.65 L 48.08 120.54 L 47.73 120.43 L 47.39 120.32 L 47.05 120.21 L 46.73 120.10 L 46.45 119.99 L 46.20 119.87 L 46.00 119.76 L 45.86 119.65 L 45.76 119.54 L 45.73 119.43 L 45.76 119.32 L 45.86 119.21 L 46.00 119.09 L 46.20 118.98 L 46.45 118.87 L 46.73 118.76 L 47.05 118.65 L 47.39 118.54 L 47.73 118.43 L 48.08 118.31 L 48.42 118.20 L 48.73 118.09 L 49.02 117.98 L 49.27 117.87 L 49.47 117.76 L 49.61 117.65 L 49.70 117.53 L 49.73 117.42 L 49.70 117.31 L 49.61 117.20 L 49.47 117.09 L 49.27 116.98 L 49.02 116.87 L 48.73 116.75 L 48.42 116.64 L 48.08 116.53 L 47.73 116.42 L 47.39 116.31 L 47.05 116.20 L 46.73 116.09 L 46.45 115.97 L 46.20 115.86 L 46.00 115.75 L 45.86 115.64 L 45.76 115.53 L 45.73 115.42 A 7.00 7.00 0 0 1 59.73 115.42 Z M 55.11 115.66 L 55.10 115.76 L 55.07 115.87 L 55.02 115.97 L 54.96 116.08 L 54.87 116.18 L 54.77 116.29 L 54.67 116.39 L 54.55 116.50 L 54.43 116.60 L 54.32 116.71 L 54.20 116.81 L 54.09 116.92 L 54.00 117.02 L 53.91 117.12 L 53.85 117.23 L 53.80 117.33 L 53.76 117.44 L 53.75 117.54 L 53.76 117.65 L 53.80 117.75 L 53.85 117.86 L 53.91 117.96 L 54.00 118.07 L 54.09 118.17 L 54.20 118.28 L 54.32 118.38 L 54.43 118.49 L 54.55 118.59 L 54.67 118.70 L 54.77 118.80 L 54.87 118.91 L 54.96 119.01 L 55.02 119.11 L 55.07 119.22 L 55.10 119.32 L 55.11 119.43 L 55.10 119.53 L 55.07 119.64 L 55.02 119.74 L 54.96 119.85 L 54.87 119.95 L 54.77 120.06 L 54.67 120.16 L 54.55 120.27 L 54.43 120.37 L 54.32 120.48 L 54.20 120.58 L 54.09 120.69 L 54.00 120.79 L 53.91 120.90 L 53.85 121.00 L 53.80 121.10 L 53.76 121.21 L 53.75 121.31 L 53.76 121.42 L 53.80 121.52 L 53.85 121.63 L 53.91 121.73 L 54.00 121.84 L 54.09 121.94 L 54.20 122.05 L 54.32 122.15 L 54.43 122.26 L 54.55 122.36 L 54.67 122.47 L 54.77 122.57 L 54.87 122.68 L 54.96 122.78 L 55.02 122.88 L 55.07 122.99 L 55.10 123.09 L 55.11 123.20 A 2.38 2.38 0 0 1 50.35 123.20 L 50.35 123.20 L 50.36 123.09 L 50.40 122.99 L 50.45 122.88 L 50.51 122.78 L 50.60 122.68 L 50.69 122.57 L 50.80 122.47 L 50.92 122.36 L 51.03 122.26 L 51.15 122.15 L 51.27 122.05 L 51.37 121.94 L 51.47 121.84 L 51.56 121.73 L 51.62 121.63 L 51.67 121.52 L 51.70 121.42 L 51.71 121.31 L 51.70 121.21 L 51.67 121.10 L 51.62 121.00 L 51.56 120.90 L 51.47 120.79 L 51.37 120.69 L 51.27 120.58 L 51.15 120.48 L 51.03 120.37 L 50.92 120.27 L 50.80 120.16 L 50.69 120.06 L 50.60 119.95 L 50.51 119.85 L 50.45 119.74 L 50.40 119.64 L 50.36 119.53 L 50.35 119.43 L 50.36 119.32 L 50.40 119.22 L 50.45 119.11 L 50.51 119.01 L 50.60 118.91 L 50.69 118.80 L 50.80 118.70 L 50.92 118.59 L 51.03 118.49 L 51.15 118.38 L 51.27 118.28 L 51.37 118.17 L 51.47 118.07 L 51.56 117.96 L 51.62 117.86 L 51.67 117.75 L 51.70 117.65 L 51.71 117.54 L 51.70 117.44 L 51.67 117.33 L 51.62 117.23 L 51.56 117.12 L 51.47 117.02 L 51.37 116.92 L 51.27 116.81 L 51.15 116.71 L 51.03 116.60 L 50.92 116.50 L 50.80 116.39 L 50.69 116.29 L 50.60 116.18 L 50.51 116.08 L 50.45 115.97 L 50.40 115.87 L 50.36 115.76 L 50.35 115.66 A 2.38 2.38 0 0 1 55.11 115.66 Z" fill="#1f7a44" fill-rule="evenodd"/></g><g transform="rotate(-136.2 65.1 97.1)"><path d="M 72.06 93.01 L 72.03 93.12 L 71.94 93.24 L 71.80 93.35 L 71.60 93.46 L 71.35 93.58 L 71.06 93.69 L 70.75 93.81 L 70.41 93.92 L 70.06 94.04 L 69.72 94.15 L 69.38 94.27 L 69.06 94.38 L 68.78 94.50 L 68.53 94.61 L 68.33 94.73 L 68.18 94.84 L 68.09 94.96 L 68.06 95.07 L 68.09 95.19 L 68.18 95.30 L 68.33 95.42 L 68.53 95.53 L 68.78 95.65 L 69.06 95.76 L 69.38 95.87 L 69.72 95.99 L 70.06 96.10 L 70.41 96.22 L 70.75 96.33 L 71.06 96.45 L 71.35 96.56 L 71.60 96.68 L 71.80 96.79 L 71.94 96.91 L 72.03 97.02 L 72.06 97.14 L 72.03 97.25 L 71.94 97.37 L 71.80 97.48 L 71.60 97.60 L 71.35 97.71 L 71.06 97.83 L 70.75 97.94 L 70.41 98.06 L 70.06 98.17 L 69.72 98.29 L 69.38 98.40 L 69.06 98.51 L 68.78 98.63 L 68.53 98.74 L 68.33 98.86 L 68.18 98.97 L 68.09 99.09 L 68.06 99.20 L 68.09 99.32 L 68.18 99.43 L 68.33 99.55 L 68.53 99.66 L 68.78 99.78 L 69.06 99.89 L 69.38 100.01 L 69.72 100.12 L 70.06 100.24 L 70.41 100.35 L 70.75 100.47 L 71.06 100.58 L 71.35 100.70 L 71.60 100.81 L 71.80 100.92 L 71.94 101.04 L 72.03 101.15 L 72.06 101.27 A 7.00 7.00 0 0 1 58.06 101.27 L 58.06 101.27 L 58.09 101.15 L 58.18 101.04 L 58.33 100.92 L 58.53 100.81 L 58.78 100.70 L 59.06 100.58 L 59.38 100.47 L 59.72 100.35 L 60.06 100.24 L 60.41 100.12 L 60.75 100.01 L 61.06 99.89 L 61.35 99.78 L 61.60 99.66 L 61.80 99.55 L 61.94 99.43 L 62.03 99.32 L 62.06 99.20 L 62.03 99.09 L 61.94 98.97 L 61.80 98.86 L 61.60 98.74 L 61.35 98.63 L 61.06 98.51 L 60.75 98.40 L 60.41 98.29 L 60.06 98.17 L 59.72 98.06 L 59.38 97.94 L 59.06 97.83 L 58.78 97.71 L 58.53 97.60 L 58.33 97.48 L 58.18 97.37 L 58.09 97.25 L 58.06 97.14 L 58.09 97.02 L 58.18 96.91 L 58.33 96.79 L 58.53 96.68 L 58.78 96.56 L 59.06 96.45 L 59.38 96.33 L 59.72 96.22 L 60.06 96.10 L 60.41 95.99 L 60.75 95.87 L 61.06 95.76 L 61.35 95.65 L 61.60 95.53 L 61.80 95.42 L 61.94 95.30 L 62.03 95.19 L 62.06 95.07 L 62.03 94.96 L 61.94 94.84 L 61.80 94.73 L 61.60 94.61 L 61.35 94.50 L 61.06 94.38 L 60.75 94.27 L 60.41 94.15 L 60.06 94.04 L 59.72 93.92 L 59.38 93.81 L 59.06 93.69 L 58.78 93.58 L 58.53 93.46 L 58.33 93.35 L 58.18 93.24 L 58.09 93.12 L 58.06 93.01 A 7.00 7.00 0 0 1 72.06 93.01 Z M 67.44 93.25 L 67.43 93.36 L 67.40 93.47 L 67.35 93.58 L 67.28 93.69 L 67.20 93.79 L 67.10 93.90 L 67.00 94.01 L 66.88 94.12 L 66.76 94.22 L 66.65 94.33 L 66.53 94.44 L 66.42 94.55 L 66.33 94.66 L 66.24 94.76 L 66.17 94.87 L 66.12 94.98 L 66.09 95.09 L 66.08 95.20 L 66.09 95.30 L 66.12 95.41 L 66.17 95.52 L 66.24 95.63 L 66.33 95.73 L 66.42 95.84 L 66.53 95.95 L 66.65 96.06 L 66.76 96.17 L 66.88 96.27 L 67.00 96.38 L 67.10 96.49 L 67.20 96.60 L 67.28 96.71 L 67.35 96.81 L 67.40 96.92 L 67.43 97.03 L 67.44 97.14 L 67.43 97.25 L 67.40 97.35 L 67.35 97.46 L 67.28 97.57 L 67.20 97.68 L 67.10 97.78 L 67.00 97.89 L 66.88 98.00 L 66.76 98.11 L 66.65 98.22 L 66.53 98.32 L 66.42 98.43 L 66.33 98.54 L 66.24 98.65 L 66.17 98.76 L 66.12 98.86 L 66.09 98.97 L 66.08 99.08 L 66.09 99.19 L 66.12 99.29 L 66.17 99.40 L 66.24 99.51 L 66.33 99.62 L 66.42 99.73 L 66.53 99.83 L 66.65 99.94 L 66.76 100.05 L 66.88 100.16 L 67.00 100.27 L 67.10 100.37 L 67.20 100.48 L 67.28 100.59 L 67.35 100.70 L 67.40 100.81 L 67.43 100.91 L 67.44 101.02 A 2.38 2.38 0 0 1 62.68 101.02 L 62.68 101.02 L 62.69 100.91 L 62.72 100.81 L 62.77 100.70 L 62.84 100.59 L 62.93 100.48 L 63.02 100.37 L 63.13 100.27 L 63.25 100.16 L 63.36 100.05 L 63.48 99.94 L 63.60 99.83 L 63.70 99.73 L 63.80 99.62 L 63.88 99.51 L 63.95 99.40 L 64.00 99.29 L 64.03 99.19 L 64.04 99.08 L 64.03 98.97 L 64.00 98.86 L 63.95 98.76 L 63.88 98.65 L 63.80 98.54 L 63.70 98.43 L 63.60 98.32 L 63.48 98.22 L 63.36 98.11 L 63.25 98.00 L 63.13 97.89 L 63.02 97.78 L 62.93 97.68 L 62.84 97.57 L 62.77 97.46 L 62.72 97.35 L 62.69 97.25 L 62.68 97.14 L 62.69 97.03 L 62.72 96.92 L 62.77 96.81 L 62.84 96.71 L 62.93 96.60 L 63.02 96.49 L 63.13 96.38 L 63.25 96.27 L 63.36 96.17 L 63.48 96.06 L 63.60 95.95 L 63.70 95.84 L 63.80 95.73 L 63.88 95.63 L 63.95 95.52 L 64.00 95.41 L 64.03 95.30 L 64.04 95.20 L 64.03 95.09 L 64.00 94.98 L 63.95 94.87 L 63.88 94.76 L 63.80 94.66 L 63.70 94.55 L 63.60 94.44 L 63.48 94.33 L 63.36 94.22 L 63.25 94.12 L 63.13 94.01 L 63.02 93.90 L 62.93 93.79 L 62.84 93.69 L 62.77 93.58 L 62.72 93.47 L 62.69 93.36 L 62.68 93.25 A 2.38 2.38 0 0 1 67.44 93.25 Z" fill="#1f7a44" fill-rule="evenodd"/></g><g transform="rotate(-106.4 87.1 83.8)"><path d="M 94.11 79.50 L 94.08 79.62 L 93.99 79.74 L 93.85 79.86 L 93.65 79.98 L 93.40 80.10 L 93.11 80.22 L 92.80 80.34 L 92.46 80.45 L 92.11 80.57 L 91.77 80.69 L 91.43 80.81 L 91.11 80.93 L 90.83 81.05 L 90.58 81.17 L 90.38 81.29 L 90.24 81.41 L 90.15 81.52 L 90.11 81.64 L 90.15 81.76 L 90.24 81.88 L 90.38 82.00 L 90.58 82.12 L 90.83 82.24 L 91.11 82.36 L 91.43 82.48 L 91.77 82.59 L 92.11 82.71 L 92.46 82.83 L 92.80 82.95 L 93.11 83.07 L 93.40 83.19 L 93.65 83.31 L 93.85 83.43 L 93.99 83.55 L 94.08 83.66 L 94.11 83.78 L 94.08 83.90 L 93.99 84.02 L 93.85 84.14 L 93.65 84.26 L 93.40 84.38 L 93.11 84.50 L 92.80 84.62 L 92.46 84.73 L 92.11 84.85 L 91.77 84.97 L 91.43 85.09 L 91.11 85.21 L 90.83 85.33 L 90.58 85.45 L 90.38 85.57 L 90.24 85.69 L 90.15 85.80 L 90.11 85.92 L 90.15 86.04 L 90.24 86.16 L 90.38 86.28 L 90.58 86.40 L 90.83 86.52 L 91.11 86.64 L 91.43 86.76 L 91.77 86.87 L 92.11 86.99 L 92.46 87.11 L 92.80 87.23 L 93.11 87.35 L 93.40 87.47 L 93.65 87.59 L 93.85 87.71 L 93.99 87.83 L 94.08 87.95 L 94.11 88.06 A 7.00 7.00 0 0 1 80.11 88.06 L 80.11 88.06 L 80.15 87.95 L 80.24 87.83 L 80.38 87.71 L 80.58 87.59 L 80.83 87.47 L 81.11 87.35 L 81.43 87.23 L 81.77 87.11 L 82.11 86.99 L 82.46 86.87 L 82.80 86.76 L 83.11 86.64 L 83.40 86.52 L 83.65 86.40 L 83.85 86.28 L 83.99 86.16 L 84.08 86.04 L 84.11 85.92 L 84.08 85.80 L 83.99 85.69 L 83.85 85.57 L 83.65 85.45 L 83.40 85.33 L 83.11 85.21 L 82.80 85.09 L 82.46 84.97 L 82.11 84.85 L 81.77 84.73 L 81.43 84.62 L 81.11 84.50 L 80.83 84.38 L 80.58 84.26 L 80.38 84.14 L 80.24 84.02 L 80.15 83.90 L 80.11 83.78 L 80.15 83.66 L 80.24 83.55 L 80.38 83.43 L 80.58 83.31 L 80.83 83.19 L 81.11 83.07 L 81.43 82.95 L 81.77 82.83 L 82.11 82.71 L 82.46 82.59 L 82.80 82.48 L 83.11 82.36 L 83.40 82.24 L 83.65 82.12 L 83.85 82.00 L 83.99 81.88 L 84.08 81.76 L 84.11 81.64 L 84.08 81.52 L 83.99 81.41 L 83.85 81.29 L 83.65 81.17 L 83.40 81.05 L 83.11 80.93 L 82.80 80.81 L 82.46 80.69 L 82.11 80.57 L 81.77 80.45 L 81.43 80.34 L 81.11 80.22 L 80.83 80.10 L 80.58 79.98 L 80.38 79.86 L 80.24 79.74 L 80.15 79.62 L 80.11 79.50 A 7.00 7.00 0 0 1 94.11 79.50 Z M 89.49 79.76 L 89.48 79.87 L 89.45 79.98 L 89.40 80.10 L 89.34 80.21 L 89.25 80.32 L 89.15 80.43 L 89.05 80.54 L 88.93 80.65 L 88.81 80.77 L 88.70 80.88 L 88.58 80.99 L 88.47 81.10 L 88.38 81.21 L 88.29 81.32 L 88.23 81.44 L 88.18 81.55 L 88.15 81.66 L 88.13 81.77 L 88.15 81.88 L 88.18 82.00 L 88.23 82.11 L 88.29 82.22 L 88.38 82.33 L 88.47 82.44 L 88.58 82.55 L 88.70 82.67 L 88.81 82.78 L 88.93 82.89 L 89.05 83.00 L 89.15 83.11 L 89.25 83.22 L 89.34 83.34 L 89.40 83.45 L 89.45 83.56 L 89.48 83.67 L 89.49 83.78 L 89.48 83.90 L 89.45 84.01 L 89.40 84.12 L 89.34 84.23 L 89.25 84.34 L 89.15 84.45 L 89.05 84.57 L 88.93 84.68 L 88.81 84.79 L 88.70 84.90 L 88.58 85.01 L 88.47 85.12 L 88.38 85.24 L 88.29 85.35 L 88.23 85.46 L 88.18 85.57 L 88.15 85.68 L 88.13 85.80 L 88.15 85.91 L 88.18 86.02 L 88.23 86.13 L 88.29 86.24 L 88.38 86.35 L 88.47 86.47 L 88.58 86.58 L 88.70 86.69 L 88.81 86.80 L 88.93 86.91 L 89.05 87.02 L 89.15 87.14 L 89.25 87.25 L 89.34 87.36 L 89.40 87.47 L 89.45 87.58 L 89.48 87.70 L 89.49 87.81 A 2.38 2.38 0 0 1 84.73 87.81 L 84.73 87.81 L 84.75 87.70 L 84.78 87.58 L 84.83 87.47 L 84.89 87.36 L 84.98 87.25 L 85.07 87.14 L 85.18 87.02 L 85.30 86.91 L 85.41 86.80 L 85.53 86.69 L 85.65 86.58 L 85.75 86.47 L 85.85 86.35 L 85.94 86.24 L 86.00 86.13 L 86.05 86.02 L 86.08 85.91 L 86.09 85.80 L 86.08 85.68 L 86.05 85.57 L 86.00 85.46 L 85.94 85.35 L 85.85 85.24 L 85.75 85.12 L 85.65 85.01 L 85.53 84.90 L 85.41 84.79 L 85.30 84.68 L 85.18 84.57 L 85.07 84.45 L 84.98 84.34 L 84.89 84.23 L 84.83 84.12 L 84.78 84.01 L 84.75 83.90 L 84.73 83.78 L 84.75 83.67 L 84.78 83.56 L 84.83 83.45 L 84.89 83.34 L 84.98 83.22 L 85.07 83.11 L 85.18 83.00 L 85.30 82.89 L 85.41 82.78 L 85.53 82.67 L 85.65 82.55 L 85.75 82.44 L 85.85 82.33 L 85.94 82.22 L 86.00 82.11 L 86.05 82.00 L 86.08 81.88 L 86.09 81.77 L 86.08 81.66 L 86.05 81.55 L 86.00 81.44 L 85.94 81.32 L 85.85 81.21 L 85.75 81.10 L 85.65 80.99 L 85.53 80.88 L 85.41 80.77 L 85.30 80.65 L 85.18 80.54 L 85.07 80.43 L 84.98 80.32 L 84.89 80.21 L 84.83 80.10 L 84.78 79.98 L 84.75 79.87 L 84.73 79.76 A 2.38 2.38 0 0 1 89.49 79.76 Z" fill="#1f7a44" fill-rule="evenodd"/></g><circle cx="94" cy="98" r="12" fill="#1d9e75"/><line x1="95" y1="110" x2="101" y2="142" stroke="#1d9e75" stroke-width="11" stroke-linecap="round"/><line x1="101" y1="142" x2="116" y2="166" stroke="#1d9e75" stroke-width="9" stroke-linecap="round"/><line x1="116" y1="166" x2="122" y2="180" stroke="#1d9e75" stroke-width="9" stroke-linecap="round"/><line x1="101" y1="142" x2="86" y2="162" stroke="#1d9e75" stroke-width="9" stroke-linecap="round"/><line x1="86" y1="162" x2="80" y2="180" stroke="#1d9e75" stroke-width="9" stroke-linecap="round"/><line x1="97" y1="120" x2="114" y2="132" stroke="#1d9e75" stroke-width="8" stroke-linecap="round"/><line x1="97" y1="120" x2="82" y2="132" stroke="#1d9e75" stroke-width="8" stroke-linecap="round"/><line x1="66" y1="170" x2="134" y2="94" stroke="#c0392b" stroke-width="11" stroke-linecap="round"/></svg>