<?xml version="1.0" encoding="UTF-8"?>
<svg xmlns="http://www.w3.org/2000/svg" viewBox="0 0 200 270" width="200" height="270"><g transform="rotate(-152.2 104.7 96.6)"><path d="M 111.68 95.19 L 111.65 95.23 L 111.56 95.27 L 111.41 95.31 L 111.21 95.35 L 110.96 95.39 L 110.68 95.43 L 110.36 95.47 L 110.02 95.51 L 109.68 95.55 L 109.33 95.59 L 108.99 95.63 L 108.68 95.67 L 108.39 95.71 L 108.15 95.75 L 107.95 95.79 L 107.80 95.83 L 107.71 95.87 L 107.68 95.91 L 107.71 95.95 L 107.80 95.99 L 107.95 96.03 L 108.15 96.07 L 108.39 96.11 L 108.68 96.15 L 108.99 96.19 L 109.33 96.23 L 109.68 96.27 L 110.02 96.30 L 110.36 96.34 L 110.68 96.38 L 110.96 96.42 L 111.21 96.46 L 111.41 96.50 L 111.56 96.54 L 111.65 96.58 L 111.68 96.62 L 111.65 96.66 L 111.56 96.70 L 111.41 96.74 L 111.21 96.78 L 110.96 96.82 L 110.68 96.86 L 110.36 96.90 L 110.02 96.94 L 109.68 96.98 L 109.33 97.02 L 108.99 97.06 L 108.68 97.10 L 108.39 97.14 L 108.15 97.18 L 107.95 97.22 L 107.80 97.26 L 107.71 97.30 L 107.68 97.34 L 107.71 97.38 L 107.80 97.42 L 107.95 97.46 L 108.15 97.50 L 108.39 97.54 L 108.68 97.58 L 108.99 97.61 L 109.33 97.65 L 109.68 97.69 L 110.02 97.73 L 110.36 97.77 L 110.68 97.81 L 110.96 97.85 L 111.21 97.89 L 111.41 97.93 L 111.56 97.97 L 111.65 98.01 L 111.68 98.05 A 7.00 7.00 0 0 1 97.68 98.05 L 97.68 98.05 L 97.71 98.01 L 97.80 97.97 L 97.95 97.93 L 98.15 97.89 L 98.39 97.85 L 98.68 97.81 L 98.99 97.77 L 99.33 97.73 L 99.68 97.69 L 100.02 97.65 L 100.36 97.61 L 100.68 97.58 L 100.96 97.54 L 101.21 97.50 L 101.41 97.46 L 101.56 97.42 L 101.65 97.38 L 101.68 97.34 L 101.65 97.30 L 101.56 97.26 L 101.41 97.22 L 101.21 97.18 L 100.96 97.14 L 100.68 97.10 L 100.36 97.06 L 100.02 97.02 L 99.68 96.98 L 99.33 96.94 L 98.99 96.90 L 98.68 96.86 L 98.39 96.82 L 98.15 96.78 L 97.95 96.74 L 97.80 96.70 L 97.71 96.66 L 97.68 96.62 L 97.71 96.58 L 97.80 96.54 L 97.95 96.50 L 98.15 96.46 L 98.39 96.42 L 98.68 96.38 L 98.99 96.34 L 99.33 96.30 L 99.68 96.27 L 100.02 96.23 L 100.36 96.19 L 100.68 96.15 L 100.96 96.11 L 101.21 96.07 L 101.41 96.03 L 101.56 95.99 L 101.65 95.95 L 101.68 95.91 L 101.65 95.87 L 101.56 95.83 L 101.41 95.79 L 101.21 95.75 L 100.96 95.71 L 100.68 95.67 L 100.36 95.63 L 100.02 95.59 L 99.68 95.55 L 99.33 95.51 L 98.99 95.47 L 98.68 95.43 L 98.39 95.39 L 98.15 95.35 L 97.95 95.31 L 97.80 95.27 L 97.71 95.23 L 97.68 95.19 A 7.00 7.00 0 0 1 111.68 95.19 Z M 107.06 95.28 L 107.05 95.32 L 107.02 95.35 L 106.97 95.39 L 106.90 95.43 L 106.81 95.47 L 106.72 95.50 L 106.61 95.54 L 106.50 95.58 L 106.38 95.61 L 106.26 95.65 L 106.14 95.69 L 106.04 95.73 L 105.94 95.76 L 105.86 95.80 L 105.79 95.84 L 105.74 95.88 L 105.71 95.91 L 105.70 95.95 L 105.71 95.99 L 105.74 96.03 L 105.79 96.06 L 105.86 96.10 L 105.94 96.14 L 106.04 96.17 L 106.14 96.21 L 106.26 96.25 L 106.38 96.29 L 106.50 96.32 L 106.61 96.36 L 106.72 96.40 L 106.81 96.44 L 106.90 96.47 L 106.97 96.51 L 107.02 96.55 L 107.05 96.59 L 107.06 96.62 L 107.05 96.66 L 107.02 96.70 L 106.97 96.73 L 106.90 96.77 L 106.81 96.81 L 106.72 96.85 L 106.61 96.88 L 106.50 96.92 L 106.38 96.96 L 106.26 97.00 L 106.14 97.03 L 106.04 97.07 L 105.94 97.11 L 105.86 97.14 L 105.79 97.18 L 105.74 97.22 L 105.71 97.26 L 105.70 97.29 L 105.71 97.33 L 105.74 97.37 L 105.79 97.41 L 105.86 97.44 L 105.94 97.48 L 106.04 97.52 L 106.14 97.56 L 106.26 97.59 L 106.38 97.63 L 106.50 97.67 L 106.61 97.70 L 106.72 97.74 L 106.81 97.78 L 106.90 97.82 L 106.97 97.85 L 107.02 97.89 L 107.05 97.93 L 107.06 97.97 A 2.38 2.38 0 0 1 102.30 97.97 L 102.30 97.97 L 102.31 97.93 L 102.34 97.89 L 102.39 97.85 L 102.46 97.82 L 102.54 97.78 L 102.64 97.74 L 102.74 97.70 L 102.86 97.67 L 102.98 97.63 L 103.10 97.59 L 103.21 97.56 L 103.32 97.52 L 103.41 97.48 L 103.50 97.44 L 103.57 97.41 L 103.62 97.37 L 103.65 97.33 L 103.66 97.29 L 103.65 97.26 L 103.62 97.22 L 103.57 97.18 L 103.50 97.14 L 103.41 97.11 L 103.32 97.07 L 103.21 97.03 L 103.10 97.00 L 102.98 96.96 L 102.86 96.92 L 102.74 96.88 L 102.64 96.85 L 102.54 96.81 L 102.46 96.77 L 102.39 96.73 L 102.34 96.70 L 102.31 96.66 L 102.30 96.62 L 102.31 96.59 L 102.34 96.55 L 102.39 96.51 L 102.46 96.47 L 102.54 96.44 L 102.64 96.40 L 102.74 96.36 L 102.86 96.32 L 102.98 96.29 L 103.10 96.25 L 103.21 96.21 L 103.32 96.17 L 103.41 96.14 L 103.50 96.10 L 103.57 96.06 L 103.62 96.03 L 103.65 95.99 L 103.66 95.95 L 103.65 95.91 L 103.62 95.88 L 103.57 95.84 L 103.50 95.80 L 103.41 95.76 L 103.32 95.73 L 103.21 95.69 L 103.10 95.65 L 102.98 95.61 L 102.86 95.58 L 102.74 95.54 L 102.64 95.50 L 102.54 95.47 L 102.46 95.43 L 102.39 95.39 L 102.34 95.35 L 102.31 95.32 L 102.30 95.28 A 2.38 2.38 0 0 1 107.06 95.28 Z" fill="#1f7a44" fill-rule="evenodd"/></g><g transform="rotate(-95.6 127.0 86.0)"><path d="M 133.96 78.15 L 133.93 78.37 L 133.84 78.59 L 133.69 78.81 L 133.49 79.03 L 133.24 79.25 L 132.96 79.46 L 132.64 79.68 L 132.30 79.90 L 131.96 80.12 L 131.61 80.34 L 131.27 80.55 L 130.96 80.77 L 130.67 80.99 L 130.42 81.21 L 130.22 81.43 L 130.08 81.65 L 129.99 81.86 L 129.96 82.08 L 129.99 82.30 L 130.08 82.52 L 130.22 82.74 L 130.42 82.96 L 130.67 83.17 L 130.96 83.39 L 131.27 83.61 L 131.61 83.83 L 131.96 84.05 L 132.30 84.26 L 132.64 84.48 L 132.96 84.70 L 133.24 84.92 L 133.49 85.14 L 133.69 85.36 L 133.84 85.57 L 133.93 85.79 L 133.96 86.01 L 133.93 86.23 L 133.84 86.45 L 133.69 86.67 L 133.49 86.88 L 133.24 87.10 L 132.96 87.32 L 132.64 87.54 L 132.30 87.76 L 131.96 87.97 L 131.61 88.19 L 131.27 88.41 L 130.96 88.63 L 130.67 88.85 L 130.42 89.07 L 130.22 89.28 L 130.08 89.50 L 129.99 89.72 L 129.96 89.94 L 129.99 90.16 L 130.08 90.38 L 130.22 90.59 L 130.42 90.81 L 130.67 91.03 L 130.96 91.25 L 131.27 91.47 L 131.61 91.68 L 131.96 91.90 L 132.30 92.12 L 132.64 92.34 L 132.96 92.56 L 133.24 92.78 L 133.49 92.99 L 133.69 93.21 L 133.84 93.43 L 133.93 93.65 L 133.96 93.87 A 7.00 7.00 0 0 1 119.96 93.87 L 119.96 93.87 L 119.99 93.65 L 120.08 93.43 L 120.22 93.21 L 120.42 92.99 L 120.67 92.78 L 120.96 92.56 L 121.27 92.34 L 121.61 92.12 L 121.96 91.90 L 122.30 91.68 L 122.64 91.47 L 122.96 91.25 L 123.24 91.03 L 123.49 90.81 L 123.69 90.59 L 123.84 90.38 L 123.93 90.16 L 123.96 89.94 L 123.93 89.72 L 123.84 89.50 L 123.69 89.28 L 123.49 89.07 L 123.24 88.85 L 122.96 88.63 L 122.64 88.41 L 122.30 88.19 L 121.96 87.97 L 121.61 87.76 L 121.27 87.54 L 120.96 87.32 L 120.67 87.10 L 120.42 86.88 L 120.22 86.67 L 120.08 86.45 L 119.99 86.23 L 119.96 86.01 L 119.99 85.79 L 120.08 85.57 L 120.22 85.36 L 120.42 85.14 L 120.67 84.92 L 120.96 84.70 L 121.27 84.48 L 121.61 84.26 L 121.96 84.05 L 122.30 83.83 L 122.64 83.61 L 122.96 83.39 L 123.24 83.17 L 123.49 82.96 L 123.69 82.74 L 123.84 82.52 L 123.93 82.30 L 123.96 82.08 L 123.93 81.86 L 123.84 81.65 L 123.69 81.43 L 123.49 81.21 L 123.24 80.99 L 122.96 80.77 L 122.64 80.55 L 122.30 80.34 L 121.96 80.12 L 121.61 79.90 L 121.27 79.68 L 120.96 79.46 L 120.67 79.25 L 120.42 79.03 L 120.22 78.81 L 120.08 78.59 L 119.99 78.37 L 119.96 78.15 A 7.00 7.00 0 0 1 133.96 78.15 Z M 129.34 78.63 L 129.33 78.83 L 129.30 79.04 L 129.25 79.24 L 129.18 79.45 L 129.09 79.65 L 129.00 79.86 L 128.89 80.06 L 128.77 80.27 L 128.66 80.47 L 128.54 80.68 L 128.42 80.88 L 128.32 81.09 L 128.22 81.29 L 128.14 81.50 L 128.07 81.70 L 128.02 81.91 L 127.99 82.11 L 127.98 82.32 L 127.99 82.52 L 128.02 82.73 L 128.07 82.93 L 128.14 83.14 L 128.22 83.34 L 128.32 83.55 L 128.42 83.75 L 128.54 83.96 L 128.66 84.16 L 128.77 84.37 L 128.89 84.57 L 129.00 84.78 L 129.09 84.99 L 129.18 85.19 L 129.25 85.40 L 129.30 85.60 L 129.33 85.81 L 129.34 86.01 L 129.33 86.22 L 129.30 86.42 L 129.25 86.63 L 129.18 86.83 L 129.09 87.04 L 129.00 87.24 L 128.89 87.45 L 128.77 87.65 L 128.66 87.86 L 128.54 88.06 L 128.42 88.27 L 128.32 88.47 L 128.22 88.68 L 128.14 88.88 L 128.07 89.09 L 128.02 89.29 L 127.99 89.50 L 127.98 89.70 L 127.99 89.91 L 128.02 90.11 L 128.07 90.32 L 128.14 90.52 L 128.22 90.73 L 128.32 90.93 L 128.42 91.14 L 128.54 91.34 L 128.66 91.55 L 128.77 91.75 L 128.89 91.96 L 129.00 92.17 L 129.09 92.37 L 129.18 92.58 L 129.25 92.78 L 129.30 92.99 L 129.33 93.19 L 129.34 93.40 A 2.38 2.38 0 0 1 124.58 93.40 L 124.58 93.40 L 124.59 93.19 L 124.62 92.99 L 124.67 92.78 L 124.74 92.58 L 124.82 92.37 L 124.92 92.17 L 125.02 91.96 L 125.14 91.75 L 125.26 91.55 L 125.37 91.34 L 125.49 91.14 L 125.60 90.93 L 125.69 90.73 L 125.78 90.52 L 125.85 90.32 L 125.90 90.11 L 125.93 89.91 L 125.94 89.70 L 125.93 89.50 L 125.90 89.29 L 125.85 89.09 L 125.78 88.88 L 125.69 88.68 L 125.60 88.47 L 125.49 88.27 L 125.37 88.06 L 125.26 87.86 L 125.14 87.65 L 125.02 87.45 L 124.92 87.24 L 124.82 87.04 L 124.74 86.83 L 124.67 86.63 L 124.62 86.42 L 124.59 86.22 L 124.58 86.01 L 124.59 85.81 L 124.62 85.60 L 124.67 85.40 L 124.74 85.19 L 124.82 84.99 L 124.92 84.78 L 125.02 84.57 L 125.14 84.37 L 125.26 84.16 L 125.37 83.96 L 125.49 83.75 L 125.60 83.55 L 125.69 83.34 L 125.78 83.14 L 125.85 82.93 L 125.90 82.73 L 125.93 82.52 L 125.94 82.32 L 125.93 82.11 L 125.90 81.91 L 125.85 81.70 L 125.78 81.50 L 125.69 81.29 L 125.60 81.09 L 125.49 80.88 L 125.37 80.68 L 125.26 80.47 L 125.14 80.27 L 125.02 80.06 L 124.92 79.86 L 124.82 79.65 L 124.74 79.45 L 124.67 79.24 L 124.62 79.04 L 124.59 78.83 L 124.58 78.63 A 2.38 2.38 0 0 1 129.34 78.63 Z" fill="#1f7a44" fill-rule="evenodd"/></g><g transform="rotate(-20.2 151.0 101.8)"><path d="M 157.98 93.12 L 157.95 93.36 L 157.86 93.60 L 157.72 93.84 L 157.52 94.08 L 157.27 94.32 L 156.98 94.56 L 156.67 94.80 L 156.33 95.04 L 155.98 95.28 L 155.64 95.52 L 155.30 95.76 L 154.98 96.00 L 154.70 96.25 L 154.45 96.49 L 154.25 96.73 L 154.10 96.97 L 154.01 97.21 L 153.98 97.45 L 154.01 97.69 L 154.10 97.93 L 154.25 98.17 L 154.45 98.41 L 154.70 98.65 L 154.98 98.89 L 155.30 99.13 L 155.64 99.37 L 155.98 99.61 L 156.33 99.85 L 156.67 100.09 L 156.98 100.34 L 157.27 100.58 L 157.52 100.82 L 157.72 101.06 L 157.86 101.30 L 157.95 101.54 L 157.98 101.78 L 157.95 102.02 L 157.86 102.26 L 157.72 102.50 L 157.52 102.74 L 157.27 102.98 L 156.98 103.22 L 156.67 103.46 L 156.33 103.70 L 155.98 103.94 L 155.64 104.19 L 155.30 104.43 L 154.98 104.67 L 154.70 104.91 L 154.45 105.15 L 154.25 105.39 L 154.10 105.63 L 154.01 105.87 L 153.98 106.11 L 154.01 106.35 L 154.10 106.59 L 154.25 106.83 L 154.45 107.07 L 154.70 107.31 L 154.98 107.55 L 155.30 107.79 L 155.64 108.03 L 155.98 108.28 L 156.33 108.52 L 156.67 108.76 L 156.98 109.00 L 157.27 109.24 L 157.52 109.48 L 157.72 109.72 L 157.86 109.96 L 157.95 110.20 L 157.98 110.44 A 7.00 7.00 0 0 1 143.98 110.44 L 143.98 110.44 L 144.01 110.20 L 144.10 109.96 L 144.25 109.72 L 144.45 109.48 L 144.70 109.24 L 144.98 109.00 L 145.30 108.76 L 145.64 108.52 L 145.98 108.28 L 146.33 108.03 L 146.67 107.79 L 146.98 107.55 L 147.27 107.31 L 147.52 107.07 L 147.72 106.83 L 147.86 106.59 L 147.95 106.35 L 147.98 106.11 L 147.95 105.87 L 147.86 105.63 L 147.72 105.39 L 147.52 105.15 L 147.27 104.91 L 146.98 104.67 L 146.67 104.43 L 146.33 104.19 L 145.98 103.94 L 145.64 103.70 L 145.30 103.46 L 144.98 103.22 L 144.70 102.98 L 144.45 102.74 L 144.25 102.50 L 144.10 102.26 L 144.01 102.02 L 143.98 101.78 L 144.01 101.54 L 144.10 101.30 L 144.25 101.06 L 144.45 100.82 L 144.70 100.58 L 144.98 100.34 L 145.30 100.09 L 145.64 99.85 L 145.98 99.61 L 146.33 99.37 L 146.67 99.13 L 146.98 98.89 L 147.27 98.65 L 147.52 98.41 L 147.72 98.17 L 147.86 97.93 L 147.95 97.69 L 147.98 97.45 L 147.95 97.21 L 147.86 96.97 L 147.72 96.73 L 147.52 96.49 L 147.27 96.25 L 146.98 96.00 L 146.67 95.76 L 146.33 95.52 L 145.98 95.28 L 145.64 95.04 L 145.30 94.80 L 144.98 94.56 L 144.70 94.32 L 144.45 94.08 L 144.25 93.84 L 144.10 93.60 L 144.01 93.36 L 143.98 93.12 A 7.00 7.00 0 0 1 157.98 93.12 Z M 153.36 93.64 L 153.35 93.86 L 153.32 94.09 L 153.27 94.32 L 153.20 94.54 L 153.12 94.77 L 153.02 94.99 L 152.92 95.22 L 152.80 95.45 L 152.68 95.67 L 152.57 95.90 L 152.45 96.12 L 152.34 96.35 L 152.25 96.58 L 152.16 96.80 L 152.10 97.03 L 152.04 97.26 L 152.01 97.48 L 152.00 97.71 L 152.01 97.93 L 152.04 98.16 L 152.10 98.39 L 152.16 98.61 L 152.25 98.84 L 152.34 99.07 L 152.45 99.29 L 152.57 99.52 L 152.68 99.74 L 152.80 99.97 L 152.92 100.20 L 153.02 100.42 L 153.12 100.65 L 153.20 100.87 L 153.27 101.10 L 153.32 101.33 L 153.35 101.55 L 153.36 101.78 L 153.35 102.01 L 153.32 102.23 L 153.27 102.46 L 153.20 102.68 L 153.12 102.91 L 153.02 103.14 L 152.92 103.36 L 152.80 103.59 L 152.68 103.81 L 152.57 104.04 L 152.45 104.27 L 152.34 104.49 L 152.25 104.72 L 152.16 104.95 L 152.10 105.17 L 152.04 105.40 L 152.01 105.62 L 152.00 105.85 L 152.01 106.08 L 152.04 106.30 L 152.10 106.53 L 152.16 106.75 L 152.25 106.98 L 152.34 107.21 L 152.45 107.43 L 152.57 107.66 L 152.68 107.89 L 152.80 108.11 L 152.92 108.34 L 153.02 108.56 L 153.12 108.79 L 153.20 109.02 L 153.27 109.24 L 153.32 109.47 L 153.35 109.69 L 153.36 109.92 A 2.38 2.38 0 0 1 148.60 109.92 L 148.60 109.92 L 148.61 109.69 L 148.64 109.47 L 148.70 109.24 L 148.76 109.02 L 148.85 108.79 L 148.94 108.56 L 149.05 108.34 L 149.17 108.11 L 149.28 107.89 L 149.40 107.66 L 149.52 107.43 L 149.62 107.21 L 149.72 106.98 L 149.80 106.75 L 149.87 106.53 L 149.92 106.30 L 149.95 106.08 L 149.96 105.85 L 149.95 105.62 L 149.92 105.40 L 149.87 105.17 L 149.80 104.95 L 149.72 104.72 L 149.62 104.49 L 149.52 104.27 L 149.40 104.04 L 149.28 103.81 L 149.17 103.59 L 149.05 103.36 L 148.94 103.14 L 148.85 102.91 L 148.76 102.68 L 148.70 102.46 L 148.64 102.23 L 148.61 102.01 L 148.60 101.78 L 148.61 101.55 L 148.64 101.33 L 148.70 101.10 L 148.76 100.87 L 148.85 100.65 L 148.94 100.42 L 149.05 100.20 L 149.17 99.97 L 149.28 99.74 L 149.40 99.52 L 149.52 99.29 L 149.62 99.07 L 149.72 98.84 L 149.80 98.61 L 149.87 98.39 L 149.92 98.16 L 149.95 97.93 L 149.96 97.71 L 149.95 97.48 L 149.92 97.26 L 149.87 97.03 L 149.80 96.80 L 149.72 96.58 L 149.62 96.35 L 149.52 96.12 L 149.40 95.90 L 149.28 95.67 L 149.17 95.45 L 149.05 95.22 L 148.94 94.99 L 148.85 94.77 L 148.76 94.54 L 148.70 94.32 L 148.64 94.09 L 148.61 93.86 L 148.60 93.64 A 2.38 2.38 0 0 1 153.36 93.64 Z" fill="#c0392b" fill-rule="evenodd"/></g><g transform="rotate(41.3 141.5 137.4)"><path d="M 148.86 124.52 L 148.83 124.88 L 148.73 125.23 L 148.58 125.59 L 148.37 125.95 L 148.11 126.31 L 147.81 126.67 L 147.47 127.03 L 147.12 127.38 L 146.75 127.74 L 146.39 128.10 L 146.03 128.46 L 145.70 128.82 L 145.40 129.17 L 145.14 129.53 L 144.93 129.89 L 144.77 130.25 L 144.68 130.61 L 144.64 130.96 L 144.68 131.32 L 144.77 131.68 L 144.93 132.04 L 145.14 132.40 L 145.40 132.76 L 145.70 133.11 L 146.03 133.47 L 146.39 133.83 L 146.75 134.19 L 147.12 134.55 L 147.47 134.90 L 147.81 135.26 L 148.11 135.62 L 148.37 135.98 L 148.58 136.34 L 148.73 136.70 L 148.83 137.05 L 148.86 137.41 L 148.83 137.77 L 148.73 138.13 L 148.58 138.49 L 148.37 138.84 L 148.11 139.20 L 147.81 139.56 L 147.47 139.92 L 147.12 140.28 L 146.75 140.63 L 146.39 140.99 L 146.03 141.35 L 145.70 141.71 L 145.40 142.07 L 145.14 142.43 L 144.93 142.78 L 144.77 143.14 L 144.68 143.50 L 144.64 143.86 L 144.68 144.22 L 144.77 144.57 L 144.93 144.93 L 145.14 145.29 L 145.40 145.65 L 145.70 146.01 L 146.03 146.36 L 146.39 146.72 L 146.75 147.08 L 147.12 147.44 L 147.47 147.80 L 147.81 148.16 L 148.11 148.51 L 148.37 148.87 L 148.58 149.23 L 148.73 149.59 L 148.83 149.95 L 148.86 150.30 A 7.38 7.38 0 0 1 134.10 150.30 L 134.10 150.30 L 134.14 149.95 L 134.23 149.59 L 134.39 149.23 L 134.60 148.87 L 134.86 148.51 L 135.16 148.16 L 135.49 147.80 L 135.85 147.44 L 136.21 147.08 L 136.58 146.72 L 136.93 146.36 L 137.27 146.01 L 137.57 145.65 L 137.83 145.29 L 138.04 144.93 L 138.19 144.57 L 138.29 144.22 L 138.32 143.86 L 138.29 143.50 L 138.19 143.14 L 138.04 142.78 L 137.83 142.43 L 137.57 142.07 L 137.27 141.71 L 136.93 141.35 L 136.58 140.99 L 136.21 140.63 L 135.85 140.28 L 135.49 139.92 L 135.16 139.56 L 134.86 139.20 L 134.60 138.84 L 134.39 138.49 L 134.23 138.13 L 134.14 137.77 L 134.10 137.41 L 134.14 137.05 L 134.23 136.70 L 134.39 136.34 L 134.60 135.98 L 134.86 135.62 L 135.16 135.26 L 135.49 134.90 L 135.85 134.55 L 136.21 134.19 L 136.58 133.83 L 136.93 133.47 L 137.27 133.11 L 137.57 132.76 L 137.83 132.40 L 138.04 132.04 L 138.19 131.68 L 138.29 131.32 L 138.32 130.96 L 138.29 130.61 L 138.19 130.25 L 138.04 129.89 L 137.83 129.53 L 137.57 129.17 L 137.27 128.82 L 136.93 128.46 L 136.58 128.10 L 136.21 127.74 L 135.85 127.38 L 135.49 127.03 L 135.16 126.67 L 134.86 126.31 L 134.60 125.95 L 134.39 125.59 L 134.23 125.23 L 134.14 124.88 L 134.10 124.52 A 7.38 7.38 0 0 1 148.86 124.52 Z M 143.99 125.29 L 143.98 125.63 L 143.95 125.97 L 143.90 126.30 L 143.82 126.64 L 143.73 126.98 L 143.63 127.31 L 143.52 127.65 L 143.40 127.99 L 143.27 128.32 L 143.15 128.66 L 143.03 129.00 L 142.92 129.33 L 142.81 129.67 L 142.73 130.01 L 142.65 130.34 L 142.60 130.68 L 142.57 131.01 L 142.56 131.35 L 142.57 131.69 L 142.60 132.02 L 142.65 132.36 L 142.73 132.70 L 142.81 133.03 L 142.92 133.37 L 143.03 133.71 L 143.15 134.04 L 143.27 134.38 L 143.40 134.72 L 143.52 135.05 L 143.63 135.39 L 143.73 135.73 L 143.82 136.06 L 143.90 136.40 L 143.95 136.74 L 143.98 137.07 L 143.99 137.41 L 143.98 137.75 L 143.95 138.08 L 143.90 138.42 L 143.82 138.76 L 143.73 139.09 L 143.63 139.43 L 143.52 139.77 L 143.40 140.10 L 143.27 140.44 L 143.15 140.78 L 143.03 141.11 L 142.92 141.45 L 142.81 141.79 L 142.73 142.12 L 142.65 142.46 L 142.60 142.80 L 142.57 143.13 L 142.56 143.47 L 142.57 143.81 L 142.60 144.14 L 142.65 144.48 L 142.73 144.82 L 142.81 145.15 L 142.92 145.49 L 143.03 145.83 L 143.15 146.16 L 143.27 146.50 L 143.40 146.84 L 143.52 147.17 L 143.63 147.51 L 143.73 147.85 L 143.82 148.18 L 143.90 148.52 L 143.95 148.86 L 143.98 149.19 L 143.99 149.53 A 2.51 2.51 0 0 1 138.97 149.53 L 138.97 149.53 L 138.98 149.19 L 139.02 148.86 L 139.07 148.52 L 139.14 148.18 L 139.23 147.85 L 139.33 147.51 L 139.45 147.17 L 139.57 146.84 L 139.69 146.50 L 139.81 146.16 L 139.94 145.83 L 140.05 145.49 L 140.15 145.15 L 140.24 144.82 L 140.31 144.48 L 140.36 144.14 L 140.40 143.81 L 140.41 143.47 L 140.40 143.13 L 140.36 142.80 L 140.31 142.46 L 140.24 142.12 L 140.15 141.79 L 140.05 141.45 L 139.94 141.11 L 139.81 140.78 L 139.69 140.44 L 139.57 140.10 L 139.45 139.77 L 139.33 139.43 L 139.23 139.09 L 139.14 138.76 L 139.07 138.42 L 139.02 138.08 L 138.98 137.75 L 138.97 137.41 L 138.98 137.07 L 139.02 136.74 L 139.07 136.40 L 139.14 136.06 L 139.23 135.73 L 139.33 135.39 L 139.45 135.05 L 139.57 134.72 L 139.69 134.38 L 139.81 134.04 L 139.94 133.71 L 140.05 133.37 L 140.15 133.03 L 140.24 132.70 L 140.31 132.36 L 140.36 132.02 L 140.40 131.69 L 140.41 131.35 L 140.40 131.01 L 140.36 130.68 L 140.31 130.34 L 140.24 130.01 L 140.15 129.67 L 140.05 129.33 L 139.94 129.00 L 139.81 128.66 L 139.69 128.32 L 139.57 127.99 L 139.45 127.65 L 139.33 127.31 L 139.23 126.98 L 139.14 126.64 L 139.07 126.30 L 139.02 125.97 L 138.98 125.63 L 138.97 125.29 A 2.51 2.51 0 0 1 143.99 125.29 Z" fill="#1f7a44" fill-rule="evenodd"/></g><g transform="rotate(42.0 113.4 169.0)"><path d="M 120.44 160.78 L 120.41 161.01 L 120.32 161.23 L 120.17 161.46 L 119.97 161.69 L 119.72 161.92 L 119.44 162.14 L 119.12 162.37 L 118.79 162.60 L 118.44 162.83 L 118.09 163.06 L 117.75 163.28 L 117.44 163.51 L 117.15 163.74 L 116.91 163.97 L 116.71 164.19 L 116.56 164.42 L 116.47 164.65 L 116.44 164.88 L 116.47 165.10 L 116.56 165.33 L 116.71 165.56 L 116.91 165.79 L 117.15 166.01 L 117.44 166.24 L 117.75 166.47 L 118.09 166.70 L 118.44 166.92 L 118.79 167.15 L 119.12 167.38 L 119.44 167.61 L 119.72 167.84 L 119.97 168.06 L 120.17 168.29 L 120.32 168.52 L 120.41 168.75 L 120.44 168.97 L 120.41 169.20 L 120.32 169.43 L 120.17 169.66 L 119.97 169.88 L 119.72 170.11 L 119.44 170.34 L 119.12 170.57 L 118.79 170.79 L 118.44 171.02 L 118.09 171.25 L 117.75 171.48 L 117.44 171.71 L 117.15 171.93 L 116.91 172.16 L 116.71 172.39 L 116.56 172.62 L 116.47 172.84 L 116.44 173.07 L 116.47 173.30 L 116.56 173.53 L 116.71 173.75 L 116.91 173.98 L 117.15 174.21 L 117.44 174.44 L 117.75 174.66 L 118.09 174.89 L 118.44 175.12 L 118.79 175.35 L 119.12 175.57 L 119.44 175.80 L 119.72 176.03 L 119.97 176.26 L 120.17 176.49 L 120.32 176.71 L 120.41 176.94 L 120.44 177.17 A 7.00 7.00 0 0 1 106.44 177.17 L 106.44 177.17 L 106.47 176.94 L 106.56 176.71 L 106.71 176.49 L 106.91 176.26 L 107.15 176.03 L 107.44 175.80 L 107.75 175.57 L 108.09 175.35 L 108.44 175.12 L 108.79 174.89 L 109.12 174.66 L 109.44 174.44 L 109.72 174.21 L 109.97 173.98 L 110.17 173.75 L 110.32 173.53 L 110.41 173.30 L 110.44 173.07 L 110.41 172.84 L 110.32 172.62 L 110.17 172.39 L 109.97 172.16 L 109.72 171.93 L 109.44 171.71 L 109.12 171.48 L 108.79 171.25 L 108.44 171.02 L 108.09 170.79 L 107.75 170.57 L 107.44 170.34 L 107.15 170.11 L 106.91 169.88 L 106.71 169.66 L 106.56 169.43 L 106.47 169.20 L 106.44 168.97 L 106.47 168.75 L 106.56 168.52 L 106.71 168.29 L 106.91 168.06 L 107.15 167.84 L 107.44 167.61 L 107.75 167.38 L 108.09 167.15 L 108.44 166.92 L 108.79 166.70 L 109.12 166.47 L 109.44 166.24 L 109.72 166.01 L 109.97 165.79 L 110.17 165.56 L 110.32 165.33 L 110.41 165.10 L 110.44 164.88 L 110.41 164.65 L 110.32 164.42 L 110.17 164.19 L 109.97 163.97 L 109.72 163.74 L 109.44 163.51 L 109.12 163.28 L 108.79 163.06 L 108.44 162.83 L 108.09 162.60 L 107.75 162.37 L 107.44 162.14 L 107.15 161.92 L 106.91 161.69 L 106.71 161.46 L 106.56 161.23 L 106.47 161.01 L 106.44 160.78 A 7.00 7.00 0 0 1 120.44 160.78 Z M 115.82 161.27 L 115.81 161.48 L 115.78 161.70 L 115.73 161.91 L 115.66 162.13 L 115.58 162.34 L 115.48 162.55 L 115.37 162.77 L 115.26 162.98 L 115.14 163.20 L 115.02 163.41 L 114.91 163.62 L 114.80 163.84 L 114.70 164.05 L 114.62 164.27 L 114.55 164.48 L 114.50 164.69 L 114.47 164.91 L 114.46 165.12 L 114.47 165.34 L 114.50 165.55 L 114.55 165.76 L 114.62 165.98 L 114.70 166.19 L 114.80 166.41 L 114.91 166.62 L 115.02 166.83 L 115.14 167.05 L 115.26 167.26 L 115.37 167.48 L 115.48 167.69 L 115.58 167.90 L 115.66 168.12 L 115.73 168.33 L 115.78 168.55 L 115.81 168.76 L 115.82 168.97 L 115.81 169.19 L 115.78 169.40 L 115.73 169.62 L 115.66 169.83 L 115.58 170.04 L 115.48 170.26 L 115.37 170.47 L 115.26 170.69 L 115.14 170.90 L 115.02 171.11 L 114.91 171.33 L 114.80 171.54 L 114.70 171.76 L 114.62 171.97 L 114.55 172.18 L 114.50 172.40 L 114.47 172.61 L 114.46 172.82 L 114.47 173.04 L 114.50 173.25 L 114.55 173.47 L 114.62 173.68 L 114.70 173.89 L 114.80 174.11 L 114.91 174.32 L 115.02 174.54 L 115.14 174.75 L 115.26 174.96 L 115.37 175.18 L 115.48 175.39 L 115.58 175.61 L 115.66 175.82 L 115.73 176.03 L 115.78 176.25 L 115.81 176.46 L 115.82 176.68 A 2.38 2.38 0 0 1 111.06 176.68 L 111.06 176.68 L 111.07 176.46 L 111.10 176.25 L 111.15 176.03 L 111.22 175.82 L 111.30 175.61 L 111.40 175.39 L 111.51 175.18 L 111.62 174.96 L 111.74 174.75 L 111.86 174.54 L 111.97 174.32 L 112.08 174.11 L 112.18 173.89 L 112.26 173.68 L 112.33 173.47 L 112.38 173.25 L 112.41 173.04 L 112.42 172.82 L 112.41 172.61 L 112.38 172.40 L 112.33 172.18 L 112.26 171.97 L 112.18 171.76 L 112.08 171.54 L 111.97 171.33 L 111.86 171.11 L 111.74 170.90 L 111.62 170.69 L 111.51 170.47 L 111.40 170.26 L 111.30 170.04 L 111.22 169.83 L 111.15 169.62 L 111.10 169.40 L 111.07 169.19 L 111.06 168.97 L 111.07 168.76 L 111.10 168.55 L 111.15 168.33 L 111.22 168.12 L 111.30 167.90 L 111.40 167.69 L 111.51 167.48 L 111.62 167.26 L 111.74 167.05 L 111.86 166.83 L 111.97 166.62 L 112.08 166.41 L 112.18 166.19 L 112.26 165.98 L 112.33 165.76 L 112.38 165.55 L 112.41 165.34 L 112.42 165.12 L 112.41 164.91 L 112.38 164.69 L 112.33 164.48 L 112.26 164.27 L 112.18 164.05 L 112.08 163.84 L 111.97 163.62 L 111.86 163.41 L 111.74 163.20 L 111.62 162.98 L 111.51 162.77 L 111.40 162.55 L 111.30 162.34 L 111.22 162.13 L 111.15 161.91 L 111.10 161.70 L 111.07 161.48 L 111.06 161.27 A 2.38 2.38 0 0 1 115.82 161.27 Z" fill="#1f7a44" fill-rule="evenodd"/></g><g transform="rotate(90.0 100.0 182.4)"><path d="M 107.00 188.29 L 106.97 188.13 L 106.88 187.97 L 106.73 187.80 L 106.53 187.64 L 106.29 187.48 L 106.00 187.31 L 105.68 187.15 L 105.35 186.99 L 105.00 186.82 L 104.65 186.66 L 104.32 186.49 L 104.00 186.33 L 103.71 186.17 L 103.47 186.00 L 103.27 185.84 L 103.12 185.68 L 103.03 185.51 L 103.00 185.35 L 103.03 185.19 L 103.12 185.02 L 103.27 184.86 L 103.47 184.70 L 103.71 184.53 L 104.00 184.37 L 104.32 184.20 L 104.65 184.04 L 105.00 183.88 L 105.35 183.71 L 105.68 183.55 L 106.00 183.39 L 106.29 183.22 L 106.53 183.06 L 106.73 182.90 L 106.88 182.73 L 106.97 182.57 L 107.00 182.41 L 106.97 182.24 L 106.88 182.08 L 106.73 181.92 L 106.53 181.75 L 106.29 181.59 L 106.00 181.42 L 105.68 181.26 L 105.35 181.10 L 105.00 180.93 L 104.65 180.77 L 104.32 180.61 L 104.00 180.44 L 103.71 180.28 L 103.47 180.12 L 103.27 179.95 L 103.12 179.79 L 103.03 179.63 L 103.00 179.46 L 103.03 179.30 L 103.12 179.13 L 103.27 178.97 L 103.47 178.81 L 103.71 178.64 L 104.00 178.48 L 104.32 178.32 L 104.65 178.15 L 105.00 177.99 L 105.35 177.83 L 105.68 177.66 L 106.00 177.50 L 106.29 177.34 L 106.53 177.17 L 106.73 177.01 L 106.88 176.84 L 106.97 176.68 L 107.00 176.52 A 7.00 7.00 0 0 1 93.00 176.52 L 93.00 176.52 L 93.03 176.68 L 93.12 176.84 L 93.27 177.01 L 93.47 177.17 L 93.71 177.34 L 94.00 177.50 L 94.32 177.66 L 94.65 177.83 L 95.00 177.99 L 95.35 178.15 L 95.68 178.32 L 96.00 178.48 L 96.29 178.64 L 96.53 178.81 L 96.73 178.97 L 96.88 179.13 L 96.97 179.30 L 97.00 179.46 L 96.97 179.63 L 96.88 179.79 L 96.73 179.95 L 96.53 180.12 L 96.29 180.28 L 96.00 180.44 L 95.68 180.61 L 95.35 180.77 L 95.00 180.93 L 94.65 181.10 L 94.32 181.26 L 94.00 181.42 L 93.71 181.59 L 93.47 181.75 L 93.27 181.92 L 93.12 182.08 L 93.03 182.24 L 93.00 182.41 L 93.03 182.57 L 93.12 182.73 L 93.27 182.90 L 93.47 183.06 L 93.71 183.22 L 94.00 183.39 L 94.32 183.55 L 94.65 183.71 L 95.00 183.88 L 95.35 184.04 L 95.68 184.20 L 96.00 184.37 L 96.29 184.53 L 96.53 184.70 L 96.73 184.86 L 96.88 185.02 L 96.97 185.19 L 97.00 185.35 L 96.97 185.51 L 96.88 185.68 L 96.73 185.84 L 96.53 186.00 L 96.29 186.17 L 96.00 186.33 L 95.68 186.49 L 95.35 186.66 L 95.00 186.82 L 94.65 186.99 L 94.32 187.15 L 94.00 187.31 L 93.71 187.48 L 93.47 187.64 L 93.27 187.80 L 93.12 187.97 L 93.03 188.13 L 93.00 188.29 A 7.00 7.00 0 0 1 107.00 188.29 Z M 102.38 187.94 L 102.37 187.79 L 102.34 187.63 L 102.29 187.48 L 102.22 187.33 L 102.14 187.17 L 102.04 187.02 L 101.93 186.86 L 101.82 186.71 L 101.70 186.56 L 101.58 186.40 L 101.47 186.25 L 101.36 186.10 L 101.26 185.94 L 101.18 185.79 L 101.11 185.63 L 101.06 185.48 L 101.03 185.33 L 101.02 185.17 L 101.03 185.02 L 101.06 184.87 L 101.11 184.71 L 101.18 184.56 L 101.26 184.40 L 101.36 184.25 L 101.47 184.10 L 101.58 183.94 L 101.70 183.79 L 101.82 183.64 L 101.93 183.48 L 102.04 183.33 L 102.14 183.17 L 102.22 183.02 L 102.29 182.87 L 102.34 182.71 L 102.37 182.56 L 102.38 182.41 L 102.37 182.25 L 102.34 182.10 L 102.29 181.94 L 102.22 181.79 L 102.14 181.64 L 102.04 181.48 L 101.93 181.33 L 101.82 181.18 L 101.70 181.02 L 101.58 180.87 L 101.47 180.71 L 101.36 180.56 L 101.26 180.41 L 101.18 180.25 L 101.11 180.10 L 101.06 179.95 L 101.03 179.79 L 101.02 179.64 L 101.03 179.48 L 101.06 179.33 L 101.11 179.18 L 101.18 179.02 L 101.26 178.87 L 101.36 178.72 L 101.47 178.56 L 101.58 178.41 L 101.70 178.25 L 101.82 178.10 L 101.93 177.95 L 102.04 177.79 L 102.14 177.64 L 102.22 177.49 L 102.29 177.33 L 102.34 177.18 L 102.37 177.02 L 102.38 176.87 A 2.38 2.38 0 0 1 97.62 176.87 L 97.62 176.87 L 97.63 177.02 L 97.66 177.18 L 97.71 177.33 L 97.78 177.49 L 97.86 177.64 L 97.96 177.79 L 98.07 177.95 L 98.18 178.10 L 98.30 178.25 L 98.42 178.41 L 98.53 178.56 L 98.64 178.72 L 98.74 178.87 L 98.82 179.02 L 98.89 179.18 L 98.94 179.33 L 98.97 179.48 L 98.98 179.64 L 98.97 179.79 L 98.94 179.95 L 98.89 180.10 L 98.82 180.25 L 98.74 180.41 L 98.64 180.56 L 98.53 180.71 L 98.42 180.87 L 98.30 181.02 L 98.18 181.18 L 98.07 181.33 L 97.96 181.48 L 97.86 181.64 L 97.78 181.79 L 97.71 181.94 L 97.66 182.10 L 97.63 182.25 L 97.62 182.41 L 97.63 182.56 L 97.66 182.71 L 97.71 182.87 L 97.78 183.02 L 97.86 183.17 L 97.96 183.33 L 98.07 183.48 L 98.18 183.64 L 98.30 183.79 L 98.42 183.94 L 98.53 184.10 L 98.64 184.25 L 98.74 184.40 L 98.82 184.56 L 98.89 184.71 L 98.94 184.87 L 98.97 185.02 L 98.98 185.17 L 98.97 185.33 L 98.94 185.48 L 98.89 185.63 L 98.82 185.79 L 98.74 185.94 L 98.64 186.10 L 98.53 186.25 L 98.42 186.40 L 98.30 186.56 L 98.18 186.71 L 98.07 186.86 L 97.96 187.02 L 97.86 187.17 L 97.78 187.33 L 97.71 187.48 L 97.66 187.63 L 97.63 187.79 L 97.62 187.94 A 2.38 2.38 0 0 1 102.38 187.94 Z" fill="#1f7a44" fill-rule="evenodd"/></g><g transform="rotate(-222.0 86.6 169.0)"><path d="M 93.56 160.78 L 93.53 161.01 L 93.44 161.23 L 93.29 161.46 L 93.09 161.69 L 92.85 161.92 L 92.56 162.14 L 92.25 162.37 L 91.91 162.60 L 91.56 162.83 L 91.21 163.06 L 90.88 163.28 L 90.56 163.51 L 90.28 163.74 L 90.03 163.97 L 89.83 164.19 L 89.68 164.42 L 89.59 164.65 L 89.56 164.88 L 89.59 165.10 L 89.68 165.33 L 89.83 165.56 L 90.03 165.79 L 90.28 166.01 L 90.56 166.24 L 90.88 166.47 L 91.21 166.70 L 91.56 166.92 L 91.91 167.15 L 92.25 167.38 L 92.56 167.61 L 92.85 167.84 L 93.09 168.06 L 93.29 168.29 L 93.44 168.52 L 93.53 168.75 L 93.56 168.97 L 93.53 169.20 L 93.44 169.43 L 93.29 169.66 L 93.09 169.88 L 92.85 170.11 L 92.56 170.34 L 92.25 170.57 L 91.91 170.79 L 91.56 171.02 L 91.21 171.25 L 90.88 171.48 L 90.56 171.71 L 90.28 171.93 L 90.03 172.16 L 89.83 172.39 L 89.68 172.62 L 89.59 172.84 L 89.56 173.07 L 89.59 173.30 L 89.68 173.53 L 89.83 173.75 L 90.03 173.98 L 90.28 174.21 L 90.56 174.44 L 90.88 174.66 L 91.21 174.89 L 91.56 175.12 L 91.91 175.35 L 92.25 175.57 L 92.56 175.80 L 92.85 176.03 L 93.09 176.26 L 93.29 176.49 L 93.44 176.71 L 93.53 176.94 L 93.56 177.17 A 7.00 7.00 0 0 1 79.56 177.17 L 79.56 177.17 L 79.59 176.94 L 79.68 176.71 L 79.83 176.49 L 80.03 176.26 L 80.28 176.03 L 80.56 175.80 L 80.88 175.57 L 81.21 175.35 L 81.56 175.12 L 81.91 174.89 L 82.25 174.66 L 82.56 174.44 L 82.85 174.21 L 83.09 173.98 L 83.29 173.75 L 83.44 173.53 L 83.53 173.30 L 83.56 173.07 L 83.53 172.84 L 83.44 172.62 L 83.29 172.39 L 83.09 172.16 L 82.85 171.93 L 82.56 171.71 L 82.25 171.48 L 81.91 171.25 L 81.56 171.02 L 81.21 170.79 L 80.88 170.57 L 80.56 170.34 L 80.28 170.11 L 80.03 169.88 L 79.83 169.66 L 79.68 169.43 L 79.59 169.20 L 79.56 168.97 L 79.59 168.75 L 79.68 168.52 L 79.83 168.29 L 80.03 168.06 L 80.28 167.84 L 80.56 167.61 L 80.88 167.38 L 81.21 167.15 L 81.56 166.92 L 81.91 166.70 L 82.25 166.47 L 82.56 166.24 L 82.85 166.01 L 83.09 165.79 L 83.29 165.56 L 83.44 165.33 L 83.53 165.10 L 83.56 164.88 L 83.53 164.65 L 83.44 164.42 L 83.29 164.19 L 83.09 163.97 L 82.85 163.74 L 82.56 163.51 L 82.25 163.28 L 81.91 163.06 L 81.56 162.83 L 81.21 162.60 L 80.88 162.37 L 80.56 162.14 L 80.28 161.92 L 80.03 161.69 L 79.83 161.46 L 79.68 161.23 L 79.59 161.01 L 79.56 160.78 A 7.00 7.00 0 0 1 93.56 160.78 Z M 88.94 161.27 L 88.93 161.48 L 88.90 161.70 L 88.85 161.91 L 88.78 162.13 L 88.70 162.34 L 88.60 162.55 L 88.49 162.77 L 88.38 162.98 L 88.26 163.20 L 88.14 163.41 L 88.03 163.62 L 87.92 163.84 L 87.82 164.05 L 87.74 164.27 L 87.67 164.48 L 87.62 164.69 L 87.59 164.91 L 87.58 165.12 L 87.59 165.34 L 87.62 165.55 L 87.67 165.76 L 87.74 165.98 L 87.82 166.19 L 87.92 166.41 L 88.03 166.62 L 88.14 166.83 L 88.26 167.05 L 88.38 167.26 L 88.49 167.48 L 88.60 167.69 L 88.70 167.90 L 88.78 168.12 L 88.85 168.33 L 88.90 168.55 L 88.93 168.76 L 88.94 168.97 L 88.93 169.19 L 88.90 169.40 L 88.85 169.62 L 88.78 169.83 L 88.70 170.04 L 88.60 170.26 L 88.49 170.47 L 88.38 170.69 L 88.26 170.90 L 88.14 171.11 L 88.03 171.33 L 87.92 171.54 L 87.82 171.76 L 87.74 171.97 L 87.67 172.18 L 87.62 172.40 L 87.59 172.61 L 87.58 172.82 L 87.59 173.04 L 87.62 173.25 L 87.67 173.47 L 87.74 173.68 L 87.82 173.89 L 87.92 174.11 L 88.03 174.32 L 88.14 174.54 L 88.26 174.75 L 88.38 174.96 L 88.49 175.18 L 88.60 175.39 L 88.70 175.61 L 88.78 175.82 L 88.85 176.03 L 88.90 176.25 L 88.93 176.46 L 88.94 176.68 A 2.38 2.38 0 0 1 84.18 176.68 L 84.18 176.68 L 84.19 176.46 L 84.22 176.25 L 84.27 176.03 L 84.34 175.82 L 84.42 175.61 L 84.52 175.39 L 84.63 175.18 L 84.74 174.96 L 84.86 174.75 L 84.98 174.54 L 85.09 174.32 L 85.20 174.11 L 85.30 173.89 L 85.38 173.68 L 85.45 173.47 L 85.50 173.25 L 85.53 173.04 L 85.54 172.82 L 85.53 172.61 L 85.50 172.40 L 85.45 172.18 L 85.38 171.97 L 85.30 171.76 L 85.20 171.54 L 85.09 171.33 L 84.98 171.11 L 84.86 170.90 L 84.74 170.69 L 84.63 170.47 L 84.52 170.26 L 84.42 170.04 L 84.34 169.83 L 84.27 169.62 L 84.22 169.40 L 84.19 169.19 L 84.18 168.97 L 84.19 168.76 L 84.22 168.55 L 84.27 168.33 L 84.34 168.12 L 84.42 167.90 L 84.52 167.69 L 84.63 167.48 L 84.74 167.26 L 84.86 167.05 L 84.98 166.83 L 85.09 166.62 L 85.20 166.41 L 85.30 166.19 L 85.38 165.98 L 85.45 165.76 L 85.50 165.55 L 85.53 165.34 L 85.54 165.12 L 85.53 164.91 L 85.50 164.69 L 85.45 164.48 L 85.38 164.27 L 85.30 164.05 L 85.20 163.84 L 85.09 163.62 L 84.98 163.41 L 84.86 163.20 L 84.74 162.98 L 84.63 162.77 L 84.52 162.55 L 84.42 162.34 L 84.34 162.13 L 84.27 161.91 L 84.22 161.70 L 84.19 161.48 L 84.18 161.27 A 2.38 2.38 0 0 1 88.94 161.27 Z" fill="#1f7a44" fill-rule="evenodd"/></g><g transform="rotate(-221.3 58.5 137.4)"><path d="M 65.90 124.52 L 65.86 124.88 L 65.77 125.23 L 65.61 125.59 L 65.40 125.95 L 65.14 126.31 L 64.84 126.67 L 64.51 127.03 L 64.15 127.38 L 63.79 127.74 L 63.42 128.10 L 63.07 128.46 L 62.73 128.82 L 62.43 129.17 L 62.17 129.53 L 61.96 129.89 L 61.81 130.25 L 61.71 130.61 L 61.68 130.96 L 61.71 131.32 L 61.81 131.68 L 61.96 132.04 L 62.17 132.40 L 62.43 132.76 L 62.73 133.11 L 63.07 133.47 L 63.42 133.83 L 63.79 134.19 L 64.15 134.55 L 64.51 134.90 L 64.84 135.26 L 65.14 135.62 L 65.40 135.98 L 65.61 136.34 L 65.77 136.70 L 65.86 137.05 L 65.90 137.41 L 65.86 137.77 L 65.77 138.13 L 65.61 138.49 L 65.40 138.84 L 65.14 139.20 L 64.84 139.56 L 64.51 139.92 L 64.15 140.28 L 63.79 140.63 L 63.42 140.99 L 63.07 141.35 L 62.73 141.71 L 62.43 142.07 L 62.17 142.43 L 61.96 142.78 L 61.81 143.14 L 61.71 143.50 L 61.68 143.86 L 61.71 144.22 L 61.81 144.57 L 61.96 144.93 L 62.17 145.29 L 62.43 145.65 L 62.73 146.01 L 63.07 146.36 L 63.42 146.72 L 63.79 147.08 L 64.15 147.44 L 64.51 147.80 L 64.84 148.16 L 65.14 148.51 L 65.40 148.87 L 65.61 149.23 L 65.77 149.59 L 65.86 149.95 L 65.90 150.30 A 7.38 7.38 0 0 1 51.14 150.30 L 51.14 150.30 L 51.17 149.95 L 51.27 149.59 L 51.42 149.23 L 51.63 148.87 L 51.89 148.51 L 52.19 148.16 L 52.53 147.80 L 52.88 147.44 L 53.25 147.08 L 53.61 146.72 L 53.97 146.36 L 54.30 146.01 L 54.60 145.65 L 54.86 145.29 L 55.07 144.93 L 55.23 144.57 L 55.32 144.22 L 55.36 143.86 L 55.32 143.50 L 55.23 143.14 L 55.07 142.78 L 54.86 142.43 L 54.60 142.07 L 54.30 141.71 L 53.97 141.35 L 53.61 140.99 L 53.25 140.63 L 52.88 140.28 L 52.53 139.92 L 52.19 139.56 L 51.89 139.20 L 51.63 138.84 L 51.42 138.49 L 51.27 138.13 L 51.17 137.77 L 51.14 137.41 L 51.17 137.05 L 51.27 136.70 L 51.42 136.34 L 51.63 135.98 L 51.89 135.62 L 52.19 135.26 L 52.53 134.90 L 52.88 134.55 L 53.25 134.19 L 53.61 133.83 L 53.97 133.47 L 54.30 133.11 L 54.60 132.76 L 54.86 132.40 L 55.07 132.04 L 55.23 131.68 L 55.32 131.32 L 55.36 130.96 L 55.32 130.61 L 55.23 130.25 L 55.07 129.89 L 54.86 129.53 L 54.60 129.17 L 54.30 128.82 L 53.97 128.46 L 53.61 128.10 L 53.25 127.74 L 52.88 127.38 L 52.53 127.03 L 52.19 126.67 L 51.89 126.31 L 51.63 125.95 L 51.42 125.59 L 51.27 125.23 L 51.17 124.88 L 51.14 124.52 A 7.38 7.38 0 0 1 65.90 124.52 Z M 61.03 125.29 L 61.02 125.63 L 60.98 125.97 L 60.93 126.30 L 60.86 126.64 L 60.77 126.98 L 60.67 127.31 L 60.55 127.65 L 60.43 127.99 L 60.31 128.32 L 60.19 128.66 L 60.06 129.00 L 59.95 129.33 L 59.85 129.67 L 59.76 130.01 L 59.69 130.34 L 59.64 130.68 L 59.60 131.01 L 59.59 131.35 L 59.60 131.69 L 59.64 132.02 L 59.69 132.36 L 59.76 132.70 L 59.85 133.03 L 59.95 133.37 L 60.06 133.71 L 60.19 134.04 L 60.31 134.38 L 60.43 134.72 L 60.55 135.05 L 60.67 135.39 L 60.77 135.73 L 60.86 136.06 L 60.93 136.40 L 60.98 136.74 L 61.02 137.07 L 61.03 137.41 L 61.02 137.75 L 60.98 138.08 L 60.93 138.42 L 60.86 138.76 L 60.77 139.09 L 60.67 139.43 L 60.55 139.77 L 60.43 140.10 L 60.31 140.44 L 60.19 140.78 L 60.06 141.11 L 59.95 141.45 L 59.85 141.79 L 59.76 142.12 L 59.69 142.46 L 59.64 142.80 L 59.60 143.13 L 59.59 143.47 L 59.60 143.81 L 59.64 144.14 L 59.69 144.48 L 59.76 144.82 L 59.85 145.15 L 59.95 145.49 L 60.06 145.83 L 60.19 146.16 L 60.31 146.50 L 60.43 146.84 L 60.55 147.17 L 60.67 147.51 L 60.77 147.85 L 60.86 148.18 L 60.93 148.52 L 60.98 148.86 L 61.02 149.19 L 61.03 149.53 A 2.51 2.51 0 0 1 56.01 149.53 L 56.01 149.53 L 56.02 149.19 L 56.05 148.86 L 56.10 148.52 L 56.18 148.18 L 56.27 147.85 L 56.37 147.51 L 56.48 147.17 L 56.60 146.84 L 56.73 146.50 L 56.85 146.16 L 56.97 145.83 L 57.08 145.49 L 57.19 145.15 L 57.27 144.82 L 57.35 144.48 L 57.40 144.14 L 57.43 143.81 L 57.44 143.47 L 57.43 143.13 L 57.40 142.80 L 57.35 142.46 L 57.27 142.12 L 57.19 141.79 L 57.08 141.45 L 56.97 141.11 L 56.85 140.78 L 56.73 140.44 L 56.60 140.10 L 56.48 139.77 L 56.37 139.43 L 56.27 139.09 L 56.18 138.76 L 56.10 138.42 L 56.05 138.08 L 56.02 137.75 L 56.01 137.41 L 56.02 137.07 L 56.05 136.74 L 56.10 136.40 L 56.18 136.06 L 56.27 135.73 L 56.37 135.39 L 56.48 135.05 L 56.60 134.72 L 56.73 134.38 L 56.85 134.04 L 56.97 133.71 L 57.08 133.37 L 57.19 133.03 L 57.27 132.70 L 57.35 132.36 L 57.40 132.02 L 57.43 131.69 L 57.44 131.35 L 57.43 131.01 L 57.40 130.68 L 57.35 130.34 L 57.27 130.01 L 57.19 129.67 L 57.08 129.33 L 56.97 129.00 L 56.85 128.66 L 56.73 128.32 L 56.60 127.99 L 56.48 127.65 L 56.37 127.31 L 56.27 126.98 L 56.18 126.64 L 56.10 126.30 L 56.05 125.97 L 56.02 125.63 L 56.01 125.29 A 2.51 2.51 0 0 1 61.03 125.29 Z" fill="#c0392b" fill-rule="evenodd"/></g><g transform="rotate(-159.8 49.0 101.8)"><path d="M 56.02 93.12 L 55.99 93.36 L 55.90 93.60 L 55.75 93.84 L 55.55 94.08 L 55.30 94.32 L 55.02 94.56 L 54.70 94.80 L 54.36 95.04 L 54.02 95.28 L 53.67 95.52 L 53.33 95.76 L 53.02 96.00 L 52.73 96.25 L 52.48 96.49 L 52.28 96.73 L 52.14 96.97 L 52.05 97.21 L 52.02 97.45 L 52.05 97.69 L 52.14 97.93 L 52.28 98.17 L 52.48 98.41 L 52.73 98.65 L 53.02 98.89 L 53.33 99.13 L 53.67 99.37 L 54.02 99.61 L 54.36 99.85 L 54.70 100.09 L 55.02 100.34 L 55.30 100.58 L 55.55 100.82 L 55.75 101.06 L 55.90 101.30 L 55.99 101.54 L 56.02 101.78 L 55.99 102.02 L 55.90 102.26 L 55.75 102.50 L 55.55 102.74 L 55.30 102.98 L 55.02 103.22 L 54.70 103.46 L 54.36 103.70 L 54.02 103.94 L 53.67 104.19 L 53.33 104.43 L 53.02 104.67 L 52.73 104.91 L 52.48 105.15 L 52.28 105.39 L 52.14 105.63 L 52.05 105.87 L 52.02 106.11 L 52.05 106.35 L 52.14 106.59 L 52.28 106.83 L 52.48 107.07 L 52.73 107.31 L 53.02 107.55 L 53.33 107.79 L 53.67 108.03 L 54.02 108.28 L 54.36 108.52 L 54.70 108.76 L 55.02 109.00 L 55.30 109.24 L 55.55 109.48 L 55.75 109.72 L 55.90 109.96 L 55.99 110.20 L 56.02 110.44 A 7.00 7.00 0 0 1 42.02 110.44 L 42.02 110.44 L 42.05 110.20 L 42.14 109.96 L 42.28 109.72 L 42.48 109.48 L 42.73 109.24 L 43.02 109.00 L 43.33 108.76 L 43.67 108.52 L 44.02 108.28 L 44.36 108.03 L 44.70 107.79 L 45.02 107.55 L 45.30 107.31 L 45.55 107.07 L 45.75 106.83 L 45.90 106.59 L 45.99 106.35 L 46.02 106.11 L 45.99 105.87 L 45.90 105.63 L 45.75 105.39 L 45.55 105.15 L 45.30 104.91 L 45.02 104.67 L 44.70 104.43 L 44.36 104.19 L 44.02 103.94 L 43.67 103.70 L 43.33 103.46 L 43.02 103.22 L 42.73 102.98 L 42.48 102.74 L 42.28 102.50 L 42.14 102.26 L 42.05 102.02 L 42.02 101.78 L 42.05 101.54 L 42.14 101.30 L 42.28 101.06 L 42.48 100.82 L 42.73 100.58 L 43.02 100.34 L 43.33 100.09 L 43.67 99.85 L 44.02 99.61 L 44.36 99.37 L 44.70 99.13 L 45.02 98.89 L 45.30 98.65 L 45.55 98.41 L 45.75 98.17 L 45.90 97.93 L 45.99 97.69 L 46.02 97.45 L 45.99 97.21 L 45.90 96.97 L 45.75 96.73 L 45.55 96.49 L 45.30 96.25 L 45.02 96.00 L 44.70 95.76 L 44.36 95.52 L 44.02 95.28 L 43.67 95.04 L 43.33 94.80 L 43.02 94.56 L 42.73 94.32 L 42.48 94.08 L 42.28 93.84 L 42.14 93.60 L 42.05 93.36 L 42.02 93.12 A 7.00 7.00 0 0 1 56.02 93.12 Z M 51.40 93.64 L 51.39 93.86 L 51.36 94.09 L 51.30 94.32 L 51.24 94.54 L 51.15 94.77 L 51.06 94.99 L 50.95 95.22 L 50.83 95.45 L 50.72 95.67 L 50.60 95.90 L 50.48 96.12 L 50.38 96.35 L 50.28 96.58 L 50.20 96.80 L 50.13 97.03 L 50.08 97.26 L 50.05 97.48 L 50.04 97.71 L 50.05 97.93 L 50.08 98.16 L 50.13 98.39 L 50.20 98.61 L 50.28 98.84 L 50.38 99.07 L 50.48 99.29 L 50.60 99.52 L 50.72 99.74 L 50.83 99.97 L 50.95 100.20 L 51.06 100.42 L 51.15 100.65 L 51.24 100.87 L 51.30 101.10 L 51.36 101.33 L 51.39 101.55 L 51.40 101.78 L 51.39 102.01 L 51.36 102.23 L 51.30 102.46 L 51.24 102.68 L 51.15 102.91 L 51.06 103.14 L 50.95 103.36 L 50.83 103.59 L 50.72 103.81 L 50.60 104.04 L 50.48 104.27 L 50.38 104.49 L 50.28 104.72 L 50.20 104.95 L 50.13 105.17 L 50.08 105.40 L 50.05 105.62 L 50.04 105.85 L 50.05 106.08 L 50.08 106.30 L 50.13 106.53 L 50.20 106.75 L 50.28 106.98 L 50.38 107.21 L 50.48 107.43 L 50.60 107.66 L 50.72 107.89 L 50.83 108.11 L 50.95 108.34 L 51.06 108.56 L 51.15 108.79 L 51.24 109.02 L 51.30 109.24 L 51.36 109.47 L 51.39 109.69 L 51.40 109.92 A 2.38 2.38 0 0 1 46.64 109.92 L 46.64 109.92 L 46.65 109.69 L 46.68 109.47 L 46.73 109.24 L 46.80 109.02 L 46.88 108.79 L 46.98 108.56 L 47.08 108.34 L 47.20 108.11 L 47.32 107.89 L 47.43 107.66 L 47.55 107.43 L 47.66 107.21 L 47.75 106.98 L 47.84 106.75 L 47.90 106.53 L 47.96 106.30 L 47.99 106.08 L 48.00 105.85 L 47.99 105.62 L 47.96 105.40 L 47.90 105.17 L 47.84 104.95 L 47.75 104.72 L 47.66 104.49 L 47.55 104.27 L 47.43 104.04 L 47.32 103.81 L 47.20 103.59 L 47.08 103.36 L 46.98 103.14 L 46.88 102.91 L 46.80 102.68 L 46.73 102.46 L 46.68 102.23 L 46.65 102.01 L 46.64 101.78 L 46.65 101.55 L 46.68 101.33 L 46.73 101.10 L 46.80 100.87 L 46.88 100.65 L 46.98 100.42 L 47.08 100.20 L 47.20 99.97 L 47.32 99.74 L 47.43 99.52 L 47.55 99.29 L 47.66 99.07 L 47.75 98.84 L 47.84 98.61 L 47.90 98.39 L 47.96 98.16 L 47.99 97.93 L 48.00 97.71 L 47.99 97.48 L 47.96 97.26 L 47.90 97.03 L 47.84 96.80 L 47.75 96.58 L 47.66 96.35 L 47.55 96.12 L 47.43 95.90 L 47.32 95.67 L 47.20 95.45 L 47.08 95.22 L 46.98 94.99 L 46.88 94.77 L 46.80 94.54 L 46.73 94.32 L 46.68 94.09 L 46.65 93.86 L 46.64 93.64 A 2.38 2.38 0 0 1 51.40 93.64 Z" fill="#1f7a44" fill-rule="evenodd"/></g><g transform="rotate(-84.4 73.0 86.0)"><path d="M 80.04 78.15 L 80.01 78.37 L 79.92 78.59 L 79.78 78.81 L 79.58 79.03 L 79.33 79.25 L 79.04 79.46 L 78.73 79.68 L 78.39 79.90 L 78.04 80.12 L 77.70 80.34 L 77.36 80.55 L 77.04 80.77 L 76.76 80.99 L 76.51 81.21 L 76.31 81.43 L 76.16 81.65 L 76.07 81.86 L 76.04 82.08 L 76.07 82.30 L 76.16 82.52 L 76.31 82.74 L 76.51 82.96 L 76.76 83.17 L 77.04 83.39 L 77.36 83.61 L 77.70 83.83 L 78.04 84.05 L 78.39 84.26 L 78.73 84.48 L 79.04 84.70 L 79.33 84.92 L 79.58 85.14 L 79.78 85.36 L 79.92 85.57 L 80.01 85.79 L 80.04 86.01 L 80.01 86.23 L 79.92 86.45 L 79.78 86.67 L 79.58 86.88 L 79.33 87.10 L 79.04 87.32 L 78.73 87.54 L 78.39 87.76 L 78.04 87.97 L 77.70 88.19 L 77.36 88.41 L 77.04 88.63 L 76.76 88.85 L 76.51 89.07 L 76.31 89.28 L 76.16 89.50 L 76.07 89.72 L 76.04 89.94 L 76.07 90.16 L 76.16 90.38 L 76.31 90.59 L 76.51 90.81 L 76.76 91.03 L 77.04 91.25 L 77.36 91.47 L 77.70 91.68 L 78.04 91.90 L 78.39 92.12 L 78.73 92.34 L 79.04 92.56 L 79.33 92.78 L 79.58 92.99 L 79.78 93.21 L 79.92 93.43 L 80.01 93.65 L 80.04 93.87 A 7.00 7.00 0 0 1 66.04 93.87 L 66.04 93.87 L 66.07 93.65 L 66.16 93.43 L 66.31 93.21 L 66.51 92.99 L 66.76 92.78 L 67.04 92.56 L 67.36 92.34 L 67.70 92.12 L 68.04 91.90 L 68.39 91.68 L 68.73 91.47 L 69.04 91.25 L 69.33 91.03 L 69.58 90.81 L 69.78 90.59 L 69.92 90.38 L 70.01 90.16 L 70.04 89.94 L 70.01 89.72 L 69.92 89.50 L 69.78 89.28 L 69.58 89.07 L 69.33 88.85 L 69.04 88.63 L 68.73 88.41 L 68.39 88.19 L 68.04 87.97 L 67.70 87.76 L 67.36 87.54 L 67.04 87.32 L 66.76 87.10 L 66.51 86.88 L 66.31 86.67 L 66.16 86.45 L 66.07 86.23 L 66.04 86.01 L 66.07 85.79 L 66.16 85.57 L 66.31 85.36 L 66.51 85.14 L 66.76 84.92 L 67.04 84.70 L 67.36 84.48 L 67.70 84.26 L 68.04 84.05 L 68.39 83.83 L 68.73 83.61 L 69.04 83.39 L 69.33 83.17 L 69.58 82.96 L 69.78 82.74 L 69.92 82.52 L 70.01 82.30 L 70.04 82.08 L 70.01 81.86 L 69.92 81.65 L 69.78 81.43 L 69.58 81.21 L 69.33 80.99 L 69.04 80.77 L 68.73 80.55 L 68.39 80.34 L 68.04 80.12 L 67.70 79.90 L 67.36 79.68 L 67.04 79.46 L 66.76 79.25 L 66.51 79.03 L 66.31 78.81 L 66.16 78.59 L 66.07 78.37 L 66.04 78.15 A 7.00 7.00 0 0 1 80.04 78.15 Z M 75.42 78.63 L 75.41 78.83 L 75.38 79.04 L 75.33 79.24 L 75.26 79.45 L 75.18 79.65 L 75.08 79.86 L 74.98 80.06 L 74.86 80.27 L 74.74 80.47 L 74.63 80.68 L 74.51 80.88 L 74.40 81.09 L 74.31 81.29 L 74.22 81.50 L 74.15 81.70 L 74.10 81.91 L 74.07 82.11 L 74.06 82.32 L 74.07 82.52 L 74.10 82.73 L 74.15 82.93 L 74.22 83.14 L 74.31 83.34 L 74.40 83.55 L 74.51 83.75 L 74.63 83.96 L 74.74 84.16 L 74.86 84.37 L 74.98 84.57 L 75.08 84.78 L 75.18 84.99 L 75.26 85.19 L 75.33 85.40 L 75.38 85.60 L 75.41 85.81 L 75.42 86.01 L 75.41 86.22 L 75.38 86.42 L 75.33 86.63 L 75.26 86.83 L 75.18 87.04 L 75.08 87.24 L 74.98 87.45 L 74.86 87.65 L 74.74 87.86 L 74.63 88.06 L 74.51 88.27 L 74.40 88.47 L 74.31 88.68 L 74.22 88.88 L 74.15 89.09 L 74.10 89.29 L 74.07 89.50 L 74.06 89.70 L 74.07 89.91 L 74.10 90.11 L 74.15 90.32 L 74.22 90.52 L 74.31 90.73 L 74.40 90.93 L 74.51 91.14 L 74.63 91.34 L 74.74 91.55 L 74.86 91.75 L 74.98 91.96 L 75.08 92.17 L 75.18 92.37 L 75.26 92.58 L 75.33 92.78 L 75.38 92.99 L 75.41 93.19 L 75.42 93.40 A 2.38 2.38 0 0 1 70.66 93.40 L 70.66 93.40 L 70.67 93.19 L 70.70 92.99 L 70.75 92.78 L 70.82 92.58 L 70.91 92.37 L 71.00 92.17 L 71.11 91.96 L 71.23 91.75 L 71.34 91.55 L 71.46 91.34 L 71.58 91.14 L 71.68 90.93 L 71.78 90.73 L 71.86 90.52 L 71.93 90.32 L 71.98 90.11 L 72.01 89.91 L 72.02 89.70 L 72.01 89.50 L 71.98 89.29 L 71.93 89.09 L 71.86 88.88 L 71.78 88.68 L 71.68 88.47 L 71.58 88.27 L 71.46 88.06 L 71.34 87.86 L 71.23 87.65 L 71.11 87.45 L 71.00 87.24 L 70.91 87.04 L 70.82 86.83 L 70.75 86.63 L 70.70 86.42 L 70.67 86.22 L 70.66 86.01 L 70.67 85.81 L 70.70 85.60 L 70.75 85.40 L 70.82 85.19 L 70.91 84.99 L 71.00 84.78 L 71.11 84.57 L 71.23 84.37 L 71.34 84.16 L 71.46 83.96 L 71.58 83.75 L 71.68 83.55 L 71.78 83.34 L 71.86 83.14 L 71.93 82.93 L 71.98 82.73 L 72.01 82.52 L 72.02 82.32 L 72.01 82.11 L 71.98 81.91 L 71.93 81.70 L 71.86 81.50 L 71.78 81.29 L 71.68 81.09 L 71.58 80.88 L 71.46 80.68 L 71.34 80.47 L 71.23 80.27 L 71.11 80.06 L 71.00 79.86 L 70.91 79.65 L 70.82 79.45 L 70.75 79.24 L 70.70 79.04 L 70.67 78.83 L 70.66 78.63 A 2.38 2.38 0 0 1 75.42 78.63 Z" fill="#1f7a44" fill-rule="evenodd"/></g><g transform="rotate(-27.8 95.3 96.6)"><path d="M 102.32 95.19 L 102.29 95.23 L 102.20 95.27 L 102.05 95.31 L 101.85 95.35 L 101.61 95.39 L 101.32 95.43 L 101.01 95.47 L 100.67 95.51 L 100.32 95.55 L 99.98 95.59 L 99.64 95.63 L 99.32 95.67 L 99.04 95.71 L 98.79 95.75 L 98.59 95.79 L 98.44 95.83 L 98.35 95.87 L 98.32 95.91 L 98.35 95.95 L 98.44 95.99 L 98.59 96.03 L 98.79 96.07 L 99.04 96.11 L 99.32 96.15 L 99.64 96.19 L 99.98 96.23 L 100.32 96.27 L 100.67 96.30 L 101.01 96.34 L 101.32 96.38 L 101.61 96.42 L 101.85 96.46 L 102.05 96.50 L 102.20 96.54 L 102.29 96.58 L 102.32 96.62 L 102.29 96.66 L 102.20 96.70 L 102.05 96.74 L 101.85 96.78 L 101.61 96.82 L 101.32 96.86 L 101.01 96.90 L 100.67 96.94 L 100.32 96.98 L 99.98 97.02 L 99.64 97.06 L 99.32 97.10 L 99.04 97.14 L 98.79 97.18 L 98.59 97.22 L 98.44 97.26 L 98.35 97.30 L 98.32 97.34 L 98.35 97.38 L 98.44 97.42 L 98.59 97.46 L 98.79 97.50 L 99.04 97.54 L 99.32 97.58 L 99.64 97.61 L 99.98 97.65 L 100.32 97.69 L 100.67 97.73 L 101.01 97.77 L 101.32 97.81 L 101.61 97.85 L 101.85 97.89 L 102.05 97.93 L 102.20 97.97 L 102.29 98.01 L 102.32 98.05 A 7.00 7.00 0 0 1 88.32 98.05 L 88.32 98.05 L 88.35 98.01 L 88.44 97.97 L 88.59 97.93 L 88.79 97.89 L 89.04 97.85 L 89.32 97.81 L 89.64 97.77 L 89.98 97.73 L 90.32 97.69 L 90.67 97.65 L 91.01 97.61 L 91.32 97.58 L 91.61 97.54 L 91.85 97.50 L 92.05 97.46 L 92.20 97.42 L 92.29 97.38 L 92.32 97.34 L 92.29 97.30 L 92.20 97.26 L 92.05 97.22 L 91.85 97.18 L 91.61 97.14 L 91.32 97.10 L 91.01 97.06 L 90.67 97.02 L 90.32 96.98 L 89.98 96.94 L 89.64 96.90 L 89.32 96.86 L 89.04 96.82 L 88.79 96.78 L 88.59 96.74 L 88.44 96.70 L 88.35 96.66 L 88.32 96.62 L 88.35 96.58 L 88.44 96.54 L 88.59 96.50 L 88.79 96.46 L 89.04 96.42 L 89.32 96.38 L 89.64 96.34 L 89.98 96.30 L 90.32 96.27 L 90.67 96.23 L 91.01 96.19 L 91.32 96.15 L 91.61 96.11 L 91.85 96.07 L 92.05 96.03 L 92.20 95.99 L 92.29 95.95 L 92.32 95.91 L 92.29 95.87 L 92.20 95.83 L 92.05 95.79 L 91.85 95.75 L 91.61 95.71 L 91.32 95.67 L 91.01 95.63 L 90.67 95.59 L 90.32 95.55 L 89.98 95.51 L 89.64 95.47 L 89.32 95.43 L 89.04 95.39 L 88.79 95.35 L 88.59 95.31 L 88.44 95.27 L 88.35 95.23 L 88.32 95.19 A 7.00 7.00 0 0 1 102.32 95.19 Z M 97.70 95.28 L 97.69 95.32 L 97.66 95.35 L 97.61 95.39 L 97.54 95.43 L 97.46 95.47 L 97.36 95.50 L 97.26 95.54 L 97.14 95.58 L 97.02 95.61 L 96.90 95.65 L 96.79 95.69 L 96.68 95.73 L 96.59 95.76 L 96.50 95.80 L 96.43 95.84 L 96.38 95.88 L 96.35 95.91 L 96.34 95.95 L 96.35 95.99 L 96.38 96.03 L 96.43 96.06 L 96.50 96.10 L 96.59 96.14 L 96.68 96.17 L 96.79 96.21 L 96.90 96.25 L 97.02 96.29 L 97.14 96.32 L 97.26 96.36 L 97.36 96.40 L 97.46 96.44 L 97.54 96.47 L 97.61 96.51 L 97.66 96.55 L 97.69 96.59 L 97.70 96.62 L 97.69 96.66 L 97.66 96.70 L 97.61 96.73 L 97.54 96.77 L 97.46 96.81 L 97.36 96.85 L 97.26 96.88 L 97.14 96.92 L 97.02 96.96 L 96.90 97.00 L 96.79 97.03 L 96.68 97.07 L 96.59 97.11 L 96.50 97.14 L 96.43 97.18 L 96.38 97.22 L 96.35 97.26 L 96.34 97.29 L 96.35 97.33 L 96.38 97.37 L 96.43 97.41 L 96.50 97.44 L 96.59 97.48 L 96.68 97.52 L 96.79 97.56 L 96.90 97.59 L 97.02 97.63 L 97.14 97.67 L 97.26 97.70 L 97.36 97.74 L 97.46 97.78 L 97.54 97.82 L 97.61 97.85 L 97.66 97.89 L 97.69 97.93 L 97.70 97.97 A 2.38 2.38 0 0 1 92.94 97.97 L 92.94 97.97 L 92.95 97.93 L 92.98 97.89 L 93.03 97.85 L 93.10 97.82 L 93.19 97.78 L 93.28 97.74 L 93.39 97.70 L 93.50 97.67 L 93.62 97.63 L 93.74 97.59 L 93.86 97.56 L 93.96 97.52 L 94.06 97.48 L 94.14 97.44 L 94.21 97.41 L 94.26 97.37 L 94.29 97.33 L 94.30 97.29 L 94.29 97.26 L 94.26 97.22 L 94.21 97.18 L 94.14 97.14 L 94.06 97.11 L 93.96 97.07 L 93.86 97.03 L 93.74 97.00 L 93.62 96.96 L 93.50 96.92 L 93.39 96.88 L 93.28 96.85 L 93.19 96.81 L 93.10 96.77 L 93.03 96.73 L 92.98 96.70 L 92.95 96.66 L 92.94 96.62 L 92.95 96.59 L 92.98 96.55 L 93.03 96.51 L 93.10 96.47 L 93.19 96.44 L 93.28 96.40 L 93.39 96.36 L 93.50 96.32 L 93.62 96.29 L 93.74 96.25 L 93.86 96.21 L 93.96 96.17 L 94.06 96.14 L 94.14 96.10 L 94.21 96.06 L 94.26 96.03 L 94.29 95.99 L 94.30 95.95 L 94.29 95.91 L 94.26 95.88 L 94.21 95.84 L 94.14 95.80 L 94.06 95.76 L 93.96 95.73 L 93.86 95.69 L 93.74 95.65 L 93.62 95.61 L 93.50 95.58 L 93.39 95.54 L 93.28 95.50 L 93.19 95.47 L 93.10 95.43 L 93.03 95.39 L 92.98 95.35 L 92.95 95.32 L 92.94 95.28 A 2.38 2.38 0 0 1 97.70 95.28 Z" fill="#1f7a44" fill-rule="evenodd"/></g><path d="M100 84 L114 112 L86 132 L112 154 L100 168" fill="none" stroke="#c0392b" stroke-width="9" stroke-linecap="round" stroke-linejoin="round"/></svg>