<?xml version="1.0" encoding="UTF-8"?>
<svg xmlns="http://www.w3.org/2000/svg" viewBox="0 0 200 270" width="200" height="270"><g transform="rotate(-72.0 111.8 83.8)"><path d="M 118.76 80.44 L 118.73 80.53 L 118.64 80.62 L 118.49 80.72 L 118.29 80.81 L 118.04 80.91 L 117.76 81.00 L 117.44 81.09 L 117.10 81.19 L 116.76 81.28 L 116.41 81.38 L 116.07 81.47 L 115.76 81.56 L 115.47 81.66 L 115.22 81.75 L 115.02 81.85 L 114.88 81.94 L 114.79 82.03 L 114.76 82.13 L 114.79 82.22 L 114.88 82.32 L 115.02 82.41 L 115.22 82.50 L 115.47 82.60 L 115.76 82.69 L 116.07 82.79 L 116.41 82.88 L 116.76 82.97 L 117.10 83.07 L 117.44 83.16 L 117.76 83.26 L 118.04 83.35 L 118.29 83.44 L 118.49 83.54 L 118.64 83.63 L 118.73 83.73 L 118.76 83.82 L 118.73 83.91 L 118.64 84.01 L 118.49 84.10 L 118.29 84.20 L 118.04 84.29 L 117.76 84.38 L 117.44 84.48 L 117.10 84.57 L 116.76 84.67 L 116.41 84.76 L 116.07 84.85 L 115.76 84.95 L 115.47 85.04 L 115.22 85.14 L 115.02 85.23 L 114.88 85.32 L 114.79 85.42 L 114.76 85.51 L 114.79 85.61 L 114.88 85.70 L 115.02 85.79 L 115.22 85.89 L 115.47 85.98 L 115.76 86.07 L 116.07 86.17 L 116.41 86.26 L 116.76 86.36 L 117.10 86.45 L 117.44 86.54 L 117.76 86.64 L 118.04 86.73 L 118.29 86.83 L 118.49 86.92 L 118.64 87.01 L 118.73 87.11 L 118.76 87.20 A 7.00 7.00 0 0 1 104.76 87.20 L 104.76 87.20 L 104.79 87.11 L 104.88 87.01 L 105.02 86.92 L 105.22 86.83 L 105.47 86.73 L 105.76 86.64 L 106.07 86.54 L 106.41 86.45 L 106.76 86.36 L 107.10 86.26 L 107.44 86.17 L 107.76 86.07 L 108.04 85.98 L 108.29 85.89 L 108.49 85.79 L 108.64 85.70 L 108.73 85.61 L 108.76 85.51 L 108.73 85.42 L 108.64 85.32 L 108.49 85.23 L 108.29 85.14 L 108.04 85.04 L 107.76 84.95 L 107.44 84.85 L 107.10 84.76 L 106.76 84.67 L 106.41 84.57 L 106.07 84.48 L 105.76 84.38 L 105.47 84.29 L 105.22 84.20 L 105.02 84.10 L 104.88 84.01 L 104.79 83.91 L 104.76 83.82 L 104.79 83.73 L 104.88 83.63 L 105.02 83.54 L 105.22 83.44 L 105.47 83.35 L 105.76 83.26 L 106.07 83.16 L 106.41 83.07 L 106.76 82.97 L 107.10 82.88 L 107.44 82.79 L 107.76 82.69 L 108.04 82.60 L 108.29 82.50 L 108.49 82.41 L 108.64 82.32 L 108.73 82.22 L 108.76 82.13 L 108.73 82.03 L 108.64 81.94 L 108.49 81.85 L 108.29 81.75 L 108.04 81.66 L 107.76 81.56 L 107.44 81.47 L 107.10 81.38 L 106.76 81.28 L 106.41 81.19 L 106.07 81.09 L 105.76 81.00 L 105.47 80.91 L 105.22 80.81 L 105.02 80.72 L 104.88 80.62 L 104.79 80.53 L 104.76 80.44 A 7.00 7.00 0 0 1 118.76 80.44 Z M 114.14 80.64 L 114.13 80.73 L 114.09 80.82 L 114.04 80.90 L 113.98 80.99 L 113.89 81.08 L 113.80 81.17 L 113.69 81.26 L 113.57 81.35 L 113.46 81.43 L 113.34 81.52 L 113.22 81.61 L 113.12 81.70 L 113.02 81.79 L 112.93 81.88 L 112.87 81.96 L 112.82 82.05 L 112.79 82.14 L 112.78 82.23 L 112.79 82.32 L 112.82 82.41 L 112.87 82.49 L 112.93 82.58 L 113.02 82.67 L 113.12 82.76 L 113.22 82.85 L 113.34 82.94 L 113.46 83.02 L 113.57 83.11 L 113.69 83.20 L 113.80 83.29 L 113.89 83.38 L 113.98 83.47 L 114.04 83.55 L 114.09 83.64 L 114.13 83.73 L 114.14 83.82 L 114.13 83.91 L 114.09 84.00 L 114.04 84.08 L 113.98 84.17 L 113.89 84.26 L 113.80 84.35 L 113.69 84.44 L 113.57 84.53 L 113.46 84.61 L 113.34 84.70 L 113.22 84.79 L 113.12 84.88 L 113.02 84.97 L 112.93 85.06 L 112.87 85.14 L 112.82 85.23 L 112.79 85.32 L 112.78 85.41 L 112.79 85.50 L 112.82 85.59 L 112.87 85.67 L 112.93 85.76 L 113.02 85.85 L 113.12 85.94 L 113.22 86.03 L 113.34 86.12 L 113.46 86.20 L 113.57 86.29 L 113.69 86.38 L 113.80 86.47 L 113.89 86.56 L 113.98 86.65 L 114.04 86.73 L 114.09 86.82 L 114.13 86.91 L 114.14 87.00 A 2.38 2.38 0 0 1 109.38 87.00 L 109.38 87.00 L 109.39 86.91 L 109.42 86.82 L 109.47 86.73 L 109.53 86.65 L 109.62 86.56 L 109.72 86.47 L 109.82 86.38 L 109.94 86.29 L 110.06 86.20 L 110.17 86.12 L 110.29 86.03 L 110.40 85.94 L 110.49 85.85 L 110.58 85.76 L 110.64 85.67 L 110.69 85.59 L 110.73 85.50 L 110.74 85.41 L 110.73 85.32 L 110.69 85.23 L 110.64 85.14 L 110.58 85.06 L 110.49 84.97 L 110.40 84.88 L 110.29 84.79 L 110.17 84.70 L 110.06 84.61 L 109.94 84.53 L 109.82 84.44 L 109.72 84.35 L 109.62 84.26 L 109.53 84.17 L 109.47 84.08 L 109.42 84.00 L 109.39 83.91 L 109.38 83.82 L 109.39 83.73 L 109.42 83.64 L 109.47 83.55 L 109.53 83.47 L 109.62 83.38 L 109.72 83.29 L 109.82 83.20 L 109.94 83.11 L 110.06 83.02 L 110.17 82.94 L 110.29 82.85 L 110.40 82.76 L 110.49 82.67 L 110.58 82.58 L 110.64 82.49 L 110.69 82.41 L 110.73 82.32 L 110.74 82.23 L 110.73 82.14 L 110.69 82.05 L 110.64 81.96 L 110.58 81.88 L 110.49 81.79 L 110.40 81.70 L 110.29 81.61 L 110.17 81.52 L 110.06 81.43 L 109.94 81.35 L 109.82 81.26 L 109.72 81.17 L 109.62 81.08 L 109.53 80.99 L 109.47 80.90 L 109.42 80.82 L 109.39 80.73 L 109.38 80.64 A 2.38 2.38 0 0 1 114.14 80.64 Z" fill="#1f7a44" fill-rule="evenodd"/></g><g transform="rotate(-39.4 131.2 97.0)"><path d="M 138.23 93.82 L 138.20 93.91 L 138.11 94.00 L 137.96 94.09 L 137.76 94.17 L 137.51 94.26 L 137.23 94.35 L 136.91 94.44 L 136.57 94.53 L 136.23 94.62 L 135.88 94.71 L 135.54 94.80 L 135.23 94.89 L 134.94 94.97 L 134.69 95.06 L 134.49 95.15 L 134.35 95.24 L 134.26 95.33 L 134.23 95.42 L 134.26 95.51 L 134.35 95.60 L 134.49 95.69 L 134.69 95.78 L 134.94 95.86 L 135.23 95.95 L 135.54 96.04 L 135.88 96.13 L 136.23 96.22 L 136.57 96.31 L 136.91 96.40 L 137.23 96.49 L 137.51 96.58 L 137.76 96.67 L 137.96 96.75 L 138.11 96.84 L 138.20 96.93 L 138.23 97.02 L 138.20 97.11 L 138.11 97.20 L 137.96 97.29 L 137.76 97.38 L 137.51 97.47 L 137.23 97.56 L 136.91 97.64 L 136.57 97.73 L 136.23 97.82 L 135.88 97.91 L 135.54 98.00 L 135.23 98.09 L 134.94 98.18 L 134.69 98.27 L 134.49 98.36 L 134.35 98.44 L 134.26 98.53 L 134.23 98.62 L 134.26 98.71 L 134.35 98.80 L 134.49 98.89 L 134.69 98.98 L 134.94 99.07 L 135.23 99.16 L 135.54 99.25 L 135.88 99.33 L 136.23 99.42 L 136.57 99.51 L 136.91 99.60 L 137.23 99.69 L 137.51 99.78 L 137.76 99.87 L 137.96 99.96 L 138.11 100.05 L 138.20 100.14 L 138.23 100.22 A 7.00 7.00 0 0 1 124.23 100.22 L 124.23 100.22 L 124.26 100.14 L 124.35 100.05 L 124.49 99.96 L 124.69 99.87 L 124.94 99.78 L 125.23 99.69 L 125.54 99.60 L 125.88 99.51 L 126.23 99.42 L 126.57 99.33 L 126.91 99.25 L 127.23 99.16 L 127.51 99.07 L 127.76 98.98 L 127.96 98.89 L 128.11 98.80 L 128.20 98.71 L 128.23 98.62 L 128.20 98.53 L 128.11 98.44 L 127.96 98.36 L 127.76 98.27 L 127.51 98.18 L 127.23 98.09 L 126.91 98.00 L 126.57 97.91 L 126.23 97.82 L 125.88 97.73 L 125.54 97.64 L 125.23 97.56 L 124.94 97.47 L 124.69 97.38 L 124.49 97.29 L 124.35 97.20 L 124.26 97.11 L 124.23 97.02 L 124.26 96.93 L 124.35 96.84 L 124.49 96.75 L 124.69 96.67 L 124.94 96.58 L 125.23 96.49 L 125.54 96.40 L 125.88 96.31 L 126.23 96.22 L 126.57 96.13 L 126.91 96.04 L 127.23 95.95 L 127.51 95.86 L 127.76 95.78 L 127.96 95.69 L 128.11 95.60 L 128.20 95.51 L 128.23 95.42 L 128.20 95.33 L 128.11 95.24 L 127.96 95.15 L 127.76 95.06 L 127.51 94.97 L 127.23 94.89 L 126.91 94.80 L 126.57 94.71 L 126.23 94.62 L 125.88 94.53 L 125.54 94.44 L 125.23 94.35 L 124.94 94.26 L 124.69 94.17 L 124.49 94.09 L 124.35 94.00 L 124.26 93.91 L 124.23 93.82 A 7.00 7.00 0 0 1 138.23 93.82 Z M 133.61 94.01 L 133.60 94.09 L 133.56 94.18 L 133.51 94.26 L 133.45 94.35 L 133.36 94.43 L 133.27 94.51 L 133.16 94.60 L 133.04 94.68 L 132.93 94.76 L 132.81 94.85 L 132.69 94.93 L 132.59 95.01 L 132.49 95.10 L 132.40 95.18 L 132.34 95.27 L 132.29 95.35 L 132.26 95.43 L 132.25 95.52 L 132.26 95.60 L 132.29 95.68 L 132.34 95.77 L 132.40 95.85 L 132.49 95.93 L 132.59 96.02 L 132.69 96.10 L 132.81 96.18 L 132.93 96.27 L 133.04 96.35 L 133.16 96.44 L 133.27 96.52 L 133.36 96.60 L 133.45 96.69 L 133.51 96.77 L 133.56 96.85 L 133.60 96.94 L 133.61 97.02 L 133.60 97.10 L 133.56 97.19 L 133.51 97.27 L 133.45 97.36 L 133.36 97.44 L 133.27 97.52 L 133.16 97.61 L 133.04 97.69 L 132.93 97.77 L 132.81 97.86 L 132.69 97.94 L 132.59 98.02 L 132.49 98.11 L 132.40 98.19 L 132.34 98.28 L 132.29 98.36 L 132.26 98.44 L 132.25 98.53 L 132.26 98.61 L 132.29 98.69 L 132.34 98.78 L 132.40 98.86 L 132.49 98.94 L 132.59 99.03 L 132.69 99.11 L 132.81 99.20 L 132.93 99.28 L 133.04 99.36 L 133.16 99.45 L 133.27 99.53 L 133.36 99.61 L 133.45 99.70 L 133.51 99.78 L 133.56 99.86 L 133.60 99.95 L 133.61 100.03 A 2.38 2.38 0 0 1 128.85 100.03 L 128.85 100.03 L 128.86 99.95 L 128.89 99.86 L 128.94 99.78 L 129.00 99.70 L 129.09 99.61 L 129.19 99.53 L 129.29 99.45 L 129.41 99.36 L 129.53 99.28 L 129.64 99.20 L 129.76 99.11 L 129.87 99.03 L 129.96 98.94 L 130.05 98.86 L 130.11 98.78 L 130.16 98.69 L 130.20 98.61 L 130.21 98.53 L 130.20 98.44 L 130.16 98.36 L 130.11 98.28 L 130.05 98.19 L 129.96 98.11 L 129.87 98.02 L 129.76 97.94 L 129.64 97.86 L 129.53 97.77 L 129.41 97.69 L 129.29 97.61 L 129.19 97.52 L 129.09 97.44 L 129.00 97.36 L 128.94 97.27 L 128.89 97.19 L 128.86 97.10 L 128.85 97.02 L 128.86 96.94 L 128.89 96.85 L 128.94 96.77 L 129.00 96.69 L 129.09 96.60 L 129.19 96.52 L 129.29 96.44 L 129.41 96.35 L 129.53 96.27 L 129.64 96.18 L 129.76 96.10 L 129.87 96.02 L 129.96 95.93 L 130.05 95.85 L 130.11 95.77 L 130.16 95.68 L 130.20 95.60 L 130.21 95.52 L 130.20 95.43 L 130.16 95.35 L 130.11 95.27 L 130.05 95.18 L 129.96 95.10 L 129.87 95.01 L 129.76 94.93 L 129.64 94.85 L 129.53 94.76 L 129.41 94.68 L 129.29 94.60 L 129.19 94.51 L 129.09 94.43 L 129.00 94.35 L 128.94 94.26 L 128.89 94.18 L 128.86 94.09 L 128.85 94.01 A 2.38 2.38 0 0 1 133.61 94.01 Z" fill="#1f7a44" fill-rule="evenodd"/></g><g transform="rotate(-7.0 140.4 118.3)"><path d="M 147.39 115.23 L 147.36 115.32 L 147.27 115.40 L 147.13 115.49 L 146.93 115.57 L 146.68 115.66 L 146.39 115.74 L 146.08 115.83 L 145.74 115.91 L 145.39 116.00 L 145.05 116.08 L 144.71 116.17 L 144.39 116.25 L 144.11 116.34 L 143.86 116.42 L 143.66 116.51 L 143.51 116.59 L 143.42 116.68 L 143.39 116.76 L 143.42 116.85 L 143.51 116.93 L 143.66 117.02 L 143.86 117.10 L 144.11 117.19 L 144.39 117.27 L 144.71 117.36 L 145.05 117.44 L 145.39 117.53 L 145.74 117.61 L 146.08 117.70 L 146.39 117.78 L 146.68 117.87 L 146.93 117.95 L 147.13 118.04 L 147.27 118.12 L 147.36 118.21 L 147.39 118.29 L 147.36 118.38 L 147.27 118.46 L 147.13 118.55 L 146.93 118.63 L 146.68 118.72 L 146.39 118.80 L 146.08 118.89 L 145.74 118.97 L 145.39 119.06 L 145.05 119.14 L 144.71 119.23 L 144.39 119.31 L 144.11 119.40 L 143.86 119.48 L 143.66 119.57 L 143.51 119.65 L 143.42 119.74 L 143.39 119.82 L 143.42 119.91 L 143.51 119.99 L 143.66 120.08 L 143.86 120.16 L 144.11 120.25 L 144.39 120.33 L 144.71 120.42 L 145.05 120.50 L 145.39 120.59 L 145.74 120.67 L 146.08 120.76 L 146.39 120.84 L 146.68 120.93 L 146.93 121.01 L 147.13 121.10 L 147.27 121.18 L 147.36 121.27 L 147.39 121.35 A 7.00 7.00 0 0 1 133.39 121.35 L 133.39 121.35 L 133.42 121.27 L 133.51 121.18 L 133.66 121.10 L 133.86 121.01 L 134.11 120.93 L 134.39 120.84 L 134.71 120.76 L 135.05 120.67 L 135.39 120.59 L 135.74 120.50 L 136.08 120.42 L 136.39 120.33 L 136.68 120.25 L 136.93 120.16 L 137.13 120.08 L 137.27 119.99 L 137.36 119.91 L 137.39 119.82 L 137.36 119.74 L 137.27 119.65 L 137.13 119.57 L 136.93 119.48 L 136.68 119.40 L 136.39 119.31 L 136.08 119.23 L 135.74 119.14 L 135.39 119.06 L 135.05 118.97 L 134.71 118.89 L 134.39 118.80 L 134.11 118.72 L 133.86 118.63 L 133.66 118.55 L 133.51 118.46 L 133.42 118.38 L 133.39 118.29 L 133.42 118.21 L 133.51 118.12 L 133.66 118.04 L 133.86 117.95 L 134.11 117.87 L 134.39 117.78 L 134.71 117.70 L 135.05 117.61 L 135.39 117.53 L 135.74 117.44 L 136.08 117.36 L 136.39 117.27 L 136.68 117.19 L 136.93 117.10 L 137.13 117.02 L 137.27 116.93 L 137.36 116.85 L 137.39 116.76 L 137.36 116.68 L 137.27 116.59 L 137.13 116.51 L 136.93 116.42 L 136.68 116.34 L 136.39 116.25 L 136.08 116.17 L 135.74 116.08 L 135.39 116.00 L 135.05 115.91 L 134.71 115.83 L 134.39 115.74 L 134.11 115.66 L 133.86 115.57 L 133.66 115.49 L 133.51 115.40 L 133.42 115.32 L 133.39 115.23 A 7.00 7.00 0 0 1 147.39 115.23 Z M 142.77 115.41 L 142.76 115.49 L 142.73 115.57 L 142.68 115.65 L 142.61 115.73 L 142.53 115.81 L 142.43 115.89 L 142.33 115.97 L 142.21 116.05 L 142.09 116.13 L 141.98 116.21 L 141.86 116.29 L 141.75 116.37 L 141.66 116.45 L 141.57 116.53 L 141.50 116.61 L 141.45 116.69 L 141.42 116.77 L 141.41 116.85 L 141.42 116.93 L 141.45 117.01 L 141.50 117.09 L 141.57 117.17 L 141.66 117.25 L 141.75 117.33 L 141.86 117.41 L 141.98 117.49 L 142.09 117.57 L 142.21 117.65 L 142.33 117.73 L 142.43 117.81 L 142.53 117.89 L 142.61 117.97 L 142.68 118.05 L 142.73 118.13 L 142.76 118.21 L 142.77 118.29 L 142.76 118.37 L 142.73 118.45 L 142.68 118.53 L 142.61 118.61 L 142.53 118.69 L 142.43 118.77 L 142.33 118.85 L 142.21 118.93 L 142.09 119.01 L 141.98 119.09 L 141.86 119.17 L 141.75 119.25 L 141.66 119.33 L 141.57 119.41 L 141.50 119.49 L 141.45 119.57 L 141.42 119.65 L 141.41 119.73 L 141.42 119.81 L 141.45 119.89 L 141.50 119.97 L 141.57 120.05 L 141.66 120.13 L 141.75 120.21 L 141.86 120.29 L 141.98 120.37 L 142.09 120.45 L 142.21 120.53 L 142.33 120.61 L 142.43 120.69 L 142.53 120.77 L 142.61 120.85 L 142.68 120.93 L 142.73 121.01 L 142.76 121.09 L 142.77 121.17 A 2.38 2.38 0 0 1 138.01 121.17 L 138.01 121.17 L 138.02 121.09 L 138.05 121.01 L 138.10 120.93 L 138.17 120.85 L 138.26 120.77 L 138.35 120.69 L 138.46 120.61 L 138.58 120.53 L 138.69 120.45 L 138.81 120.37 L 138.93 120.29 L 139.03 120.21 L 139.13 120.13 L 139.21 120.05 L 139.28 119.97 L 139.33 119.89 L 139.36 119.81 L 139.37 119.73 L 139.36 119.65 L 139.33 119.57 L 139.28 119.49 L 139.21 119.41 L 139.13 119.33 L 139.03 119.25 L 138.93 119.17 L 138.81 119.09 L 138.69 119.01 L 138.58 118.93 L 138.46 118.85 L 138.35 118.77 L 138.26 118.69 L 138.17 118.61 L 138.10 118.53 L 138.05 118.45 L 138.02 118.37 L 138.01 118.29 L 138.02 118.21 L 138.05 118.13 L 138.10 118.05 L 138.17 117.97 L 138.26 117.89 L 138.35 117.81 L 138.46 117.73 L 138.58 117.65 L 138.69 117.57 L 138.81 117.49 L 138.93 117.41 L 139.03 117.33 L 139.13 117.25 L 139.21 117.17 L 139.28 117.09 L 139.33 117.01 L 139.36 116.93 L 139.37 116.85 L 139.36 116.77 L 139.33 116.69 L 139.28 116.61 L 139.21 116.53 L 139.13 116.45 L 139.03 116.37 L 138.93 116.29 L 138.81 116.21 L 138.69 116.13 L 138.58 116.05 L 138.46 115.97 L 138.35 115.89 L 138.26 115.81 L 138.17 115.73 L 138.10 115.65 L 138.05 115.57 L 138.02 115.49 L 138.01 115.41 A 2.38 2.38 0 0 1 142.77 115.41 Z" fill="#1f7a44" fill-rule="evenodd"/></g><g transform="rotate(25.4 136.8 140.9)"><path d="M 143.76 137.93 L 143.73 138.01 L 143.64 138.10 L 143.49 138.18 L 143.29 138.26 L 143.05 138.34 L 142.76 138.42 L 142.44 138.51 L 142.11 138.59 L 141.76 138.67 L 141.41 138.75 L 141.08 138.83 L 140.76 138.92 L 140.48 139.00 L 140.23 139.08 L 140.03 139.16 L 139.88 139.25 L 139.79 139.33 L 139.76 139.41 L 139.79 139.49 L 139.88 139.57 L 140.03 139.66 L 140.23 139.74 L 140.48 139.82 L 140.76 139.90 L 141.08 139.98 L 141.41 140.07 L 141.76 140.15 L 142.11 140.23 L 142.44 140.31 L 142.76 140.40 L 143.05 140.48 L 143.29 140.56 L 143.49 140.64 L 143.64 140.72 L 143.73 140.81 L 143.76 140.89 L 143.73 140.97 L 143.64 141.05 L 143.49 141.14 L 143.29 141.22 L 143.05 141.30 L 142.76 141.38 L 142.44 141.46 L 142.11 141.55 L 141.76 141.63 L 141.41 141.71 L 141.08 141.79 L 140.76 141.87 L 140.48 141.96 L 140.23 142.04 L 140.03 142.12 L 139.88 142.20 L 139.79 142.29 L 139.76 142.37 L 139.79 142.45 L 139.88 142.53 L 140.03 142.61 L 140.23 142.70 L 140.48 142.78 L 140.76 142.86 L 141.08 142.94 L 141.41 143.02 L 141.76 143.11 L 142.11 143.19 L 142.44 143.27 L 142.76 143.35 L 143.05 143.44 L 143.29 143.52 L 143.49 143.60 L 143.64 143.68 L 143.73 143.76 L 143.76 143.85 A 7.00 7.00 0 0 1 129.76 143.85 L 129.76 143.85 L 129.79 143.76 L 129.88 143.68 L 130.03 143.60 L 130.23 143.52 L 130.48 143.44 L 130.76 143.35 L 131.08 143.27 L 131.41 143.19 L 131.76 143.11 L 132.11 143.02 L 132.44 142.94 L 132.76 142.86 L 133.05 142.78 L 133.29 142.70 L 133.49 142.61 L 133.64 142.53 L 133.73 142.45 L 133.76 142.37 L 133.73 142.29 L 133.64 142.20 L 133.49 142.12 L 133.29 142.04 L 133.05 141.96 L 132.76 141.87 L 132.44 141.79 L 132.11 141.71 L 131.76 141.63 L 131.41 141.55 L 131.08 141.46 L 130.76 141.38 L 130.48 141.30 L 130.23 141.22 L 130.03 141.14 L 129.88 141.05 L 129.79 140.97 L 129.76 140.89 L 129.79 140.81 L 129.88 140.72 L 130.03 140.64 L 130.23 140.56 L 130.48 140.48 L 130.76 140.40 L 131.08 140.31 L 131.41 140.23 L 131.76 140.15 L 132.11 140.07 L 132.44 139.98 L 132.76 139.90 L 133.05 139.82 L 133.29 139.74 L 133.49 139.66 L 133.64 139.57 L 133.73 139.49 L 133.76 139.41 L 133.73 139.33 L 133.64 139.25 L 133.49 139.16 L 133.29 139.08 L 133.05 139.00 L 132.76 138.92 L 132.44 138.83 L 132.11 138.75 L 131.76 138.67 L 131.41 138.59 L 131.08 138.51 L 130.76 138.42 L 130.48 138.34 L 130.23 138.26 L 130.03 138.18 L 129.88 138.10 L 129.79 138.01 L 129.76 137.93 A 7.00 7.00 0 0 1 143.76 137.93 Z M 139.14 138.11 L 139.13 138.19 L 139.10 138.26 L 139.05 138.34 L 138.98 138.42 L 138.90 138.49 L 138.80 138.57 L 138.69 138.65 L 138.58 138.73 L 138.46 138.80 L 138.34 138.88 L 138.23 138.96 L 138.12 139.03 L 138.02 139.11 L 137.94 139.19 L 137.87 139.27 L 137.82 139.34 L 137.79 139.42 L 137.78 139.50 L 137.79 139.58 L 137.82 139.65 L 137.87 139.73 L 137.94 139.81 L 138.02 139.88 L 138.12 139.96 L 138.23 140.04 L 138.34 140.12 L 138.46 140.19 L 138.58 140.27 L 138.69 140.35 L 138.80 140.43 L 138.90 140.50 L 138.98 140.58 L 139.05 140.66 L 139.10 140.73 L 139.13 140.81 L 139.14 140.89 L 139.13 140.97 L 139.10 141.04 L 139.05 141.12 L 138.98 141.20 L 138.90 141.27 L 138.80 141.35 L 138.69 141.43 L 138.58 141.51 L 138.46 141.58 L 138.34 141.66 L 138.23 141.74 L 138.12 141.82 L 138.02 141.89 L 137.94 141.97 L 137.87 142.05 L 137.82 142.12 L 137.79 142.20 L 137.78 142.28 L 137.79 142.36 L 137.82 142.43 L 137.87 142.51 L 137.94 142.59 L 138.02 142.66 L 138.12 142.74 L 138.23 142.82 L 138.34 142.90 L 138.46 142.97 L 138.58 143.05 L 138.69 143.13 L 138.80 143.21 L 138.90 143.28 L 138.98 143.36 L 139.05 143.44 L 139.10 143.51 L 139.13 143.59 L 139.14 143.67 A 2.38 2.38 0 0 1 134.38 143.67 L 134.38 143.67 L 134.39 143.59 L 134.42 143.51 L 134.47 143.44 L 134.54 143.36 L 134.62 143.28 L 134.72 143.21 L 134.83 143.13 L 134.94 143.05 L 135.06 142.97 L 135.18 142.90 L 135.29 142.82 L 135.40 142.74 L 135.50 142.66 L 135.58 142.59 L 135.65 142.51 L 135.70 142.43 L 135.73 142.36 L 135.74 142.28 L 135.73 142.20 L 135.70 142.12 L 135.65 142.05 L 135.58 141.97 L 135.50 141.89 L 135.40 141.82 L 135.29 141.74 L 135.18 141.66 L 135.06 141.58 L 134.94 141.51 L 134.83 141.43 L 134.72 141.35 L 134.62 141.27 L 134.54 141.20 L 134.47 141.12 L 134.42 141.04 L 134.39 140.97 L 134.38 140.89 L 134.39 140.81 L 134.42 140.73 L 134.47 140.66 L 134.54 140.58 L 134.62 140.50 L 134.72 140.43 L 134.83 140.35 L 134.94 140.27 L 135.06 140.19 L 135.18 140.12 L 135.29 140.04 L 135.40 139.96 L 135.50 139.88 L 135.58 139.81 L 135.65 139.73 L 135.70 139.65 L 135.73 139.58 L 135.74 139.50 L 135.73 139.42 L 135.70 139.34 L 135.65 139.27 L 135.58 139.19 L 135.50 139.11 L 135.40 139.03 L 135.29 138.96 L 135.18 138.88 L 135.06 138.80 L 134.94 138.73 L 134.83 138.65 L 134.72 138.57 L 134.62 138.49 L 134.54 138.42 L 134.47 138.34 L 134.42 138.26 L 134.39 138.19 L 134.38 138.11 A 2.38 2.38 0 0 1 139.14 138.11 Z" fill="#1f7a44" fill-rule="evenodd"/></g><g transform="rotate(57.7 121.7 157.9)"><path d="M 128.72 154.99 L 128.68 155.07 L 128.59 155.15 L 128.45 155.23 L 128.25 155.31 L 128.00 155.40 L 127.72 155.48 L 127.40 155.56 L 127.06 155.64 L 126.72 155.72 L 126.37 155.80 L 126.03 155.88 L 125.72 155.96 L 125.43 156.04 L 125.18 156.12 L 124.98 156.20 L 124.84 156.28 L 124.75 156.36 L 124.72 156.44 L 124.75 156.52 L 124.84 156.60 L 124.98 156.68 L 125.18 156.76 L 125.43 156.84 L 125.72 156.92 L 126.03 157.00 L 126.37 157.08 L 126.72 157.16 L 127.06 157.25 L 127.40 157.33 L 127.72 157.41 L 128.00 157.49 L 128.25 157.57 L 128.45 157.65 L 128.59 157.73 L 128.68 157.81 L 128.72 157.89 L 128.68 157.97 L 128.59 158.05 L 128.45 158.13 L 128.25 158.21 L 128.00 158.29 L 127.72 158.37 L 127.40 158.45 L 127.06 158.53 L 126.72 158.61 L 126.37 158.69 L 126.03 158.77 L 125.72 158.85 L 125.43 158.93 L 125.18 159.01 L 124.98 159.10 L 124.84 159.18 L 124.75 159.26 L 124.72 159.34 L 124.75 159.42 L 124.84 159.50 L 124.98 159.58 L 125.18 159.66 L 125.43 159.74 L 125.72 159.82 L 126.03 159.90 L 126.37 159.98 L 126.72 160.06 L 127.06 160.14 L 127.40 160.22 L 127.72 160.30 L 128.00 160.38 L 128.25 160.46 L 128.45 160.54 L 128.59 160.62 L 128.68 160.70 L 128.72 160.78 A 7.00 7.00 0 0 1 114.72 160.78 L 114.72 160.78 L 114.75 160.70 L 114.84 160.62 L 114.98 160.54 L 115.18 160.46 L 115.43 160.38 L 115.72 160.30 L 116.03 160.22 L 116.37 160.14 L 116.72 160.06 L 117.06 159.98 L 117.40 159.90 L 117.72 159.82 L 118.00 159.74 L 118.25 159.66 L 118.45 159.58 L 118.59 159.50 L 118.68 159.42 L 118.72 159.34 L 118.68 159.26 L 118.59 159.18 L 118.45 159.10 L 118.25 159.01 L 118.00 158.93 L 117.72 158.85 L 117.40 158.77 L 117.06 158.69 L 116.72 158.61 L 116.37 158.53 L 116.03 158.45 L 115.72 158.37 L 115.43 158.29 L 115.18 158.21 L 114.98 158.13 L 114.84 158.05 L 114.75 157.97 L 114.72 157.89 L 114.75 157.81 L 114.84 157.73 L 114.98 157.65 L 115.18 157.57 L 115.43 157.49 L 115.72 157.41 L 116.03 157.33 L 116.37 157.25 L 116.72 157.16 L 117.06 157.08 L 117.40 157.00 L 117.72 156.92 L 118.00 156.84 L 118.25 156.76 L 118.45 156.68 L 118.59 156.60 L 118.68 156.52 L 118.72 156.44 L 118.68 156.36 L 118.59 156.28 L 118.45 156.20 L 118.25 156.12 L 118.00 156.04 L 117.72 155.96 L 117.40 155.88 L 117.06 155.80 L 116.72 155.72 L 116.37 155.64 L 116.03 155.56 L 115.72 155.48 L 115.43 155.40 L 115.18 155.31 L 114.98 155.23 L 114.84 155.15 L 114.75 155.07 L 114.72 154.99 A 7.00 7.00 0 0 1 128.72 154.99 Z M 124.10 155.17 L 124.08 155.24 L 124.05 155.32 L 124.00 155.39 L 123.94 155.47 L 123.85 155.54 L 123.76 155.62 L 123.65 155.70 L 123.53 155.77 L 123.42 155.85 L 123.30 155.92 L 123.18 156.00 L 123.08 156.07 L 122.98 156.15 L 122.89 156.23 L 122.83 156.30 L 122.78 156.38 L 122.75 156.45 L 122.74 156.53 L 122.75 156.60 L 122.78 156.68 L 122.83 156.75 L 122.89 156.83 L 122.98 156.91 L 123.08 156.98 L 123.18 157.06 L 123.30 157.13 L 123.42 157.21 L 123.53 157.28 L 123.65 157.36 L 123.76 157.43 L 123.85 157.51 L 123.94 157.59 L 124.00 157.66 L 124.05 157.74 L 124.08 157.81 L 124.10 157.89 L 124.08 157.96 L 124.05 158.04 L 124.00 158.12 L 123.94 158.19 L 123.85 158.27 L 123.76 158.34 L 123.65 158.42 L 123.53 158.49 L 123.42 158.57 L 123.30 158.64 L 123.18 158.72 L 123.08 158.80 L 122.98 158.87 L 122.89 158.95 L 122.83 159.02 L 122.78 159.10 L 122.75 159.17 L 122.74 159.25 L 122.75 159.33 L 122.78 159.40 L 122.83 159.48 L 122.89 159.55 L 122.98 159.63 L 123.08 159.70 L 123.18 159.78 L 123.30 159.85 L 123.42 159.93 L 123.53 160.01 L 123.65 160.08 L 123.76 160.16 L 123.85 160.23 L 123.94 160.31 L 124.00 160.38 L 124.05 160.46 L 124.08 160.53 L 124.10 160.61 A 2.38 2.38 0 0 1 119.34 160.61 L 119.34 160.61 L 119.35 160.53 L 119.38 160.46 L 119.43 160.38 L 119.49 160.31 L 119.58 160.23 L 119.68 160.16 L 119.78 160.08 L 119.90 160.01 L 120.02 159.93 L 120.13 159.85 L 120.25 159.78 L 120.36 159.70 L 120.45 159.63 L 120.54 159.55 L 120.60 159.48 L 120.65 159.40 L 120.68 159.33 L 120.70 159.25 L 120.68 159.17 L 120.65 159.10 L 120.60 159.02 L 120.54 158.95 L 120.45 158.87 L 120.36 158.80 L 120.25 158.72 L 120.13 158.64 L 120.02 158.57 L 119.90 158.49 L 119.78 158.42 L 119.68 158.34 L 119.58 158.27 L 119.49 158.19 L 119.43 158.12 L 119.38 158.04 L 119.35 157.96 L 119.34 157.89 L 119.35 157.81 L 119.38 157.74 L 119.43 157.66 L 119.49 157.59 L 119.58 157.51 L 119.68 157.43 L 119.78 157.36 L 119.90 157.28 L 120.02 157.21 L 120.13 157.13 L 120.25 157.06 L 120.36 156.98 L 120.45 156.91 L 120.54 156.83 L 120.60 156.75 L 120.65 156.68 L 120.68 156.60 L 120.70 156.53 L 120.68 156.45 L 120.65 156.38 L 120.60 156.30 L 120.54 156.23 L 120.45 156.15 L 120.36 156.07 L 120.25 156.00 L 120.13 155.92 L 120.02 155.85 L 119.90 155.77 L 119.78 155.70 L 119.68 155.62 L 119.58 155.54 L 119.49 155.47 L 119.43 155.39 L 119.38 155.32 L 119.35 155.24 L 119.34 155.17 A 2.38 2.38 0 0 1 124.10 155.17 Z" fill="#1f7a44" fill-rule="evenodd"/></g><g transform="rotate(90.0 100.0 164.2)"><path d="M 107.00 161.31 L 106.97 161.39 L 106.88 161.47 L 106.73 161.55 L 106.53 161.62 L 106.29 161.70 L 106.00 161.78 L 105.68 161.86 L 105.35 161.94 L 105.00 162.02 L 104.65 162.10 L 104.32 162.18 L 104.00 162.26 L 103.71 162.34 L 103.47 162.42 L 103.27 162.50 L 103.12 162.58 L 103.03 162.66 L 103.00 162.74 L 103.03 162.82 L 103.12 162.90 L 103.27 162.98 L 103.47 163.06 L 103.71 163.14 L 104.00 163.22 L 104.32 163.30 L 104.65 163.38 L 105.00 163.46 L 105.35 163.54 L 105.68 163.62 L 106.00 163.70 L 106.29 163.78 L 106.53 163.86 L 106.73 163.94 L 106.88 164.02 L 106.97 164.10 L 107.00 164.18 L 106.97 164.26 L 106.88 164.34 L 106.73 164.42 L 106.53 164.50 L 106.29 164.58 L 106.00 164.66 L 105.68 164.74 L 105.35 164.82 L 105.00 164.90 L 104.65 164.98 L 104.32 165.06 L 104.00 165.14 L 103.71 165.22 L 103.47 165.30 L 103.27 165.38 L 103.12 165.46 L 103.03 165.54 L 103.00 165.62 L 103.03 165.70 L 103.12 165.78 L 103.27 165.86 L 103.47 165.94 L 103.71 166.02 L 104.00 166.10 L 104.32 166.18 L 104.65 166.26 L 105.00 166.34 L 105.35 166.42 L 105.68 166.50 L 106.00 166.58 L 106.29 166.66 L 106.53 166.74 L 106.73 166.82 L 106.88 166.90 L 106.97 166.98 L 107.00 167.06 A 7.00 7.00 0 0 1 93.00 167.06 L 93.00 167.06 L 93.03 166.98 L 93.12 166.90 L 93.27 166.82 L 93.47 166.74 L 93.71 166.66 L 94.00 166.58 L 94.32 166.50 L 94.65 166.42 L 95.00 166.34 L 95.35 166.26 L 95.68 166.18 L 96.00 166.10 L 96.29 166.02 L 96.53 165.94 L 96.73 165.86 L 96.88 165.78 L 96.97 165.70 L 97.00 165.62 L 96.97 165.54 L 96.88 165.46 L 96.73 165.38 L 96.53 165.30 L 96.29 165.22 L 96.00 165.14 L 95.68 165.06 L 95.35 164.98 L 95.00 164.90 L 94.65 164.82 L 94.32 164.74 L 94.00 164.66 L 93.71 164.58 L 93.47 164.50 L 93.27 164.42 L 93.12 164.34 L 93.03 164.26 L 93.00 164.18 L 93.03 164.10 L 93.12 164.02 L 93.27 163.94 L 93.47 163.86 L 93.71 163.78 L 94.00 163.70 L 94.32 163.62 L 94.65 163.54 L 95.00 163.46 L 95.35 163.38 L 95.68 163.30 L 96.00 163.22 L 96.29 163.14 L 96.53 163.06 L 96.73 162.98 L 96.88 162.90 L 96.97 162.82 L 97.00 162.74 L 96.97 162.66 L 96.88 162.58 L 96.73 162.50 L 96.53 162.42 L 96.29 162.34 L 96.00 162.26 L 95.68 162.18 L 95.35 162.10 L 95.00 162.02 L 94.65 161.94 L 94.32 161.86 L 94.00 161.78 L 93.71 161.70 L 93.47 161.62 L 93.27 161.55 L 93.12 161.47 L 93.03 161.39 L 93.00 161.31 A 7.00 7.00 0 0 1 107.00 161.31 Z M 102.38 161.48 L 102.37 161.55 L 102.34 161.63 L 102.29 161.70 L 102.22 161.78 L 102.14 161.85 L 102.04 161.93 L 101.93 162.00 L 101.82 162.08 L 101.70 162.15 L 101.58 162.23 L 101.47 162.30 L 101.36 162.38 L 101.26 162.45 L 101.18 162.53 L 101.11 162.60 L 101.06 162.68 L 101.03 162.75 L 101.02 162.83 L 101.03 162.90 L 101.06 162.98 L 101.11 163.05 L 101.18 163.13 L 101.26 163.20 L 101.36 163.28 L 101.47 163.35 L 101.58 163.43 L 101.70 163.50 L 101.82 163.58 L 101.93 163.65 L 102.04 163.73 L 102.14 163.81 L 102.22 163.88 L 102.29 163.96 L 102.34 164.03 L 102.37 164.11 L 102.38 164.18 L 102.37 164.26 L 102.34 164.33 L 102.29 164.41 L 102.22 164.48 L 102.14 164.56 L 102.04 164.63 L 101.93 164.71 L 101.82 164.78 L 101.70 164.86 L 101.58 164.93 L 101.47 165.01 L 101.36 165.08 L 101.26 165.16 L 101.18 165.23 L 101.11 165.31 L 101.06 165.38 L 101.03 165.46 L 101.02 165.53 L 101.03 165.61 L 101.06 165.68 L 101.11 165.76 L 101.18 165.83 L 101.26 165.91 L 101.36 165.98 L 101.47 166.06 L 101.58 166.13 L 101.70 166.21 L 101.82 166.28 L 101.93 166.36 L 102.04 166.43 L 102.14 166.51 L 102.22 166.58 L 102.29 166.66 L 102.34 166.73 L 102.37 166.81 L 102.38 166.88 A 2.38 2.38 0 0 1 97.62 166.88 L 97.62 166.88 L 97.63 166.81 L 97.66 166.73 L 97.71 166.66 L 97.78 166.58 L 97.86 166.51 L 97.96 166.43 L 98.07 166.36 L 98.18 166.28 L 98.30 166.21 L 98.42 166.13 L 98.53 166.06 L 98.64 165.98 L 98.74 165.91 L 98.82 165.83 L 98.89 165.76 L 98.94 165.68 L 98.97 165.61 L 98.98 165.53 L 98.97 165.46 L 98.94 165.38 L 98.89 165.31 L 98.82 165.23 L 98.74 165.16 L 98.64 165.08 L 98.53 165.01 L 98.42 164.93 L 98.30 164.86 L 98.18 164.78 L 98.07 164.71 L 97.96 164.63 L 97.86 164.56 L 97.78 164.48 L 97.71 164.41 L 97.66 164.33 L 97.63 164.26 L 97.62 164.18 L 97.63 164.11 L 97.66 164.03 L 97.71 163.96 L 97.78 163.88 L 97.86 163.81 L 97.96 163.73 L 98.07 163.65 L 98.18 163.58 L 98.30 163.50 L 98.42 163.43 L 98.53 163.35 L 98.64 163.28 L 98.74 163.20 L 98.82 163.13 L 98.89 163.05 L 98.94 162.98 L 98.97 162.90 L 98.98 162.83 L 98.97 162.75 L 98.94 162.68 L 98.89 162.60 L 98.82 162.53 L 98.74 162.45 L 98.64 162.38 L 98.53 162.30 L 98.42 162.23 L 98.30 162.15 L 98.18 162.08 L 98.07 162.00 L 97.96 161.93 L 97.86 161.85 L 97.78 161.78 L 97.71 161.70 L 97.66 161.63 L 97.63 161.55 L 97.62 161.48 A 2.38 2.38 0 0 1 102.38 161.48 Z" fill="#1f7a44" fill-rule="evenodd"/></g><g transform="rotate(-237.7 78.3 157.9)"><path d="M 85.28 154.99 L 85.25 155.07 L 85.16 155.15 L 85.02 155.23 L 84.82 155.31 L 84.57 155.40 L 84.28 155.48 L 83.97 155.56 L 83.63 155.64 L 83.28 155.72 L 82.94 155.80 L 82.60 155.88 L 82.28 155.96 L 82.00 156.04 L 81.75 156.12 L 81.55 156.20 L 81.41 156.28 L 81.32 156.36 L 81.28 156.44 L 81.32 156.52 L 81.41 156.60 L 81.55 156.68 L 81.75 156.76 L 82.00 156.84 L 82.28 156.92 L 82.60 157.00 L 82.94 157.08 L 83.28 157.16 L 83.63 157.25 L 83.97 157.33 L 84.28 157.41 L 84.57 157.49 L 84.82 157.57 L 85.02 157.65 L 85.16 157.73 L 85.25 157.81 L 85.28 157.89 L 85.25 157.97 L 85.16 158.05 L 85.02 158.13 L 84.82 158.21 L 84.57 158.29 L 84.28 158.37 L 83.97 158.45 L 83.63 158.53 L 83.28 158.61 L 82.94 158.69 L 82.60 158.77 L 82.28 158.85 L 82.00 158.93 L 81.75 159.01 L 81.55 159.10 L 81.41 159.18 L 81.32 159.26 L 81.28 159.34 L 81.32 159.42 L 81.41 159.50 L 81.55 159.58 L 81.75 159.66 L 82.00 159.74 L 82.28 159.82 L 82.60 159.90 L 82.94 159.98 L 83.28 160.06 L 83.63 160.14 L 83.97 160.22 L 84.28 160.30 L 84.57 160.38 L 84.82 160.46 L 85.02 160.54 L 85.16 160.62 L 85.25 160.70 L 85.28 160.78 A 7.00 7.00 0 0 1 71.28 160.78 L 71.28 160.78 L 71.32 160.70 L 71.41 160.62 L 71.55 160.54 L 71.75 160.46 L 72.00 160.38 L 72.28 160.30 L 72.60 160.22 L 72.94 160.14 L 73.28 160.06 L 73.63 159.98 L 73.97 159.90 L 74.28 159.82 L 74.57 159.74 L 74.82 159.66 L 75.02 159.58 L 75.16 159.50 L 75.25 159.42 L 75.28 159.34 L 75.25 159.26 L 75.16 159.18 L 75.02 159.10 L 74.82 159.01 L 74.57 158.93 L 74.28 158.85 L 73.97 158.77 L 73.63 158.69 L 73.28 158.61 L 72.94 158.53 L 72.60 158.45 L 72.28 158.37 L 72.00 158.29 L 71.75 158.21 L 71.55 158.13 L 71.41 158.05 L 71.32 157.97 L 71.28 157.89 L 71.32 157.81 L 71.41 157.73 L 71.55 157.65 L 71.75 157.57 L 72.00 157.49 L 72.28 157.41 L 72.60 157.33 L 72.94 157.25 L 73.28 157.16 L 73.63 157.08 L 73.97 157.00 L 74.28 156.92 L 74.57 156.84 L 74.82 156.76 L 75.02 156.68 L 75.16 156.60 L 75.25 156.52 L 75.28 156.44 L 75.25 156.36 L 75.16 156.28 L 75.02 156.20 L 74.82 156.12 L 74.57 156.04 L 74.28 155.96 L 73.97 155.88 L 73.63 155.80 L 73.28 155.72 L 72.94 155.64 L 72.60 155.56 L 72.28 155.48 L 72.00 155.40 L 71.75 155.31 L 71.55 155.23 L 71.41 155.15 L 71.32 155.07 L 71.28 154.99 A 7.00 7.00 0 0 1 85.28 154.99 Z M 80.66 155.17 L 80.65 155.24 L 80.62 155.32 L 80.57 155.39 L 80.51 155.47 L 80.42 155.54 L 80.32 155.62 L 80.22 155.70 L 80.10 155.77 L 79.98 155.85 L 79.87 155.92 L 79.75 156.00 L 79.64 156.07 L 79.55 156.15 L 79.46 156.23 L 79.40 156.30 L 79.35 156.38 L 79.32 156.45 L 79.30 156.53 L 79.32 156.60 L 79.35 156.68 L 79.40 156.75 L 79.46 156.83 L 79.55 156.91 L 79.64 156.98 L 79.75 157.06 L 79.87 157.13 L 79.98 157.21 L 80.10 157.28 L 80.22 157.36 L 80.32 157.43 L 80.42 157.51 L 80.51 157.59 L 80.57 157.66 L 80.62 157.74 L 80.65 157.81 L 80.66 157.89 L 80.65 157.96 L 80.62 158.04 L 80.57 158.12 L 80.51 158.19 L 80.42 158.27 L 80.32 158.34 L 80.22 158.42 L 80.10 158.49 L 79.98 158.57 L 79.87 158.64 L 79.75 158.72 L 79.64 158.80 L 79.55 158.87 L 79.46 158.95 L 79.40 159.02 L 79.35 159.10 L 79.32 159.17 L 79.30 159.25 L 79.32 159.33 L 79.35 159.40 L 79.40 159.48 L 79.46 159.55 L 79.55 159.63 L 79.64 159.70 L 79.75 159.78 L 79.87 159.85 L 79.98 159.93 L 80.10 160.01 L 80.22 160.08 L 80.32 160.16 L 80.42 160.23 L 80.51 160.31 L 80.57 160.38 L 80.62 160.46 L 80.65 160.53 L 80.66 160.61 A 2.38 2.38 0 0 1 75.90 160.61 L 75.90 160.61 L 75.92 160.53 L 75.95 160.46 L 76.00 160.38 L 76.06 160.31 L 76.15 160.23 L 76.24 160.16 L 76.35 160.08 L 76.47 160.01 L 76.58 159.93 L 76.70 159.85 L 76.82 159.78 L 76.92 159.70 L 77.02 159.63 L 77.11 159.55 L 77.17 159.48 L 77.22 159.40 L 77.25 159.33 L 77.26 159.25 L 77.25 159.17 L 77.22 159.10 L 77.17 159.02 L 77.11 158.95 L 77.02 158.87 L 76.92 158.80 L 76.82 158.72 L 76.70 158.64 L 76.58 158.57 L 76.47 158.49 L 76.35 158.42 L 76.24 158.34 L 76.15 158.27 L 76.06 158.19 L 76.00 158.12 L 75.95 158.04 L 75.92 157.96 L 75.90 157.89 L 75.92 157.81 L 75.95 157.74 L 76.00 157.66 L 76.06 157.59 L 76.15 157.51 L 76.24 157.43 L 76.35 157.36 L 76.47 157.28 L 76.58 157.21 L 76.70 157.13 L 76.82 157.06 L 76.92 156.98 L 77.02 156.91 L 77.11 156.83 L 77.17 156.75 L 77.22 156.68 L 77.25 156.60 L 77.26 156.53 L 77.25 156.45 L 77.22 156.38 L 77.17 156.30 L 77.11 156.23 L 77.02 156.15 L 76.92 156.07 L 76.82 156.00 L 76.70 155.92 L 76.58 155.85 L 76.47 155.77 L 76.35 155.70 L 76.24 155.62 L 76.15 155.54 L 76.06 155.47 L 76.00 155.39 L 75.95 155.32 L 75.92 155.24 L 75.90 155.17 A 2.38 2.38 0 0 1 80.66 155.17 Z" fill="#1f7a44" fill-rule="evenodd"/></g><g transform="rotate(-205.4 63.2 140.9)"><path d="M 70.24 137.93 L 70.21 138.01 L 70.12 138.10 L 69.97 138.18 L 69.77 138.26 L 69.52 138.34 L 69.24 138.42 L 68.92 138.51 L 68.59 138.59 L 68.24 138.67 L 67.89 138.75 L 67.56 138.83 L 67.24 138.92 L 66.95 139.00 L 66.71 139.08 L 66.51 139.16 L 66.36 139.25 L 66.27 139.33 L 66.24 139.41 L 66.27 139.49 L 66.36 139.57 L 66.51 139.66 L 66.71 139.74 L 66.95 139.82 L 67.24 139.90 L 67.56 139.98 L 67.89 140.07 L 68.24 140.15 L 68.59 140.23 L 68.92 140.31 L 69.24 140.40 L 69.52 140.48 L 69.77 140.56 L 69.97 140.64 L 70.12 140.72 L 70.21 140.81 L 70.24 140.89 L 70.21 140.97 L 70.12 141.05 L 69.97 141.14 L 69.77 141.22 L 69.52 141.30 L 69.24 141.38 L 68.92 141.46 L 68.59 141.55 L 68.24 141.63 L 67.89 141.71 L 67.56 141.79 L 67.24 141.87 L 66.95 141.96 L 66.71 142.04 L 66.51 142.12 L 66.36 142.20 L 66.27 142.29 L 66.24 142.37 L 66.27 142.45 L 66.36 142.53 L 66.51 142.61 L 66.71 142.70 L 66.95 142.78 L 67.24 142.86 L 67.56 142.94 L 67.89 143.02 L 68.24 143.11 L 68.59 143.19 L 68.92 143.27 L 69.24 143.35 L 69.52 143.44 L 69.77 143.52 L 69.97 143.60 L 70.12 143.68 L 70.21 143.76 L 70.24 143.85 A 7.00 7.00 0 0 1 56.24 143.85 L 56.24 143.85 L 56.27 143.76 L 56.36 143.68 L 56.51 143.60 L 56.71 143.52 L 56.95 143.44 L 57.24 143.35 L 57.56 143.27 L 57.89 143.19 L 58.24 143.11 L 58.59 143.02 L 58.92 142.94 L 59.24 142.86 L 59.52 142.78 L 59.77 142.70 L 59.97 142.61 L 60.12 142.53 L 60.21 142.45 L 60.24 142.37 L 60.21 142.29 L 60.12 142.20 L 59.97 142.12 L 59.77 142.04 L 59.52 141.96 L 59.24 141.87 L 58.92 141.79 L 58.59 141.71 L 58.24 141.63 L 57.89 141.55 L 57.56 141.46 L 57.24 141.38 L 56.95 141.30 L 56.71 141.22 L 56.51 141.14 L 56.36 141.05 L 56.27 140.97 L 56.24 140.89 L 56.27 140.81 L 56.36 140.72 L 56.51 140.64 L 56.71 140.56 L 56.95 140.48 L 57.24 140.40 L 57.56 140.31 L 57.89 140.23 L 58.24 140.15 L 58.59 140.07 L 58.92 139.98 L 59.24 139.90 L 59.52 139.82 L 59.77 139.74 L 59.97 139.66 L 60.12 139.57 L 60.21 139.49 L 60.24 139.41 L 60.21 139.33 L 60.12 139.25 L 59.97 139.16 L 59.77 139.08 L 59.52 139.00 L 59.24 138.92 L 58.92 138.83 L 58.59 138.75 L 58.24 138.67 L 57.89 138.59 L 57.56 138.51 L 57.24 138.42 L 56.95 138.34 L 56.71 138.26 L 56.51 138.18 L 56.36 138.10 L 56.27 138.01 L 56.24 137.93 A 7.00 7.00 0 0 1 70.24 137.93 Z M 65.62 138.11 L 65.61 138.19 L 65.58 138.26 L 65.53 138.34 L 65.46 138.42 L 65.38 138.49 L 65.28 138.57 L 65.17 138.65 L 65.06 138.73 L 64.94 138.80 L 64.82 138.88 L 64.71 138.96 L 64.60 139.03 L 64.50 139.11 L 64.42 139.19 L 64.35 139.27 L 64.30 139.34 L 64.27 139.42 L 64.26 139.50 L 64.27 139.58 L 64.30 139.65 L 64.35 139.73 L 64.42 139.81 L 64.50 139.88 L 64.60 139.96 L 64.71 140.04 L 64.82 140.12 L 64.94 140.19 L 65.06 140.27 L 65.17 140.35 L 65.28 140.43 L 65.38 140.50 L 65.46 140.58 L 65.53 140.66 L 65.58 140.73 L 65.61 140.81 L 65.62 140.89 L 65.61 140.97 L 65.58 141.04 L 65.53 141.12 L 65.46 141.20 L 65.38 141.27 L 65.28 141.35 L 65.17 141.43 L 65.06 141.51 L 64.94 141.58 L 64.82 141.66 L 64.71 141.74 L 64.60 141.82 L 64.50 141.89 L 64.42 141.97 L 64.35 142.05 L 64.30 142.12 L 64.27 142.20 L 64.26 142.28 L 64.27 142.36 L 64.30 142.43 L 64.35 142.51 L 64.42 142.59 L 64.50 142.66 L 64.60 142.74 L 64.71 142.82 L 64.82 142.90 L 64.94 142.97 L 65.06 143.05 L 65.17 143.13 L 65.28 143.21 L 65.38 143.28 L 65.46 143.36 L 65.53 143.44 L 65.58 143.51 L 65.61 143.59 L 65.62 143.67 A 2.38 2.38 0 0 1 60.86 143.67 L 60.86 143.67 L 60.87 143.59 L 60.90 143.51 L 60.95 143.44 L 61.02 143.36 L 61.10 143.28 L 61.20 143.21 L 61.31 143.13 L 61.42 143.05 L 61.54 142.97 L 61.66 142.90 L 61.77 142.82 L 61.88 142.74 L 61.98 142.66 L 62.06 142.59 L 62.13 142.51 L 62.18 142.43 L 62.21 142.36 L 62.22 142.28 L 62.21 142.20 L 62.18 142.12 L 62.13 142.05 L 62.06 141.97 L 61.98 141.89 L 61.88 141.82 L 61.77 141.74 L 61.66 141.66 L 61.54 141.58 L 61.42 141.51 L 61.31 141.43 L 61.20 141.35 L 61.10 141.27 L 61.02 141.20 L 60.95 141.12 L 60.90 141.04 L 60.87 140.97 L 60.86 140.89 L 60.87 140.81 L 60.90 140.73 L 60.95 140.66 L 61.02 140.58 L 61.10 140.50 L 61.20 140.43 L 61.31 140.35 L 61.42 140.27 L 61.54 140.19 L 61.66 140.12 L 61.77 140.04 L 61.88 139.96 L 61.98 139.88 L 62.06 139.81 L 62.13 139.73 L 62.18 139.65 L 62.21 139.58 L 62.22 139.50 L 62.21 139.42 L 62.18 139.34 L 62.13 139.27 L 62.06 139.19 L 61.98 139.11 L 61.88 139.03 L 61.77 138.96 L 61.66 138.88 L 61.54 138.80 L 61.42 138.73 L 61.31 138.65 L 61.20 138.57 L 61.10 138.49 L 61.02 138.42 L 60.95 138.34 L 60.90 138.26 L 60.87 138.19 L 60.86 138.11 A 2.38 2.38 0 0 1 65.62 138.11 Z" fill="#1f7a44" fill-rule="evenodd"/></g><g transform="rotate(-173.0 59.6 118.3)"><path d="M 66.61 115.23 L 66.58 115.32 L 66.49 115.40 L 66.34 115.49 L 66.14 115.57 L 65.89 115.66 L 65.61 115.74 L 65.29 115.83 L 64.95 115.91 L 64.61 116.00 L 64.26 116.08 L 63.92 116.17 L 63.61 116.25 L 63.32 116.34 L 63.07 116.42 L 62.87 116.51 L 62.73 116.59 L 62.64 116.68 L 62.61 116.76 L 62.64 116.85 L 62.73 116.93 L 62.87 117.02 L 63.07 117.10 L 63.32 117.19 L 63.61 117.27 L 63.92 117.36 L 64.26 117.44 L 64.61 117.53 L 64.95 117.61 L 65.29 117.70 L 65.61 117.78 L 65.89 117.87 L 66.14 117.95 L 66.34 118.04 L 66.49 118.12 L 66.58 118.21 L 66.61 118.29 L 66.58 118.38 L 66.49 118.46 L 66.34 118.55 L 66.14 118.63 L 65.89 118.72 L 65.61 118.80 L 65.29 118.89 L 64.95 118.97 L 64.61 119.06 L 64.26 119.14 L 63.92 119.23 L 63.61 119.31 L 63.32 119.40 L 63.07 119.48 L 62.87 119.57 L 62.73 119.65 L 62.64 119.74 L 62.61 119.82 L 62.64 119.91 L 62.73 119.99 L 62.87 120.08 L 63.07 120.16 L 63.32 120.25 L 63.61 120.33 L 63.92 120.42 L 64.26 120.50 L 64.61 120.59 L 64.95 120.67 L 65.29 120.76 L 65.61 120.84 L 65.89 120.93 L 66.14 121.01 L 66.34 121.10 L 66.49 121.18 L 66.58 121.27 L 66.61 121.35 A 7.00 7.00 0 0 1 52.61 121.35 L 52.61 121.35 L 52.64 121.27 L 52.73 121.18 L 52.87 121.10 L 53.07 121.01 L 53.32 120.93 L 53.61 120.84 L 53.92 120.76 L 54.26 120.67 L 54.61 120.59 L 54.95 120.50 L 55.29 120.42 L 55.61 120.33 L 55.89 120.25 L 56.14 120.16 L 56.34 120.08 L 56.49 119.99 L 56.58 119.91 L 56.61 119.82 L 56.58 119.74 L 56.49 119.65 L 56.34 119.57 L 56.14 119.48 L 55.89 119.40 L 55.61 119.31 L 55.29 119.23 L 54.95 119.14 L 54.61 119.06 L 54.26 118.97 L 53.92 118.89 L 53.61 118.80 L 53.32 118.72 L 53.07 118.63 L 52.87 118.55 L 52.73 118.46 L 52.64 118.38 L 52.61 118.29 L 52.64 118.21 L 52.73 118.12 L 52.87 118.04 L 53.07 117.95 L 53.32 117.87 L 53.61 117.78 L 53.92 117.70 L 54.26 117.61 L 54.61 117.53 L 54.95 117.44 L 55.29 117.36 L 55.61 117.27 L 55.89 117.19 L 56.14 117.10 L 56.34 117.02 L 56.49 116.93 L 56.58 116.85 L 56.61 116.76 L 56.58 116.68 L 56.49 116.59 L 56.34 116.51 L 56.14 116.42 L 55.89 116.34 L 55.61 116.25 L 55.29 116.17 L 54.95 116.08 L 54.61 116.00 L 54.26 115.91 L 53.92 115.83 L 53.61 115.74 L 53.32 115.66 L 53.07 115.57 L 52.87 115.49 L 52.73 115.40 L 52.64 115.32 L 52.61 115.23 A 7.00 7.00 0 0 1 66.61 115.23 Z M 61.99 115.41 L 61.98 115.49 L 61.95 115.57 L 61.90 115.65 L 61.83 115.73 L 61.74 115.81 L 61.65 115.89 L 61.54 115.97 L 61.42 116.05 L 61.31 116.13 L 61.19 116.21 L 61.07 116.29 L 60.97 116.37 L 60.87 116.45 L 60.79 116.53 L 60.72 116.61 L 60.67 116.69 L 60.64 116.77 L 60.63 116.85 L 60.64 116.93 L 60.67 117.01 L 60.72 117.09 L 60.79 117.17 L 60.87 117.25 L 60.97 117.33 L 61.07 117.41 L 61.19 117.49 L 61.31 117.57 L 61.42 117.65 L 61.54 117.73 L 61.65 117.81 L 61.74 117.89 L 61.83 117.97 L 61.90 118.05 L 61.95 118.13 L 61.98 118.21 L 61.99 118.29 L 61.98 118.37 L 61.95 118.45 L 61.90 118.53 L 61.83 118.61 L 61.74 118.69 L 61.65 118.77 L 61.54 118.85 L 61.42 118.93 L 61.31 119.01 L 61.19 119.09 L 61.07 119.17 L 60.97 119.25 L 60.87 119.33 L 60.79 119.41 L 60.72 119.49 L 60.67 119.57 L 60.64 119.65 L 60.63 119.73 L 60.64 119.81 L 60.67 119.89 L 60.72 119.97 L 60.79 120.05 L 60.87 120.13 L 60.97 120.21 L 61.07 120.29 L 61.19 120.37 L 61.31 120.45 L 61.42 120.53 L 61.54 120.61 L 61.65 120.69 L 61.74 120.77 L 61.83 120.85 L 61.90 120.93 L 61.95 121.01 L 61.98 121.09 L 61.99 121.17 A 2.38 2.38 0 0 1 57.23 121.17 L 57.23 121.17 L 57.24 121.09 L 57.27 121.01 L 57.32 120.93 L 57.39 120.85 L 57.47 120.77 L 57.57 120.69 L 57.67 120.61 L 57.79 120.53 L 57.91 120.45 L 58.02 120.37 L 58.14 120.29 L 58.25 120.21 L 58.34 120.13 L 58.43 120.05 L 58.50 119.97 L 58.55 119.89 L 58.58 119.81 L 58.59 119.73 L 58.58 119.65 L 58.55 119.57 L 58.50 119.49 L 58.43 119.41 L 58.34 119.33 L 58.25 119.25 L 58.14 119.17 L 58.02 119.09 L 57.91 119.01 L 57.79 118.93 L 57.67 118.85 L 57.57 118.77 L 57.47 118.69 L 57.39 118.61 L 57.32 118.53 L 57.27 118.45 L 57.24 118.37 L 57.23 118.29 L 57.24 118.21 L 57.27 118.13 L 57.32 118.05 L 57.39 117.97 L 57.47 117.89 L 57.57 117.81 L 57.67 117.73 L 57.79 117.65 L 57.91 117.57 L 58.02 117.49 L 58.14 117.41 L 58.25 117.33 L 58.34 117.25 L 58.43 117.17 L 58.50 117.09 L 58.55 117.01 L 58.58 116.93 L 58.59 116.85 L 58.58 116.77 L 58.55 116.69 L 58.50 116.61 L 58.43 116.53 L 58.34 116.45 L 58.25 116.37 L 58.14 116.29 L 58.02 116.21 L 57.91 116.13 L 57.79 116.05 L 57.67 115.97 L 57.57 115.89 L 57.47 115.81 L 57.39 115.73 L 57.32 115.65 L 57.27 115.57 L 57.24 115.49 L 57.23 115.41 A 2.38 2.38 0 0 1 61.99 115.41 Z" fill="#1f7a44" fill-rule="evenodd"/></g><g transform="rotate(-140.6 68.8 97.0)"><path d="M 75.77 93.82 L 75.74 93.91 L 75.65 94.00 L 75.51 94.09 L 75.31 94.17 L 75.06 94.26 L 74.77 94.35 L 74.46 94.44 L 74.12 94.53 L 73.77 94.62 L 73.43 94.71 L 73.09 94.80 L 72.77 94.89 L 72.49 94.97 L 72.24 95.06 L 72.04 95.15 L 71.89 95.24 L 71.80 95.33 L 71.77 95.42 L 71.80 95.51 L 71.89 95.60 L 72.04 95.69 L 72.24 95.78 L 72.49 95.86 L 72.77 95.95 L 73.09 96.04 L 73.43 96.13 L 73.77 96.22 L 74.12 96.31 L 74.46 96.40 L 74.77 96.49 L 75.06 96.58 L 75.31 96.67 L 75.51 96.75 L 75.65 96.84 L 75.74 96.93 L 75.77 97.02 L 75.74 97.11 L 75.65 97.20 L 75.51 97.29 L 75.31 97.38 L 75.06 97.47 L 74.77 97.56 L 74.46 97.64 L 74.12 97.73 L 73.77 97.82 L 73.43 97.91 L 73.09 98.00 L 72.77 98.09 L 72.49 98.18 L 72.24 98.27 L 72.04 98.36 L 71.89 98.44 L 71.80 98.53 L 71.77 98.62 L 71.80 98.71 L 71.89 98.80 L 72.04 98.89 L 72.24 98.98 L 72.49 99.07 L 72.77 99.16 L 73.09 99.25 L 73.43 99.33 L 73.77 99.42 L 74.12 99.51 L 74.46 99.60 L 74.77 99.69 L 75.06 99.78 L 75.31 99.87 L 75.51 99.96 L 75.65 100.05 L 75.74 100.14 L 75.77 100.22 A 7.00 7.00 0 0 1 61.77 100.22 L 61.77 100.22 L 61.80 100.14 L 61.89 100.05 L 62.04 99.96 L 62.24 99.87 L 62.49 99.78 L 62.77 99.69 L 63.09 99.60 L 63.43 99.51 L 63.77 99.42 L 64.12 99.33 L 64.46 99.25 L 64.77 99.16 L 65.06 99.07 L 65.31 98.98 L 65.51 98.89 L 65.65 98.80 L 65.74 98.71 L 65.77 98.62 L 65.74 98.53 L 65.65 98.44 L 65.51 98.36 L 65.31 98.27 L 65.06 98.18 L 64.77 98.09 L 64.46 98.00 L 64.12 97.91 L 63.77 97.82 L 63.43 97.73 L 63.09 97.64 L 62.77 97.56 L 62.49 97.47 L 62.24 97.38 L 62.04 97.29 L 61.89 97.20 L 61.80 97.11 L 61.77 97.02 L 61.80 96.93 L 61.89 96.84 L 62.04 96.75 L 62.24 96.67 L 62.49 96.58 L 62.77 96.49 L 63.09 96.40 L 63.43 96.31 L 63.77 96.22 L 64.12 96.13 L 64.46 96.04 L 64.77 95.95 L 65.06 95.86 L 65.31 95.78 L 65.51 95.69 L 65.65 95.60 L 65.74 95.51 L 65.77 95.42 L 65.74 95.33 L 65.65 95.24 L 65.51 95.15 L 65.31 95.06 L 65.06 94.97 L 64.77 94.89 L 64.46 94.80 L 64.12 94.71 L 63.77 94.62 L 63.43 94.53 L 63.09 94.44 L 62.77 94.35 L 62.49 94.26 L 62.24 94.17 L 62.04 94.09 L 61.89 94.00 L 61.80 93.91 L 61.77 93.82 A 7.00 7.00 0 0 1 75.77 93.82 Z M 71.15 94.01 L 71.14 94.09 L 71.11 94.18 L 71.06 94.26 L 71.00 94.35 L 70.91 94.43 L 70.81 94.51 L 70.71 94.60 L 70.59 94.68 L 70.47 94.76 L 70.36 94.85 L 70.24 94.93 L 70.13 95.01 L 70.04 95.10 L 69.95 95.18 L 69.89 95.27 L 69.84 95.35 L 69.80 95.43 L 69.79 95.52 L 69.80 95.60 L 69.84 95.68 L 69.89 95.77 L 69.95 95.85 L 70.04 95.93 L 70.13 96.02 L 70.24 96.10 L 70.36 96.18 L 70.47 96.27 L 70.59 96.35 L 70.71 96.44 L 70.81 96.52 L 70.91 96.60 L 71.00 96.69 L 71.06 96.77 L 71.11 96.85 L 71.14 96.94 L 71.15 97.02 L 71.14 97.10 L 71.11 97.19 L 71.06 97.27 L 71.00 97.36 L 70.91 97.44 L 70.81 97.52 L 70.71 97.61 L 70.59 97.69 L 70.47 97.77 L 70.36 97.86 L 70.24 97.94 L 70.13 98.02 L 70.04 98.11 L 69.95 98.19 L 69.89 98.28 L 69.84 98.36 L 69.80 98.44 L 69.79 98.53 L 69.80 98.61 L 69.84 98.69 L 69.89 98.78 L 69.95 98.86 L 70.04 98.94 L 70.13 99.03 L 70.24 99.11 L 70.36 99.20 L 70.47 99.28 L 70.59 99.36 L 70.71 99.45 L 70.81 99.53 L 70.91 99.61 L 71.00 99.70 L 71.06 99.78 L 71.11 99.86 L 71.14 99.95 L 71.15 100.03 A 2.38 2.38 0 0 1 66.39 100.03 L 66.39 100.03 L 66.40 99.95 L 66.44 99.86 L 66.49 99.78 L 66.55 99.70 L 66.64 99.61 L 66.73 99.53 L 66.84 99.45 L 66.96 99.36 L 67.07 99.28 L 67.19 99.20 L 67.31 99.11 L 67.41 99.03 L 67.51 98.94 L 67.60 98.86 L 67.66 98.78 L 67.71 98.69 L 67.74 98.61 L 67.75 98.53 L 67.74 98.44 L 67.71 98.36 L 67.66 98.28 L 67.60 98.19 L 67.51 98.11 L 67.41 98.02 L 67.31 97.94 L 67.19 97.86 L 67.07 97.77 L 66.96 97.69 L 66.84 97.61 L 66.73 97.52 L 66.64 97.44 L 66.55 97.36 L 66.49 97.27 L 66.44 97.19 L 66.40 97.10 L 66.39 97.02 L 66.40 96.94 L 66.44 96.85 L 66.49 96.77 L 66.55 96.69 L 66.64 96.60 L 66.73 96.52 L 66.84 96.44 L 66.96 96.35 L 67.07 96.27 L 67.19 96.18 L 67.31 96.10 L 67.41 96.02 L 67.51 95.93 L 67.60 95.85 L 67.66 95.77 L 67.71 95.68 L 67.74 95.60 L 67.75 95.52 L 67.74 95.43 L 67.71 95.35 L 67.66 95.27 L 67.60 95.18 L 67.51 95.10 L 67.41 95.01 L 67.31 94.93 L 67.19 94.85 L 67.07 94.76 L 66.96 94.68 L 66.84 94.60 L 66.73 94.51 L 66.64 94.43 L 66.55 94.35 L 66.49 94.26 L 66.44 94.18 L 66.40 94.09 L 66.39 94.01 A 2.38 2.38 0 0 1 71.15 94.01 Z" fill="#1f7a44" fill-rule="evenodd"/></g><g transform="rotate(-108.0 88.2 83.8)"><path d="M 95.24 80.44 L 95.21 80.53 L 95.12 80.62 L 94.98 80.72 L 94.78 80.81 L 94.53 80.91 L 94.24 81.00 L 93.93 81.09 L 93.59 81.19 L 93.24 81.28 L 92.90 81.38 L 92.56 81.47 L 92.24 81.56 L 91.96 81.66 L 91.71 81.75 L 91.51 81.85 L 91.36 81.94 L 91.27 82.03 L 91.24 82.13 L 91.27 82.22 L 91.36 82.32 L 91.51 82.41 L 91.71 82.50 L 91.96 82.60 L 92.24 82.69 L 92.56 82.79 L 92.90 82.88 L 93.24 82.97 L 93.59 83.07 L 93.93 83.16 L 94.24 83.26 L 94.53 83.35 L 94.78 83.44 L 94.98 83.54 L 95.12 83.63 L 95.21 83.73 L 95.24 83.82 L 95.21 83.91 L 95.12 84.01 L 94.98 84.10 L 94.78 84.20 L 94.53 84.29 L 94.24 84.38 L 93.93 84.48 L 93.59 84.57 L 93.24 84.67 L 92.90 84.76 L 92.56 84.85 L 92.24 84.95 L 91.96 85.04 L 91.71 85.14 L 91.51 85.23 L 91.36 85.32 L 91.27 85.42 L 91.24 85.51 L 91.27 85.61 L 91.36 85.70 L 91.51 85.79 L 91.71 85.89 L 91.96 85.98 L 92.24 86.07 L 92.56 86.17 L 92.90 86.26 L 93.24 86.36 L 93.59 86.45 L 93.93 86.54 L 94.24 86.64 L 94.53 86.73 L 94.78 86.83 L 94.98 86.92 L 95.12 87.01 L 95.21 87.11 L 95.24 87.20 A 7.00 7.00 0 0 1 81.24 87.20 L 81.24 87.20 L 81.27 87.11 L 81.36 87.01 L 81.51 86.92 L 81.71 86.83 L 81.96 86.73 L 82.24 86.64 L 82.56 86.54 L 82.90 86.45 L 83.24 86.36 L 83.59 86.26 L 83.93 86.17 L 84.24 86.07 L 84.53 85.98 L 84.78 85.89 L 84.98 85.79 L 85.12 85.70 L 85.21 85.61 L 85.24 85.51 L 85.21 85.42 L 85.12 85.32 L 84.98 85.23 L 84.78 85.14 L 84.53 85.04 L 84.24 84.95 L 83.93 84.85 L 83.59 84.76 L 83.24 84.67 L 82.90 84.57 L 82.56 84.48 L 82.24 84.38 L 81.96 84.29 L 81.71 84.20 L 81.51 84.10 L 81.36 84.01 L 81.27 83.91 L 81.24 83.82 L 81.27 83.73 L 81.36 83.63 L 81.51 83.54 L 81.71 83.44 L 81.96 83.35 L 82.24 83.26 L 82.56 83.16 L 82.90 83.07 L 83.24 82.97 L 83.59 82.88 L 83.93 82.79 L 84.24 82.69 L 84.53 82.60 L 84.78 82.50 L 84.98 82.41 L 85.12 82.32 L 85.21 82.22 L 85.24 82.13 L 85.21 82.03 L 85.12 81.94 L 84.98 81.85 L 84.78 81.75 L 84.53 81.66 L 84.24 81.56 L 83.93 81.47 L 83.59 81.38 L 83.24 81.28 L 82.90 81.19 L 82.56 81.09 L 82.24 81.00 L 81.96 80.91 L 81.71 80.81 L 81.51 80.72 L 81.36 80.62 L 81.27 80.53 L 81.24 80.44 A 7.00 7.00 0 0 1 95.24 80.44 Z M 90.62 80.64 L 90.61 80.73 L 90.58 80.82 L 90.53 80.90 L 90.47 80.99 L 90.38 81.08 L 90.28 81.17 L 90.18 81.26 L 90.06 81.35 L 89.94 81.43 L 89.83 81.52 L 89.71 81.61 L 89.60 81.70 L 89.51 81.79 L 89.42 81.88 L 89.36 81.96 L 89.31 82.05 L 89.27 82.14 L 89.26 82.23 L 89.27 82.32 L 89.31 82.41 L 89.36 82.49 L 89.42 82.58 L 89.51 82.67 L 89.60 82.76 L 89.71 82.85 L 89.83 82.94 L 89.94 83.02 L 90.06 83.11 L 90.18 83.20 L 90.28 83.29 L 90.38 83.38 L 90.47 83.47 L 90.53 83.55 L 90.58 83.64 L 90.61 83.73 L 90.62 83.82 L 90.61 83.91 L 90.58 84.00 L 90.53 84.08 L 90.47 84.17 L 90.38 84.26 L 90.28 84.35 L 90.18 84.44 L 90.06 84.53 L 89.94 84.61 L 89.83 84.70 L 89.71 84.79 L 89.60 84.88 L 89.51 84.97 L 89.42 85.06 L 89.36 85.14 L 89.31 85.23 L 89.27 85.32 L 89.26 85.41 L 89.27 85.50 L 89.31 85.59 L 89.36 85.67 L 89.42 85.76 L 89.51 85.85 L 89.60 85.94 L 89.71 86.03 L 89.83 86.12 L 89.94 86.20 L 90.06 86.29 L 90.18 86.38 L 90.28 86.47 L 90.38 86.56 L 90.47 86.65 L 90.53 86.73 L 90.58 86.82 L 90.61 86.91 L 90.62 87.00 A 2.38 2.38 0 0 1 85.86 87.00 L 85.86 87.00 L 85.87 86.91 L 85.91 86.82 L 85.96 86.73 L 86.02 86.65 L 86.11 86.56 L 86.20 86.47 L 86.31 86.38 L 86.43 86.29 L 86.54 86.20 L 86.66 86.12 L 86.78 86.03 L 86.88 85.94 L 86.98 85.85 L 87.07 85.76 L 87.13 85.67 L 87.18 85.59 L 87.21 85.50 L 87.22 85.41 L 87.21 85.32 L 87.18 85.23 L 87.13 85.14 L 87.07 85.06 L 86.98 84.97 L 86.88 84.88 L 86.78 84.79 L 86.66 84.70 L 86.54 84.61 L 86.43 84.53 L 86.31 84.44 L 86.20 84.35 L 86.11 84.26 L 86.02 84.17 L 85.96 84.08 L 85.91 84.00 L 85.87 83.91 L 85.86 83.82 L 85.87 83.73 L 85.91 83.64 L 85.96 83.55 L 86.02 83.47 L 86.11 83.38 L 86.20 83.29 L 86.31 83.20 L 86.43 83.11 L 86.54 83.02 L 86.66 82.94 L 86.78 82.85 L 86.88 82.76 L 86.98 82.67 L 87.07 82.58 L 87.13 82.49 L 87.18 82.41 L 87.21 82.32 L 87.22 82.23 L 87.21 82.14 L 87.18 82.05 L 87.13 81.96 L 87.07 81.88 L 86.98 81.79 L 86.88 81.70 L 86.78 81.61 L 86.66 81.52 L 86.54 81.43 L 86.43 81.35 L 86.31 81.26 L 86.20 81.17 L 86.11 81.08 L 86.02 80.99 L 85.96 80.90 L 85.91 80.82 L 85.87 80.73 L 85.86 80.64 A 2.38 2.38 0 0 1 90.62 80.64 Z" fill="#1f7a44" fill-rule="evenodd"/></g><circle cx="84" cy="112" r="5" fill="#1d9e75"/><circle cx="116" cy="112" r="5" fill="#1d9e75"/><path d="M90 140 a10 10 0 0 1 20 0 v6" fill="none" stroke="#1f6b46" stroke-width="5"/><rect x="84" y="142" width="32" height="26" rx="5" fill="#1f6b46"/><circle cx="100" cy="153" r="3.4" fill="#f5e9c8"/><rect x="98.5" y="153" width="3" height="9" fill="#f5e9c8"/></svg>