<?xml version="1.0" encoding="UTF-8"?>
<svg xmlns="http://www.w3.org/2000/svg" viewBox="0 0 200 270" width="200" height="270"><g transform="rotate(48.6 120.1 155.5)"><path d="M 127.12 152.97 L 127.09 153.04 L 127.00 153.11 L 126.85 153.18 L 126.65 153.25 L 126.41 153.33 L 126.12 153.40 L 125.81 153.47 L 125.47 153.54 L 125.12 153.61 L 124.78 153.68 L 124.44 153.75 L 124.12 153.82 L 123.84 153.89 L 123.59 153.96 L 123.39 154.03 L 123.24 154.10 L 123.15 154.17 L 123.12 154.24 L 123.15 154.31 L 123.24 154.38 L 123.39 154.45 L 123.59 154.53 L 123.84 154.60 L 124.12 154.67 L 124.44 154.74 L 124.78 154.81 L 125.12 154.88 L 125.47 154.95 L 125.81 155.02 L 126.12 155.09 L 126.41 155.16 L 126.65 155.23 L 126.85 155.30 L 127.00 155.37 L 127.09 155.44 L 127.12 155.51 L 127.09 155.58 L 127.00 155.65 L 126.85 155.73 L 126.65 155.80 L 126.41 155.87 L 126.12 155.94 L 125.81 156.01 L 125.47 156.08 L 125.12 156.15 L 124.78 156.22 L 124.44 156.29 L 124.12 156.36 L 123.84 156.43 L 123.59 156.50 L 123.39 156.57 L 123.24 156.64 L 123.15 156.71 L 123.12 156.78 L 123.15 156.85 L 123.24 156.92 L 123.39 157.00 L 123.59 157.07 L 123.84 157.14 L 124.12 157.21 L 124.44 157.28 L 124.78 157.35 L 125.12 157.42 L 125.47 157.49 L 125.81 157.56 L 126.12 157.63 L 126.41 157.70 L 126.65 157.77 L 126.85 157.84 L 127.00 157.91 L 127.09 157.98 L 127.12 158.05 A 7.00 7.00 0 0 1 113.12 158.05 L 113.12 158.05 L 113.15 157.98 L 113.24 157.91 L 113.39 157.84 L 113.59 157.77 L 113.84 157.70 L 114.12 157.63 L 114.44 157.56 L 114.78 157.49 L 115.12 157.42 L 115.47 157.35 L 115.81 157.28 L 116.12 157.21 L 116.41 157.14 L 116.65 157.07 L 116.85 157.00 L 117.00 156.92 L 117.09 156.85 L 117.12 156.78 L 117.09 156.71 L 117.00 156.64 L 116.85 156.57 L 116.65 156.50 L 116.41 156.43 L 116.12 156.36 L 115.81 156.29 L 115.47 156.22 L 115.12 156.15 L 114.78 156.08 L 114.44 156.01 L 114.12 155.94 L 113.84 155.87 L 113.59 155.80 L 113.39 155.73 L 113.24 155.65 L 113.15 155.58 L 113.12 155.51 L 113.15 155.44 L 113.24 155.37 L 113.39 155.30 L 113.59 155.23 L 113.84 155.16 L 114.12 155.09 L 114.44 155.02 L 114.78 154.95 L 115.12 154.88 L 115.47 154.81 L 115.81 154.74 L 116.12 154.67 L 116.41 154.60 L 116.65 154.53 L 116.85 154.45 L 117.00 154.38 L 117.09 154.31 L 117.12 154.24 L 117.09 154.17 L 117.00 154.10 L 116.85 154.03 L 116.65 153.96 L 116.41 153.89 L 116.12 153.82 L 115.81 153.75 L 115.47 153.68 L 115.12 153.61 L 114.78 153.54 L 114.44 153.47 L 114.12 153.40 L 113.84 153.33 L 113.59 153.25 L 113.39 153.18 L 113.24 153.11 L 113.15 153.04 L 113.12 152.97 A 7.00 7.00 0 0 1 127.12 152.97 Z M 122.50 153.12 L 122.49 153.19 L 122.46 153.26 L 122.41 153.32 L 122.34 153.39 L 122.26 153.46 L 122.16 153.52 L 122.06 153.59 L 121.94 153.66 L 121.82 153.72 L 121.70 153.79 L 121.59 153.85 L 121.48 153.92 L 121.39 153.99 L 121.30 154.05 L 121.23 154.12 L 121.18 154.19 L 121.15 154.25 L 121.14 154.32 L 121.15 154.39 L 121.18 154.45 L 121.23 154.52 L 121.30 154.58 L 121.39 154.65 L 121.48 154.72 L 121.59 154.78 L 121.70 154.85 L 121.82 154.92 L 121.94 154.98 L 122.06 155.05 L 122.16 155.12 L 122.26 155.18 L 122.34 155.25 L 122.41 155.31 L 122.46 155.38 L 122.49 155.45 L 122.50 155.51 L 122.49 155.58 L 122.46 155.65 L 122.41 155.71 L 122.34 155.78 L 122.26 155.85 L 122.16 155.91 L 122.06 155.98 L 121.94 156.04 L 121.82 156.11 L 121.70 156.18 L 121.59 156.24 L 121.48 156.31 L 121.39 156.38 L 121.30 156.44 L 121.23 156.51 L 121.18 156.57 L 121.15 156.64 L 121.14 156.71 L 121.15 156.77 L 121.18 156.84 L 121.23 156.91 L 121.30 156.97 L 121.39 157.04 L 121.48 157.11 L 121.59 157.17 L 121.70 157.24 L 121.82 157.30 L 121.94 157.37 L 122.06 157.44 L 122.16 157.50 L 122.26 157.57 L 122.34 157.64 L 122.41 157.70 L 122.46 157.77 L 122.49 157.84 L 122.50 157.90 A 2.38 2.38 0 0 1 117.74 157.90 L 117.74 157.90 L 117.75 157.84 L 117.78 157.77 L 117.83 157.70 L 117.90 157.64 L 117.99 157.57 L 118.08 157.50 L 118.19 157.44 L 118.30 157.37 L 118.42 157.30 L 118.54 157.24 L 118.66 157.17 L 118.76 157.11 L 118.86 157.04 L 118.94 156.97 L 119.01 156.91 L 119.06 156.84 L 119.09 156.77 L 119.10 156.71 L 119.09 156.64 L 119.06 156.57 L 119.01 156.51 L 118.94 156.44 L 118.86 156.38 L 118.76 156.31 L 118.66 156.24 L 118.54 156.18 L 118.42 156.11 L 118.30 156.04 L 118.19 155.98 L 118.08 155.91 L 117.99 155.85 L 117.90 155.78 L 117.83 155.71 L 117.78 155.65 L 117.75 155.58 L 117.74 155.51 L 117.75 155.45 L 117.78 155.38 L 117.83 155.31 L 117.90 155.25 L 117.99 155.18 L 118.08 155.12 L 118.19 155.05 L 118.30 154.98 L 118.42 154.92 L 118.54 154.85 L 118.66 154.78 L 118.76 154.72 L 118.86 154.65 L 118.94 154.58 L 119.01 154.52 L 119.06 154.45 L 119.09 154.39 L 119.10 154.32 L 119.09 154.25 L 119.06 154.19 L 119.01 154.12 L 118.94 154.05 L 118.86 153.99 L 118.76 153.92 L 118.66 153.85 L 118.54 153.79 L 118.42 153.72 L 118.30 153.66 L 118.19 153.59 L 118.08 153.52 L 117.99 153.46 L 117.90 153.39 L 117.83 153.32 L 117.78 153.26 L 117.75 153.19 L 117.74 153.12 A 2.38 2.38 0 0 1 122.50 153.12 Z" fill="#1f7a44" fill-rule="evenodd"/></g><g transform="rotate(78.9 100.5 165.2)"><path d="M 107.48 162.70 L 107.45 162.77 L 107.36 162.84 L 107.21 162.91 L 107.01 162.98 L 106.77 163.05 L 106.48 163.12 L 106.17 163.19 L 105.83 163.26 L 105.48 163.33 L 105.13 163.40 L 104.80 163.47 L 104.48 163.54 L 104.20 163.61 L 103.95 163.68 L 103.75 163.75 L 103.60 163.82 L 103.51 163.89 L 103.48 163.96 L 103.51 164.03 L 103.60 164.10 L 103.75 164.17 L 103.95 164.24 L 104.20 164.31 L 104.48 164.38 L 104.80 164.45 L 105.13 164.52 L 105.48 164.59 L 105.83 164.66 L 106.17 164.73 L 106.48 164.80 L 106.77 164.87 L 107.01 164.94 L 107.21 165.01 L 107.36 165.08 L 107.45 165.15 L 107.48 165.22 L 107.45 165.29 L 107.36 165.36 L 107.21 165.43 L 107.01 165.50 L 106.77 165.57 L 106.48 165.64 L 106.17 165.71 L 105.83 165.78 L 105.48 165.85 L 105.13 165.92 L 104.80 165.99 L 104.48 166.06 L 104.20 166.13 L 103.95 166.20 L 103.75 166.27 L 103.60 166.34 L 103.51 166.41 L 103.48 166.48 L 103.51 166.55 L 103.60 166.62 L 103.75 166.69 L 103.95 166.76 L 104.20 166.83 L 104.48 166.90 L 104.80 166.97 L 105.13 167.04 L 105.48 167.11 L 105.83 167.18 L 106.17 167.25 L 106.48 167.32 L 106.77 167.39 L 107.01 167.46 L 107.21 167.53 L 107.36 167.60 L 107.45 167.67 L 107.48 167.74 A 7.00 7.00 0 0 1 93.48 167.74 L 93.48 167.74 L 93.51 167.67 L 93.60 167.60 L 93.75 167.53 L 93.95 167.46 L 94.20 167.39 L 94.48 167.32 L 94.80 167.25 L 95.13 167.18 L 95.48 167.11 L 95.83 167.04 L 96.17 166.97 L 96.48 166.90 L 96.77 166.83 L 97.01 166.76 L 97.21 166.69 L 97.36 166.62 L 97.45 166.55 L 97.48 166.48 L 97.45 166.41 L 97.36 166.34 L 97.21 166.27 L 97.01 166.20 L 96.77 166.13 L 96.48 166.06 L 96.17 165.99 L 95.83 165.92 L 95.48 165.85 L 95.13 165.78 L 94.80 165.71 L 94.48 165.64 L 94.20 165.57 L 93.95 165.50 L 93.75 165.43 L 93.60 165.36 L 93.51 165.29 L 93.48 165.22 L 93.51 165.15 L 93.60 165.08 L 93.75 165.01 L 93.95 164.94 L 94.20 164.87 L 94.48 164.80 L 94.80 164.73 L 95.13 164.66 L 95.48 164.59 L 95.83 164.52 L 96.17 164.45 L 96.48 164.38 L 96.77 164.31 L 97.01 164.24 L 97.21 164.17 L 97.36 164.10 L 97.45 164.03 L 97.48 163.96 L 97.45 163.89 L 97.36 163.82 L 97.21 163.75 L 97.01 163.68 L 96.77 163.61 L 96.48 163.54 L 96.17 163.47 L 95.83 163.40 L 95.48 163.33 L 95.13 163.26 L 94.80 163.19 L 94.48 163.12 L 94.20 163.05 L 93.95 162.98 L 93.75 162.91 L 93.60 162.84 L 93.51 162.77 L 93.48 162.70 A 7.00 7.00 0 0 1 107.48 162.70 Z M 102.86 162.85 L 102.85 162.91 L 102.82 162.98 L 102.77 163.05 L 102.70 163.11 L 102.62 163.18 L 102.52 163.24 L 102.41 163.31 L 102.30 163.37 L 102.18 163.44 L 102.06 163.51 L 101.95 163.57 L 101.84 163.64 L 101.75 163.70 L 101.66 163.77 L 101.59 163.84 L 101.54 163.90 L 101.51 163.97 L 101.50 164.03 L 101.51 164.10 L 101.54 164.16 L 101.59 164.23 L 101.66 164.30 L 101.75 164.36 L 101.84 164.43 L 101.95 164.49 L 102.06 164.56 L 102.18 164.63 L 102.30 164.69 L 102.41 164.76 L 102.52 164.82 L 102.62 164.89 L 102.70 164.96 L 102.77 165.02 L 102.82 165.09 L 102.85 165.15 L 102.86 165.22 L 102.85 165.28 L 102.82 165.35 L 102.77 165.42 L 102.70 165.48 L 102.62 165.55 L 102.52 165.61 L 102.41 165.68 L 102.30 165.75 L 102.18 165.81 L 102.06 165.88 L 101.95 165.94 L 101.84 166.01 L 101.75 166.07 L 101.66 166.14 L 101.59 166.21 L 101.54 166.27 L 101.51 166.34 L 101.50 166.40 L 101.51 166.47 L 101.54 166.54 L 101.59 166.60 L 101.66 166.67 L 101.75 166.73 L 101.84 166.80 L 101.95 166.86 L 102.06 166.93 L 102.18 167.00 L 102.30 167.06 L 102.41 167.13 L 102.52 167.19 L 102.62 167.26 L 102.70 167.33 L 102.77 167.39 L 102.82 167.46 L 102.85 167.52 L 102.86 167.59 A 2.38 2.38 0 0 1 98.10 167.59 L 98.10 167.59 L 98.11 167.52 L 98.14 167.46 L 98.19 167.39 L 98.26 167.33 L 98.35 167.26 L 98.44 167.19 L 98.55 167.13 L 98.66 167.06 L 98.78 167.00 L 98.90 166.93 L 99.01 166.86 L 99.12 166.80 L 99.22 166.73 L 99.30 166.67 L 99.37 166.60 L 99.42 166.54 L 99.45 166.47 L 99.46 166.40 L 99.45 166.34 L 99.42 166.27 L 99.37 166.21 L 99.30 166.14 L 99.22 166.07 L 99.12 166.01 L 99.01 165.94 L 98.90 165.88 L 98.78 165.81 L 98.66 165.75 L 98.55 165.68 L 98.44 165.61 L 98.35 165.55 L 98.26 165.48 L 98.19 165.42 L 98.14 165.35 L 98.11 165.28 L 98.10 165.22 L 98.11 165.15 L 98.14 165.09 L 98.19 165.02 L 98.26 164.96 L 98.35 164.89 L 98.44 164.82 L 98.55 164.76 L 98.66 164.69 L 98.78 164.63 L 98.90 164.56 L 99.01 164.49 L 99.12 164.43 L 99.22 164.36 L 99.30 164.30 L 99.37 164.23 L 99.42 164.16 L 99.45 164.10 L 99.46 164.03 L 99.45 163.97 L 99.42 163.90 L 99.37 163.84 L 99.30 163.77 L 99.22 163.70 L 99.12 163.64 L 99.01 163.57 L 98.90 163.51 L 98.78 163.44 L 98.66 163.37 L 98.55 163.31 L 98.44 163.24 L 98.35 163.18 L 98.26 163.11 L 98.19 163.05 L 98.14 162.98 L 98.11 162.91 L 98.10 162.85 A 2.38 2.38 0 0 1 102.86 162.85 Z" fill="#1f7a44" fill-rule="evenodd"/></g><g transform="rotate(-245.7 79.1 162.8)"><path d="M 86.07 160.27 L 86.04 160.34 L 85.95 160.41 L 85.80 160.48 L 85.60 160.55 L 85.35 160.62 L 85.07 160.69 L 84.75 160.76 L 84.41 160.83 L 84.07 160.90 L 83.72 160.97 L 83.38 161.03 L 83.07 161.10 L 82.78 161.17 L 82.54 161.24 L 82.34 161.31 L 82.19 161.38 L 82.10 161.45 L 82.07 161.52 L 82.10 161.59 L 82.19 161.66 L 82.34 161.73 L 82.54 161.79 L 82.78 161.86 L 83.07 161.93 L 83.38 162.00 L 83.72 162.07 L 84.07 162.14 L 84.41 162.21 L 84.75 162.28 L 85.07 162.35 L 85.35 162.42 L 85.60 162.49 L 85.80 162.55 L 85.95 162.62 L 86.04 162.69 L 86.07 162.76 L 86.04 162.83 L 85.95 162.90 L 85.80 162.97 L 85.60 163.04 L 85.35 163.11 L 85.07 163.18 L 84.75 163.25 L 84.41 163.31 L 84.07 163.38 L 83.72 163.45 L 83.38 163.52 L 83.07 163.59 L 82.78 163.66 L 82.54 163.73 L 82.34 163.80 L 82.19 163.87 L 82.10 163.94 L 82.07 164.00 L 82.10 164.07 L 82.19 164.14 L 82.34 164.21 L 82.54 164.28 L 82.78 164.35 L 83.07 164.42 L 83.38 164.49 L 83.72 164.56 L 84.07 164.63 L 84.41 164.70 L 84.75 164.76 L 85.07 164.83 L 85.35 164.90 L 85.60 164.97 L 85.80 165.04 L 85.95 165.11 L 86.04 165.18 L 86.07 165.25 A 7.00 7.00 0 0 1 72.07 165.25 L 72.07 165.25 L 72.10 165.18 L 72.19 165.11 L 72.34 165.04 L 72.54 164.97 L 72.78 164.90 L 73.07 164.83 L 73.38 164.76 L 73.72 164.70 L 74.07 164.63 L 74.41 164.56 L 74.75 164.49 L 75.07 164.42 L 75.35 164.35 L 75.60 164.28 L 75.80 164.21 L 75.95 164.14 L 76.04 164.07 L 76.07 164.00 L 76.04 163.94 L 75.95 163.87 L 75.80 163.80 L 75.60 163.73 L 75.35 163.66 L 75.07 163.59 L 74.75 163.52 L 74.41 163.45 L 74.07 163.38 L 73.72 163.31 L 73.38 163.25 L 73.07 163.18 L 72.78 163.11 L 72.54 163.04 L 72.34 162.97 L 72.19 162.90 L 72.10 162.83 L 72.07 162.76 L 72.10 162.69 L 72.19 162.62 L 72.34 162.55 L 72.54 162.49 L 72.78 162.42 L 73.07 162.35 L 73.38 162.28 L 73.72 162.21 L 74.07 162.14 L 74.41 162.07 L 74.75 162.00 L 75.07 161.93 L 75.35 161.86 L 75.60 161.79 L 75.80 161.73 L 75.95 161.66 L 76.04 161.59 L 76.07 161.52 L 76.04 161.45 L 75.95 161.38 L 75.80 161.31 L 75.60 161.24 L 75.35 161.17 L 75.07 161.10 L 74.75 161.03 L 74.41 160.97 L 74.07 160.90 L 73.72 160.83 L 73.38 160.76 L 73.07 160.69 L 72.78 160.62 L 72.54 160.55 L 72.34 160.48 L 72.19 160.41 L 72.10 160.34 L 72.07 160.27 A 7.00 7.00 0 0 1 86.07 160.27 Z M 81.45 160.42 L 81.44 160.49 L 81.41 160.55 L 81.36 160.62 L 81.29 160.68 L 81.20 160.75 L 81.11 160.81 L 81.00 160.88 L 80.89 160.94 L 80.77 161.01 L 80.65 161.07 L 80.53 161.14 L 80.43 161.20 L 80.33 161.27 L 80.25 161.33 L 80.18 161.40 L 80.13 161.46 L 80.10 161.53 L 80.09 161.59 L 80.10 161.66 L 80.13 161.72 L 80.18 161.79 L 80.25 161.85 L 80.33 161.92 L 80.43 161.98 L 80.53 162.05 L 80.65 162.11 L 80.77 162.18 L 80.89 162.24 L 81.00 162.31 L 81.11 162.37 L 81.20 162.44 L 81.29 162.50 L 81.36 162.57 L 81.41 162.63 L 81.44 162.70 L 81.45 162.76 L 81.44 162.83 L 81.41 162.89 L 81.36 162.96 L 81.29 163.02 L 81.20 163.09 L 81.11 163.15 L 81.00 163.22 L 80.89 163.28 L 80.77 163.35 L 80.65 163.41 L 80.53 163.48 L 80.43 163.54 L 80.33 163.61 L 80.25 163.67 L 80.18 163.74 L 80.13 163.80 L 80.10 163.87 L 80.09 163.93 L 80.10 164.00 L 80.13 164.06 L 80.18 164.13 L 80.25 164.19 L 80.33 164.26 L 80.43 164.32 L 80.53 164.38 L 80.65 164.45 L 80.77 164.51 L 80.89 164.58 L 81.00 164.64 L 81.11 164.71 L 81.20 164.77 L 81.29 164.84 L 81.36 164.90 L 81.41 164.97 L 81.44 165.03 L 81.45 165.10 A 2.38 2.38 0 0 1 76.69 165.10 L 76.69 165.10 L 76.70 165.03 L 76.73 164.97 L 76.78 164.90 L 76.85 164.84 L 76.93 164.77 L 77.03 164.71 L 77.13 164.64 L 77.25 164.58 L 77.37 164.51 L 77.49 164.45 L 77.60 164.38 L 77.71 164.32 L 77.80 164.26 L 77.89 164.19 L 77.96 164.13 L 78.01 164.06 L 78.04 164.00 L 78.05 163.93 L 78.04 163.87 L 78.01 163.80 L 77.96 163.74 L 77.89 163.67 L 77.80 163.61 L 77.71 163.54 L 77.60 163.48 L 77.49 163.41 L 77.37 163.35 L 77.25 163.28 L 77.13 163.22 L 77.03 163.15 L 76.93 163.09 L 76.85 163.02 L 76.78 162.96 L 76.73 162.89 L 76.70 162.83 L 76.69 162.76 L 76.70 162.70 L 76.73 162.63 L 76.78 162.57 L 76.85 162.50 L 76.93 162.44 L 77.03 162.37 L 77.13 162.31 L 77.25 162.24 L 77.37 162.18 L 77.49 162.11 L 77.60 162.05 L 77.71 161.98 L 77.80 161.92 L 77.89 161.85 L 77.96 161.79 L 78.01 161.72 L 78.04 161.66 L 78.05 161.59 L 78.04 161.53 L 78.01 161.46 L 77.96 161.40 L 77.89 161.33 L 77.80 161.27 L 77.71 161.20 L 77.60 161.14 L 77.49 161.07 L 77.37 161.01 L 77.25 160.94 L 77.13 160.88 L 77.03 160.81 L 76.93 160.75 L 76.85 160.68 L 76.78 160.62 L 76.73 160.55 L 76.70 160.49 L 76.69 160.42 A 2.38 2.38 0 0 1 81.45 160.42 Z" fill="#1f7a44" fill-rule="evenodd"/></g><g transform="rotate(-213.7 62.5 148.7)"><path d="M 69.49 146.18 L 69.46 146.25 L 69.37 146.32 L 69.22 146.39 L 69.02 146.46 L 68.77 146.53 L 68.49 146.60 L 68.17 146.67 L 67.84 146.74 L 67.49 146.81 L 67.14 146.88 L 66.80 146.95 L 66.49 147.02 L 66.20 147.09 L 65.96 147.16 L 65.76 147.23 L 65.61 147.30 L 65.52 147.37 L 65.49 147.44 L 65.52 147.51 L 65.61 147.58 L 65.76 147.65 L 65.96 147.72 L 66.20 147.79 L 66.49 147.85 L 66.80 147.92 L 67.14 147.99 L 67.49 148.06 L 67.84 148.13 L 68.17 148.20 L 68.49 148.27 L 68.77 148.34 L 69.02 148.41 L 69.22 148.48 L 69.37 148.55 L 69.46 148.62 L 69.49 148.69 L 69.46 148.76 L 69.37 148.83 L 69.22 148.90 L 69.02 148.97 L 68.77 149.04 L 68.49 149.11 L 68.17 149.18 L 67.84 149.25 L 67.49 149.32 L 67.14 149.39 L 66.80 149.46 L 66.49 149.53 L 66.20 149.60 L 65.96 149.67 L 65.76 149.74 L 65.61 149.81 L 65.52 149.88 L 65.49 149.95 L 65.52 150.02 L 65.61 150.09 L 65.76 150.16 L 65.96 150.23 L 66.20 150.30 L 66.49 150.37 L 66.80 150.44 L 67.14 150.51 L 67.49 150.58 L 67.84 150.65 L 68.17 150.72 L 68.49 150.79 L 68.77 150.86 L 69.02 150.93 L 69.22 151.00 L 69.37 151.07 L 69.46 151.14 L 69.49 151.21 A 7.00 7.00 0 0 1 55.49 151.21 L 55.49 151.21 L 55.52 151.14 L 55.61 151.07 L 55.76 151.00 L 55.96 150.93 L 56.20 150.86 L 56.49 150.79 L 56.80 150.72 L 57.14 150.65 L 57.49 150.58 L 57.84 150.51 L 58.17 150.44 L 58.49 150.37 L 58.77 150.30 L 59.02 150.23 L 59.22 150.16 L 59.37 150.09 L 59.46 150.02 L 59.49 149.95 L 59.46 149.88 L 59.37 149.81 L 59.22 149.74 L 59.02 149.67 L 58.77 149.60 L 58.49 149.53 L 58.17 149.46 L 57.84 149.39 L 57.49 149.32 L 57.14 149.25 L 56.80 149.18 L 56.49 149.11 L 56.20 149.04 L 55.96 148.97 L 55.76 148.90 L 55.61 148.83 L 55.52 148.76 L 55.49 148.69 L 55.52 148.62 L 55.61 148.55 L 55.76 148.48 L 55.96 148.41 L 56.20 148.34 L 56.49 148.27 L 56.80 148.20 L 57.14 148.13 L 57.49 148.06 L 57.84 147.99 L 58.17 147.92 L 58.49 147.85 L 58.77 147.79 L 59.02 147.72 L 59.22 147.65 L 59.37 147.58 L 59.46 147.51 L 59.49 147.44 L 59.46 147.37 L 59.37 147.30 L 59.22 147.23 L 59.02 147.16 L 58.77 147.09 L 58.49 147.02 L 58.17 146.95 L 57.84 146.88 L 57.49 146.81 L 57.14 146.74 L 56.80 146.67 L 56.49 146.60 L 56.20 146.53 L 55.96 146.46 L 55.76 146.39 L 55.61 146.32 L 55.52 146.25 L 55.49 146.18 A 7.00 7.00 0 0 1 69.49 146.18 Z M 64.87 146.33 L 64.86 146.40 L 64.83 146.46 L 64.78 146.53 L 64.71 146.59 L 64.63 146.66 L 64.53 146.72 L 64.42 146.79 L 64.31 146.86 L 64.19 146.92 L 64.07 146.99 L 63.96 147.05 L 63.85 147.12 L 63.75 147.18 L 63.67 147.25 L 63.60 147.31 L 63.55 147.38 L 63.52 147.45 L 63.51 147.51 L 63.52 147.58 L 63.55 147.64 L 63.60 147.71 L 63.67 147.77 L 63.75 147.84 L 63.85 147.91 L 63.96 147.97 L 64.07 148.04 L 64.19 148.10 L 64.31 148.17 L 64.42 148.23 L 64.53 148.30 L 64.63 148.36 L 64.71 148.43 L 64.78 148.50 L 64.83 148.56 L 64.86 148.63 L 64.87 148.69 L 64.86 148.76 L 64.83 148.82 L 64.78 148.89 L 64.71 148.96 L 64.63 149.02 L 64.53 149.09 L 64.42 149.15 L 64.31 149.22 L 64.19 149.28 L 64.07 149.35 L 63.96 149.41 L 63.85 149.48 L 63.75 149.55 L 63.67 149.61 L 63.60 149.68 L 63.55 149.74 L 63.52 149.81 L 63.51 149.87 L 63.52 149.94 L 63.55 150.00 L 63.60 150.07 L 63.67 150.14 L 63.75 150.20 L 63.85 150.27 L 63.96 150.33 L 64.07 150.40 L 64.19 150.46 L 64.31 150.53 L 64.42 150.60 L 64.53 150.66 L 64.63 150.73 L 64.71 150.79 L 64.78 150.86 L 64.83 150.92 L 64.86 150.99 L 64.87 151.05 A 2.38 2.38 0 0 1 60.11 151.05 L 60.11 151.05 L 60.12 150.99 L 60.15 150.92 L 60.20 150.86 L 60.27 150.79 L 60.35 150.73 L 60.45 150.66 L 60.56 150.60 L 60.67 150.53 L 60.79 150.46 L 60.91 150.40 L 61.02 150.33 L 61.13 150.27 L 61.23 150.20 L 61.31 150.14 L 61.38 150.07 L 61.43 150.00 L 61.46 149.94 L 61.47 149.87 L 61.46 149.81 L 61.43 149.74 L 61.38 149.68 L 61.31 149.61 L 61.23 149.55 L 61.13 149.48 L 61.02 149.41 L 60.91 149.35 L 60.79 149.28 L 60.67 149.22 L 60.56 149.15 L 60.45 149.09 L 60.35 149.02 L 60.27 148.96 L 60.20 148.89 L 60.15 148.82 L 60.12 148.76 L 60.11 148.69 L 60.12 148.63 L 60.15 148.56 L 60.20 148.50 L 60.27 148.43 L 60.35 148.36 L 60.45 148.30 L 60.56 148.23 L 60.67 148.17 L 60.79 148.10 L 60.91 148.04 L 61.02 147.97 L 61.13 147.91 L 61.23 147.84 L 61.31 147.77 L 61.38 147.71 L 61.43 147.64 L 61.46 147.58 L 61.47 147.51 L 61.46 147.45 L 61.43 147.38 L 61.38 147.31 L 61.31 147.25 L 61.23 147.18 L 61.13 147.12 L 61.02 147.05 L 60.91 146.99 L 60.79 146.92 L 60.67 146.86 L 60.56 146.79 L 60.45 146.72 L 60.35 146.66 L 60.27 146.59 L 60.20 146.53 L 60.15 146.46 L 60.12 146.40 L 60.11 146.33 A 2.38 2.38 0 0 1 64.87 146.33 Z" fill="#1f7a44" fill-rule="evenodd"/></g><g transform="rotate(-180.0 56.2 128.0)"><path d="M 63.20 125.53 L 63.17 125.60 L 63.08 125.67 L 62.93 125.74 L 62.73 125.81 L 62.49 125.87 L 62.20 125.94 L 61.89 126.01 L 61.55 126.08 L 61.20 126.15 L 60.85 126.22 L 60.52 126.29 L 60.20 126.35 L 59.92 126.42 L 59.67 126.49 L 59.47 126.56 L 59.32 126.63 L 59.23 126.70 L 59.20 126.77 L 59.23 126.83 L 59.32 126.90 L 59.47 126.97 L 59.67 127.04 L 59.92 127.11 L 60.20 127.18 L 60.52 127.25 L 60.85 127.31 L 61.20 127.38 L 61.55 127.45 L 61.89 127.52 L 62.20 127.59 L 62.49 127.66 L 62.73 127.73 L 62.93 127.79 L 63.08 127.86 L 63.17 127.93 L 63.20 128.00 L 63.17 128.07 L 63.08 128.14 L 62.93 128.21 L 62.73 128.27 L 62.49 128.34 L 62.20 128.41 L 61.89 128.48 L 61.55 128.55 L 61.20 128.62 L 60.85 128.69 L 60.52 128.75 L 60.20 128.82 L 59.92 128.89 L 59.67 128.96 L 59.47 129.03 L 59.32 129.10 L 59.23 129.17 L 59.20 129.23 L 59.23 129.30 L 59.32 129.37 L 59.47 129.44 L 59.67 129.51 L 59.92 129.58 L 60.20 129.65 L 60.52 129.71 L 60.85 129.78 L 61.20 129.85 L 61.55 129.92 L 61.89 129.99 L 62.20 130.06 L 62.49 130.13 L 62.73 130.19 L 62.93 130.26 L 63.08 130.33 L 63.17 130.40 L 63.20 130.47 A 7.00 7.00 0 0 1 49.20 130.47 L 49.20 130.47 L 49.23 130.40 L 49.32 130.33 L 49.47 130.26 L 49.67 130.19 L 49.92 130.13 L 50.20 130.06 L 50.52 129.99 L 50.85 129.92 L 51.20 129.85 L 51.55 129.78 L 51.89 129.71 L 52.20 129.65 L 52.49 129.58 L 52.73 129.51 L 52.93 129.44 L 53.08 129.37 L 53.17 129.30 L 53.20 129.23 L 53.17 129.17 L 53.08 129.10 L 52.93 129.03 L 52.73 128.96 L 52.49 128.89 L 52.20 128.82 L 51.89 128.75 L 51.55 128.69 L 51.20 128.62 L 50.85 128.55 L 50.52 128.48 L 50.20 128.41 L 49.92 128.34 L 49.67 128.27 L 49.47 128.21 L 49.32 128.14 L 49.23 128.07 L 49.20 128.00 L 49.23 127.93 L 49.32 127.86 L 49.47 127.79 L 49.67 127.73 L 49.92 127.66 L 50.20 127.59 L 50.52 127.52 L 50.85 127.45 L 51.20 127.38 L 51.55 127.31 L 51.89 127.25 L 52.20 127.18 L 52.49 127.11 L 52.73 127.04 L 52.93 126.97 L 53.08 126.90 L 53.17 126.83 L 53.20 126.77 L 53.17 126.70 L 53.08 126.63 L 52.93 126.56 L 52.73 126.49 L 52.49 126.42 L 52.20 126.35 L 51.89 126.29 L 51.55 126.22 L 51.20 126.15 L 50.85 126.08 L 50.52 126.01 L 50.20 125.94 L 49.92 125.87 L 49.67 125.81 L 49.47 125.74 L 49.32 125.67 L 49.23 125.60 L 49.20 125.53 A 7.00 7.00 0 0 1 63.20 125.53 Z M 58.58 125.68 L 58.57 125.74 L 58.54 125.81 L 58.49 125.87 L 58.42 125.94 L 58.34 126.00 L 58.24 126.07 L 58.13 126.13 L 58.02 126.19 L 57.90 126.26 L 57.78 126.32 L 57.67 126.39 L 57.56 126.45 L 57.47 126.52 L 57.38 126.58 L 57.31 126.65 L 57.26 126.71 L 57.23 126.78 L 57.22 126.84 L 57.23 126.90 L 57.26 126.97 L 57.31 127.03 L 57.38 127.10 L 57.47 127.16 L 57.56 127.23 L 57.67 127.29 L 57.78 127.36 L 57.90 127.42 L 58.02 127.48 L 58.13 127.55 L 58.24 127.61 L 58.34 127.68 L 58.42 127.74 L 58.49 127.81 L 58.54 127.87 L 58.57 127.94 L 58.58 128.00 L 58.57 128.06 L 58.54 128.13 L 58.49 128.19 L 58.42 128.26 L 58.34 128.32 L 58.24 128.39 L 58.13 128.45 L 58.02 128.52 L 57.90 128.58 L 57.78 128.64 L 57.67 128.71 L 57.56 128.77 L 57.47 128.84 L 57.38 128.90 L 57.31 128.97 L 57.26 129.03 L 57.23 129.10 L 57.22 129.16 L 57.23 129.22 L 57.26 129.29 L 57.31 129.35 L 57.38 129.42 L 57.47 129.48 L 57.56 129.55 L 57.67 129.61 L 57.78 129.68 L 57.90 129.74 L 58.02 129.81 L 58.13 129.87 L 58.24 129.93 L 58.34 130.00 L 58.42 130.06 L 58.49 130.13 L 58.54 130.19 L 58.57 130.26 L 58.58 130.32 A 2.38 2.38 0 0 1 53.82 130.32 L 53.82 130.32 L 53.83 130.26 L 53.86 130.19 L 53.91 130.13 L 53.98 130.06 L 54.07 130.00 L 54.16 129.93 L 54.27 129.87 L 54.38 129.81 L 54.50 129.74 L 54.62 129.68 L 54.73 129.61 L 54.84 129.55 L 54.94 129.48 L 55.02 129.42 L 55.09 129.35 L 55.14 129.29 L 55.17 129.22 L 55.18 129.16 L 55.17 129.10 L 55.14 129.03 L 55.09 128.97 L 55.02 128.90 L 54.94 128.84 L 54.84 128.77 L 54.73 128.71 L 54.62 128.64 L 54.50 128.58 L 54.38 128.52 L 54.27 128.45 L 54.16 128.39 L 54.07 128.32 L 53.98 128.26 L 53.91 128.19 L 53.86 128.13 L 53.83 128.06 L 53.82 128.00 L 53.83 127.94 L 53.86 127.87 L 53.91 127.81 L 53.98 127.74 L 54.07 127.68 L 54.16 127.61 L 54.27 127.55 L 54.38 127.48 L 54.50 127.42 L 54.62 127.36 L 54.73 127.29 L 54.84 127.23 L 54.94 127.16 L 55.02 127.10 L 55.09 127.03 L 55.14 126.97 L 55.17 126.90 L 55.18 126.84 L 55.17 126.78 L 55.14 126.71 L 55.09 126.65 L 55.02 126.58 L 54.94 126.52 L 54.84 126.45 L 54.73 126.39 L 54.62 126.32 L 54.50 126.26 L 54.38 126.19 L 54.27 126.13 L 54.16 126.07 L 54.07 126.00 L 53.98 125.94 L 53.91 125.87 L 53.86 125.81 L 53.83 125.74 L 53.82 125.68 A 2.38 2.38 0 0 1 58.58 125.68 Z" fill="#1f7a44" fill-rule="evenodd"/></g><g transform="rotate(-146.3 62.5 107.3)"><path d="M 69.49 104.79 L 69.46 104.86 L 69.37 104.93 L 69.22 105.00 L 69.02 105.07 L 68.77 105.14 L 68.49 105.21 L 68.17 105.28 L 67.84 105.35 L 67.49 105.42 L 67.14 105.49 L 66.80 105.56 L 66.49 105.63 L 66.20 105.70 L 65.96 105.77 L 65.76 105.84 L 65.61 105.91 L 65.52 105.98 L 65.49 106.05 L 65.52 106.12 L 65.61 106.19 L 65.76 106.26 L 65.96 106.33 L 66.20 106.40 L 66.49 106.47 L 66.80 106.54 L 67.14 106.61 L 67.49 106.68 L 67.84 106.75 L 68.17 106.82 L 68.49 106.89 L 68.77 106.96 L 69.02 107.03 L 69.22 107.10 L 69.37 107.17 L 69.46 107.24 L 69.49 107.31 L 69.46 107.38 L 69.37 107.45 L 69.22 107.52 L 69.02 107.59 L 68.77 107.66 L 68.49 107.73 L 68.17 107.80 L 67.84 107.87 L 67.49 107.94 L 67.14 108.01 L 66.80 108.08 L 66.49 108.15 L 66.20 108.21 L 65.96 108.28 L 65.76 108.35 L 65.61 108.42 L 65.52 108.49 L 65.49 108.56 L 65.52 108.63 L 65.61 108.70 L 65.76 108.77 L 65.96 108.84 L 66.20 108.91 L 66.49 108.98 L 66.80 109.05 L 67.14 109.12 L 67.49 109.19 L 67.84 109.26 L 68.17 109.33 L 68.49 109.40 L 68.77 109.47 L 69.02 109.54 L 69.22 109.61 L 69.37 109.68 L 69.46 109.75 L 69.49 109.82 A 7.00 7.00 0 0 1 55.49 109.82 L 55.49 109.82 L 55.52 109.75 L 55.61 109.68 L 55.76 109.61 L 55.96 109.54 L 56.20 109.47 L 56.49 109.40 L 56.80 109.33 L 57.14 109.26 L 57.49 109.19 L 57.84 109.12 L 58.17 109.05 L 58.49 108.98 L 58.77 108.91 L 59.02 108.84 L 59.22 108.77 L 59.37 108.70 L 59.46 108.63 L 59.49 108.56 L 59.46 108.49 L 59.37 108.42 L 59.22 108.35 L 59.02 108.28 L 58.77 108.21 L 58.49 108.15 L 58.17 108.08 L 57.84 108.01 L 57.49 107.94 L 57.14 107.87 L 56.80 107.80 L 56.49 107.73 L 56.20 107.66 L 55.96 107.59 L 55.76 107.52 L 55.61 107.45 L 55.52 107.38 L 55.49 107.31 L 55.52 107.24 L 55.61 107.17 L 55.76 107.10 L 55.96 107.03 L 56.20 106.96 L 56.49 106.89 L 56.80 106.82 L 57.14 106.75 L 57.49 106.68 L 57.84 106.61 L 58.17 106.54 L 58.49 106.47 L 58.77 106.40 L 59.02 106.33 L 59.22 106.26 L 59.37 106.19 L 59.46 106.12 L 59.49 106.05 L 59.46 105.98 L 59.37 105.91 L 59.22 105.84 L 59.02 105.77 L 58.77 105.70 L 58.49 105.63 L 58.17 105.56 L 57.84 105.49 L 57.49 105.42 L 57.14 105.35 L 56.80 105.28 L 56.49 105.21 L 56.20 105.14 L 55.96 105.07 L 55.76 105.00 L 55.61 104.93 L 55.52 104.86 L 55.49 104.79 A 7.00 7.00 0 0 1 69.49 104.79 Z M 64.87 104.95 L 64.86 105.01 L 64.83 105.08 L 64.78 105.14 L 64.71 105.21 L 64.63 105.27 L 64.53 105.34 L 64.42 105.40 L 64.31 105.47 L 64.19 105.54 L 64.07 105.60 L 63.96 105.67 L 63.85 105.73 L 63.75 105.80 L 63.67 105.86 L 63.60 105.93 L 63.55 106.00 L 63.52 106.06 L 63.51 106.13 L 63.52 106.19 L 63.55 106.26 L 63.60 106.32 L 63.67 106.39 L 63.75 106.45 L 63.85 106.52 L 63.96 106.59 L 64.07 106.65 L 64.19 106.72 L 64.31 106.78 L 64.42 106.85 L 64.53 106.91 L 64.63 106.98 L 64.71 107.04 L 64.78 107.11 L 64.83 107.18 L 64.86 107.24 L 64.87 107.31 L 64.86 107.37 L 64.83 107.44 L 64.78 107.50 L 64.71 107.57 L 64.63 107.64 L 64.53 107.70 L 64.42 107.77 L 64.31 107.83 L 64.19 107.90 L 64.07 107.96 L 63.96 108.03 L 63.85 108.09 L 63.75 108.16 L 63.67 108.23 L 63.60 108.29 L 63.55 108.36 L 63.52 108.42 L 63.51 108.49 L 63.52 108.55 L 63.55 108.62 L 63.60 108.69 L 63.67 108.75 L 63.75 108.82 L 63.85 108.88 L 63.96 108.95 L 64.07 109.01 L 64.19 109.08 L 64.31 109.14 L 64.42 109.21 L 64.53 109.28 L 64.63 109.34 L 64.71 109.41 L 64.78 109.47 L 64.83 109.54 L 64.86 109.60 L 64.87 109.67 A 2.38 2.38 0 0 1 60.11 109.67 L 60.11 109.67 L 60.12 109.60 L 60.15 109.54 L 60.20 109.47 L 60.27 109.41 L 60.35 109.34 L 60.45 109.28 L 60.56 109.21 L 60.67 109.14 L 60.79 109.08 L 60.91 109.01 L 61.02 108.95 L 61.13 108.88 L 61.23 108.82 L 61.31 108.75 L 61.38 108.69 L 61.43 108.62 L 61.46 108.55 L 61.47 108.49 L 61.46 108.42 L 61.43 108.36 L 61.38 108.29 L 61.31 108.23 L 61.23 108.16 L 61.13 108.09 L 61.02 108.03 L 60.91 107.96 L 60.79 107.90 L 60.67 107.83 L 60.56 107.77 L 60.45 107.70 L 60.35 107.64 L 60.27 107.57 L 60.20 107.50 L 60.15 107.44 L 60.12 107.37 L 60.11 107.31 L 60.12 107.24 L 60.15 107.18 L 60.20 107.11 L 60.27 107.04 L 60.35 106.98 L 60.45 106.91 L 60.56 106.85 L 60.67 106.78 L 60.79 106.72 L 60.91 106.65 L 61.02 106.59 L 61.13 106.52 L 61.23 106.45 L 61.31 106.39 L 61.38 106.32 L 61.43 106.26 L 61.46 106.19 L 61.47 106.13 L 61.46 106.06 L 61.43 106.00 L 61.38 105.93 L 61.31 105.86 L 61.23 105.80 L 61.13 105.73 L 61.02 105.67 L 60.91 105.60 L 60.79 105.54 L 60.67 105.47 L 60.56 105.40 L 60.45 105.34 L 60.35 105.27 L 60.27 105.21 L 60.20 105.14 L 60.15 105.08 L 60.12 105.01 L 60.11 104.95 A 2.38 2.38 0 0 1 64.87 104.95 Z" fill="#1f7a44" fill-rule="evenodd"/></g><g transform="rotate(-114.3 79.1 93.2)"><path d="M 86.07 90.75 L 86.04 90.82 L 85.95 90.89 L 85.80 90.96 L 85.60 91.03 L 85.35 91.10 L 85.07 91.17 L 84.75 91.24 L 84.41 91.30 L 84.07 91.37 L 83.72 91.44 L 83.38 91.51 L 83.07 91.58 L 82.78 91.65 L 82.54 91.72 L 82.34 91.79 L 82.19 91.86 L 82.10 91.93 L 82.07 92.00 L 82.10 92.06 L 82.19 92.13 L 82.34 92.20 L 82.54 92.27 L 82.78 92.34 L 83.07 92.41 L 83.38 92.48 L 83.72 92.55 L 84.07 92.62 L 84.41 92.69 L 84.75 92.75 L 85.07 92.82 L 85.35 92.89 L 85.60 92.96 L 85.80 93.03 L 85.95 93.10 L 86.04 93.17 L 86.07 93.24 L 86.04 93.31 L 85.95 93.38 L 85.80 93.45 L 85.60 93.51 L 85.35 93.58 L 85.07 93.65 L 84.75 93.72 L 84.41 93.79 L 84.07 93.86 L 83.72 93.93 L 83.38 94.00 L 83.07 94.07 L 82.78 94.14 L 82.54 94.21 L 82.34 94.27 L 82.19 94.34 L 82.10 94.41 L 82.07 94.48 L 82.10 94.55 L 82.19 94.62 L 82.34 94.69 L 82.54 94.76 L 82.78 94.83 L 83.07 94.90 L 83.38 94.97 L 83.72 95.03 L 84.07 95.10 L 84.41 95.17 L 84.75 95.24 L 85.07 95.31 L 85.35 95.38 L 85.60 95.45 L 85.80 95.52 L 85.95 95.59 L 86.04 95.66 L 86.07 95.73 A 7.00 7.00 0 0 1 72.07 95.73 L 72.07 95.73 L 72.10 95.66 L 72.19 95.59 L 72.34 95.52 L 72.54 95.45 L 72.78 95.38 L 73.07 95.31 L 73.38 95.24 L 73.72 95.17 L 74.07 95.10 L 74.41 95.03 L 74.75 94.97 L 75.07 94.90 L 75.35 94.83 L 75.60 94.76 L 75.80 94.69 L 75.95 94.62 L 76.04 94.55 L 76.07 94.48 L 76.04 94.41 L 75.95 94.34 L 75.80 94.27 L 75.60 94.21 L 75.35 94.14 L 75.07 94.07 L 74.75 94.00 L 74.41 93.93 L 74.07 93.86 L 73.72 93.79 L 73.38 93.72 L 73.07 93.65 L 72.78 93.58 L 72.54 93.51 L 72.34 93.45 L 72.19 93.38 L 72.10 93.31 L 72.07 93.24 L 72.10 93.17 L 72.19 93.10 L 72.34 93.03 L 72.54 92.96 L 72.78 92.89 L 73.07 92.82 L 73.38 92.75 L 73.72 92.69 L 74.07 92.62 L 74.41 92.55 L 74.75 92.48 L 75.07 92.41 L 75.35 92.34 L 75.60 92.27 L 75.80 92.20 L 75.95 92.13 L 76.04 92.06 L 76.07 92.00 L 76.04 91.93 L 75.95 91.86 L 75.80 91.79 L 75.60 91.72 L 75.35 91.65 L 75.07 91.58 L 74.75 91.51 L 74.41 91.44 L 74.07 91.37 L 73.72 91.30 L 73.38 91.24 L 73.07 91.17 L 72.78 91.10 L 72.54 91.03 L 72.34 90.96 L 72.19 90.89 L 72.10 90.82 L 72.07 90.75 A 7.00 7.00 0 0 1 86.07 90.75 Z M 81.45 90.90 L 81.44 90.97 L 81.41 91.03 L 81.36 91.10 L 81.29 91.16 L 81.20 91.23 L 81.11 91.29 L 81.00 91.36 L 80.89 91.42 L 80.77 91.49 L 80.65 91.55 L 80.53 91.62 L 80.43 91.68 L 80.33 91.74 L 80.25 91.81 L 80.18 91.87 L 80.13 91.94 L 80.10 92.00 L 80.09 92.07 L 80.10 92.13 L 80.13 92.20 L 80.18 92.26 L 80.25 92.33 L 80.33 92.39 L 80.43 92.46 L 80.53 92.52 L 80.65 92.59 L 80.77 92.65 L 80.89 92.72 L 81.00 92.78 L 81.11 92.85 L 81.20 92.91 L 81.29 92.98 L 81.36 93.04 L 81.41 93.11 L 81.44 93.17 L 81.45 93.24 L 81.44 93.30 L 81.41 93.37 L 81.36 93.43 L 81.29 93.50 L 81.20 93.56 L 81.11 93.63 L 81.00 93.69 L 80.89 93.76 L 80.77 93.82 L 80.65 93.89 L 80.53 93.95 L 80.43 94.02 L 80.33 94.08 L 80.25 94.15 L 80.18 94.21 L 80.13 94.28 L 80.10 94.34 L 80.09 94.41 L 80.10 94.47 L 80.13 94.54 L 80.18 94.60 L 80.25 94.67 L 80.33 94.73 L 80.43 94.80 L 80.53 94.86 L 80.65 94.93 L 80.77 94.99 L 80.89 95.06 L 81.00 95.12 L 81.11 95.19 L 81.20 95.25 L 81.29 95.32 L 81.36 95.38 L 81.41 95.45 L 81.44 95.51 L 81.45 95.58 A 2.38 2.38 0 0 1 76.69 95.58 L 76.69 95.58 L 76.70 95.51 L 76.73 95.45 L 76.78 95.38 L 76.85 95.32 L 76.93 95.25 L 77.03 95.19 L 77.13 95.12 L 77.25 95.06 L 77.37 94.99 L 77.49 94.93 L 77.60 94.86 L 77.71 94.80 L 77.80 94.73 L 77.89 94.67 L 77.96 94.60 L 78.01 94.54 L 78.04 94.47 L 78.05 94.41 L 78.04 94.34 L 78.01 94.28 L 77.96 94.21 L 77.89 94.15 L 77.80 94.08 L 77.71 94.02 L 77.60 93.95 L 77.49 93.89 L 77.37 93.82 L 77.25 93.76 L 77.13 93.69 L 77.03 93.63 L 76.93 93.56 L 76.85 93.50 L 76.78 93.43 L 76.73 93.37 L 76.70 93.30 L 76.69 93.24 L 76.70 93.17 L 76.73 93.11 L 76.78 93.04 L 76.85 92.98 L 76.93 92.91 L 77.03 92.85 L 77.13 92.78 L 77.25 92.72 L 77.37 92.65 L 77.49 92.59 L 77.60 92.52 L 77.71 92.46 L 77.80 92.39 L 77.89 92.33 L 77.96 92.26 L 78.01 92.20 L 78.04 92.13 L 78.05 92.07 L 78.04 92.00 L 78.01 91.94 L 77.96 91.87 L 77.89 91.81 L 77.80 91.74 L 77.71 91.68 L 77.60 91.62 L 77.49 91.55 L 77.37 91.49 L 77.25 91.42 L 77.13 91.36 L 77.03 91.29 L 76.93 91.23 L 76.85 91.16 L 76.78 91.10 L 76.73 91.03 L 76.70 90.97 L 76.69 90.90 A 2.38 2.38 0 0 1 81.45 90.90 Z" fill="#1f7a44" fill-rule="evenodd"/></g><g transform="rotate(-78.9 100.5 90.8)"><path d="M 107.48 88.26 L 107.45 88.33 L 107.36 88.40 L 107.21 88.47 L 107.01 88.54 L 106.77 88.61 L 106.48 88.68 L 106.17 88.75 L 105.83 88.82 L 105.48 88.89 L 105.13 88.96 L 104.80 89.03 L 104.48 89.10 L 104.20 89.17 L 103.95 89.24 L 103.75 89.31 L 103.60 89.38 L 103.51 89.45 L 103.48 89.52 L 103.51 89.59 L 103.60 89.66 L 103.75 89.73 L 103.95 89.80 L 104.20 89.87 L 104.48 89.94 L 104.80 90.01 L 105.13 90.08 L 105.48 90.15 L 105.83 90.22 L 106.17 90.29 L 106.48 90.36 L 106.77 90.43 L 107.01 90.50 L 107.21 90.57 L 107.36 90.64 L 107.45 90.71 L 107.48 90.78 L 107.45 90.85 L 107.36 90.92 L 107.21 90.99 L 107.01 91.06 L 106.77 91.13 L 106.48 91.20 L 106.17 91.27 L 105.83 91.34 L 105.48 91.41 L 105.13 91.48 L 104.80 91.55 L 104.48 91.62 L 104.20 91.69 L 103.95 91.76 L 103.75 91.83 L 103.60 91.90 L 103.51 91.97 L 103.48 92.04 L 103.51 92.11 L 103.60 92.18 L 103.75 92.25 L 103.95 92.32 L 104.20 92.39 L 104.48 92.46 L 104.80 92.53 L 105.13 92.60 L 105.48 92.67 L 105.83 92.74 L 106.17 92.81 L 106.48 92.88 L 106.77 92.95 L 107.01 93.02 L 107.21 93.09 L 107.36 93.16 L 107.45 93.23 L 107.48 93.30 A 7.00 7.00 0 0 1 93.48 93.30 L 93.48 93.30 L 93.51 93.23 L 93.60 93.16 L 93.75 93.09 L 93.95 93.02 L 94.20 92.95 L 94.48 92.88 L 94.80 92.81 L 95.13 92.74 L 95.48 92.67 L 95.83 92.60 L 96.17 92.53 L 96.48 92.46 L 96.77 92.39 L 97.01 92.32 L 97.21 92.25 L 97.36 92.18 L 97.45 92.11 L 97.48 92.04 L 97.45 91.97 L 97.36 91.90 L 97.21 91.83 L 97.01 91.76 L 96.77 91.69 L 96.48 91.62 L 96.17 91.55 L 95.83 91.48 L 95.48 91.41 L 95.13 91.34 L 94.80 91.27 L 94.48 91.20 L 94.20 91.13 L 93.95 91.06 L 93.75 90.99 L 93.60 90.92 L 93.51 90.85 L 93.48 90.78 L 93.51 90.71 L 93.60 90.64 L 93.75 90.57 L 93.95 90.50 L 94.20 90.43 L 94.48 90.36 L 94.80 90.29 L 95.13 90.22 L 95.48 90.15 L 95.83 90.08 L 96.17 90.01 L 96.48 89.94 L 96.77 89.87 L 97.01 89.80 L 97.21 89.73 L 97.36 89.66 L 97.45 89.59 L 97.48 89.52 L 97.45 89.45 L 97.36 89.38 L 97.21 89.31 L 97.01 89.24 L 96.77 89.17 L 96.48 89.10 L 96.17 89.03 L 95.83 88.96 L 95.48 88.89 L 95.13 88.82 L 94.80 88.75 L 94.48 88.68 L 94.20 88.61 L 93.95 88.54 L 93.75 88.47 L 93.60 88.40 L 93.51 88.33 L 93.48 88.26 A 7.00 7.00 0 0 1 107.48 88.26 Z M 102.86 88.41 L 102.85 88.48 L 102.82 88.54 L 102.77 88.61 L 102.70 88.67 L 102.62 88.74 L 102.52 88.81 L 102.41 88.87 L 102.30 88.94 L 102.18 89.00 L 102.06 89.07 L 101.95 89.14 L 101.84 89.20 L 101.75 89.27 L 101.66 89.33 L 101.59 89.40 L 101.54 89.46 L 101.51 89.53 L 101.50 89.60 L 101.51 89.66 L 101.54 89.73 L 101.59 89.79 L 101.66 89.86 L 101.75 89.93 L 101.84 89.99 L 101.95 90.06 L 102.06 90.12 L 102.18 90.19 L 102.30 90.25 L 102.41 90.32 L 102.52 90.39 L 102.62 90.45 L 102.70 90.52 L 102.77 90.58 L 102.82 90.65 L 102.85 90.72 L 102.86 90.78 L 102.85 90.85 L 102.82 90.91 L 102.77 90.98 L 102.70 91.04 L 102.62 91.11 L 102.52 91.18 L 102.41 91.24 L 102.30 91.31 L 102.18 91.37 L 102.06 91.44 L 101.95 91.51 L 101.84 91.57 L 101.75 91.64 L 101.66 91.70 L 101.59 91.77 L 101.54 91.84 L 101.51 91.90 L 101.50 91.97 L 101.51 92.03 L 101.54 92.10 L 101.59 92.16 L 101.66 92.23 L 101.75 92.30 L 101.84 92.36 L 101.95 92.43 L 102.06 92.49 L 102.18 92.56 L 102.30 92.63 L 102.41 92.69 L 102.52 92.76 L 102.62 92.82 L 102.70 92.89 L 102.77 92.95 L 102.82 93.02 L 102.85 93.09 L 102.86 93.15 A 2.38 2.38 0 0 1 98.10 93.15 L 98.10 93.15 L 98.11 93.09 L 98.14 93.02 L 98.19 92.95 L 98.26 92.89 L 98.35 92.82 L 98.44 92.76 L 98.55 92.69 L 98.66 92.63 L 98.78 92.56 L 98.90 92.49 L 99.01 92.43 L 99.12 92.36 L 99.22 92.30 L 99.30 92.23 L 99.37 92.16 L 99.42 92.10 L 99.45 92.03 L 99.46 91.97 L 99.45 91.90 L 99.42 91.84 L 99.37 91.77 L 99.30 91.70 L 99.22 91.64 L 99.12 91.57 L 99.01 91.51 L 98.90 91.44 L 98.78 91.37 L 98.66 91.31 L 98.55 91.24 L 98.44 91.18 L 98.35 91.11 L 98.26 91.04 L 98.19 90.98 L 98.14 90.91 L 98.11 90.85 L 98.10 90.78 L 98.11 90.72 L 98.14 90.65 L 98.19 90.58 L 98.26 90.52 L 98.35 90.45 L 98.44 90.39 L 98.55 90.32 L 98.66 90.25 L 98.78 90.19 L 98.90 90.12 L 99.01 90.06 L 99.12 89.99 L 99.22 89.93 L 99.30 89.86 L 99.37 89.79 L 99.42 89.73 L 99.45 89.66 L 99.46 89.60 L 99.45 89.53 L 99.42 89.46 L 99.37 89.40 L 99.30 89.33 L 99.22 89.27 L 99.12 89.20 L 99.01 89.14 L 98.90 89.07 L 98.78 89.00 L 98.66 88.94 L 98.55 88.87 L 98.44 88.81 L 98.35 88.74 L 98.26 88.67 L 98.19 88.61 L 98.14 88.54 L 98.11 88.48 L 98.10 88.41 A 2.38 2.38 0 0 1 102.86 88.41 Z" fill="#1f7a44" fill-rule="evenodd"/></g><g transform="rotate(-48.6 120.1 100.5)"><path d="M 127.12 97.95 L 127.09 98.02 L 127.00 98.09 L 126.85 98.16 L 126.65 98.23 L 126.41 98.30 L 126.12 98.37 L 125.81 98.44 L 125.47 98.51 L 125.12 98.58 L 124.78 98.65 L 124.44 98.72 L 124.12 98.79 L 123.84 98.86 L 123.59 98.93 L 123.39 99.00 L 123.24 99.08 L 123.15 99.15 L 123.12 99.22 L 123.15 99.29 L 123.24 99.36 L 123.39 99.43 L 123.59 99.50 L 123.84 99.57 L 124.12 99.64 L 124.44 99.71 L 124.78 99.78 L 125.12 99.85 L 125.47 99.92 L 125.81 99.99 L 126.12 100.06 L 126.41 100.13 L 126.65 100.20 L 126.85 100.27 L 127.00 100.35 L 127.09 100.42 L 127.12 100.49 L 127.09 100.56 L 127.00 100.63 L 126.85 100.70 L 126.65 100.77 L 126.41 100.84 L 126.12 100.91 L 125.81 100.98 L 125.47 101.05 L 125.12 101.12 L 124.78 101.19 L 124.44 101.26 L 124.12 101.33 L 123.84 101.40 L 123.59 101.47 L 123.39 101.55 L 123.24 101.62 L 123.15 101.69 L 123.12 101.76 L 123.15 101.83 L 123.24 101.90 L 123.39 101.97 L 123.59 102.04 L 123.84 102.11 L 124.12 102.18 L 124.44 102.25 L 124.78 102.32 L 125.12 102.39 L 125.47 102.46 L 125.81 102.53 L 126.12 102.60 L 126.41 102.67 L 126.65 102.75 L 126.85 102.82 L 127.00 102.89 L 127.09 102.96 L 127.12 103.03 A 7.00 7.00 0 0 1 113.12 103.03 L 113.12 103.03 L 113.15 102.96 L 113.24 102.89 L 113.39 102.82 L 113.59 102.75 L 113.84 102.67 L 114.12 102.60 L 114.44 102.53 L 114.78 102.46 L 115.12 102.39 L 115.47 102.32 L 115.81 102.25 L 116.12 102.18 L 116.41 102.11 L 116.65 102.04 L 116.85 101.97 L 117.00 101.90 L 117.09 101.83 L 117.12 101.76 L 117.09 101.69 L 117.00 101.62 L 116.85 101.55 L 116.65 101.47 L 116.41 101.40 L 116.12 101.33 L 115.81 101.26 L 115.47 101.19 L 115.12 101.12 L 114.78 101.05 L 114.44 100.98 L 114.12 100.91 L 113.84 100.84 L 113.59 100.77 L 113.39 100.70 L 113.24 100.63 L 113.15 100.56 L 113.12 100.49 L 113.15 100.42 L 113.24 100.35 L 113.39 100.27 L 113.59 100.20 L 113.84 100.13 L 114.12 100.06 L 114.44 99.99 L 114.78 99.92 L 115.12 99.85 L 115.47 99.78 L 115.81 99.71 L 116.12 99.64 L 116.41 99.57 L 116.65 99.50 L 116.85 99.43 L 117.00 99.36 L 117.09 99.29 L 117.12 99.22 L 117.09 99.15 L 117.00 99.08 L 116.85 99.00 L 116.65 98.93 L 116.41 98.86 L 116.12 98.79 L 115.81 98.72 L 115.47 98.65 L 115.12 98.58 L 114.78 98.51 L 114.44 98.44 L 114.12 98.37 L 113.84 98.30 L 113.59 98.23 L 113.39 98.16 L 113.24 98.09 L 113.15 98.02 L 113.12 97.95 A 7.00 7.00 0 0 1 127.12 97.95 Z M 122.50 98.10 L 122.49 98.16 L 122.46 98.23 L 122.41 98.30 L 122.34 98.36 L 122.26 98.43 L 122.16 98.50 L 122.06 98.56 L 121.94 98.63 L 121.82 98.70 L 121.70 98.76 L 121.59 98.83 L 121.48 98.89 L 121.39 98.96 L 121.30 99.03 L 121.23 99.09 L 121.18 99.16 L 121.15 99.23 L 121.14 99.29 L 121.15 99.36 L 121.18 99.43 L 121.23 99.49 L 121.30 99.56 L 121.39 99.62 L 121.48 99.69 L 121.59 99.76 L 121.70 99.82 L 121.82 99.89 L 121.94 99.96 L 122.06 100.02 L 122.16 100.09 L 122.26 100.15 L 122.34 100.22 L 122.41 100.29 L 122.46 100.35 L 122.49 100.42 L 122.50 100.49 L 122.49 100.55 L 122.46 100.62 L 122.41 100.69 L 122.34 100.75 L 122.26 100.82 L 122.16 100.88 L 122.06 100.95 L 121.94 101.02 L 121.82 101.08 L 121.70 101.15 L 121.59 101.22 L 121.48 101.28 L 121.39 101.35 L 121.30 101.42 L 121.23 101.48 L 121.18 101.55 L 121.15 101.61 L 121.14 101.68 L 121.15 101.75 L 121.18 101.81 L 121.23 101.88 L 121.30 101.95 L 121.39 102.01 L 121.48 102.08 L 121.59 102.15 L 121.70 102.21 L 121.82 102.28 L 121.94 102.34 L 122.06 102.41 L 122.16 102.48 L 122.26 102.54 L 122.34 102.61 L 122.41 102.68 L 122.46 102.74 L 122.49 102.81 L 122.50 102.88 A 2.38 2.38 0 0 1 117.74 102.88 L 117.74 102.88 L 117.75 102.81 L 117.78 102.74 L 117.83 102.68 L 117.90 102.61 L 117.99 102.54 L 118.08 102.48 L 118.19 102.41 L 118.30 102.34 L 118.42 102.28 L 118.54 102.21 L 118.66 102.15 L 118.76 102.08 L 118.86 102.01 L 118.94 101.95 L 119.01 101.88 L 119.06 101.81 L 119.09 101.75 L 119.10 101.68 L 119.09 101.61 L 119.06 101.55 L 119.01 101.48 L 118.94 101.42 L 118.86 101.35 L 118.76 101.28 L 118.66 101.22 L 118.54 101.15 L 118.42 101.08 L 118.30 101.02 L 118.19 100.95 L 118.08 100.88 L 117.99 100.82 L 117.90 100.75 L 117.83 100.69 L 117.78 100.62 L 117.75 100.55 L 117.74 100.49 L 117.75 100.42 L 117.78 100.35 L 117.83 100.29 L 117.90 100.22 L 117.99 100.15 L 118.08 100.09 L 118.19 100.02 L 118.30 99.96 L 118.42 99.89 L 118.54 99.82 L 118.66 99.76 L 118.76 99.69 L 118.86 99.62 L 118.94 99.56 L 119.01 99.49 L 119.06 99.43 L 119.09 99.36 L 119.10 99.29 L 119.09 99.23 L 119.06 99.16 L 119.01 99.09 L 118.94 99.03 L 118.86 98.96 L 118.76 98.89 L 118.66 98.83 L 118.54 98.76 L 118.42 98.70 L 118.30 98.63 L 118.19 98.56 L 118.08 98.50 L 117.99 98.43 L 117.90 98.36 L 117.83 98.30 L 117.78 98.23 L 117.75 98.16 L 117.74 98.10 A 2.38 2.38 0 0 1 122.50 98.10 Z" fill="#1f7a44" fill-rule="evenodd"/></g><g transform="rotate(-120.0 111.0 118.0)"><path d="M 119.40 107.40 L 119.36 107.69 L 119.26 107.99 L 119.08 108.28 L 118.84 108.58 L 118.54 108.87 L 118.20 109.17 L 117.82 109.46 L 117.42 109.76 L 117.00 110.05 L 116.58 110.34 L 116.18 110.64 L 115.80 110.93 L 115.46 111.23 L 115.16 111.52 L 114.92 111.82 L 114.74 112.11 L 114.64 112.41 L 114.60 112.70 L 114.64 112.99 L 114.74 113.29 L 114.92 113.58 L 115.16 113.88 L 115.46 114.17 L 115.80 114.47 L 116.18 114.76 L 116.58 115.06 L 117.00 115.35 L 117.42 115.64 L 117.82 115.94 L 118.20 116.23 L 118.54 116.53 L 118.84 116.82 L 119.08 117.12 L 119.26 117.41 L 119.36 117.71 L 119.40 118.00 L 119.36 118.29 L 119.26 118.59 L 119.08 118.88 L 118.84 119.18 L 118.54 119.47 L 118.20 119.77 L 117.82 120.06 L 117.42 120.36 L 117.00 120.65 L 116.58 120.94 L 116.18 121.24 L 115.80 121.53 L 115.46 121.83 L 115.16 122.12 L 114.92 122.42 L 114.74 122.71 L 114.64 123.01 L 114.60 123.30 L 114.64 123.59 L 114.74 123.89 L 114.92 124.18 L 115.16 124.48 L 115.46 124.77 L 115.80 125.07 L 116.18 125.36 L 116.58 125.66 L 117.00 125.95 L 117.42 126.24 L 117.82 126.54 L 118.20 126.83 L 118.54 127.13 L 118.84 127.42 L 119.08 127.72 L 119.26 128.01 L 119.36 128.31 L 119.40 128.60 A 8.40 8.40 0 0 1 102.60 128.60 L 102.60 128.60 L 102.64 128.31 L 102.74 128.01 L 102.92 127.72 L 103.16 127.42 L 103.46 127.13 L 103.80 126.83 L 104.18 126.54 L 104.58 126.24 L 105.00 125.95 L 105.42 125.66 L 105.82 125.36 L 106.20 125.07 L 106.54 124.77 L 106.84 124.48 L 107.08 124.18 L 107.26 123.89 L 107.36 123.59 L 107.40 123.30 L 107.36 123.01 L 107.26 122.71 L 107.08 122.42 L 106.84 122.12 L 106.54 121.83 L 106.20 121.53 L 105.82 121.24 L 105.42 120.94 L 105.00 120.65 L 104.58 120.36 L 104.18 120.06 L 103.80 119.77 L 103.46 119.47 L 103.16 119.18 L 102.92 118.88 L 102.74 118.59 L 102.64 118.29 L 102.60 118.00 L 102.64 117.71 L 102.74 117.41 L 102.92 117.12 L 103.16 116.82 L 103.46 116.53 L 103.80 116.23 L 104.18 115.94 L 104.58 115.64 L 105.00 115.35 L 105.42 115.06 L 105.82 114.76 L 106.20 114.47 L 106.54 114.17 L 106.84 113.88 L 107.08 113.58 L 107.26 113.29 L 107.36 112.99 L 107.40 112.70 L 107.36 112.41 L 107.26 112.11 L 107.08 111.82 L 106.84 111.52 L 106.54 111.23 L 106.20 110.93 L 105.82 110.64 L 105.42 110.34 L 105.00 110.05 L 104.58 109.76 L 104.18 109.46 L 103.80 109.17 L 103.46 108.87 L 103.16 108.58 L 102.92 108.28 L 102.74 107.99 L 102.64 107.69 L 102.60 107.40 A 8.40 8.40 0 0 1 119.40 107.40 Z M 113.86 108.04 L 113.84 108.31 L 113.81 108.59 L 113.75 108.87 L 113.67 109.14 L 113.56 109.42 L 113.45 109.70 L 113.32 109.97 L 113.18 110.25 L 113.04 110.53 L 112.90 110.80 L 112.76 111.08 L 112.63 111.36 L 112.52 111.63 L 112.41 111.91 L 112.33 112.19 L 112.27 112.46 L 112.24 112.74 L 112.22 113.02 L 112.24 113.29 L 112.27 113.57 L 112.33 113.85 L 112.41 114.13 L 112.52 114.40 L 112.63 114.68 L 112.76 114.96 L 112.90 115.23 L 113.04 115.51 L 113.18 115.79 L 113.32 116.06 L 113.45 116.34 L 113.56 116.62 L 113.67 116.89 L 113.75 117.17 L 113.81 117.45 L 113.84 117.72 L 113.86 118.00 L 113.84 118.28 L 113.81 118.55 L 113.75 118.83 L 113.67 119.11 L 113.56 119.38 L 113.45 119.66 L 113.32 119.94 L 113.18 120.21 L 113.04 120.49 L 112.90 120.77 L 112.76 121.04 L 112.63 121.32 L 112.52 121.60 L 112.41 121.87 L 112.33 122.15 L 112.27 122.43 L 112.24 122.71 L 112.22 122.98 L 112.24 123.26 L 112.27 123.54 L 112.33 123.81 L 112.41 124.09 L 112.52 124.37 L 112.63 124.64 L 112.76 124.92 L 112.90 125.20 L 113.04 125.47 L 113.18 125.75 L 113.32 126.03 L 113.45 126.30 L 113.56 126.58 L 113.67 126.86 L 113.75 127.13 L 113.81 127.41 L 113.84 127.69 L 113.86 127.96 A 2.86 2.86 0 0 1 108.14 127.96 L 108.14 127.96 L 108.16 127.69 L 108.19 127.41 L 108.25 127.13 L 108.33 126.86 L 108.44 126.58 L 108.55 126.30 L 108.68 126.03 L 108.82 125.75 L 108.96 125.47 L 109.10 125.20 L 109.24 124.92 L 109.37 124.64 L 109.48 124.37 L 109.59 124.09 L 109.67 123.81 L 109.73 123.54 L 109.76 123.26 L 109.78 122.98 L 109.76 122.71 L 109.73 122.43 L 109.67 122.15 L 109.59 121.87 L 109.48 121.60 L 109.37 121.32 L 109.24 121.04 L 109.10 120.77 L 108.96 120.49 L 108.82 120.21 L 108.68 119.94 L 108.55 119.66 L 108.44 119.38 L 108.33 119.11 L 108.25 118.83 L 108.19 118.55 L 108.16 118.28 L 108.14 118.00 L 108.16 117.72 L 108.19 117.45 L 108.25 117.17 L 108.33 116.89 L 108.44 116.62 L 108.55 116.34 L 108.68 116.06 L 108.82 115.79 L 108.96 115.51 L 109.10 115.23 L 109.24 114.96 L 109.37 114.68 L 109.48 114.40 L 109.59 114.13 L 109.67 113.85 L 109.73 113.57 L 109.76 113.29 L 109.78 113.02 L 109.76 112.74 L 109.73 112.46 L 109.67 112.19 L 109.59 111.91 L 109.48 111.63 L 109.37 111.36 L 109.24 111.08 L 109.10 110.80 L 108.96 110.53 L 108.82 110.25 L 108.68 109.97 L 108.55 109.70 L 108.44 109.42 L 108.33 109.14 L 108.25 108.87 L 108.19 108.59 L 108.16 108.31 L 108.14 108.04 A 2.86 2.86 0 0 1 113.86 108.04 Z" fill="#1f7a44" fill-rule="evenodd"/></g><g transform="rotate(-60.0 111.0 138.0)"><path d="M 119.40 127.40 L 119.36 127.69 L 119.26 127.99 L 119.08 128.28 L 118.84 128.58 L 118.54 128.87 L 118.20 129.17 L 117.82 129.46 L 117.42 129.76 L 117.00 130.05 L 116.58 130.34 L 116.18 130.64 L 115.80 130.93 L 115.46 131.23 L 115.16 131.52 L 114.92 131.82 L 114.74 132.11 L 114.64 132.41 L 114.60 132.70 L 114.64 132.99 L 114.74 133.29 L 114.92 133.58 L 115.16 133.88 L 115.46 134.17 L 115.80 134.47 L 116.18 134.76 L 116.58 135.06 L 117.00 135.35 L 117.42 135.64 L 117.82 135.94 L 118.20 136.23 L 118.54 136.53 L 118.84 136.82 L 119.08 137.12 L 119.26 137.41 L 119.36 137.71 L 119.40 138.00 L 119.36 138.29 L 119.26 138.59 L 119.08 138.88 L 118.84 139.18 L 118.54 139.47 L 118.20 139.77 L 117.82 140.06 L 117.42 140.36 L 117.00 140.65 L 116.58 140.94 L 116.18 141.24 L 115.80 141.53 L 115.46 141.83 L 115.16 142.12 L 114.92 142.42 L 114.74 142.71 L 114.64 143.01 L 114.60 143.30 L 114.64 143.59 L 114.74 143.89 L 114.92 144.18 L 115.16 144.48 L 115.46 144.77 L 115.80 145.07 L 116.18 145.36 L 116.58 145.66 L 117.00 145.95 L 117.42 146.24 L 117.82 146.54 L 118.20 146.83 L 118.54 147.13 L 118.84 147.42 L 119.08 147.72 L 119.26 148.01 L 119.36 148.31 L 119.40 148.60 A 8.40 8.40 0 0 1 102.60 148.60 L 102.60 148.60 L 102.64 148.31 L 102.74 148.01 L 102.92 147.72 L 103.16 147.42 L 103.46 147.13 L 103.80 146.83 L 104.18 146.54 L 104.58 146.24 L 105.00 145.95 L 105.42 145.66 L 105.82 145.36 L 106.20 145.07 L 106.54 144.77 L 106.84 144.48 L 107.08 144.18 L 107.26 143.89 L 107.36 143.59 L 107.40 143.30 L 107.36 143.01 L 107.26 142.71 L 107.08 142.42 L 106.84 142.12 L 106.54 141.83 L 106.20 141.53 L 105.82 141.24 L 105.42 140.94 L 105.00 140.65 L 104.58 140.36 L 104.18 140.06 L 103.80 139.77 L 103.46 139.47 L 103.16 139.18 L 102.92 138.88 L 102.74 138.59 L 102.64 138.29 L 102.60 138.00 L 102.64 137.71 L 102.74 137.41 L 102.92 137.12 L 103.16 136.82 L 103.46 136.53 L 103.80 136.23 L 104.18 135.94 L 104.58 135.64 L 105.00 135.35 L 105.42 135.06 L 105.82 134.76 L 106.20 134.47 L 106.54 134.17 L 106.84 133.88 L 107.08 133.58 L 107.26 133.29 L 107.36 132.99 L 107.40 132.70 L 107.36 132.41 L 107.26 132.11 L 107.08 131.82 L 106.84 131.52 L 106.54 131.23 L 106.20 130.93 L 105.82 130.64 L 105.42 130.34 L 105.00 130.05 L 104.58 129.76 L 104.18 129.46 L 103.80 129.17 L 103.46 128.87 L 103.16 128.58 L 102.92 128.28 L 102.74 127.99 L 102.64 127.69 L 102.60 127.40 A 8.40 8.40 0 0 1 119.40 127.40 Z M 113.86 128.04 L 113.84 128.31 L 113.81 128.59 L 113.75 128.87 L 113.67 129.14 L 113.56 129.42 L 113.45 129.70 L 113.32 129.97 L 113.18 130.25 L 113.04 130.53 L 112.90 130.80 L 112.76 131.08 L 112.63 131.36 L 112.52 131.63 L 112.41 131.91 L 112.33 132.19 L 112.27 132.46 L 112.24 132.74 L 112.22 133.02 L 112.24 133.29 L 112.27 133.57 L 112.33 133.85 L 112.41 134.13 L 112.52 134.40 L 112.63 134.68 L 112.76 134.96 L 112.90 135.23 L 113.04 135.51 L 113.18 135.79 L 113.32 136.06 L 113.45 136.34 L 113.56 136.62 L 113.67 136.89 L 113.75 137.17 L 113.81 137.45 L 113.84 137.72 L 113.86 138.00 L 113.84 138.28 L 113.81 138.55 L 113.75 138.83 L 113.67 139.11 L 113.56 139.38 L 113.45 139.66 L 113.32 139.94 L 113.18 140.21 L 113.04 140.49 L 112.90 140.77 L 112.76 141.04 L 112.63 141.32 L 112.52 141.60 L 112.41 141.87 L 112.33 142.15 L 112.27 142.43 L 112.24 142.71 L 112.22 142.98 L 112.24 143.26 L 112.27 143.54 L 112.33 143.81 L 112.41 144.09 L 112.52 144.37 L 112.63 144.64 L 112.76 144.92 L 112.90 145.20 L 113.04 145.47 L 113.18 145.75 L 113.32 146.03 L 113.45 146.30 L 113.56 146.58 L 113.67 146.86 L 113.75 147.13 L 113.81 147.41 L 113.84 147.69 L 113.86 147.96 A 2.86 2.86 0 0 1 108.14 147.96 L 108.14 147.96 L 108.16 147.69 L 108.19 147.41 L 108.25 147.13 L 108.33 146.86 L 108.44 146.58 L 108.55 146.30 L 108.68 146.03 L 108.82 145.75 L 108.96 145.47 L 109.10 145.20 L 109.24 144.92 L 109.37 144.64 L 109.48 144.37 L 109.59 144.09 L 109.67 143.81 L 109.73 143.54 L 109.76 143.26 L 109.78 142.98 L 109.76 142.71 L 109.73 142.43 L 109.67 142.15 L 109.59 141.87 L 109.48 141.60 L 109.37 141.32 L 109.24 141.04 L 109.10 140.77 L 108.96 140.49 L 108.82 140.21 L 108.68 139.94 L 108.55 139.66 L 108.44 139.38 L 108.33 139.11 L 108.25 138.83 L 108.19 138.55 L 108.16 138.28 L 108.14 138.00 L 108.16 137.72 L 108.19 137.45 L 108.25 137.17 L 108.33 136.89 L 108.44 136.62 L 108.55 136.34 L 108.68 136.06 L 108.82 135.79 L 108.96 135.51 L 109.10 135.23 L 109.24 134.96 L 109.37 134.68 L 109.48 134.40 L 109.59 134.13 L 109.67 133.85 L 109.73 133.57 L 109.76 133.29 L 109.78 133.02 L 109.76 132.74 L 109.73 132.46 L 109.67 132.19 L 109.59 131.91 L 109.48 131.63 L 109.37 131.36 L 109.24 131.08 L 109.10 130.80 L 108.96 130.53 L 108.82 130.25 L 108.68 129.97 L 108.55 129.70 L 108.44 129.42 L 108.33 129.14 L 108.25 128.87 L 108.19 128.59 L 108.16 128.31 L 108.14 128.04 A 2.86 2.86 0 0 1 113.86 128.04 Z" fill="#1f7a44" fill-rule="evenodd"/></g><circle cx="86" cy="112" r="5" fill="#1d9e75"/><line x1="138" y1="116" x2="156" y2="110" stroke="#e8821e" stroke-width="6" stroke-linecap="round"/><line x1="140" y1="128" x2="160" y2="128" stroke="#e8821e" stroke-width="6" stroke-linecap="round"/><line x1="138" y1="140" x2="156" y2="146" stroke="#e8821e" stroke-width="6" stroke-linecap="round"/></svg>